<?xml version="1.0" encoding="UTF-8"?> <svg xmlns="http://www.w3.org/2000/svg" xmlns:xlink="http://www.w3.org/1999/xlink" version="1.1" id="Layer_1" x="0px" y="0px" viewBox="0 0 600 367.14" style="enable-background:new 0 0 600 367.14;" xml:space="preserve"> <style type="text/css"> .st0{fill:#FFFFFF;} </style> <g id="America_Heroes_Channel_Logo_2_"> <path id="Text_1_" class="st0" d="M54.92,300.69h8.85l14.1,33.36h-9.84l-2.41-5.91H52.83l-2.37,5.91h-9.65L54.92,300.69z M62.96,320.98l-3.69-9.42l-3.74,9.42H62.96z M82.74,300.92h9.7l7.9,12.82l7.9-12.82h9.7v33.12h-9.13v-19.02l-8.47,12.96h-0.19 l-8.42-12.87v18.93h-8.99V300.92z M126.41,300.92h26.64v7.81h-17.55v5.02h15.9v7.24h-15.9v5.25h17.79v7.81h-26.87V300.92z M161.28,300.92h15.66c5.06,0,8.56,1.32,10.79,3.6c1.94,1.89,2.93,4.45,2.93,7.71v0.1c0,5.06-2.7,8.42-6.81,10.17l7.9,11.54h-10.6 l-6.67-10.03h-0.09h-3.93v10.03h-9.18V300.92z M176.52,316.82c3.12,0,4.92-1.51,4.92-3.93v-0.1c0-2.6-1.89-3.93-4.97-3.93h-6.01 v7.95H176.52z M198.57,300.92h9.23v33.12h-9.23V300.92z M214.84,317.58v-0.09c0-9.65,7.43-17.22,17.46-17.22 c6.77,0,11.12,2.84,14.05,6.91l-6.91,5.35c-1.89-2.37-4.07-3.88-7.24-3.88c-4.64,0-7.9,3.93-7.9,8.75v0.1 c0,4.97,3.26,8.85,7.9,8.85c3.45,0,5.49-1.61,7.48-4.02l6.91,4.92c-3.12,4.31-7.33,7.48-14.67,7.48 C222.46,334.71,214.84,327.47,214.84,317.58z M263.62,300.69h8.85l14.1,33.36h-9.84l-2.41-5.91h-12.77l-2.37,5.91h-9.65 L263.62,300.69z M271.67,320.98l-3.69-9.42l-3.74,9.42H271.67z M291.45,300.92h8.56l13.63,17.51v-17.51h9.08v33.12h-8.04 l-14.15-18.17v18.17h-9.08V300.92z M345.48,300.92h9.18v12.4h11.78v-12.4h9.18v33.12h-9.18v-12.59h-11.78v12.59h-9.18V300.92z M384.32,300.92h26.64v7.81h-17.55v5.02h15.9v7.24h-15.9v5.25h17.79v7.81h-26.87V300.92z M418.96,300.92h15.66 c5.06,0,8.56,1.32,10.79,3.6c1.94,1.89,2.93,4.45,2.93,7.71v0.1c0,5.06-2.7,8.42-6.81,10.17l7.9,11.54h-10.6l-6.67-10.03h-0.09 h-3.93v10.03h-9.18V300.92z M434.19,316.82c3.12,0,4.92-1.51,4.92-3.93v-0.1c0-2.6-1.89-3.93-4.97-3.93h-6.01v7.95H434.19z M454.21,317.58v-0.09c0-9.51,7.66-17.22,17.88-17.22c10.22,0,17.79,7.62,17.79,17.13v0.1c0,9.51-7.67,17.22-17.89,17.22 S454.21,327.09,454.21,317.58z M480.51,317.58v-0.09c0-4.78-3.45-8.94-8.52-8.94c-5.02,0-8.37,4.07-8.37,8.85v0.1 c0,4.78,3.45,8.94,8.47,8.94C477.15,326.43,480.51,322.36,480.51,317.58z M496.32,300.92h26.64v7.81H505.4v5.02h15.9v7.24h-15.9 v5.25h17.79v7.81h-26.87V300.92z M529.16,329.12l5.11-6.1c3.26,2.6,6.91,3.97,10.74,3.97c2.46,0,3.79-0.85,3.79-2.27v-0.09 c0-1.37-1.09-2.13-5.58-3.17c-7.05-1.61-12.49-3.6-12.49-10.41v-0.09c0-6.15,4.87-10.6,12.82-10.6c5.63,0,10.03,1.51,13.63,4.4 l-4.59,6.48c-3.03-2.13-6.34-3.27-9.27-3.27c-2.22,0-3.31,0.95-3.31,2.13v0.09c0,1.51,1.14,2.18,5.72,3.22 c7.62,1.66,12.35,4.12,12.35,10.31v0.09c0,6.77-5.35,10.79-13.39,10.79C538.81,334.61,533.22,332.77,529.16,329.12z M232.54,367.14 c-6.32,0-11.02-4.92-11.02-11.18c0-6.19,4.61-11.24,11.18-11.24c3.99,0,6.41,1.39,8.48,3.37l-2.45,2.82 c-1.73-1.61-3.59-2.69-6.07-2.69c-4.15,0-7.15,3.41-7.15,7.68c0,4.27,3,7.74,7.15,7.74c2.66,0,4.37-1.08,6.22-2.82l2.45,2.48 C239.08,365.65,236.6,367.14,232.54,367.14z M251.58,357.63v9.13h-3.81V345.1h3.81v9.01h10.34v-9.01h3.81v21.67h-3.81v-9.13H251.58 z M294.36,366.77h-4.02l-2.2-5.23h-10.25l-2.23,5.23h-3.9l9.54-21.83h3.53L294.36,366.77z M283,349.49l-3.71,8.67h7.46L283,349.49z M315.22,345.1h3.75v21.67h-3.19l-11.95-15.42v15.42h-3.75V345.1h3.53l11.61,14.98V345.1z M341.96,345.1h3.75v21.67h-3.19 l-11.95-15.42v15.42h-3.75V345.1h3.53l11.61,14.98V345.1z M369.05,348.5h-12.26v5.63h10.87v3.41h-10.87v5.82h12.41v3.41h-16.22 V345.1h16.07V348.5z M376.2,345.1H380v18.2h11.39v3.47h-15.2V345.1z"></path> <path id="Base_4_" class="st0" d="M600,276.77H0v-8.56h600V276.77z M306.5,163.79L306.5,163.79L306.5,163.79L306.5,163.79 l-92.02,35.41v37.78l92.02-35.19l91.92,35.19V199.2L306.5,163.79z"></path> <path id="AHC_2_" class="st0" d="M205.77,126.71l-33.46-79.97h-62.6l-79.6,190.24h67.46l9.72-25.37h66.11l9.98,25.37h22.4V126.71z M123.2,166.82l17.27-45.87l17.27,45.87H123.2z M473.64,240.77c-33.64-2.24-57.13-20.95-66.63-37.96V76.44 c18.27-20.31,45.21-32.69,75.8-32.69c41.61,0,69.71,20.26,85.65,49.17l-52.15,30.53c-7.02-13.51-17.02-22.97-34.31-22.97 c-21.34,0-35.4,18.64-35.4,41.34v0.54c0,24.59,14.59,41.88,35.4,41.88c17.83,0,27.83-9.73,35.67-23.78l52.15,29.45 c-15.94,28.1-42.42,51.07-89.43,51.07C477.9,241,473.64,240.77,473.64,240.77z M335.32,167.07v-45.92h-57.75v45.97l-63.14,24.18V0 h63.14v66.65h57.75V0h63.14v191.39L335.32,167.07z"></path> </g> </svg> 