<?xml version="1.0" encoding="UTF-8"?> <svg xmlns="http://www.w3.org/2000/svg" xmlns:xlink="http://www.w3.org/1999/xlink" version="1.1" x="0px" y="0px" viewBox="0 0 600 600" style="enable-background:new 0 0 600 600;" xml:space="preserve"> <style type="text/css"> .st0{display:none;} .st1{display:inline;fill:#1E1E1E;} .st2{fill-rule:evenodd;clip-rule:evenodd;fill:#FFFFFF;} .st3{fill:#FFFFFF;} </style> <g id="BACKGROUND" class="st0"> <rect x="-131.5" y="-131.5" class="st1" width="400" height="400"></rect> </g> <g id="LOGOS"> <g id="XMLID_1_"> <path class="st2" d="M593.5,238.2c34.1,162.1-69.6,321.2-231.7,355.3C199.7,627.6,40.6,523.9,6.5,361.8 C-27.6,199.7,76.1,40.6,238.2,6.5C400.3-27.6,559.4,76.1,593.5,238.2 M497.8,176.8c-11,0.8-21.4,4.9-31.5,9 c-6.5,2.6-16.4,6.1-18.1,13.9c-1.2,5.7,0.5,12.6,6.5,14.4c7.2,2.2,13.3-1.5,20.1-3.5c2.9-0.9,13.1-5.3,11.9,0.3 c-3.8,17.2-23.6,27.9-40.3,24.6c-2.7-0.5-5.3-1.4-7.8-2.7c-4.4-2.4-7.8-6-10.6-10.1c-5.6-8.3-9.4-19.5-8.2-31.9 c1.5-15.4,17.7-36.1,34.5-34.5c7.2,0.7,13.6,3.6,20.6,4.8c8.4,1.5,16.1-3.6,18.9-10.7c1.3-3.1,1.6-6.7,0.7-10.2 c-2.8-11-15.8-15.5-25.6-17.9c-5.5-1.4-11.4-2-17.1-1.5c-30.4,2.8-49.4,23.3-60.1,46.7c-1.5-5.2-5.4-12.7-11.6-13.3 c-7.9-0.8-16.5,3.8-17.2,12.2c-0.6,7,3.2,13.9,5.3,20.4c2.8,8.7,13,43.2,15.7,51.7c0.4,1.4-0.5,1.4-1,0.5 c-0.3-0.6-0.6-1.2-0.9-1.8c-0.9-1.8-1.8-3.7-2.7-5.5c-1.8-3.6-3.5-7.2-5.1-10.8c-2.2-4.9-4.4-9.8-6.7-14.7 c-2.8-5.9-5.6-11.8-8.4-17.7c-1.9-4.1-8.4-17.2-19.5-16.6c-6.6,0.4-16.9,4.8-20.9,9.7c-6,7.5-3.4,13.1-1,21.6 c4.6,16.2,12.9,59.7,14.6,68c1.4,6.8,5.5,12.4,12.5,12c15.4-0.9,14.7-13.4,12.2-23.7c-2.1-8.5-8.2-31.9-9.1-35.5 c-0.1-0.6-0.4-1.8,0.6-1.8c0.5,0,1.3,1.7,1.6,2.4c0.6,1.4,1.3,2.7,1.9,4.1c7.2,15.3,12,24.6,16.4,32c3.9,6.6,10.2,14.9,18.9,14.2 c5.9-0.5,13.1-4.2,17.7-7.7c6.5-5,7.2-9.7,6.4-17.5c0,0,3.7,2.2,4.5,2.8c16.3,10.8,33,10.4,40,10.4c7.6,0,47.7-4.2,60.6-45.2 C521.8,200.7,520.8,175.1,497.8,176.8 M309.1,198.3c6.9,9.7,15.1,53,17,65.5c1.3,8.2,2.1,19.1-9.9,18.2 c-10.7-0.8-11.5-12-13.9-19.9c-2.7,33.5-29.1,57.2-64.5,56.3c-11.6-0.3-21.4-3.6-29.6-8.8c-5.2,20.9-22.8,42.5-63.8,58.1 c-17.2,6.5-41.6,1.6-49.2-17c-3.8-9.3-5.5-17.4-8.4-27c-10.2-33.9-18.8-69.3-25.5-104.1c-3-15.5,1.6-25.6,14.9-33.5 c22.8-13.6,68.1-25.1,82.8,5.9c5.6,11.7,6.2,23.8,0.2,35.3c-3.3,6.3-10.1,14.1-11.2,14.1c10-2.2,22-2.2,32.3,1.4 c2.6-21.2,15-41.2,38.5-50.9c12.1-5,28.6-5.1,40.9-0.8c11.9,4.2,20.1,12.4,26.8,21.2C276.5,199.4,300.2,185.9,309.1,198.3 M102.6,243.3c4.5,3.7,13.1-1.4,17.2-4.3c6.3-4.4,9.9-11.7,10.8-18.1c1-7.2-2.2-14-9-17c-7.3-3.2-17.6-0.5-24.3,3.5 c-1.6,0.9-3.6,3.7-3,8C95.3,223.6,99.5,240.7,102.6,243.3 M144.7,330.8c12.6-6.7,30.5-20.6,20.2-46.5c-1.8-4.5-6.1-9.3-10.3-11.6 c-14.8-7.9-46.8-2.5-40.2,20.2c0.9,3,1.6,6.2,2.2,9.2c1.8,8.2,3.9,16.4,6.9,24.2C126.9,335.4,137.4,334.6,144.7,330.8 M253.6,289.1c33.7-15.5,23-69.3-16.2-67.9c-7.7,0.3-14.4,3.2-19.6,7.5c-7.3,6-11.5,15.3-11.2,26.5c0.4,12.1,6.7,23.8,13.4,29.7 C228.1,291.8,241.7,294.5,253.6,289.1 M281.2,181.1c19.8-0.2,35.7-16.4,35.5-36.2c-0.2-19.8-16.4-35.7-36.2-35.5 c-19.8,0.2-35.7,16.4-35.5,36.2C245.2,165.4,261.4,181.3,281.2,181.1"></path> <polygon id="XMLID_3_" class="st3" points="527.7,229.9 525.3,230.6 524.8,229.4 531.2,227.3 531.6,228.5 529.2,229.3 531.6,236.5 530,237 "></polygon> <path id="XMLID_2_" class="st3" d="M540.9,229.6c-0.4-1.1-0.9-2.4-1.3-3.5l0,0c0.1,1.1,0.1,2.4,0.1,3.5l0,4l-1.2,0.4l-2.3-3.2 c-0.7-1-1.4-2-1.9-3l0,0c0.3,1.1,0.7,2.5,1,3.6l0.9,3.4l-1.4,0.5l-2.2-8.6l2-0.7l2.2,3c0.6,0.9,1.2,1.8,1.7,2.7l0,0 c-0.1-1-0.1-2.1-0.1-3.2l0-3.7l2-0.7l3.3,8.2l-1.5,0.5L540.9,229.6z"></path> </g> </g> </svg> 