<?xml version="1.0" encoding="UTF-8"?> <svg xmlns="http://www.w3.org/2000/svg" xmlns:xlink="http://www.w3.org/1999/xlink" version="1.1" x="0px" y="0px" viewBox="0 0 600 412.7" style="enable-background:new 0 0 600 412.7;" xml:space="preserve"> <style type="text/css"> .st0{display:none;} .st1{display:inline;fill:#1E1E1E;} .st2{fill:#FFFFFF;} .st3{fill:none;} </style> <g id="BACKGROUND" class="st0"> <rect x="-129.8" y="-151.7" class="st1" width="400" height="400"></rect> </g> <g id="LOGOS"> <g> <path class="st2" d="M394.1,282.1l-8.9,5.6l0,13.2l6.4-3.9l2.8-1.9c3-1.7,4.5-5.4,4.5-8.7C398.9,283.9,397.5,280.1,394.1,282.1 L394.1,282.1z"></path> <path class="st2" d="M108.1,235c-6.1-2.6-8.2,2.1-7.2,9c1,6.8,4.8,13.9,10.7,16.4c5.9,2.5,8.2-2,7.2-8.8 C117.9,244.7,114.3,237.6,108.1,235L108.1,235z"></path> <path class="st2" d="M179,273.7c-5.9-2.9-8.3,1.6-7.7,8.5c0.5,6.8,4,14.1,9.8,17c5.7,2.8,8.3-1.5,7.7-8.3 C188.2,283.9,185,276.6,179,273.7L179,273.7z"></path> <polygon class="st2" points="448,282.1 460,275.5 454.3,257.4 448,282.1 "></polygon> <path class="st2" d="M44.3,188.4l-6.8-3.9L37.4,196l7,4.1c3.3,1.9,4.9,0.1,4.9-3.2C49.4,194.4,48,190.6,44.3,188.4L44.3,188.4z"></path> <g> <path class="st3" d="M74.6,208.7c0.1-12.9-6.9-25.9-24.2-36L27,159c-14.7-8.6-14.7,6.2-14.7,6.8L12,212.9 c0,0.6-0.2,15.3,14.5,23.8L50,250.4c17.3,10.1,24.4,5.3,24.5-7.7c0-5.6-0.7-14.4-10.6-23.3C73.8,222.1,74.6,214.3,74.6,208.7z M44.1,227.5l-6.8-3.9l0.1-11.5l7,4.1c3.3,1.9,4.9,5.6,4.8,8.9C49.2,227.5,47.8,229.6,44.1,227.5z"></path> <path class="st3" d="M111.5,207.6c-18.1-11-34-4.7-34.1,20.8c-0.1,26,16.3,50.1,33.7,60.6c18.7,11.3,32.9,4.2,33-20.5 C144.2,243,130.1,218.9,111.5,207.6z"></path> <path class="st3" d="M179.6,245.8c-18.2-11-32.8-4.1-32.9,21.4c-0.1,26,15.1,49.5,32.5,60c18.7,11.3,33.6,4.2,33.8-20.5 C213.1,281.1,198.3,257.1,179.6,245.8z"></path> <path class="st3" d="M349.2,344.6l-16.4,9.5l0-6.8l17-9.8c3-1.7,6.4-5.4,6.4-11.9c0-6-3.4-5.9-6.4-4.2l-17,9.8l0-6.9l16.4-9.5 c0.4-0.3,9.7-5.6,9.7-17.7c0-11.8-8.9-6.7-9.7-6.3l-26.5,15.3c-13.8,8-13.7,22.7-13.7,23.3l0.1,47c0,0.7,0,15.5,13.1,7.9 l27.2-15.7c0.4-0.3,9.7-5.6,9.7-17.7C358.9,339.1,349.9,344.2,349.2,344.6z"></path> <path class="st3" d="M280,303.8c-3.9-2.3-7.9-2.2-10.7,0l-13.6,10.6l-14.9-27.8c-1.5-3-4.9-8.4-9.8-11.3 c-2.4-1.4-4.6-2.1-6.5-2.1c-7.4,0-7.7,10.1-7.7,11.2l-0.3,48.3c-0.2,3.6,0,16.1,11.5,22.8c1.2,0.7,2.3,1,3.4,1 c6.3,0,8-10.9,8-17.4l0.1-7.8l11.9,19.6c0.6,1.3,1.8,2.5,3.2,3.3c1.6,0.9,3.5,0.6,5.2-0.8l9.1-6.3l-0.1,13.4 c0,8.7,1,20.8,9.5,25.6c2.4,1.4,4.6,2.1,6.5,2.1h0c5.6,0,7.7-6.1,7.7-11.3l0.3-49.6C292.9,325.6,292.6,311.1,280,303.8z"></path> <path class="st3" d="M281.6,148.4L255,132.9c-0.5-0.1-1.1-0.4-1.8-0.8c-3-1.9-5.7-2.2-7.7-1.8l-25.1,13.9c-0.9,1.3-1.5,3.3,1.2,5 c0,0,0,0,0,0l28.3,16.6c11,6.5,23.9,6.7,33.1,1.7C293,162.1,292.7,154.9,281.6,148.4z"></path> <path class="st3" d="M600,130.6V0H0v130.6l301.3,173.8L600,130.6z M83.3,134.5c-12.7-10.6,4.7-19.7,4.7-19.7L276.5,5.1 c14.2-7,25.9-5.7,34-2.7l12.8,7.2L459.9,87c48,27.2,52.9,55.4,8.8,79.1c-26.3,14.1-56.4,14.7-79.2,8.5 c13.8,16.4,13.9,41.8-13.9,56.7c-42.3,22.7-92.3,19.4-137.8-7.7L83.3,134.5z"></path> <path class="st3" d="M364.1,118.2c10.1-5.6,8.6-12.1-3-18.8l-22.6-13c-0.3-0.1-0.6-0.3-1-0.5c-4.2-2.7-7.6-2.1-9.6-1.3l-1.9,1 c-0.2,0.1-0.3,0.2-0.3,0.2l-0.1,0l-18.7,10.4l0,0.1c0,0-4.4,3.5,0,6.3c0,0,0,0,0.1,0.1l23.5,13.6 C342,123,353.9,123.8,364.1,118.2z"></path> <polygon class="st3" points="301,412.7 600,412.7 600,238.9 "></polygon> <path class="st3" d="M398.8,261.7l-21.7,12.8c-13.7,7.9-13.6,22.6-13.6,23.2l0.1,48.1c0,0.7,0.5,14.1,11.8,7.5 c11.5-6.6,11.7-20.4,11.7-21.1l-0.1-17.9l6-4.3c1.3-0.8,2.8-0.3,2.8,5.6l0,10.4c0,0.7-1.9,16.6,9.8,9.8 c11.9-6.9,11.9-20.9,11.9-21.5l0-5.6c0-9.6,0-15.2-8-14.4c9-8.9,9.7-17.3,9.7-22.7C419.5,258.7,415,252.3,398.8,261.7z"></path> <polygon class="st3" points="0,412.7 301,412.7 0,238.9 "></polygon> <path class="st3" d="M586.8,181.1l-14.7,9.2c-0.2,0.1-4,2.5-4.1,10.5c0,0.4-0.1,7.5,4.2,4.9l3.6-2.2c-0.4,3.5-2.1,6.2-4.2,8.2 c-0.9,0.8-1.8,1.5-2.8,2.1c-8.5,5.2-9.4-5.5-9.4-8.6c0-2.2,0.6-8.5,3.8-14c3-5.1,7.4-9,12.9-11.1c2.9-1.1,5.6-2.5,7.7-5 c2-2.3,3.5-5.2,3.7-8.5c0.8-15-13.9-8.9-24.6-2.1c-14,8.8-24.5,28.8-24.4,53.6c0.1,24.6,14.1,32.6,27.6,24.6 c17.9-10.8,24.6-29.9,25.2-56.6C591.2,178.3,587,181,586.8,181.1z"></path> <path class="st3" d="M524,188.2c-9.6,5.6-8.2,20.3-8.2,20.9l0,13.7l-13.2-16.4c-1.7-2-4.3-2.9-7.3-1.2 c-9.6,5.5-9.6,20.3-9.6,20.9l0.1,48.1c0,0.7,0,15.4,9.7,9.9c9.7-5.6,9.7-20.3,9.7-21l0-14.6l13.3,17c2.1,2.4,3.8,2.8,5.8,1.6 c9.7-5.6,9.6-20.3,9.6-21l-0.1-48.2C533.7,197.4,533.7,182.6,524,188.2z"></path> <path class="st3" d="M461.9,231.9c-0.9-1.7-4.3-4.8-10.4-1.3c-6,3.5-8.2,9.7-9.1,12.4l-20.3,62.9c-1.2,3.8-1.7,6.4-1.7,8.9 c0,8.5,7.1,10,12,7.2c3.3-1.9,6.4-6.6,8-11.8l2.6-9.1l19.8-11.4l1.9,4.9c1.6,3.3,4.7,4.4,8.1,2.4c5.4-3.1,10.9-11,10.9-19.2 c0-2.6-0.6-5.3-1.9-7.8L461.9,231.9z"></path> <path class="st2" d="M375.6,231.3c27.8-14.9,27.8-40.3,13.9-56.7c22.8,6.2,53,5.6,79.2-8.5c44.1-23.7,39.2-51.9-8.8-79.1 L323.3,9.7l-12.8-7.2c-8.1-3-19.8-4.3-34,2.7L88.1,114.7c0,0-17.4,9.2-4.7,19.7l154.5,89.1C283.3,250.7,333.3,253.9,375.6,231.3z M283.1,167.6c-9.2,5-22.1,4.8-33.1-1.7l-28.3-16.6c0,0,0,0,0,0c-2.7-1.8-2.1-3.7-1.2-5l25.1-13.9c2-0.3,4.6-0.1,7.7,1.8 c0.7,0.5,1.3,0.7,1.8,0.8l26.6,15.5C292.7,154.9,293,162.1,283.1,167.6z M306.8,102.7c-4.4-2.8,0-6.3,0-6.3l0-0.1l18.7-10.4 l0.1,0c0,0,0.1-0.1,0.3-0.2l1.9-1c2.1-0.9,5.5-1.4,9.6,1.3c0.4,0.2,0.7,0.4,1,0.5l22.6,13c11.7,6.7,13.2,13.3,3,18.8 c-10.1,5.6-22.1,4.8-33.7-1.9L306.8,102.7C306.9,102.7,306.9,102.7,306.8,102.7z"></path> <path class="st2" d="M44.4,216.1l-7-4.1l-0.1,11.5l6.8,3.9c3.7,2.1,5.2,0,5.2-2.5C49.2,221.7,47.6,218,44.4,216.1z"></path> <path class="st2" d="M600,130.6L301.3,304.3L0,130.6v108.3l301,173.8l299-173.8V130.6z M74.4,242.7c-0.1,12.9-7.2,17.7-24.5,7.7 l-23.4-13.7C11.8,228.1,12,213.4,12,212.9l0.3-47.1c0-0.6,0-15.4,14.7-6.8l23.4,13.7c17.3,10.1,24.3,23.1,24.2,36 c0,5.6-0.9,13.5-10.8,10.8C73.7,228.3,74.5,237.1,74.4,242.7z M111,289c-17.4-10.5-33.8-34.6-33.7-60.6 c0.1-25.5,16-31.8,34.1-20.8c18.7,11.3,32.7,35.4,32.6,60.9C143.9,293.2,129.7,300.2,111,289z M179.2,327.1 c-17.4-10.5-32.6-34.1-32.5-60c0.1-25.5,14.8-32.3,32.9-21.4c18.7,11.3,33.4,35.4,33.3,60.8C212.8,331.3,197.9,338.4,179.2,327.1 z M292.6,376.9c0,5.2-2.1,11.3-7.7,11.3h0c-1.9,0-4.1-0.7-6.5-2.1c-8.5-4.8-9.5-16.9-9.5-25.6l0.1-13.4l-9.1,6.3 c-1.8,1.4-3.6,1.7-5.2,0.8c-1.4-0.8-2.5-2-3.2-3.3l-11.9-19.6l-0.1,7.8c0,6.4-1.7,17.4-8,17.4c-1.1,0-2.2-0.3-3.4-1 c-11.5-6.7-11.7-19.1-11.5-22.8l0.3-48.3c0-1.1,0.3-11.2,7.7-11.2c1.9,0,4.1,0.7,6.5,2.1c4.9,2.9,8.2,8.3,9.8,11.3l14.9,27.8 l13.6-10.6c2.7-2.2,6.8-2.3,10.7,0c12.6,7.3,12.9,21.9,12.9,23.5L292.6,376.9z M349.2,368.6L322,384.4 c-13.2,7.6-13.1-7.2-13.1-7.9l-0.1-47c0-0.6-0.1-15.3,13.7-23.3l26.5-15.3c0.8-0.5,9.7-5.5,9.7,6.3c0,12.1-9.2,17.5-9.7,17.7 l-16.4,9.5l0,6.9l17-9.8c3-1.7,6.4-1.9,6.4,4.2c0,6.5-3.4,10.2-6.4,11.9l-17,9.8l0,6.8l16.4-9.5c0.8-0.5,9.7-5.5,9.7,6.3 C358.9,363,349.7,368.4,349.2,368.6z M417.7,308.6l0,5.6c0,0.7,0,14.7-11.9,21.5c-11.8,6.8-9.8-9.1-9.8-9.8l0-10.4 c0-5.9-1.5-6.4-2.8-5.6l-6,4.3l0.1,17.9c0,0.7-0.2,14.4-11.7,21.1c-11.3,6.6-11.8-6.8-11.8-7.5l-0.1-48.1 c0-0.6-0.1-15.3,13.6-23.2l21.7-12.8c16.2-9.3,20.6-3,20.7,9.9c0,5.4-0.7,13.8-9.7,22.7C417.8,293.4,417.7,299,417.7,308.6z M472.8,297c-3.3,1.9-6.4,0.9-8.1-2.4l-1.9-4.9L443,301.1l-2.6,9.1c-1.6,5.2-4.7,9.8-8,11.8c-4.9,2.8-11.9,1.3-12-7.2 c0-2.5,0.4-5.2,1.7-8.9l20.3-62.9c0.9-2.7,3.1-8.9,9.1-12.4c6.1-3.5,9.5-0.3,10.4,1.3l19.8,38c1.3,2.6,1.9,5.2,1.9,7.8 C483.7,286,478.2,293.9,472.8,297z M524.2,267.2c-2,1.2-3.7,0.7-5.8-1.6l-13.3-17l0,14.6c0,0.7,0,15.4-9.7,21 c-9.6,5.5-9.6-9.2-9.7-9.9l-0.1-48.1c0-0.6,0-15.3,9.6-20.9c3-1.7,5.6-0.9,7.3,1.2l13.2,16.4l0-13.7c0-0.6-1.4-15.3,8.2-20.9 c9.8-5.6,9.7,9.2,9.7,9.7l0.1,48.2C533.9,246.8,533.9,261.6,524.2,267.2z M565.9,242.7c-13.5,8.1-27.5,0.1-27.6-24.6 c-0.1-24.7,10.4-44.8,24.4-53.6c10.7-6.8,25.4-12.9,24.6,2.1c-0.2,3.3-1.7,6.2-3.7,8.5c-2.1,2.5-4.8,3.9-7.7,5 c-5.5,2.1-9.9,6-12.9,11.1c-3.2,5.5-3.8,11.8-3.8,14c0,3,0.9,13.8,9.4,8.6c1-0.6,1.9-1.3,2.8-2.1c2.2-2,3.9-4.7,4.2-8.2l-3.6,2.2 c-4.2,2.6-4.2-4.6-4.2-4.9c0.1-8,3.9-10.4,4.1-10.5l14.7-9.2c0.2-0.1,4.5-2.8,4.3,5C590.5,212.7,583.8,231.9,565.9,242.7z M591.4,222.5h-0.8v3.1H590v-3.1h-0.9V222h2.3V222.5z M594.2,225.6v-3h0l-0.7,3H593l-0.7-3h0v3h-0.5V222h0.9l0.6,2.7h0l0.6-2.7 h0.9v3.6H594.2z"></path> </g> </g> </g> </svg> 