<?xml version="1.0" encoding="UTF-8"?> <svg xmlns="http://www.w3.org/2000/svg" xmlns:xlink="http://www.w3.org/1999/xlink" version="1.1" id="Layer_1" x="0px" y="0px" viewBox="0 0 400 400" style="enable-background:new 0 0 400 400;" xml:space="preserve"> <style type="text/css"> .st0{fill:#FFFFFF;} </style> <g> <path class="st0" d="M198.33,109.02c-22.06,0-39.95,18.31-39.95,39.95c0,22.06,17.9,40.37,39.95,40.37 c22.06,0,39.95-18.31,39.95-40.37C238.29,127.33,220.39,109.02,198.33,109.02z"></path> <path class="st0" d="M0,0v400h400V0H0z M157.97,347.9c-6.24,1.66-10.82-0.83-12.9-6.66L133,309.2c-1.66-4.99-0.41-9.57,7.91-12.07 c19.56-6.24,74.91-25.39,83.65-68.25c-10.82,4.58-28.3,8.32-39.54,8.32c-39.12,0-82.82-28.72-82.82-90.31 c0-52.43,43.28-95.3,95.3-95.3c64.5,0,100.29,48.28,100.29,113.2C297.8,287.14,196.25,336.66,157.97,347.9z"></path> </g> </svg> 