<?xml version="1.0" encoding="UTF-8"?> <svg xmlns="http://www.w3.org/2000/svg" xmlns:xlink="http://www.w3.org/1999/xlink" version="1.1" id="Layer_1" x="0px" y="0px" viewBox="0 0 600 132.8" style="enable-background:new 0 0 600 132.8;" xml:space="preserve"> <style type="text/css"> .st0{fill:#FFFFFF;} </style> <g> <g> <g> <path class="st0" d="M280,45.2c-3.4-2-7.9-3.1-12.6-3.1c-4.4,0-8.5,1-11.6,2.7c-7.7,4.3-12,12.9-11.1,21.9 c1,9.5,5.7,16.2,13,18.5c3.3,1,7,1.6,10.7,1.6c4,0,9.8-0.7,14.5-3.8c5.5-3.7,7.7-10.3,6.9-20.9C289.2,54.6,285.6,48.5,280,45.2z M280,73.4c-2.6,4.4-8.5,6-13.5,5.8c-5.8-0.2-10.3-4-12.1-9.3c-1.5-4.6-1.2-10.9,1.5-15.1c2.9-4.4,7.8-5.5,12.8-5 c0.5,0,1,0.1,1.5,0.2c5,1,9.5,4.5,10.9,9.4C282.3,63.5,282.2,69.6,280,73.4z"></path> <path class="st0" d="M332.9,42.5c-0.5,0-1.1,0-1.6,0c-7.5,0.2-13.8,3.4-17.4,8.8c-4.3,6.5-4.9,16.9-1.5,23.6 c3.7,7.2,11.7,11.9,20.2,11.9c0.5,0,0.9,0,1.3,0c9.6-0.5,16.5-4.9,19.1-11.8c2.6-7.1,3.3-17.5-1.1-24.7 C348.7,45.1,342.4,42.5,332.9,42.5z M344.3,76c-5.2,5.3-14.9,4.1-20.4,0.1c-5.8-4.2-6.7-13.4-3.5-19.6c2.1-4.1,6.2-6.2,10.6-6.6 c0.9-0.1,1.7-0.1,2.6,0c4.6,0.3,9.6,1.9,12.3,6C349.6,61.5,349,71.1,344.3,76z"></path> <path class="st0" d="M366.2,23.3c0-4.4,0-9.9,0-15.2c0-4.5-3.7-8.1-8.2-8.1c-38.5,0.1-77.4,0-115.9,0c-4.5,0-8.2,3.7-8.2,8.2 c0.1,38.7,0.1,77.5,0.1,116.2c0,4.5,3.6,8.2,8.1,8.2c7.4,0.1,14.8,0.2,22.2,0.2c31-0.1,62.7,0.2,93.9-0.2 c4.5-0.1,8.1-3.7,8.1-8.2C366.2,95.5,365.8,52.9,366.2,23.3z M284.7,85.8c-5.5,3.7-11.9,4.4-16.4,4.4c-4,0-8-0.6-11.6-1.7 c-8.6-2.7-14.2-10.5-15.4-21.4c-1.1-10.4,4-20.3,12.8-25.3c3.6-2,8.3-3.1,13.2-3.1c5.3,0,10.4,1.3,14.3,3.5 c6.7,3.9,10.8,11,11.5,19.6C294,73.6,291.3,81.4,284.7,85.8z M310.5,90.8c-0.3,0.5-0.8,0.9-1.3,1.3c0,0-2.1,1.9-6.2,2.5 c-0.1,0-0.1,0-0.2,0c-0.2,0-0.3,0-0.5,0.1c-0.3,0-0.5,0.1-0.8,0.1c0,0,0,0,0,0c-0.2,0-0.4,0-0.5,0c-0.2,0-0.3,0-0.5,0 c0,0,0,0,0,0c-0.2,0-0.4,0-0.5,0c-0.2,0-0.3,0-0.5,0c0,0,0,0,0,0c-0.3,0-0.5,0-0.8-0.1c-0.2,0-0.3,0-0.5-0.1c-0.1,0-0.1,0-0.2,0 c-4.1-0.6-6.2-2.5-6.2-2.5c-0.5-0.4-1-0.8-1.3-1.3c-0.8-1.1-1-2.7-0.5-3.6c0.5-0.8,1.5-1.2,2.5-1c0,0,0.1,0,0.2,0.1c0,0,0,0,0,0 c0.1,0,0.3,0.1,0.5,0.2c0,0,0.1,0,0.1,0.1c0.2,0.1,0.5,0.3,0.7,0.5c0,0,0,0,0.1,0.1c0,0,0.1,0.1,0.1,0.1c0,0,0,0,0.1,0.1 c0.4,0.3,1.2,0.9,2,1.3c1.1,0.5,2.5,1,4,1h0.1c1.5,0,2.9-0.4,4-1c0.8-0.4,1.6-1,2-1.3c0.1-0.1,0.1-0.1,0.1-0.1 c0,0,0.1-0.1,0.1-0.1c0.1,0,0.1-0.1,0.1-0.1c0.3-0.2,0.5-0.4,0.8-0.5c0,0,0.1-0.1,0.1-0.1c0.2-0.1,0.3-0.2,0.5-0.2c0,0,0,0,0,0 c0.1,0,0.2-0.1,0.2,0c1-0.2,2,0.2,2.5,1C311.6,88.1,311.4,89.6,310.5,90.8z M356.6,76.3c-3.1,8.5-11.3,13.7-22.4,14.3 c-0.5,0-1,0-1.5,0c-10,0-19.2-5.5-23.6-14c-4.1-7.9-3.4-19.7,1.7-27.4c4.2-6.4,11.7-10.3,20.4-10.5c0.6,0,1.2,0,1.7,0 c11,0,18.3,3.1,22.3,9.5C360.6,57.1,359.3,68.9,356.6,76.3z"></path> </g> <path class="st0" d="M155.6,68.4c6.1-3,9.3-12.2,6.6-18.7c-2.3-5.5-7.8-8.1-13.4-9c-5.5-0.9-11.9-1.1-17.3-0.1 c-2.9,0.5-5.7,1.8-7.1,4.5c-2,4.1-1.7,9.5-1.9,14c0,0.1,0,0.2,0,0.3c-0.2,5.4,0.2,10.5,0.4,15.9c0.1,4.1,0.7,9.7,4,12.4 c2.7,2.1,6.4,2.5,9.1,0.4c2.8-2.2,3.3-7,3.3-10.4c0-0.7,0-1.3,0-2c2.7,3.3,5.1,6.9,8.3,9.7c0.7,0.6,1.4,1.2,2.2,1.8 c3.5,2.7,9,2.9,11.7-1.3C164.8,81,158.8,71.5,155.6,68.4z M138.6,62.8c0.1-5.1,0-9-0.1-10.4c0.5-0.1,2-0.2,2.2-0.2 c2.1,0,4.7-0.1,6.2,1.6c0.9,1,1.3,2.2,1.3,3.5c0.1,2.1-1.6,4.3-3.8,4.9c-2,0.6-3.6,0.6-5.7,0.6C138.8,62.8,138.6,62.8,138.6,62.8z "></path> <path class="st0" d="M596.4,51.2c-8.2-12.1-24-14.2-36-7.4c-10.4,5.9-14.7,21.8-8.8,33.1c4,7.8,13.3,12.4,21.4,12.5 c5,0.1,10.1-0.7,14.7-3.3C599.7,79.5,603.5,62.5,596.4,51.2z M567.6,68.3c-3.1-7.7,4.9-14.2,11.7-9.2c3.4,2.6,3.5,8.8,0.1,11.6 C576,73.6,569.6,72.5,567.6,68.3z"></path> <path class="st0" d="M523.4,40.1c-7.7-0.3-13.8-0.3-21.5,0c-6.1,0.3-11.1,3.6-9.5,10.3c1.1,4.7,7.6,5.4,12.5,5.5 c-0.1,5-0.2,11.9,0,16.9c0.1,3.1,0.1,6.2,0.8,9.2c0.8,3.6,2.6,6.7,7.3,7.2c4.5,0.5,7.4-1.7,8.9-5.3c2.3-5.8,1.4-14.3,1.4-20.4 c0-2.2,0.1-5.6,0.1-7.7c5.4,0,12-1.3,12.5-6.5C536.7,41.2,529.5,40.4,523.4,40.1z"></path> <path class="st0" d="M407.7,78.7c1.2,1.5,2.5,3,3.9,4.4c1.4,1.5,3.2,2.9,5.1,3.9c1.9,1,4.1,1.6,6.3,1.6c6.3-0.1,8.2-5.8,8.6-10.9 c0.3-4.2,0.2-9,0.2-13.2c0-3.2-0.1-6.1,0-9.2c0-3,0.1-6.1-0.7-9c-0.7-2.7-2.9-5.4-5.7-6.2c-2.7-0.7-5.9-0.3-8,1.3 c-3.9,2.8-4.3,8.9-4.3,13.8c-3.3-4.3-6.3-7.5-8.3-9.5c-3.1-3.1-6.7-6.1-11.6-5.8c-3.7,0.2-6.2,2.4-7.3,5.7 c-1.5,4.5-1.2,12-1.2,18.3c0,4.1-0.3,8.1,0,12.2c0.2,3.4,0.7,7.3,2.9,10c2.1,2.7,4.4,3.6,7.9,3.4c2.4-0.1,4.4-1.3,5.7-3.2 c2.6-3.8,2.6-9,2.4-13.4C403.4,73,406,76.6,407.7,78.7z"></path> <path class="st0" d="M219.2,45.3c-0.7-1.3-1.8-2.5-3.2-3.3c-3.4-1.9-7.6-2-11.3-2c-5.7,0-10.7-0.2-16.4,0c-1.3,0-3.2,0.3-4.6,0.7 c-4.1,1.4-6.3,5.4-5,10.1c1.1,3.7,5,4.8,8.6,5.4c0.9,0.2,2.6,0.2,3.5,0.3c0.1,6.8-0.4,16.3,0.4,23c0.6,5.4,2.9,10.1,9.6,9.9 c1.9-0.1,3.5-1.2,4.6-2.6c2.1-2.9,2.2-6.5,2.3-9.9c0.1-1.4,0.4-20.3,0.4-20.3c2.2,0,3.5-0.1,5.3-0.4c2.2-0.4,4.4-1.1,5.6-3 C220.6,50.7,220.5,47.6,219.2,45.3z"></path> <path class="st0" d="M30,70.9c-1,0.4-1.9,0.9-2.9,1.2c-2.3,0.7-4.5,0.3-6.3-1.3c-1.7-1.5-2.6-4.2-2.6-6.1c0.1-2.7,1.2-5.6,3.6-7 c1.1-0.7,2.5-1,3.8-0.9c1.8,0.1,3.1,1,4.7,1.6c3,1.1,6.8,0.9,9-0.6c2.5-1.7,3.7-3.7,3.5-7.3c-0.1-2.9-1.9-5.4-4.1-7 c-2.3-1.7-5.2-2.9-8-3.4c-1.3-0.2-2.7-0.3-4.1-0.3c-7.8-0.1-15.7,2.8-20.8,8.9c-6.1,7.3-7.8,19-3.5,27.6c2.9,5.7,8.1,10.2,14.2,12 c5,1.5,10.3,1.7,15.3,0.5c4.2-1,8.4-3,10.2-7.1c0.8-1.9,1.2-4.1,0.7-6.2c-1.3-4.9-6.1-6-9.8-5.5C31.9,70.3,31,70.5,30,70.9z"></path> <path class="st0" d="M94.3,50c-2-4.2-5-10.5-11.1-10.7c-0.6,0-1.1,0-1.1,0c-5.4,0.2-8.3,5-10.4,9.3c-0.5,1-1.1,2.1-1.6,3.1 c-2.1,3.9-4,8-5.8,12.1c-2,4.6-4.1,9.3-5.7,14.1c-0.4,1.3-0.6,2.8-0.5,4.2c0.2,2.9,1,5.2,3.5,6.8c2,1.2,4.5,1.6,6.8,1 c3.7-1,5.5-4.3,6.8-8.3c1.9,0,5.2,0,7.1,0H83c1.9,0,5.2,0,7.1,0c0.1,0.5,0.3,0.9,0.5,1.3c1.2,3.4,3,6.1,6.3,7 c0.7,0.2,1.5,0.3,2.2,0.3c0,0,0.1,0,0.1,0c2.1,0,4.1-0.9,5.7-2.3c0.1,0,0.1-0.1,0.2-0.1c0.8-0.7,1.4-1.5,1.7-2.5 c0.4-0.9,0.5-2,0.6-3c0.2-2.1-0.3-4.1-1.4-6.5l-2.8-6.5C100.4,62.8,97.4,56.4,94.3,50z M82.6,68.5c-2.1,0-2.3,0-5.3-0.1 c1.3-3.5,4-9.8,5.3-12h0c1.6,3,4.1,9.1,5.3,12C84.9,68.5,84.7,68.4,82.6,68.5z"></path> <path class="st0" d="M470.2,43.3c-1.5-2-4.1-3.5-7-3.4c-2.9,0.1-5.2,1.3-7,3.4c-2.6,3.1-2.8,7.7-3.1,11.5c-0.3,4.5-0.2,9-0.2,13.5 c0,4.3-0.3,8.8,0.7,13.1c1.3,5.8,8.1,10.4,14.3,6.6c6.5-4,5.5-12.7,5.7-19.2c0.1-4.4,0-8.4,0-12.6 C473.3,52.5,472.9,46.9,470.2,43.3z"></path> </g> <g> <polygon class="st0" points="595.9,85.7 595.9,86.3 594.8,86.3 594.8,89.4 594,89.4 594,86.3 592.9,86.3 592.9,85.7 "></polygon> <path class="st0" d="M598.9,85.7h1.1v3.7h-0.7v-2.5c0-0.1,0-0.2,0-0.3c0-0.1,0-0.2,0-0.3l-0.7,3.1h-0.8l-0.7-3.1 c0,0.1,0,0.2,0,0.3c0,0.1,0,0.2,0,0.3v2.5h-0.7v-3.7h1.1l0.7,2.9L598.9,85.7z"></path> </g> </g> </svg> 