<?xml version="1.0" encoding="UTF-8"?> <svg xmlns="http://www.w3.org/2000/svg" xmlns:xlink="http://www.w3.org/1999/xlink" version="1.1" x="0px" y="0px" viewBox="0 0 600 208" style="enable-background:new 0 0 600 208;" xml:space="preserve"> <style type="text/css"> .st0{display:none;} .st1{display:inline;fill:#1E1E1E;} .st2{fill:#FFFFFF;} </style> <g id="BACKGROUND" class="st0"> <rect x="-79.6" y="-158.3" class="st1" width="400" height="400"></rect> </g> <g id="LOGOS"> <path class="st2" d="M62,156.6c-0.7,6.6,6,11.9,14.9,10.9c0,0,0,0,0,0l44.3-5.5l3.1-20.5l-30.1,3.7c-4,0.5-7.6-0.8-6.9-5.9 l2.6-18.6c0.8-5.9,5.8-7.5,11-8.1l27.9-3.4l2.9-20.6l-49.1,6c-6.8,0.8-12.2,5.2-13.7,11.6L62,156.6L62,156.6z M162.8,84.7 l-23.7,2.9l-10.4,73.4l23.7-2.9L162.8,84.7L162.8,84.7z M159.8,157.3l23.6-2.9l5.2-36.5l21.2,33.3l21.1-2.6l10.4-73.4L217.7,78 l-5,35l-20.3-31.9l-22.2,2.7L159.8,157.3L159.8,157.3z M268.1,98.9l1-7.4l37.3-4.6l2.9-20.2l-60.7,7.4l-10.3,73.4l60.6-7.4 l2.8-20.2l-37.2,4.6l1.2-8l34.7-4.3l2.5-17.7L268.1,98.9L268.1,98.9z M518.6,76.3L545,37.8l-27.5,3.4l-12.3,19L494.9,44l-25.7,3.2 L490,78.8l-23.8,34.7l-17.8-63.7l-23.6,2.9L387,124.7l9.7-68.7l-26.1,3.2l-18.9,27.7L340.2,63l-23.5,2.9l-10.4,73.4l23.3-2.8 l5.1-36.4l12.6,24.1l0.4,0l20.1-28.1l-5.1,36.4l21.7-2.7l1.9-0.2l24-3l5-10.3l24.9-3.1l2.4,9.4l19-2.3l6.3-0.8l21.2-2.6l14.5-22.2 l11.2,19.1l25.7-3.2L518.6,76.3L518.6,76.3z M600,0l-19.2,136.7L0,208L19.2,71.3L600,0L600,0z M432.8,79.4l4,17l-13,1.6L432.8,79.4 L432.8,79.4z"></path> </g> </svg> 