<?xml version="1.0" encoding="UTF-8"?> <svg xmlns="http://www.w3.org/2000/svg" xmlns:xlink="http://www.w3.org/1999/xlink" version="1.1" x="0px" y="0px" viewBox="0 0 600 560.1" style="enable-background:new 0 0 600 560.1;" xml:space="preserve"> <style type="text/css"> .st0{display:none;} .st1{display:inline;fill:#1E1E1E;} .st2{fill:#FFFFFF;} </style> <g id="BACKGROUND" class="st0"> <rect x="-136.4" y="-140.6" class="st1" width="400" height="400"></rect> </g> <g id="LOGOS"> <g> <g> <path class="st2" d="M0,0v559.4h559.4V0H0z M201.2,315.6V216c0-20.8,16.8-37.6,37.6-37.6c13.3,0,25.7,7.1,32.3,18.3 c1.5,2.5,46.5,79.9,46.5,79.9V216c0-20.8,16.8-37.6,37.6-37.6c13.3,0,25.7,7.1,32.3,18.3c1.5,2.5,46.5,79.9,46.5,79.9v-97.4H458 v163.6c0,2.9-2.3,5.2-5.2,5.2c-1.8,0-3.6-1-4.4-2.5c-0.3-0.6-20.3-35-39.5-68.2c-20.2-34.8-39.2-67.7-39.6-68.2 c-2.6-4.5-7.5-7.3-12.8-7.3c-8.2,0-14.9,6.7-14.9,14.9v126.2c0,2.9-2.3,5.2-5.2,5.2c-1.8,0-3.5-1-4.4-2.5 c-0.3-0.6-20.3-35-39.6-68.2c-20.2-34.8-39.3-67.7-39.6-68.2c-2.6-4.5-7.5-7.3-12.8-7.3c-8.2,0-14.9,6.7-14.9,14.9v123.6 c0,2.9-2.8,6.3-6.3,6.3h-63c-36.8,0-66.8-29.9-66.8-66.8c0-36.8,29.9-66.8,66.8-66.8h32.3v24.1h-32.1 c-23.5,0-42.6,19.1-42.6,42.6c0,23.5,19.1,42.6,42.6,42.6h38.3C198.5,322.4,201.2,319.2,201.2,315.6z M491.8,343.5 c0,20.8-16.8,37.6-37.6,37.6c-13.2,0-25.7-7.1-32.3-18.3c-1.5-2.5-46.4-79.9-46.4-79.9v60.6c0,20.8-16.8,37.6-37.6,37.6 c-13.3,0-25.7-7.1-32.3-18.3c-1.1-1.9-46.4-79.9-46.4-79.9v57.4c0,26-15.5,40.2-39.6,40.1H156c-55.5,0-100.5-45-100.5-100.6 c0-55.5,45-100.6,100.5-100.6h32.3v24.1H156c-42.1,0-76.4,34.3-76.4,76.4c0,42.1,34.3,76.4,76.4,76.4h63c8.5,0,16-7.5,16-16 V216.6c0-2.9,2.3-5.2,5.2-5.2c1.8,0,3.5,1,4.4,2.5c0.3,0.6,20.3,35,39.6,68.2c20.2,34.8,39.3,67.7,39.6,68.2 c2.6,4.5,7.5,7.3,12.8,7.3c8.2,0,14.9-6.7,14.9-14.9V216.6c0-2.9,2.3-5.2,5.2-5.2c1.8,0,3.5,1,4.4,2.5c0.3,0.6,20.3,35,39.5,68.2 c20.2,34.8,39.2,67.7,39.6,68.2c2.6,4.5,7.5,7.3,12.8,7.3c8.2,0,14.9-6.7,14.9-14.9V179.2h24.1V343.5z"></path> </g> <g> <path class="st2" d="M585.6,531.3c7.9,0,14.4,6.2,14.4,14.3c0,8.3-6.6,14.5-14.4,14.5c-7.9,0-14.5-6.2-14.5-14.5 C571,537.5,577.7,531.3,585.6,531.3z M585.6,558c6.7,0,11.8-5.3,11.8-12.4c0-6.9-5.2-12.2-11.8-12.2c-6.7,0-11.9,5.3-11.9,12.2 C573.7,552.6,578.8,558,585.6,558z M579.9,537.2h6.5c4,0,5.9,1.6,5.9,4.8c0,3-1.9,4.3-4.4,4.6l4.8,7.4h-2.8l-4.6-7.2h-2.8v7.2 h-2.6V537.2z M582.6,544.7h2.7c2.3,0,4.4-0.1,4.4-2.8c0-2.2-1.9-2.6-3.7-2.6h-3.5V544.7z"></path> </g> </g> </g> </svg> 