<?xml version="1.0" encoding="UTF-8"?> <svg xmlns="http://www.w3.org/2000/svg" id="cooking-channel-logo-white" width="98.427" height="22.467" viewBox="0 0 98.427 22.467"><path id="Path_33" data-name="Path 33" d="M2.7,106.2H61.806v5.065H2.7Z" transform="translate(-2.257 -88.848)" fill="#fff"></path><path id="Path_34" data-name="Path 34" d="M88.732,15.49c3.937,0,7-2.271,7-7.729,0-.245-.016-.474-.033-.719h-6.89V9.918h2.608a2.763,2.763,0,0,1-2.674,2.337H88.7c-1.985-.033-2.953-1.781-2.953-4.51,0-2.778.951-4.412,2.953-4.412h.049a2.637,2.637,0,0,1,2.674,2.222h4.1A6.46,6.46,0,0,0,88.716,0c-3.806,0-7,2.271-7,7.729S84.8,15.49,88.732,15.49M22.031.016c-3.609,0-7.349,2.271-7.349,7.729s3.74,7.729,7.349,7.729c3.593,0,7.333-2.271,7.333-7.729S25.624.016,22.031.016m0,12.222c-2.116,0-3.314-1.765-3.314-4.51s1.2-4.412,3.314-4.412c2.1,0,3.3,1.667,3.3,4.412s-1.2,4.51-3.3,4.51M37.583.016c-3.609,0-7.349,2.271-7.349,7.729s3.74,7.729,7.349,7.729c3.593,0,7.316-2.271,7.316-7.729S41.175.016,37.583.016m0,12.222c-2.116,0-3.314-1.765-3.314-4.51s1.2-4.412,3.314-4.412c2.1,0,3.3,1.667,3.3,4.412s-1.2,4.51-3.3,4.51M59.024.294H54.43L50.378,7.647l4.774,7.532h4.593L54.873,7.647ZM46.31.212h4.052V15.179H46.31ZM60.992.294h4.036V15.179H60.992ZM76.544,15.179h3.74V.294H76.593V8.644h-.049L71.065.294h-3.97V15.179h3.691V6.846h.049ZM7.038,12.271H6.988C5,12.238,4.036,10.49,4.036,7.761,4.036,5,4.987,3.35,6.988,3.35h.049A2.637,2.637,0,0,1,9.712,5.572h4.1A6.46,6.46,0,0,0,7,.016C3.2.016,0,2.288,0,7.745s3.068,7.729,7,7.729c3.461,0,6.25-1.748,6.874-5.866H9.81c-.377,1.65-1.3,2.647-2.772,2.663M69.195,19.33H66.849V17.271h-.869v5.147h.869V20.13h2.346v2.288h.869V17.271h-.869Zm3.461-2.075-1.837,5.163h.82l.427-1.225h1.969l.41,1.225h.886l-1.821-5.163Zm-.328,3.17.722-2.091h.016l.705,2.091Zm7.218.507h0L77.1,17.254h-.886V22.4h.8V18.66h.016L79.579,22.4h.8V17.254h-.82Zm5.5,0h0L82.6,17.254h-.9V22.4h.8V18.66h.016L85.058,22.4h.787V17.254h-.8Zm3.018-.817h1.8v-.768h-1.8V18.055H90.52v-.8H87.174V22.4h3.478v-.784H88.043Zm4.528-2.843H91.7v5.147H94.95v-.784H92.571ZM63.108,21.7c-.853,0-1.394-.67-1.394-1.9,0-1.16.509-1.846,1.378-1.863.623,0,.951.376,1.148,1.013h.9a2.012,2.012,0,0,0-2.034-1.814c-1.3,0-2.264.931-2.264,2.647,0,1.765.951,2.68,2.264,2.68a2.025,2.025,0,0,0,2.067-1.912h-.9c-.18.752-.509,1.144-1.165,1.144M96.918,3.072a1.5,1.5,0,1,1,1.509-1.5A1.524,1.524,0,0,1,96.918,3.072Zm0-2.68a1.193,1.193,0,1,0,1.2,1.193A1.191,1.191,0,0,0,96.918.392Z" transform="translate(0 0)" fill="#fff"></path><path id="Path_35" data-name="Path 35" d="M587.458,5.4a.265.265,0,0,0,.18-.049.216.216,0,0,0,.049-.163.275.275,0,0,0-.049-.163.3.3,0,0,0-.18-.049h-.164V5.37Zm-.164.261v.588H586.9V4.7h.623a.872.872,0,0,1,.459.1.351.351,0,0,1,.148.327.682.682,0,0,1-.066.261.467.467,0,0,1-.23.147.666.666,0,0,1,.148.082.674.674,0,0,1,.131.2l.213.441H587.9l-.18-.392c-.049-.065-.066-.131-.115-.163a.246.246,0,0,0-.164-.049Z" transform="translate(-490.622 -3.932)" fill="#fff"></path></svg> 