<?xml version="1.0" encoding="UTF-8"?> <svg xmlns="http://www.w3.org/2000/svg" xmlns:xlink="http://www.w3.org/1999/xlink" version="1.1" x="0px" y="0px" viewBox="0 0 600 600" style="enable-background:new 0 0 600 600;" xml:space="preserve"> <style type="text/css"> .st0{display:none;} .st1{display:inline;fill:#1E1E1E;} .st2{fill:#FFFFFF;} </style> <g id="BACKGROUND" class="st0"> <rect x="-139.9" y="-139.9" class="st1" width="400" height="400"></rect> </g> <g id="LOGOS"> <path class="st2" d="M300,0C134.3,0,0,134.3,0,300c0,165.7,134.3,300,300,300c165.7,0,300-134.3,300-300C600,134.3,465.7,0,300,0z M381.8,219.7h80.7v44.4c0,1.2,0.9,2.1,2.1,2.1h67.5c1.2,0,2.2-0.9,2.4-2.1l13.4-84.4c0.2-1.1,1.7-1.3,2.1-0.3 c17.6,36.5,27.5,77.4,27.5,120.6c0,48.8-12.6,94.7-34.7,134.5c-0.6,1-2.1,0.6-2.1-0.6v-77.1c0-1.2-0.9-2.1-2.1-2.1h-74 c-1.2,0-2.1,0.9-2.1,2.1v41.1h-32.5c-15,0-27.2-12.2-27.2-27.2V236.9c0-1.3-0.6-2.5-1.6-3.2L381.8,219.7z M40,207.5l26,18.9 c1.1,0.8,1.7,2,1.7,3.3v218.3c0,1.1-1.5,1.6-2.1,0.6C38.3,405.6,22.5,354.6,22.5,300c0-32.2,5.5-63.2,15.6-91.9 C38.4,207.3,39.4,207,40,207.5z M300,577.5c-87.5,0-165.6-40.5-216.5-103.9c-0.6-0.7-0.1-1.8,0.9-1.8h148.4c1.4,0,2.7-0.4,3.8-1.2 l56.7-41.2c1-0.7,1.6-1.9,1.6-3.2V190.4c0-1.3-0.6-2.5-1.6-3.2L236.7,146c-1.1-0.8-2.5-1.2-3.8-1.2H72.2c-0.9,0-1.5-1-0.9-1.8 C121.2,70.2,205.1,22.5,300,22.5s178.8,47.7,228.8,120.4c0.5,0.8,0,1.8-0.9,1.8h-39.9c-1.3,0-2.5,0.8-3.1,2l-8.8,18.9L449,146 c-1.1-0.8-2.5-1.2-3.8-1.2h-63.8c-1.4,0-2.7,0.4-3.8,1.2l-56.7,41.2c-1,0.7-1.6,1.9-1.6,3.2v235.7c0,1.3,0.6,2.5,1.6,3.2l56.7,41.2 c1.1,0.8,2.5,1.2,3.8,1.2h134.3c1,0,1.5,1.1,0.9,1.8C465.6,536.9,387.5,577.5,300,577.5z M130.4,219.7h53.8 c15,0,27.2,12.2,27.2,27.2v123.8c0,15-12.2,27.2-27.2,27.2h-33V236.9c0-1.3-0.6-2.5-1.6-3.2L130.4,219.7z"></path> </g> </svg> 