<?xml version="1.0" encoding="UTF-8"?> <svg xmlns="http://www.w3.org/2000/svg" xmlns:xlink="http://www.w3.org/1999/xlink" version="1.1" id="Layer_1" x="0px" y="0px" viewBox="0 0 600 505.84" style="enable-background:new 0 0 600 505.84;" xml:space="preserve"> <style type="text/css"> .st0{fill:#FFFFFF;} </style> <g id="Destination_America_Logo_1_"> <path id="Destination_America_2_" class="st0" d="M589.55,386.63c-10.73,8.92-21.59,18.05-32.26,27.16 c-3.16,2.69-7.97,4.23-13.2,4.23c-3.28,0-6.46-0.62-9.18-1.79c-131.74-56.83-267.21-93.27-402.64-108.33 c-3.88-0.42-7.9-0.86-7.73-4.78c0.17-3.92,4.31-4.01,8.31-4.1c8.43-0.17,16.97-0.25,25.41-0.25c143.59,0,287.17,24.01,426.76,71.35 c4.52,1.54,7.49,4.43,8.14,7.94C593.71,381.14,592.4,384.26,589.55,386.63z M523.01,443.09c-0.47-3.62-3.22-6.78-7.57-8.67 C349.63,362.56,180.25,323,11.99,316.85c-0.58-0.02-1.11-0.03-1.59-0.03c-1.91,0-6.4,0-6.87,3.81c-0.48,3.9,4.02,5.03,6.7,5.71 c142.23,35.99,285.03,95.47,424.43,176.79c3.01,1.75,6.76,2.72,10.56,2.72c4.67,0,8.91-1.39,11.94-3.9 c20.47-17.05,41.28-33.91,61.83-50.11C521.96,449.49,523.42,446.3,523.01,443.09z M337.57,177.37v0.21 c0,6.18-4.5,10.37-12.36,10.37h-16.34V166.9h16.02C332.75,166.9,337.57,170.46,337.57,177.37z M87.14,105.67v-0.13 c0-7.45-5.01-12.46-12.46-12.46h-6.56v24.92h6.56C82.13,118.01,87.14,113.05,87.14,105.67z M339,108.13h9.23l-4.61-10.99 L339,108.13z M600,49.54v280.71c0,6.93-4.96,11.96-11.63,11.96c-1.42,0-3-0.23-4.46-0.68c-127.23-39.57-258.09-59.63-388.95-59.63 c-60.21,0-120.68,4.33-179.75,12.86c-4.33,0.62-8.53-0.73-11.45-3.68C1.3,288.6,0,285.2,0,281.51V49.54 c0-7.98,6.11-15.62,13.94-17.4C107.62,10.81,203.81,0,299.89,0s192.35,10.81,286.03,32.14C593.75,33.92,600,41.56,600,49.54z M496.92,123.5c0,3.27,2.66,5.94,5.94,5.94c3.27,0,5.94-2.66,5.94-5.94v-20.88l17.84,23.4c1.27,1.63,2.97,3.3,5.97,3.3h0.32 c3.37,0,6-2.64,6-6V87.59c0-3.28-2.66-5.94-5.94-5.94s-5.94,2.66-5.94,5.94v19.98l-17.13-22.5c-1.27-1.63-2.97-3.3-5.97-3.3h-1.03 c-3.37,0-6,2.64-6,6V123.5z M438.51,105.67c0,13.77,10.68,24.15,24.85,24.15c14.01,0,24.98-10.66,24.98-24.27v-0.13 c0-13.77-10.68-24.15-24.85-24.15c-14.01,0-24.98,10.66-24.98,24.27V105.67z M415.35,123.43c0,3.37,2.64,6,6,6c3.37,0,6-2.64,6-6 V87.66c0-3.37-2.64-6-6-6c-3.37,0-6,2.64-6,6V123.43z M244.5,123.43c0,3.37,2.64,6,6,6s6-2.64,6-6V87.66c0-3.37-2.64-6-6-6 s-6,2.64-6,6V123.43z M178.24,115.55v0.13c0,2.94-4.14,3.17-5.41,3.17c-3.79,0-7.34-1.25-10.86-3.85 c-1.05-0.73-2.17-1.09-3.43-1.09c-3.19,0-5.68,2.47-5.68,5.62c0,1.83,0.89,3.58,2.3,4.59c5.02,3.6,11.23,5.59,17.48,5.59 c10.66,0,17.54-5.88,17.54-14.98v-0.13c0-8.78-6.01-12.14-15.03-14.5c-7.77-1.99-8.88-2.83-8.88-4.86V95.1 c0-1.73,1.85-2.84,4.7-2.84c2.74,0,5.56,0.91,8.89,2.87c0.99,0.58,1.96,0.85,3.04,0.85c3.19,0,5.68-2.47,5.68-5.62 c0-2.39-1.4-4.06-2.67-4.81c-4.33-2.75-9.31-4.14-14.8-4.14c-9.88,0-16.77,6-16.77,14.59v0.13c0,9.94,7.1,12.56,15.68,14.75 C177.68,112.84,178.24,113.95,178.24,115.55z M108.59,123.05c0,3.37,2.64,6,6,6h25.2c3.03,0,5.49-2.43,5.49-5.43 c0-3.03-2.46-5.49-5.49-5.49h-19.26v-7.29h16.05c3.03,0,5.49-2.43,5.49-5.43c0-3.03-2.46-5.49-5.49-5.49h-16.05v-6.97h18.94 c3.03,0,5.49-2.43,5.49-5.43c0-3.03-2.46-5.49-5.49-5.49H114.6c-3.37,0-6,2.64-6,6V123.05z M56.11,123.05c0,3.37,2.64,6,6,6h12.57 c14.44,0,24.92-9.89,24.92-23.51v-0.13c0-13.54-10.48-23.38-24.92-23.38H62.11c-3.37,0-6,2.64-6,6V123.05z M120.61,218.52 c0-1.05-0.31-2.09-0.84-3.25l-25.55-57.7c-1.78-3.98-4.92-6.39-9.32-6.39h-0.94c-4.4,0-7.64,2.41-9.42,6.39l-25.55,57.7 c-0.52,1.15-0.94,2.3-0.94,3.46c0,4.19,3.25,7.54,7.43,7.54c3.35,0,6.07-1.89,7.43-5.03l5.13-12.04h32.25l4.92,11.52 c1.47,3.35,3.98,5.55,7.75,5.55C117.26,226.27,120.61,222.81,120.61,218.52z M206.05,159.98c0-4.5-3.56-8.06-8.06-8.06h-1.78 c-3.25,0-5.55,1.36-7.22,4.08l-19.58,31.83l-19.48-31.73c-1.47-2.41-3.87-4.19-7.33-4.19h-1.78c-4.5,0-8.06,3.56-8.06,8.06v58.43 c0,4.4,3.46,7.85,7.85,7.85c4.4,0,7.96-3.46,7.96-7.85v-36.44l13.93,21.47c1.68,2.51,3.77,4.08,6.7,4.08c2.93,0,5.03-1.57,6.7-4.08 l14.14-21.78v36.54c0,4.4,3.56,8.06,7.96,8.06c4.5,0,8.06-3.56,8.06-8.06V159.98z M221.33,93.28h8.42c3.1,0,5.62-2.52,5.62-5.62 c0-3.1-2.52-5.62-5.62-5.62h-28.85c-3.1,0-5.62,2.52-5.62,5.62c0,3.1,2.52,5.62,5.62,5.62h8.42v30.16c0,3.37,2.64,6,6,6s6-2.64,6-6 V93.28z M279.56,218.52c0-3.98-3.25-7.23-7.23-7.23h-33.19V195.9h27.96c3.98,0,7.23-3.14,7.23-7.12c0-3.98-3.25-7.22-7.23-7.22 h-27.96v-14.87h32.67c3.98,0,7.22-3.14,7.22-7.12c0-3.98-3.25-7.23-7.22-7.23h-40.63c-4.5,0-8.06,3.56-8.06,8.06v57.17 c0,4.5,3.56,8.06,8.06,8.06h41.15C276.31,225.64,279.56,222.5,279.56,218.52z M281.53,102.61l17.84,23.4 c1.27,1.63,2.97,3.3,5.97,3.3h0.32c3.37,0,6-2.64,6-6V87.59c0-3.28-2.66-5.94-5.94-5.94c-3.27,0-5.94,2.66-5.94,5.94v19.98 l-17.13-22.5c-1.27-1.63-2.97-3.3-5.97-3.3h-1.03c-3.37,0-6,2.64-6,6v35.71c0,3.27,2.66,5.94,5.94,5.94s5.94-2.66,5.94-5.94V102.61 z M353.91,176.53c0-6.91-2.2-12.67-6.28-16.75c-4.82-4.82-12.04-7.43-21.36-7.43h-25.45c-4.5,0-8.06,3.56-8.06,8.06v57.8 c0,4.5,3.56,8.06,8.06,8.06c4.5,0,8.06-3.56,8.06-8.06v-16.02h12.88l15.71,19.89c1.88,2.41,4.29,4.19,7.96,4.19 c3.87,0,7.64-2.93,7.64-7.43c0-2.51-1.05-4.19-2.62-6.18l-11.2-13.61c8.9-3.66,14.66-10.79,14.66-22.3V176.53z M366.99,123.62 c0-0.74-0.19-1.52-0.6-2.42l-15.65-35.33c-1.31-2.93-3.68-4.54-6.68-4.54h-0.58c-3.04,0-5.43,1.61-6.75,4.55L321.1,121.2 c-0.33,0.73-0.67,1.61-0.67,2.56c0,3.19,2.47,5.68,5.62,5.68c2.45,0,4.52-1.39,5.53-3.73l2.87-6.72h18.34l2.74,6.41 c1.14,2.6,3.17,4.04,5.72,4.04C364.46,129.43,366.99,126.88,366.99,123.62z M384.79,159.77c0-4.5-3.56-8.06-8.06-8.06 c-4.5,0-8.06,3.56-8.06,8.06v58.43c0,4.5,3.56,8.06,8.06,8.06c4.5,0,8.06-3.56,8.06-8.06V159.77z M392.18,93.28h8.42 c3.1,0,5.62-2.52,5.62-5.62c0-3.1-2.52-5.62-5.62-5.62h-28.85c-3.1,0-5.62,2.52-5.62,5.62c0,3.1,2.52,5.62,5.62,5.62h8.42v30.16 c0,3.37,2.64,6,6,6c3.37,0,6-2.64,6-6V93.28z M465.74,211.92c0-4.08-3.46-7.43-7.54-7.43c-1.89,0-3.56,0.73-4.82,1.78 c-4.61,3.66-9.11,5.76-15.92,5.76c-12.57,0-21.26-10.47-21.26-23.04v-0.21c0-12.57,8.9-22.83,21.26-22.83 c5.76,0,10.47,1.89,14.97,5.24c1.15,0.73,2.62,1.57,4.82,1.57c4.4,0,7.96-3.46,7.96-7.85c0-2.83-1.47-5.13-3.14-6.39 c-6.07-4.5-13.51-7.43-24.5-7.43c-22.51,0-38.22,17.07-38.22,37.91v0.21c0,21.05,16.02,37.7,37.59,37.7 c11.73,0,19.48-3.46,26.07-9.21C464.48,216.42,465.74,214.43,465.74,211.92z M546.89,218.52c0-1.05-0.31-2.09-0.84-3.25 l-25.55-57.7c-1.78-3.98-4.92-6.39-9.32-6.39h-0.94c-4.4,0-7.64,2.41-9.42,6.39l-25.55,57.7c-0.52,1.15-0.94,2.3-0.94,3.46 c0,4.19,3.25,7.54,7.43,7.54c3.35,0,6.07-1.89,7.43-5.03l5.13-12.04h32.25l4.92,11.52c1.47,3.35,3.98,5.55,7.75,5.55 C543.54,226.27,546.89,222.81,546.89,218.52z M463.49,118.58c7.07,0,12.4-5.55,12.4-12.91v-0.13c0-7.43-5.39-13.04-12.53-13.04 c-7.07,0-12.4,5.55-12.4,12.91v0.13C450.97,112.98,456.35,118.58,463.49,118.58z M500.29,194.96h20.31l-10.16-24.19L500.29,194.96z M74.01,194.96h20.31l-10.16-24.19L74.01,194.96z"></path> </g> </svg> 