<?xml version="1.0" encoding="UTF-8"?> <svg xmlns="http://www.w3.org/2000/svg" xmlns:xlink="http://www.w3.org/1999/xlink" version="1.1" id="Layer_1" x="0px" y="0px" viewBox="0 0 600 204.53" style="enable-background:new 0 0 600 204.53;" xml:space="preserve"> <style type="text/css"> .st0{fill:#FFFFFF;} </style> <g id="Discovery_Family_Logo_1_"> <path id="Family_1_" class="st0" d="M40.69,89.2l59.37,0.51l-4.46,24.85l-59.57-0.52l-8.92,48.28L0,162.09L25.47,24.73l97.2,0.84 l-4.67,24.85l-70.1-0.61L40.69,89.2z M206.44,143.06c3.86,0.03,7.14-1.29,10.44-2.99l-2.69,21.37c-5.42,2.27-13.92,4.31-22.59,4.24 c-10.99-0.1-17.13-2.65-18.2-12.69c-8.17,8.03-20.15,12.16-32.3,12.06c-24.67-0.21-38.77-20.19-38.56-44.28 c0.32-36.82,25.2-60.12,56.61-59.85c12.53,0.11,21.75,3.85,27.09,10.65l1.43-8.66l26.99,0.23L201.9,132.8 C200.7,138.57,201.43,143.01,206.44,143.06z M182,93.69c-3.43-4.85-11.1-9.16-19.58-9.23c-18.5-0.16-31.74,14.18-31.91,34.23 c-0.12,13.49,7.71,23.01,21.2,23.12c8.29,0.07,17-3.9,23.02-8.86L182,93.69z M381.56,134.35l5.05-26.94 c4.65-24.83-3.66-44.57-30.46-44.8c-14.46-0.13-27.03,5.36-35.41,15.7c-3.77-10.06-12-16.3-28.2-16.44 c-13.49-0.12-23.56,4.42-31.91,11.68l2.02-10.01l-26.99-0.23l-18.61,100.66l26.99,0.23l11.33-61.78c4.5-8.06,12.67-15.7,23.46-15.6 c12.72,0.11,16.88,9.4,14.25,24.03l-9.91,53.7l26.98,0.23l10.72-57.93l0.81-4.24c4.12-7.87,12.28-15.31,22.69-15.22 c12.53,0.11,17.08,9.4,14.44,24.22l-5.26,28.87c-3.44,18.86,5.17,26.65,19.24,26.77c8.09,0.07,16.01-1.4,21.04-3.48l2.7-22.15 c-3.68,1.7-7.35,3.02-10.44,2.99C381.09,144.57,380.55,140.13,381.56,134.35z M429.68,55.49c10.99,0.1,18.35-4.28,18.45-16.23 c0.07-7.71-5.11-10.45-13.21-10.52c-10.99-0.1-18.73,4.08-18.84,16.03C416.02,52.48,421.39,55.42,429.68,55.49z M427.45,134.75 l12.94-69.67l-26.99-0.23l-14.15,76.02c-3.44,18.67,4.59,26.64,19.24,26.77c8.68,0.08,17.17-1.78,21.24-3.47l2.7-22.15 c-1.94,1.14-6.39,3.03-10.24,2.99C426.79,144.96,426.44,140.52,427.45,134.75z M491.58,142.44c-3.68,1.7-7.35,3.02-11.4,2.98 c-4.82-0.04-6.52-4.1-5.3-11.03L494.29,29.5l-26.99-0.23l-20.42,109.9c-3.85,21.36,5.53,28.77,20.18,28.9 c9.25,0.08,16.98-1.78,21.81-3.66L491.58,142.44z M571.86,66.22l-38.59,70.99L520.2,65.77l-28.91-0.25l26.33,98.35l-2.94,5.18 c-5.28,8.63-9.94,12.83-18.23,12.76c-7.13-0.06-13.66-2.62-17.88-5.36l-7.7,20.95c4.41,3.31,13.24,7.05,22.3,7.13 c23.13,0.2,33.26-11.66,46.37-34.11L600,66.46L571.86,66.22z"></path> <path id="Discovery_3_" class="st0" d="M192.06,19.73c0,11.19-8.59,19.84-21.03,19.84H159c2.43-1.62,4.45-3.78,5.91-6.33h6.12 c8.31,0,13.74-5.59,13.74-13.39c0-7.8-5.43-13.51-13.74-13.51h-7.8v5.82c-1.15-1.42-2.48-2.69-3.99-3.73 c-0.93-0.64-1.92-1.19-2.96-1.65V0h14.75C183.47,0,192.06,8.53,192.06,19.73z M196.02,39.8h6.84V9.94h-6.84V39.8z M228.25,25.01 c-0.88-0.66-1.87-1.21-2.97-1.67c-1.1-0.45-2.18-0.85-3.28-1.19c-0.87-0.3-1.7-0.58-2.52-0.85c-0.81-0.26-1.53-0.56-2.15-0.87 c-0.62-0.32-1.12-0.68-1.5-1.08c-0.38-0.39-0.57-0.86-0.57-1.39v-0.11c0-0.87,0.37-1.59,1.1-2.15c0.73-0.56,1.76-0.85,3.08-0.85 c1.25,0,2.6,0.25,4.07,0.76s2.92,1.2,4.36,2.06l2.71-4.87c-1.58-1.05-3.33-1.88-5.26-2.48c-1.92-0.61-3.83-0.91-5.71-0.91 c-1.47,0-2.86,0.21-4.16,0.62c-1.3,0.42-2.43,1.02-3.39,1.81c-0.96,0.79-1.72,1.74-2.26,2.85c-0.55,1.12-0.82,2.39-0.82,3.82v0.11 c0,1.43,0.28,2.64,0.85,3.62c0.56,0.98,1.29,1.8,2.18,2.46c0.89,0.66,1.89,1.2,3,1.61c1.11,0.41,2.21,0.77,3.31,1.07 c0.87,0.26,1.71,0.52,2.52,0.76c0.81,0.24,1.52,0.53,2.15,0.85c0.62,0.32,1.11,0.69,1.47,1.1c0.36,0.42,0.54,0.91,0.54,1.47v0.11 c0,0.98-0.41,1.76-1.22,2.35c-0.81,0.58-1.95,0.88-3.42,0.88c-1.55,0-3.16-0.31-4.83-0.93c-1.68-0.62-3.33-1.54-4.95-2.74 l-3.05,4.64c1.88,1.47,3.93,2.58,6.14,3.34c2.2,0.76,4.38,1.13,6.53,1.13c1.54,0,3-0.2,4.36-0.59c1.36-0.4,2.53-0.98,3.53-1.75 c1-0.77,1.78-1.74,2.35-2.91c0.57-1.17,0.85-2.55,0.85-4.13v-0.11c0-1.36-0.28-2.51-0.85-3.45 C229.86,26.47,229.14,25.67,228.25,25.01z M294.29,18.79c0.79,1.87,1.19,3.88,1.19,6.03v0.11c0,2.11-0.41,4.11-1.22,5.99 c-0.81,1.88-1.92,3.54-3.34,4.95c-1.41,1.42-3.1,2.53-5.06,3.37c-1.96,0.83-4.09,1.25-6.39,1.25c-2.26,0-4.36-0.41-6.3-1.22 c-1.94-0.81-3.62-1.91-5.04-3.31c-1.42-1.4-2.51-3.03-3.31-4.92c-0.79-1.89-1.19-3.89-1.19-6v-0.11c0-2.15,0.4-4.17,1.22-6.05 c0.81-1.88,1.92-3.53,3.34-4.94c1.41-1.42,3.09-2.54,5.03-3.37c1.94-0.83,4.06-1.25,6.36-1.25c2.3,0,4.42,0.4,6.36,1.21 c1.94,0.81,3.62,1.92,5.03,3.34C292.4,15.28,293.5,16.92,294.29,18.79z M288.64,24.93c0-1.32-0.23-2.56-0.68-3.73 c-0.45-1.17-1.08-2.19-1.89-3.06c-0.81-0.87-1.77-1.56-2.89-2.06c-1.11-0.51-2.35-0.76-3.7-0.76c-1.36,0-2.59,0.25-3.7,0.76 c-1.11,0.51-2.07,1.19-2.86,2.04c-0.79,0.85-1.4,1.85-1.81,3c-0.42,1.15-0.62,2.39-0.62,3.71v0.11c0,1.28,0.23,2.51,0.68,3.67 c0.45,1.17,1.08,2.2,1.9,3.08c0.81,0.88,1.77,1.58,2.88,2.09c1.11,0.51,2.33,0.77,3.65,0.77c1.4,0,2.65-0.26,3.76-0.77 c1.12-0.51,2.07-1.19,2.86-2.06c0.79-0.87,1.39-1.87,1.81-3.03c0.41-1.15,0.62-2.37,0.62-3.64V24.93z M311.14,31.89l-8.03-21.95 h-7.35l12.27,30.09h6.16l12.22-30.09h-7.18L311.14,31.89z M355.06,19.24c0.6,1.94,0.9,3.99,0.9,6.14c0,0.3-0.01,0.61-0.03,0.93 c-0.02,0.32-0.05,0.65-0.09,0.99h-21.94c0.38,2.45,1.35,4.33,2.91,5.62c1.57,1.3,3.46,1.96,5.68,1.96c1.7,0,3.17-0.3,4.41-0.91 c1.25-0.6,2.47-1.49,3.67-2.66l4.02,3.56c-1.44,1.7-3.14,3.05-5.12,4.07c-1.98,1.02-4.35,1.53-7.1,1.53 c-2.15,0-4.15-0.38-6.02-1.13c-1.86-0.75-3.48-1.81-4.86-3.17c-1.37-1.36-2.46-2.99-3.25-4.89c-0.79-1.9-1.19-4.01-1.19-6.31v-0.11 c0-2.14,0.36-4.16,1.07-6.05c0.72-1.89,1.73-3.53,3.03-4.95c1.3-1.42,2.83-2.53,4.61-3.34c1.77-0.81,3.73-1.21,5.88-1.21 c2.37,0,4.46,0.44,6.25,1.3c1.79,0.87,3.28,2.04,4.47,3.51C353.57,15.59,354.46,17.3,355.06,19.24z M349.18,22.06 c-0.11-1.09-0.36-1.4-0.74-2.37c-0.37-0.96-0.89-1.8-1.52-2.51c-0.65-0.72-1.41-1.27-2.29-1.67c-0.88-0.39-1.89-0.59-3.03-0.59 c-2.11,0-3.85,0.73-5.23,2.18c-1.37,1.45-2.21,2.63-2.52,4.97H349.18z M250.13,34.52c-5.26,0-8.93-4.29-8.93-9.66 c0-5.26,3.62-9.56,8.59-9.56c3.45,0,5.65,1.53,7.74,3.73l4.24-4.58c-2.77-3.05-6.28-5.14-11.93-5.14 c-8.93,0-15.49,7.12-15.49,15.66c0,8.53,6.56,15.49,15.43,15.49c5.82,0,9.27-2.32,12.21-5.6l-4.13-4.07 C255.72,33,253.35,34.52,250.13,34.52z M367.92,14.87V9.94h-6.84V39.8h6.84V28.43c0-2,0.19-3.75,0.74-5.2 c2.06-5.43,7.8-6.98,10.78-7.42l-2.35-5.71C374.7,10.52,370.5,11.67,367.92,14.87z M403.66,9.93l-7.65,21.89l-7.14-21.89h-7.29 l11.09,29.65l-0.09,0.21c0,0-2.23,6.05-4.25,7.51c-1.56,0.8-5.2,0.74-6.58,0.64v5.59c2.41,0,8.07,0.15,9.9-1 c2.29-1.45,2.8-2.07,4.37-5.24c1.7-3.45,14.78-37.35,14.78-37.35H403.66z"></path> <path id="Globe_2_" class="st0" d="M142.84,15.86c0.07,0.01,0.13,0.03,0.19,0.04c0.1,0.01,0.19-0.01,0.27-0.08 c0.08-0.07,0.18-0.11,0.28-0.14c0.07-0.02,0.09-0.09,0.05-0.15c-0.02-0.02-0.03-0.04-0.05-0.06c-0.05-0.05-0.11-0.09-0.19-0.07 c-0.06,0.01-0.12,0-0.18-0.03c-0.05-0.03-0.09-0.05-0.15-0.04c-0.22,0.02-0.3,0.07-0.43,0.26c-0.02,0.04-0.05,0.07-0.06,0.11 c-0.03,0.06-0.08,0.12-0.13,0.16c-0.12,0.09-0.2,0.22-0.27,0.35c-0.01,0.01,0,0.03,0.01,0.05c0,0,0.02,0,0.02,0 c0.07-0.03,0.14-0.08,0.22-0.07c0.05,0,0.09-0.02,0.12-0.05C142.64,16.06,142.74,15.96,142.84,15.86z M159.64,12.92 c-2.84-2.83-6.75-4.59-11.08-4.59c-4.33,0-8.24,1.75-11.08,4.59c-2.84,2.84-4.59,6.75-4.59,11.08c0,4.33,1.75,8.24,4.59,11.08 c2.84,2.83,6.75,4.59,11.08,4.59c4.33,0,8.24-1.76,11.08-4.59c2.83-2.83,4.59-6.75,4.59-11.08 C164.23,19.67,162.47,15.75,159.64,12.92z M149.86,21.72c0.01-0.01,0.02-0.03,0.03-0.04c0.07-0.03,0.15-0.05,0.22-0.08 c0.04-0.02,0.08-0.04,0.12-0.06c0.07-0.05,0.07-0.11,0.01-0.15c-0.04-0.03-0.09-0.06-0.12-0.1c-0.05-0.04-0.1-0.06-0.17-0.07 c0.03-0.05,0.07-0.08,0.12-0.09c0.12-0.01,0.22-0.07,0.31-0.14c0.09-0.07,0.2-0.1,0.32-0.12c0.04-0.01,0.09-0.01,0.13,0 c0.12,0.03,0.24,0.03,0.37,0c0.03-0.01,0.07,0,0.1,0.01c0.02,0,0.05,0.04,0.04,0.06c0,0.02-0.01,0.04-0.02,0.04 c-0.05,0.03-0.1,0.05-0.14,0.07c-0.07,0.03-0.14,0.07-0.2,0.12c-0.03,0.02-0.06,0.05-0.09,0.06c-0.12,0.02-0.16,0.09-0.17,0.2 c0,0.05-0.05,0.07-0.1,0.07c-0.02,0-0.04,0-0.05-0.01c-0.07-0.01-0.14,0-0.2,0.04c-0.11,0.07-0.24,0.11-0.36,0.17 c-0.02,0.01-0.05,0.02-0.08,0.02C149.9,21.75,149.86,21.73,149.86,21.72z M149.52,21.27c-0.07,0.11-0.16,0.18-0.28,0.23 c-0.14,0.05-0.27,0.13-0.4,0.2c-0.04,0.02-0.08,0.01-0.08-0.03c-0.01-0.04,0-0.1-0.05-0.12c-0.03-0.01-0.07-0.01-0.1,0 c-0.04,0-0.07,0.02-0.1,0.02c-0.08,0.01-0.16,0-0.23-0.05c-0.03-0.03-0.07-0.05-0.11-0.06c-0.1,0.03-0.2,0.06-0.29,0.08 c-0.05,0.01-0.11,0.03-0.16,0.02c-0.12-0.02-0.23,0.02-0.33,0.06c-0.04,0.01-0.08,0.03-0.11,0.04c-0.04-0.01-0.05-0.03-0.06-0.06 c-0.01-0.03-0.04-0.04-0.06-0.04c-0.12,0.03-0.23,0.08-0.3,0.2c-0.06,0.11-0.17,0.18-0.24,0.28c-0.01,0.01-0.03,0.01-0.05,0.01 c-0.01-0.01-0.02-0.02-0.03-0.04c-0.01-0.06,0-0.11,0.04-0.15c0.07-0.08,0.14-0.16,0.22-0.23c0.06-0.05,0.12-0.1,0.19-0.14 c0.02-0.01,0.04-0.03,0.07-0.04c0.18-0.06,0.35-0.14,0.53-0.17c0.05-0.01,0.11-0.01,0.16,0c0.07,0.01,0.14,0.01,0.21,0 c0.09-0.01,0.18-0.02,0.26-0.02c0.12,0,0.25,0,0.37,0c0.12,0,0.25,0,0.37-0.02c0.03-0.01,0.07-0.01,0.1,0 c0.06,0.02,0.12,0.02,0.18,0C149.34,21.21,149.43,21.23,149.52,21.27z M148.22,12.21c0-0.02,0.04-0.05,0.06-0.04 c0.02,0,0.03,0.01,0.04,0.02c0.01,0.01,0.02,0.03,0.03,0.05c0.01,0.03,0.02,0.07,0.04,0.1c0.02,0.06,0.06,0.09,0.12,0.07 c0.02-0.01,0.05-0.02,0.08-0.02c0.14,0.01,0.26-0.02,0.37-0.11c0.04-0.03,0.08-0.02,0.12,0.01c0.03,0.03,0.07,0.06,0.1,0.08 c0.11,0.07,0.11,0.08,0.07,0.21c0,0-0.01,0.02-0.02,0.03c-0.24,0.11-0.47,0.22-0.71,0.33c-0.03,0.02-0.08,0-0.09-0.03 c-0.06-0.17-0.13-0.35-0.19-0.52c-0.02-0.04-0.02-0.09-0.03-0.13C148.21,12.24,148.22,12.22,148.22,12.21z M142.69,10.07 c0.04-0.04,0.08-0.07,0.12-0.11c0.02-0.02,0.02-0.05-0.01-0.07c-0.03-0.03-0.04-0.06-0.01-0.09c0.04-0.04,0.07-0.08,0.12-0.11 c0.04-0.03,0.09-0.05,0.14-0.08c0.07-0.04,0.14-0.08,0.18-0.15c0.07-0.1,0.18-0.16,0.29-0.17c0.19-0.02,0.35-0.11,0.52-0.19 c0.06-0.03,0.11-0.05,0.18-0.06c0.19-0.02,0.39-0.04,0.58-0.07c0.07-0.01,0.14-0.03,0.21-0.04c0.21-0.02,0.42-0.06,0.63-0.1 c0.15-0.03,0.3-0.03,0.44,0.04c0.05,0.02,0.1,0.01,0.16,0.01c0.09-0.01,0.17-0.03,0.26-0.04c0.03,0,0.05,0.01,0.06,0.04 c0.01,0.02,0.02,0.05,0.05,0.06c0.05,0.01,0.11,0.02,0.16,0c0.06-0.02,0.11-0.06,0.17-0.08c0.06-0.02,0.1,0,0.14,0.04 c0.03,0.03,0.04,0.06,0.03,0.1c-0.01,0.03-0.02,0.05-0.03,0.07c-0.03,0.06-0.02,0.11,0.05,0.16c0.02,0.01,0.04,0.03,0.06,0.05 c0.03,0.02,0.03,0.07,0.01,0.09c-0.02,0.02-0.04,0.04-0.06,0.05c-0.05,0.06-0.03,0.18,0.03,0.21c0.05,0.03,0.1,0.04,0.14,0.07 c0.05,0.02,0.1,0.04,0.14,0.07c0.07,0.07,0.16,0.11,0.24,0.16c0.09,0.05,0.18,0.11,0.27,0.17c0.01,0,0.01,0.02,0.01,0.03 c-0.01,0.01-0.02,0.03-0.03,0.04c-0.04,0.01-0.09,0.02-0.13,0.03c-0.13,0-0.26,0.01-0.38,0.08c-0.04,0.02-0.1,0.03-0.15,0.03 c-0.19,0-0.37,0.01-0.56-0.03c-0.07-0.02-0.14-0.01-0.21-0.03c-0.03-0.01-0.07-0.02-0.09-0.05c-0.04-0.03-0.08-0.05-0.12-0.03 c-0.06,0.03-0.11,0.04-0.18,0.03c-0.05-0.01-0.11-0.01-0.16-0.01c-0.15,0.01-0.28-0.06-0.41-0.09c-0.04-0.01-0.07-0.05-0.09-0.09 c-0.01-0.02-0.01-0.05-0.02-0.08c-0.01-0.04-0.03-0.06-0.07-0.07c-0.1-0.03-0.2-0.06-0.31-0.07c-0.12-0.01-0.25,0.02-0.36,0.08 c-0.03,0.01-0.06,0.03-0.1,0.05c-0.24-0.09-0.24-0.09-0.46-0.09c-0.04,0-0.07,0-0.11,0c-0.3-0.02-0.58,0.07-0.84,0.21 c-0.02,0.01-0.05,0.03-0.07,0.04c-0.07,0.05-0.15,0.07-0.23,0.04c-0.08-0.02-0.15-0.02-0.24-0.01 C142.68,10.1,142.68,10.08,142.69,10.07z M141.71,10.66c0.02-0.02,0.05-0.05,0.07-0.08c0.03-0.03,0.03-0.03,0-0.09 c-0.01-0.01-0.01-0.02-0.02-0.02c0,0,0.06-0.04,0.07-0.05c0.01-0.02,0-0.07,0-0.08c-0.02-0.03-0.06-0.02-0.08-0.05 c-0.02-0.04,0.04-0.07,0.07-0.09c0.07-0.05,0.15-0.11,0.23-0.15c0.16-0.09,0.33-0.17,0.52-0.21c-0.02,0.14-0.1,0.24-0.21,0.31 c-0.05,0.12-0.09,0.22-0.13,0.32c-0.04,0.05-0.09,0.07-0.13,0.09c-0.11,0.05-0.22,0.1-0.33,0.15c-0.02,0.01-0.03-0.01-0.04-0.02 C141.71,10.68,141.71,10.67,141.71,10.66z M141.6,11.24c0.03-0.07,0.07-0.12,0.13-0.16c0.01-0.01,0.03-0.02,0.05-0.03 c0.02-0.01,0.04,0,0.05,0.02c0.01,0.02,0.01,0.05,0.02,0.07c0.02,0.04,0.05,0.07,0.09,0.08c0.02,0,0.03,0,0.05-0.01 c0,0,0.01-0.01,0.01-0.02c-0.01-0.03-0.02-0.05-0.02-0.07c0-0.02,0-0.05,0.01-0.07c0.05-0.08,0.11-0.14,0.2-0.18 c0.06-0.03,0.13-0.05,0.19-0.08c0.11-0.06,0.23-0.08,0.36-0.05c0.14,0.03,0.28,0.03,0.42-0.04c0.02-0.01,0.05-0.02,0.08-0.02 c0.15,0.02,0.3-0.03,0.45-0.06c0.02,0,0.03,0,0.06,0c0.01,0.02,0.03,0.04,0.05,0.06c0.03,0.04,0.07,0.06,0.11,0.06 c0.11,0.01,0.21,0.01,0.32-0.02c0.1-0.03,0.21-0.05,0.31-0.05c0.09,0,0.17-0.04,0.26-0.06c0.01,0,0.03,0.02,0.04,0.03 c0.02,0.09-0.01,0.16-0.07,0.21c-0.02,0.02-0.05,0.02-0.07,0.03c-0.03,0-0.07,0-0.1-0.01c-0.11-0.01-0.21,0.02-0.31,0.06 c-0.02,0.01-0.04,0.05-0.03,0.07c0.01,0.01,0.02,0.04,0.03,0.04c0.03,0.01,0.07,0.02,0.1,0.02c0.1,0.01,0.19,0,0.29-0.01 c0.09-0.01,0.18,0.01,0.25,0.05c0.03,0.02,0.04,0.07,0.01,0.09c-0.03,0.02-0.06,0.04-0.09,0.05c-0.08,0.02-0.16,0.03-0.24,0.04 c-0.02,0-0.05,0-0.07,0.03c0.02,0.01,0.05,0.02,0.07,0.02c0.09,0.01,0.18,0.01,0.27,0.01c0.01,0,0.02,0.01,0.02,0.01 c0.01,0.02,0,0.04-0.02,0.04c-0.08,0.03-0.17,0.06-0.25,0.08c-0.09,0.02-0.19,0.04-0.29,0.05c-0.05,0.01-0.1,0.01-0.16,0 c-0.05,0-0.1-0.02-0.16-0.03c-0.19-0.03-0.37,0.02-0.53,0.13c-0.04,0.03-0.08,0.07-0.13,0.09c-0.03,0.02-0.07,0.02-0.1,0.02 c-0.01,0-0.03-0.02-0.04-0.03c-0.01-0.02,0-0.04,0.01-0.05c0.02-0.02,0.05-0.05,0.08-0.06c0.06-0.04,0.12-0.06,0.19-0.1 c0.03-0.02,0.05-0.04,0.07-0.06c0.04-0.05,0-0.1,0-0.14c0-0.04,0.01-0.09,0-0.13c0-0.05-0.03-0.08-0.07-0.11 c-0.05-0.03-0.1-0.04-0.15-0.04c-0.21,0.01-0.42,0.03-0.63,0.04c-0.03,0-0.07,0.01-0.1,0.03c-0.05,0.05-0.12,0.08-0.18,0.11 c-0.1,0.05-0.21,0.09-0.3,0.17c-0.11,0.01-0.21,0.05-0.31,0.07c-0.03,0.01-0.07,0.03-0.1,0.01c-0.02-0.01-0.02-0.04-0.04-0.06 c-0.01-0.01-0.03-0.01-0.05-0.02C141.59,11.35,141.57,11.31,141.6,11.24z M142.83,12.09c0,0-0.01,0.01-0.02,0.02 c-0.08,0.03-0.18,0-0.25,0.06c-0.06,0.05-0.11,0.12-0.16,0.17c-0.03,0.03-0.06,0.03-0.1,0.03c-0.03-0.01-0.07-0.01-0.1-0.02 c-0.01-0.03-0.03-0.06-0.03-0.1c-0.03-0.15,0.03-0.18,0.14-0.2c0.17-0.03,0.33-0.02,0.5,0.02 C142.82,12.06,142.83,12.07,142.83,12.09z M138.88,12.46c0.08-0.13,0.18-0.26,0.3-0.37c0.1-0.1,0.22-0.13,0.36-0.13 c0.03,0,0.04,0.03,0.05,0.05c0.08,0.03,0.15,0.01,0.23,0c0.07-0.01,0.14-0.04,0.2,0c0.06-0.02,0.06-0.07,0.08-0.11 c0.01-0.02,0.03-0.04,0.05-0.06c0.02-0.02,0.08-0.01,0.09,0.02c0,0.02,0.01,0.03,0.01,0.05c0,0.08,0.01,0.14,0.07,0.19 c0.04,0.03,0.01,0.08,0,0.12c0,0.02,0,0.04,0,0.06l0,0c-0.05,0.05-0.11,0.08-0.18,0.1c-0.06,0.01-0.12,0.02-0.18,0.03 c-0.18,0.13-0.35,0.26-0.57,0.33c-0.08-0.01-0.15-0.01-0.23-0.02c-0.01,0-0.02-0.01-0.02-0.01c0-0.02,0.01-0.04,0.02-0.05 c0.05-0.03,0.09-0.07,0.14-0.1c0.1-0.06-0.05-0.06-0.09-0.06c0.02-0.12,0.08-0.22,0.15-0.32c-0.07,0.02-0.13,0.05-0.18,0.1 c-0.06,0.06-0.11,0.11-0.17,0.16c-0.03,0.03-0.06,0.04-0.09,0.06c-0.01,0.01-0.04,0-0.05,0C138.88,12.5,138.87,12.47,138.88,12.46z M161.8,24.64c-0.02,0.1-0.05,0.21-0.05,0.31c0,0.16-0.02,0.32-0.1,0.46c-0.04,0.08-0.04,0.17-0.03,0.26 c0.02,0.15,0.03,0.3,0.07,0.45c0.07,0.25,0.07,0.51,0.02,0.76c-0.02,0.09-0.02,0.19-0.02,0.29c0,0.1-0.01,0.19-0.03,0.29 c-0.04,0.17-0.08,0.34-0.11,0.52c-0.02,0.12-0.06,0.24-0.11,0.35c-0.03,0.09-0.08,0.16-0.15,0.22c-0.16,0.14-0.3,0.3-0.39,0.49 c-0.02,0.05-0.06,0.08-0.1,0.13c-0.06,0.09-0.13,0.17-0.18,0.26c-0.07,0.12-0.13,0.25-0.19,0.38c-0.05,0.09-0.07,0.18-0.07,0.28 c0,0.08,0,0.16,0,0.24c0.01,0.16-0.03,0.32-0.11,0.46c-0.06,0.11-0.11,0.22-0.15,0.34c-0.02,0.06-0.05,0.11-0.1,0.15 c-0.04,0.03-0.07,0.08-0.09,0.13c-0.05,0.14-0.13,0.27-0.17,0.42c-0.01,0.05-0.05,0.09-0.08,0.13c-0.05,0.06-0.09,0.13-0.1,0.21 l0,0c-0.02,0.03-0.03,0.06-0.03,0.1c0,0.11-0.06,0.2-0.12,0.29c-0.09,0.12-0.21,0.22-0.35,0.27c-0.1,0.04-0.21,0.09-0.33,0.05 c-0.04-0.01-0.06,0.02-0.05,0.07c0.01,0.05,0.04,0.08,0.08,0.09c0.03,0.01,0.07,0.02,0.1,0.05c0.02,0.07,0.08,0.13,0.08,0.23 c-0.03,0.07-0.07,0.15-0.11,0.23c-0.06,0.13-0.15,0.24-0.27,0.32c-0.14,0.11-0.27,0.23-0.42,0.32c-0.05,0.03-0.09,0.08-0.1,0.15 l-0.01,0.03c-0.03,0.21-0.14,0.36-0.35,0.42c-0.1,0.03-0.12,0.09-0.11,0.19c0,0.02,0.01,0.05,0.01,0.08 c0.01,0.06,0.01,0.12-0.03,0.18c-0.01,0.02-0.02,0.03-0.02,0.05c-0.06,0.2-0.25,0.16-0.37,0.32c-0.13,0.17,0.01,0.14,0.03,0.3 c0.02,0.19-0.39,0.65-0.31,0.76c0.03,0.04,0.07,0.03,0.1,0.04c0.03,0.01,0.04,0.04,0.02,0.06c-0.04,0.03-0.08,0.07-0.13,0.1 c-0.02,0.01-0.05,0.01-0.08,0.01c-0.03-0.01-0.07-0.02-0.1-0.04c-0.08,0.01-0.16,0.02-0.24,0.03c-0.04,0.01-0.08,0.03-0.12,0.05v0 l0,0v0c-0.08-0.03-0.15-0.08-0.21-0.14c0-0.09,0.08-0.13,0.1-0.2c0-0.06-0.03-0.12,0-0.18c0.06-0.14,0.07-0.29,0.07-0.44 c0-0.07,0-0.14,0.01-0.21c0-0.02-0.04-0.05-0.06-0.04c-0.01,0.01-0.02,0.01-0.02,0.02c-0.01,0-0.01,0.01-0.02,0.02 c-0.02,0.02-0.04,0.03-0.07,0.02c-0.02-0.01-0.04-0.05-0.04-0.09c0.01-0.06,0.02-0.12,0.02-0.17c-0.02-0.11-0.11-0.18-0.11-0.3 c0.09-0.19,0.12-0.41,0.16-0.63c0.04-0.21,0.04-0.42-0.08-0.62c-0.04-0.07-0.06-0.15-0.04-0.23c0.02-0.06,0-0.12-0.03-0.18 c-0.01-0.02-0.02-0.05-0.03-0.07c0-0.03,0-0.06,0-0.06c0.03-0.24,0.03-0.45-0.02-0.66c-0.03-0.12-0.06-0.24-0.09-0.36 c-0.03-0.1-0.05-0.2-0.06-0.31c-0.01-0.18-0.03-0.35-0.11-0.52c-0.02-0.03-0.02-0.07-0.04-0.1c-0.04-0.11-0.1-0.21-0.16-0.3 c-0.04-0.06-0.08-0.09-0.14-0.11c-0.18-0.06-0.36-0.11-0.55-0.1c-0.12,0.01-0.25,0.01-0.37,0.03c-0.23,0.04-0.46,0.02-0.68-0.05 c-0.11-0.03-0.2-0.08-0.24-0.19c-0.03-0.07-0.08-0.11-0.15-0.15c-0.07-0.04-0.14-0.08-0.21-0.12c-0.07-0.04-0.14-0.08-0.21-0.12 c-0.24-0.16-0.47-0.32-0.68-0.5c-0.01-0.01-0.02-0.03-0.04-0.04c-0.05-0.03-0.09-0.06-0.14-0.08c-0.09-0.03-0.16-0.07-0.23-0.13 c-0.09-0.07-0.19-0.1-0.3-0.1c-0.03,0-0.05,0-0.08,0c-0.09,0-0.18-0.01-0.2-0.13c-0.01-0.03-0.04-0.05-0.06-0.08 c-0.04-0.04-0.07-0.08-0.11-0.12c-0.07-0.07-0.08-0.15-0.06-0.24c0.02-0.07,0.04-0.14,0.08-0.2c0.03-0.05,0.06-0.09,0.08-0.14 c0.01-0.03,0.01-0.07,0.01-0.1c0-0.06-0.05-0.07-0.11-0.05l0,0.01l0,0l0,0c-0.02,0-0.03,0.01-0.05,0.01 c-0.1,0.01-0.17-0.02-0.22-0.11c-0.04-0.08-0.08-0.16-0.11-0.23c0.01-0.1,0.01-0.19,0.02-0.27c0.02-0.1,0.02-0.19-0.02-0.29 c-0.01-0.04,0-0.07,0.02-0.1c0.03-0.03,0.06-0.07,0.09-0.1c0.07-0.07,0.1-0.14,0.09-0.24c-0.01-0.09-0.01-0.18-0.01-0.27 c0.01-0.02,0.02-0.05,0.04-0.07c0.12-0.11,0.13-0.26,0.15-0.41c0-0.05-0.01-0.09-0.04-0.12c-0.06-0.06-0.1-0.12-0.13-0.2 c-0.05-0.11-0.11-0.22-0.16-0.33c-0.06-0.14-0.16-0.26-0.32-0.3c-0.03-0.01-0.07-0.02-0.1-0.04c-0.07-0.03-0.12-0.07-0.14-0.15 c-0.03-0.1-0.11-0.13-0.2-0.14c-0.05,0-0.11,0-0.16,0c-0.08,0-0.13,0.04-0.17,0.11c-0.04,0.08-0.07,0.16-0.11,0.24 c-0.09,0.19,0.32,0.21-0.1,0.31c-0.19,0.04-0.4-0.02-0.59,0c-0.12,0.02-0.89-0.1-0.89-0.14c0,0.03,0.01,0.05-0.03,0.07 c-0.03,0-0.06-0.01-0.1-0.01c-0.08-0.02-0.12-0.06-0.15-0.14c0-0.02-0.01-0.03-0.01-0.05c-0.02-0.07-0.01-0.11,0.05-0.14 c0.04-0.02,0.08-0.04,0.11-0.06c0.02-0.01,0.02-0.06,0-0.07c-0.08-0.07-0.17-0.1-0.26-0.11c-0.03,0-0.07,0-0.1,0.03 c-0.04,0.04-0.01,0.08,0.02,0.12c0.01,0.02,0.02,0.03,0.03,0.05c0,0.01,0,0.02,0,0.03c0,0-0.02,0.01-0.02,0.01 c-0.15-0.02-0.27-0.1-0.41-0.14c-0.09-0.03-0.18-0.07-0.25-0.15c-0.04-0.05-0.09-0.05-0.15-0.01c-0.07,0.04-0.13,0.09-0.21,0.1 c-0.15,0.02-0.3,0.05-0.45,0.06c-0.11,0.01-0.21,0.02-0.31,0.04c-0.14,0.03-0.28,0.02-0.42-0.02c-0.06-0.02-0.11-0.04-0.17-0.07 c-0.11-0.04-0.22-0.08-0.33-0.11c-0.12-0.04-0.24-0.05-0.37-0.04c-0.08,0-0.13,0.03-0.18,0.1c-0.05,0.07-0.09,0.13-0.15,0.19 c-0.08,0.08-0.17,0.12-0.28,0.13c-0.15,0.01-0.3,0.03-0.45,0.01c-0.09-0.01-0.18-0.01-0.26-0.01c-0.14,0-0.28,0-0.43,0 c-0.11,0-0.21-0.01-0.31-0.04c-0.08-0.03-0.17-0.03-0.26-0.02c-0.04,0.01-0.09,0.01-0.13,0.01c-0.1,0-0.2,0-0.28-0.06 c-0.06-0.03-0.13-0.05-0.2-0.05c-0.13,0-0.24-0.06-0.34-0.14c-0.06-0.05-0.1-0.1-0.09-0.18c0.01-0.08-0.01-0.16-0.03-0.23 c-0.01-0.02-0.01-0.05-0.03-0.07c-0.12-0.16-0.22-0.35-0.42-0.43c-0.05-0.02-0.09-0.06-0.13-0.09c-0.04-0.03-0.08-0.07-0.13-0.09 c-0.12-0.06-0.24-0.12-0.34-0.21c-0.03-0.02-0.06-0.03-0.09-0.05c-0.05-0.02-0.1-0.04-0.15-0.05c-0.05-0.02-0.09-0.05-0.1-0.11 c-0.01-0.07-0.03-0.12-0.1-0.15c-0.12-0.05-0.24-0.12-0.33-0.22c-0.02-0.02-0.06-0.04-0.09-0.05c-0.09-0.03-0.16-0.08-0.22-0.14 c-0.15-0.14-0.28-0.3-0.37-0.48c-0.1-0.21-0.15-0.21-0.35-0.2c-0.02,0-0.03,0-0.05,0.01c-0.02,0-0.05,0.03-0.05,0.06 c0,0.04,0,0.07,0.01,0.11c0.02,0.07,0.06,0.15,0.08,0.22c0.02,0.08,0.07,0.14,0.14,0.19c0.15,0.1,0.28,0.22,0.38,0.37 c0.05,0.07,0.1,0.12,0.16,0.18c0.15,0.12,0.29,0.26,0.39,0.43c0.07,0.11,0.15,0.22,0.2,0.34c0.03,0.01,0.06,0.03,0.08,0.03 c0.12,0,0.2,0.07,0.26,0.16c0.01,0.01,0.02,0.03,0.02,0.05c0,0.02-0.01,0.05-0.03,0.07c-0.01,0.02-0.05,0.02-0.07,0 c-0.12-0.11-0.25-0.19-0.41-0.24c-0.01,0-0.02-0.01-0.02-0.01c-0.1-0.05-0.18-0.1-0.19-0.23c0-0.04-0.02-0.09-0.04-0.13 c-0.02-0.04-0.05-0.08-0.08-0.1c-0.1-0.05-0.19-0.12-0.32-0.12c-0.08,0-0.15-0.03-0.22-0.08c-0.06-0.04-0.06-0.06,0-0.11 c0.02-0.02,0.04-0.04,0.04-0.04c0-0.12-0.02-0.2-0.08-0.27c-0.07-0.08-0.16-0.14-0.26-0.18c-0.06-0.03-0.1-0.07-0.13-0.13 c-0.03-0.07-0.06-0.15-0.11-0.21c-0.06-0.09-0.11-0.18-0.16-0.27c-0.05-0.1-0.11-0.2-0.17-0.3c-0.02-0.04-0.05-0.07-0.09-0.1 c-0.12-0.07-0.26-0.11-0.39-0.15c-0.1,0.01-0.14-0.04-0.18-0.12c-0.02-0.06-0.06-0.11-0.1-0.16c-0.11-0.13-0.16-0.29-0.2-0.46 c-0.01-0.04-0.01-0.09-0.02-0.13c-0.03-0.03-0.06-0.05-0.08-0.07c-0.06-0.06-0.11-0.14-0.11-0.23c-0.01-0.12-0.05-0.22-0.09-0.35 c0.05-0.16,0.03-0.35,0.03-0.54c0-0.1,0-0.2,0.02-0.29c0.07-0.26,0.1-0.52,0.15-0.78c0.02-0.11,0.03-0.21,0.01-0.31 c-0.01-0.06-0.01-0.12-0.01-0.18c0-0.05,0.03-0.08,0.08-0.1c0.05-0.02,0.1-0.03,0.15-0.04c0.03-0.01,0.05-0.05,0.06-0.08 c0.02-0.08,0-0.16-0.06-0.22c-0.12-0.12-0.19-0.28-0.34-0.37c-0.01,0-0.01-0.01-0.01-0.01c-0.01-0.04-0.03-0.07-0.03-0.11 c0-0.05,0.02-0.1,0.04-0.16c-0.04-0.07-0.1-0.14-0.08-0.24c0-0.03-0.03-0.06-0.05-0.09c0.01-0.03,0.01-0.06,0.02-0.08 c0.03-0.11,0.04-0.23,0.01-0.34c-0.02-0.07-0.01-0.14-0.01-0.21c0.01-0.11,0.01-0.21,0.01-0.32c0-0.09-0.05-0.12-0.12-0.1 c-0.02,0.01-0.03,0-0.06,0c-0.01-0.03-0.02-0.06-0.02-0.1c-0.01-0.08-0.05-0.13-0.12-0.16c-0.51-0.22,0.6-1.34,0.76-1.52 c0.16-0.18,0.31-0.36,0.48-0.54c0.05-0.05,0.14-0.17,0.2-0.2c0.1-0.03,0.21,0.06,0.31,0.05c0.12-0.01,0.27-0.11,0.36-0.18 c0.03-0.02,0.06-0.04,0.09-0.06c0.07-0.04,0.14-0.08,0.22-0.07c0.06,0,0.11-0.02,0.15-0.05c0.11-0.07,0.22-0.1,0.35-0.09 c0.06,0,0.12-0.01,0.19-0.01c0.02,0,0.03,0.01,0.05,0.02c0,0.02-0.01,0.05-0.02,0.07c0,0.03,0.02,0.06,0.04,0.05 c0.03-0.01,0.07-0.01,0.1-0.03c0.08-0.04,0.16-0.08,0.24-0.11c0.04-0.02,0.08-0.01,0.12,0.02c0.01,0.01,0.03,0.03,0.04,0.03 c0.02,0,0.04,0,0.05-0.01c0.03-0.04,0.05-0.09,0.08-0.14c0.09-0.12,0.18-0.22,0.35-0.21c0.12,0,0.23-0.04,0.33-0.09 c0.05-0.03,0.11-0.05,0.17-0.07c0.19-0.08,0.16-0.09,0.12-0.24c0-0.01,0-0.02,0-0.02c0-0.07,0.07-0.12,0.13-0.1 c0.01,0.01,0.03,0.03,0.03,0.04c0,0.03-0.02,0.07-0.02,0.1c0,0.04,0.01,0.07,0.04,0.1c0.02,0.02,0.06,0.02,0.07,0 c0.07-0.08,0.13-0.17,0.19-0.25c0.03-0.03,0.04-0.08,0.06-0.12c0.01-0.01,0-0.04,0-0.05c-0.01-0.01-0.03-0.02-0.05-0.02 c-0.04,0.01-0.09,0.02-0.13,0.03c-0.05,0.01-0.1-0.05-0.08-0.1c0.01-0.02,0.01-0.05,0.03-0.07c0.06-0.08,0.1-0.16,0.09-0.27 c-0.01-0.08,0.05-0.13,0.11-0.17c0.05-0.03,0.12-0.04,0.18-0.05l0.01-0.01l-0.01,0.01c-0.01,0.06-0.06,0.1-0.11,0.14 c-0.09,0.08-0.09,0.14-0.03,0.23c0.02,0.03,0.04,0.05,0.06,0.08c0.03,0.06,0.07,0.1,0.14,0.11c0.05,0.01,0.07,0.09,0.14,0.06 c0.02-0.03,0.04-0.06,0.06-0.08c0.03-0.03,0.07-0.03,0.09,0c0.03,0.04,0.05,0.09,0.1,0.12c0.03,0.01,0.08,0.01,0.1-0.01 c0.06-0.08,0.12-0.17,0.15-0.27c0.01-0.02,0-0.05-0.01-0.08c-0.02-0.06,0.02-0.1,0.05-0.13c0.08,0,0.16,0,0.26,0 c-0.01,0.09,0.03,0.13,0.1,0.17c0.04,0.03,0.04,0.08,0.01,0.11c-0.08,0.11-0.2,0.17-0.32,0.23c-0.04,0.02-0.09,0.02-0.11,0.06 c-0.03,0.1-0.07,0.2-0.1,0.3c-0.03,0.1-0.09,0.17-0.18,0.22c-0.07,0.04-0.13,0.09-0.19,0.14c-0.02,0.02-0.03,0.04-0.04,0.05 c0,0.05,0,0.09-0.01,0.12c-0.01,0.02-0.04,0.04-0.06,0.05c-0.04,0.02-0.08,0.03-0.12,0.04c-0.05,0.13-0.1,0.25-0.15,0.37 c-0.02,0.05-0.04,0.1-0.06,0.15c-0.04,0.09-0.04,0.19-0.02,0.28c0.01,0.06,0.05,0.12,0.13,0.1c0.04-0.01,0.08-0.03,0.13,0 c0.08,0.05,0.1,0.17,0.2,0.21c0.02-0.01,0.05-0.01,0.07-0.03c0.22-0.11,0.45-0.16,0.69-0.11c0.05,0.01,0.1,0.01,0.16,0 c0.11-0.01,0.23-0.01,0.34-0.04c0.11-0.02,0.22-0.08,0.33-0.11c0.11-0.04,0.14-0.01,0.2,0.08c0.04,0.07,0.09,0.13,0.13,0.2 c0.04,0.08,0.11,0.12,0.18,0.14c0.09,0.03,0.18,0.03,0.26,0.07c0.11,0.05,0.18,0.04,0.25-0.06c0.02-0.03,0.05-0.04,0.07-0.06 c0.01-0.12,0-0.21-0.08-0.29c-0.07-0.07-0.15-0.15-0.22-0.23c-0.05-0.05-0.05-0.08,0.01-0.14c0.06-0.06,0.1-0.12,0.14-0.19 c0.04-0.09,0.08-0.18,0.11-0.27c-0.11-0.14-0.24-0.24-0.42-0.25c-0.03,0-0.05-0.01-0.08-0.02c-0.03-0.01-0.06-0.04-0.06-0.08 c0-0.01,0-0.02,0-0.02c0.02-0.11-0.01-0.2-0.08-0.28c-0.06-0.06-0.11-0.13-0.17-0.2c-0.01-0.01,0-0.04,0.01-0.05 c0.03-0.02,0.06-0.04,0.09-0.05c0.13-0.05,0.27-0.09,0.39-0.17c0.04-0.02,0.08-0.03,0.13-0.04c0.05,0,0.11-0.01,0.16,0 c0.14,0.03,0.28,0.01,0.42-0.01c0.02,0,0.03,0,0.05,0.01c0.1,0.07,0.18,0.16,0.3,0.23c0.08-0.03,0.17-0.05,0.26-0.03 c0.08,0.01,0.14-0.03,0.18-0.09c0.05-0.07,0.09-0.15,0.07-0.25c-0.01-0.03-0.01-0.05-0.01-0.08c0-0.02,0.03-0.06,0.05-0.05 c0.08,0.01,0.16,0.02,0.24,0.03c0.11,0.02,0.22,0.05,0.34,0.07c0.13,0.03,0.26,0.06,0.36,0.16c0.04,0.04,0.09,0.05,0.15,0.05 c0.11,0,0.21-0.02,0.32,0.02c0.03,0.01,0.07,0,0.1-0.01c0.1-0.02,0.21-0.05,0.31-0.07c0.02-0.01,0.05,0.02,0.05,0.05 c0,0.03,0,0.05-0.01,0.08c0.09-0.06,0.18-0.11,0.3-0.09c0.04,0.01,0.09-0.01,0.13-0.01c0.06-0.01,0.12,0.01,0.18,0.04 c0.04,0.03,0.09,0.06,0.13,0.09c0.04,0.03,0.05,0.1,0.02,0.15c-0.03,0.03-0.05,0.07-0.09,0.1c-0.07,0.06-0.12,0.13-0.14,0.22 c-0.02,0.13-0.1,0.22-0.22,0.29c-0.05,0.03-0.11,0.06-0.16,0.09c-0.14,0.06-0.28,0.12-0.41,0.19c-0.09,0.04-0.17,0.09-0.26,0.14 c-0.08,0.05-0.14,0.11-0.16,0.2c-0.02,0.08-0.05,0.15-0.11,0.21c-0.07,0.08-0.1,0.18-0.11,0.29c-0.01,0.1-0.03,0.19-0.04,0.29 c0,0.02,0,0.03,0,0.05c0,0,0.01,0.01,0.02,0.01c0.01,0,0.02,0,0.02-0.01c0.04-0.04,0.04-0.1,0.05-0.15 c0.02-0.06,0.03-0.12,0.05-0.18c0.09-0.18,0.21-0.32,0.37-0.45c0.08-0.06,0.16-0.1,0.26-0.13c0.04-0.01,0.09,0,0.12,0.04 c0.03,0.03,0.02,0.11-0.02,0.15c-0.02,0.02-0.04,0.03-0.06,0.05c-0.02,0.02-0.05,0.03-0.06,0.05c-0.02,0.01-0.01,0.03,0,0.05 c0.01,0,0.01,0.01,0.02,0.01c0.07,0.02,0.13-0.05,0.2-0.04c0.02,0.01,0.03,0.01,0.05,0.03c0.11,0.12,0.24,0.18,0.4,0.19 c0.17,0,0.32-0.04,0.45-0.14c0.05-0.04,0.08-0.09,0.07-0.16c0-0.05-0.01-0.1-0.01-0.16c0-0.01,0.01-0.01,0.02-0.02 c0.01,0,0.02,0,0.03,0c0.02,0.02,0.05,0.04,0.05,0.06c0.01,0.07,0.02,0.14,0.02,0.21c0,0.07-0.01,0.13-0.05,0.17 c-0.05,0.06-0.1,0.12-0.16,0.18c-0.05,0.05-0.11,0.09-0.15,0.13c-0.01,0.02-0.02,0.03-0.02,0.04c-0.01,0.04-0.02,0.08-0.03,0.13 c-0.01,0.03-0.02,0.07-0.03,0.1c-0.02,0.05-0.08,0.07-0.13,0.05c-0.05-0.02-0.08-0.07-0.09-0.12c0-0.07,0.03-0.14,0.08-0.19 c0.04-0.04,0.09-0.08,0.14-0.12c0-0.01,0.01-0.02,0.01-0.02c0-0.01-0.01-0.02-0.01-0.02c-0.08,0-0.14,0.01-0.22,0.02 c-0.08,0.1-0.16,0.21-0.27,0.28c-0.05,0.04-0.08,0.09-0.1,0.15c-0.02,0.06-0.06,0.11-0.11,0.14c-0.08,0.04-0.14,0.11-0.18,0.19 c-0.02,0.04-0.05,0.07-0.07,0.11c-0.04,0.05-0.05,0.11-0.05,0.18c0,0.13,0.03,0.24,0.14,0.33c0.04,0.03,0.04,0.08,0.01,0.12 c-0.06,0.08-0.13,0.14-0.22,0.2c-0.08,0.05-0.16,0.11-0.2,0.21l-0.01,0.01l0.01-0.01c0.03,0,0.07,0,0.1,0 c-0.06,0.05-0.11,0.1-0.17,0.16c0.02,0.05,0.04,0.1,0.05,0.15c0.02,0.11,0.01,0.21-0.1,0.27c-0.02,0.01-0.04,0.03-0.03,0.08 c0.03,0.03,0.07,0.06,0.1,0.1c0.02,0.02,0.02,0.07,0.02,0.07c0.01,0.07-0.04,0.1-0.07,0.1c-0.05,0-0.1-0.02-0.14-0.06 c-0.03-0.03-0.06-0.06-0.09-0.09c-0.02-0.03-0.06-0.03-0.07-0.02c-0.02,0.02-0.02,0.05-0.01,0.07c0.04,0.07,0.03,0.15,0.05,0.22 c0.09,0.03,0.15,0.07,0.16,0.16c0.01,0.07,0.06,0.1,0.13,0.1c0.06,0,0.11,0.06,0.09,0.13c-0.01,0.04-0.02,0.07-0.03,0.1 c0.04,0,0.09-0.01,0.13-0.01c0.01,0,0.04,0.01,0.04,0.02c0,0.01,0,0.03-0.01,0.04c-0.01,0.01-0.02,0.03-0.03,0.04 c-0.06,0.05-0.04,0.11-0.02,0.17c-0.01,0-0.01,0.03,0,0.06c-0.07,0.1-0.15,0.19-0.21,0.31c-0.02,0.05-0.06,0.09-0.09,0.13 c-0.06,0.07-0.1,0.15-0.12,0.24c-0.03,0.12-0.08,0.23-0.17,0.32c-0.07,0.07-0.1,0.17-0.1,0.27c0,0.03,0,0.07,0,0.11 c-0.01,0.17,0.05,0.31,0.17,0.43c0.23,0.22,0.44,0.46,0.69,0.66c0.03,0.03,0.07,0.06,0.09,0.1c0.06,0.11,0.1,0.22,0.1,0.35 c0,0.13-0.08,0.17-0.17,0.13c-0.04-0.02-0.08-0.04-0.12-0.05c-0.09-0.02-0.16-0.07-0.24-0.12c-0.07-0.04-0.14-0.08-0.21-0.12 c-0.04-0.02-0.07-0.05-0.09-0.09c-0.02-0.04-0.03-0.09-0.06-0.11c-0.07-0.06-0.11-0.14-0.15-0.21c-0.02-0.04-0.06-0.07-0.1-0.08 c-0.08-0.03-0.17-0.06-0.25-0.09c-0.02-0.01-0.03-0.01-0.05-0.01c-0.08-0.02-0.16-0.01-0.22,0.06c-0.02,0.03-0.05,0.06-0.07,0.08 c-0.03,0.03-0.07,0.05-0.12,0.04c-0.02,0-0.04,0-0.05-0.01c-0.23-0.06-0.44-0.01-0.61,0.16c-0.04,0-0.08-0.01-0.11-0.02 c-0.18,0.12-0.35,0.27-0.56,0.34c-0.01,0-0.02,0.02-0.03,0.04c-0.01,0.02,0.02,0.04,0.06,0.04c0.04,0,0.09,0,0.13,0 c0.02,0,0.04,0.05,0.02,0.07c-0.02,0.02-0.04,0.03-0.06,0.04c0.01,0.05,0,0.08-0.05,0.11c-0.08,0.04-0.17,0.05-0.26,0.04 c-0.05-0.01-0.1-0.02-0.16,0c-0.14,0.1-0.15,0.11-0.29,0.11c-0.04,0-0.09-0.01-0.16,0.03c-0.03,0.03-0.08,0.08-0.13,0.13 c-0.05,0.05-0.11,0.09-0.17,0.13c-0.01,0.03-0.02,0.05-0.03,0.08c-0.03,0.13-0.1,0.23-0.2,0.31c-0.09,0.06-0.14,0.15-0.19,0.25 c-0.03,0.07-0.04,0.13-0.05,0.2c-0.01,0.14,0.03,0.26,0.13,0.36c0.02,0.02,0.03,0.04,0.05,0.06c0.04,0.06,0.06,0.13,0.02,0.2 c-0.05,0.09-0.04,0.19-0.01,0.28c0.01,0.03,0.02,0.07,0.03,0.1c0.07,0.17,0.13,0.35,0.17,0.53c0.01,0.04,0.02,0.07,0.04,0.1 c0.12,0.16,0.24,0.31,0.41,0.41c0.1,0.06,0.2,0.12,0.28,0.21c0.07,0.08,0.17,0.13,0.26,0.18c0.08-0.01,0.16-0.01,0.24-0.02 c0.08-0.01,0.16,0.04,0.25,0.01c0.11-0.11,0.28-0.19,0.41-0.31c0.04-0.04,0.09-0.06,0.14-0.07c0.03,0,0.05-0.01,0.08-0.01 c0.11-0.02,0.13-0.07,0.14-0.16c0.01-0.05,0.02-0.11,0.04-0.15c0.04-0.12,0.04-0.24,0-0.37c-0.01-0.04-0.03-0.08-0.04-0.13 c-0.01-0.06,0-0.12,0.04-0.17c0.03-0.03,0.06-0.07,0.09-0.09c0.08-0.07,0.17-0.13,0.25-0.2c0.03-0.03,0.07-0.05,0.11-0.07 c0.1-0.04,0.2-0.07,0.3-0.1c0.02-0.01,0.05,0.01,0.07,0.03c0.04,0.03,0.05,0.07,0.05,0.12c0,0.04-0.01,0.07-0.02,0.1 c-0.04,0.11-0.03,0.23,0.01,0.34c0.02,0.07,0.04,0.13,0.06,0.2c0.01,0.03,0.01,0.05,0.01,0.05c-0.01,0.04-0.02,0.05-0.03,0.06 c-0.01,0.01-0.02,0-0.03,0c-0.06,0.01-0.09,0.04-0.07,0.08c0.07,0.12,0.11,0.26,0.16,0.39c0.03,0.07,0.04,0.15,0.03,0.23 c-0.01,0.04-0.02,0.09-0.02,0.13c-0.01,0.05,0.04,0.09,0.08,0.08c0.05-0.01,0.11-0.02,0.15-0.05c0.1-0.06,0.21-0.1,0.31-0.14 c0.08-0.04,0.16-0.07,0.23-0.13c0.13-0.1,0.28-0.15,0.44-0.18c0.06-0.01,0.12-0.01,0.18,0.02c0.05,0.03,0.1,0.03,0.15,0.02 c0.04-0.01,0.09-0.02,0.13,0.01c0.07,0.1,0.11,0.2,0.11,0.32c0,0.04,0.01,0.07,0.02,0.1c0.09,0.19,0.1,0.41,0.22,0.6 c0.02,0.12,0.1,0.18,0.18,0.25c0.09,0.07,0.18,0.11,0.28,0.15c0.13,0.04,0.25,0.07,0.37,0.13c0.06-0.01,0.11-0.02,0.16-0.03 c0.1-0.01,0.18-0.06,0.25-0.14c0.08-0.09,0.18-0.17,0.24-0.28c0.03-0.06,0.09-0.09,0.15-0.11c0.05-0.01,0.1-0.03,0.15-0.04 c0.1-0.03,0.19-0.03,0.29,0c0.13,0.03,0.26,0.06,0.38,0.13c0.02,0.01,0.06-0.02,0.05-0.05c-0.04-0.12-0.01-0.23,0.03-0.34 c0.02-0.08,0.06-0.15,0.09-0.22c-0.02-0.08-0.05-0.17-0.06-0.26c-0.02-0.09,0.04-0.19,0.13-0.23c0.03-0.01,0.07-0.02,0.09-0.05 c0.02-0.05,0.03-0.1,0.05-0.16c0.16-0.05,0.25-0.19,0.33-0.32c0.04-0.06,0.06-0.12,0.08-0.19c0.01-0.06,0.06-0.11,0.11-0.14 c0.02-0.01,0.06-0.01,0.07,0.01c0.01,0.01,0.03,0.03,0.02,0.04c0,0.04,0,0.07-0.02,0.1c-0.07,0.1-0.06,0.18,0.04,0.25 c0.01,0.01,0.01,0.01,0.02,0.02c0.06,0.05,0.08,0.11,0.07,0.19c0,0.04-0.01,0.07-0.01,0.11c0,0.04,0.01,0.07,0.04,0.09 c0.05,0.04,0.1,0.07,0.16,0.1c0.03,0.02,0.09,0,0.11-0.04c0.05-0.08,0.04-0.19-0.03-0.25c-0.04-0.04-0.1-0.08-0.14-0.12 c-0.06-0.05-0.07-0.14-0.03-0.19c0.07-0.09,0.14-0.18,0.22-0.27c0.05-0.06,0.12-0.1,0.2-0.13c0.12-0.04,0.24-0.04,0.35,0.04 c0.08,0.05,0.15,0.04,0.23,0c0.07-0.04,0.13-0.09,0.2-0.14c0.08-0.05,0.16-0.08,0.25-0.07c0.03,0,0.05,0.01,0.08,0.01 c0.15,0,0.28-0.05,0.36-0.19c0.06-0.11,0.16-0.19,0.25-0.27c0.02-0.02,0.06-0.04,0.08-0.05c0.02,0,0.03,0,0.04,0.01 c0.19,0.1,0.19,0.1,0.4,0.04c0.08-0.02,0.16-0.04,0.23,0c0.09,0.05,0.1,0.14,0.11,0.23c0.03-0.01,0.06-0.03,0.09-0.04 c0.16-0.08,0.33-0.07,0.49-0.04c0.12,0.02,0.22,0.07,0.28,0.18c0,0.01,0.01,0.01,0.05,0.03c0.14-0.05,0.29,0.04,0.43,0.05 c0.03-0.01,0.05-0.01,0.06-0.02c0.15-0.07,0.29-0.16,0.43-0.26c0.08-0.06,0.17-0.09,0.27-0.1c0.3-0.03,0.3-0.04,0.62,0.05 c0.05,0.01,0.1,0.02,0.15,0.04c0.03,0.01,0.07,0.03,0.09,0.06c0.04,0.04,0.06,0.09,0.09,0.13c0.11,0.13,0.22,0.28,0.4,0.33 c0.01,0,0.01,0.01,0.02,0.01c0.03,0.02,0.05,0.05,0.05,0.09c0,0.04,0,0.09-0.01,0.13c-0.02,0.11-0.05,0.22-0.07,0.34 c-0.01,0.05-0.01,0.11,0.01,0.16c0.01,0.03,0.04,0.06,0.07,0.08c0.03,0.01,0.07,0,0.1-0.02c0.03-0.03,0.03-0.06,0.02-0.1 c-0.03-0.13-0.03-0.13,0.06-0.2c0.04-0.03,0.07-0.05,0.11-0.08l0,0c0.05-0.02,0.09-0.05,0.14-0.07c0.06-0.02,0.11,0.01,0.11,0.07 c0.02,0.14,0,0.26-0.09,0.37c-0.04,0.05-0.07,0.1-0.11,0.15c0.06-0.01,0.12-0.01,0.18-0.02c0,0,0.01-0.01,0.02-0.01 c0.05-0.16,0.11-0.32,0.13-0.49c0.01-0.08,0.06-0.13,0.13-0.15c0.15-0.04,0.29-0.07,0.44-0.07c0.12,0,0.21,0.03,0.25,0.15 c0.01,0.02,0.02,0.03,0.03,0.05c0.02,0.03,0.07,0.03,0.09,0c0.02-0.03,0.04-0.06,0.06-0.09c0.05-0.08,0.11-0.13,0.21-0.15 c0.15-0.03,0.29-0.09,0.4-0.2c0.06-0.06,0.14-0.07,0.22-0.06c0.11,0.02,0.22,0.06,0.32,0.11c0.12,0.07,0.25,0.09,0.38,0.02 c0.06-0.03,0.12,0,0.16,0.06c0,0.01,0.01,0.01,0.01,0.02c0.19,0.31,0.25,0.66,0.2,1.02C161.88,24.29,161.84,24.46,161.8,24.64z M142.19,15.8c-0.01-0.02-0.04-0.04-0.05-0.05c0,0-0.01-0.02-0.01-0.02c-0.03-0.06-0.03-0.12,0.03-0.17 c0.07-0.07,0.13-0.14,0.17-0.23c0.02-0.03,0.08-0.05,0.12-0.03c0.05,0.02,0.09,0.04,0.15,0.06c0.04,0.01,0.09-0.02,0.11-0.05 c0.02-0.04,0-0.1-0.04-0.12c-0.11-0.05-0.22-0.11-0.35-0.11c-0.09,0-0.17-0.03-0.26-0.02c-0.1,0.01-0.18,0.06-0.24,0.15 c-0.02,0.03-0.02,0.07,0,0.1c0.01,0.01,0.03,0.02,0.03,0.04c0,0.01,0,0.04-0.01,0.04c-0.01,0.01-0.03,0.02-0.05,0.02 c-0.04-0.01-0.08-0.03-0.12-0.04c-0.03-0.01-0.08,0.01-0.08,0.04c-0.01,0.11-0.05,0.2-0.1,0.3c-0.02,0.02-0.05,0.03-0.06,0.05 c-0.01,0.08-0.02,0.16-0.03,0.24c0,0,0.03,0.05,0.05,0.04c0.03-0.02,0.06-0.03,0.09-0.04c0.06-0.05,0.13-0.06,0.2-0.04 c0.1,0.03,0.19,0.03,0.29,0.02c0.03,0,0.07-0.01,0.1-0.02C142.2,15.91,142.22,15.85,142.19,15.8z M143.44,15.91 c-0.22,0.16-0.24,0.13-0.28,0.44c0.03,0.03,0.09,0.05,0.09,0.12c0,0.02,0,0.04,0,0.04c-0.01,0.19,0.07,0.34,0.14,0.5 c0.01,0.02,0.03,0.04,0.05,0.06c0.04,0.04,0.11,0.04,0.15,0.01c0.13-0.09,0.17-0.24,0.11-0.37c-0.02-0.04-0.04-0.08-0.06-0.11 c-0.03-0.05-0.06-0.09-0.08-0.14c-0.04-0.09-0.04-0.18,0.03-0.25c0.06-0.06,0.09-0.13,0.1-0.21c0-0.02,0.01-0.03,0.01-0.05 c0.01-0.04,0.04-0.06,0.08-0.07c0.07-0.02,0.14-0.02,0.21,0c0.07,0.02,0.14,0.1,0.13,0.18c0,0.03-0.01,0.07-0.02,0.1 c-0.01,0.03,0,0.05,0.02,0.07c0.02,0.02,0.05,0.01,0.09-0.03c0.01-0.01,0.01-0.01,0.02-0.02c0.06-0.08,0.1-0.06,0.15-0.02 c0.03,0.02,0.05,0.05,0.08,0.07c0.04,0.03,0.11,0,0.12-0.05c0.01-0.04,0.01-0.09,0-0.13c-0.02-0.1-0.02-0.19,0.01-0.29 c0.07-0.02,0.13-0.04,0.2-0.07c0.05-0.02,0.05-0.1,0.01-0.13c-0.03-0.02-0.06-0.04-0.09-0.05c-0.11-0.05-0.22-0.06-0.33-0.02 c-0.12,0.04-0.24,0.07-0.35,0.11c-0.05,0.02-0.1,0.04-0.14,0.08c-0.07,0.07-0.15,0.12-0.24,0.16 C143.56,15.83,143.5,15.87,143.44,15.91z M144.62,16.41c-0.01,0.01-0.03,0.02-0.04,0.03c-0.02-0.01-0.04-0.03-0.07-0.03 c-0.01,0-0.03,0.01-0.04,0.02c0,0.01,0,0.03,0.01,0.04c0.01,0.01,0.03,0.01,0.05,0.02c-0.03,0.04-0.06,0.07-0.08,0.1 c-0.02,0.02,0.01,0.08,0.04,0.08c0.03,0.01,0.05,0.01,0.08,0.01c0.06,0,0.12-0.03,0.17-0.07c0.17-0.15,0.34-0.3,0.47-0.49 c0.02-0.02,0.02-0.05,0.03-0.07l0-0.03c0-0.02-0.03-0.05-0.06-0.04c-0.03,0.01-0.07,0.02-0.09,0.04c-0.08,0.05-0.15,0.12-0.24,0.16 C144.75,16.24,144.71,16.34,144.62,16.41z M145.09,15.92c0.03-0.01,0.07-0.02,0.1-0.04c0.1-0.08,0.2-0.14,0.33-0.17 c0.05-0.01,0.09-0.05,0.14-0.08c0.05-0.04,0.08-0.1,0.08-0.16c0-0.02-0.01-0.03-0.01-0.05c-0.02-0.05-0.07-0.07-0.1-0.04 c-0.08,0.09-0.17,0.14-0.28,0.19c-0.06,0.03-0.12,0.07-0.17,0.12c-0.06,0.05-0.1,0.1-0.12,0.17c0,0,0,0.02,0,0.02 C145.06,15.91,145.08,15.93,145.09,15.92z"></path> </g> </svg> 