<?xml version="1.0" encoding="UTF-8"?> <svg xmlns="http://www.w3.org/2000/svg" xmlns:xlink="http://www.w3.org/1999/xlink" version="1.1" id="Layer_1" x="0px" y="0px" viewBox="0 0 600 148.53" style="enable-background:new 0 0 600 148.53;" xml:space="preserve"> <style type="text/css"> .st0{fill:#FFFFFF;} </style> <g id="Discovery_En_Español_Logo_1_"> <path id="Discovery_En_Español_Logo_3_" class="st0" d="M139.14,75.04c0.28,4.71,3.6,9.28,10.81,9.28c5.4,0,8.04-2.91,8.04-5.96 c0-2.49-1.66-4.57-6.79-5.68l-7.9-1.8c-14.69-3.19-20.51-11.5-20.51-21.2c0-12.61,11.09-22.86,26.47-22.86 c19.95,0,26.88,12.47,27.58,20.51l-17.46,3.19c-0.55-4.57-3.46-8.45-9.84-8.45c-4.02,0-7.48,2.36-7.48,5.96 c0,2.91,2.36,4.57,5.4,5.12l9.15,1.8c14.27,2.91,21.2,11.5,21.2,21.61c0,11.78-9.01,23.28-27.44,23.28 c-21.62,0-28.55-13.99-29.1-21.61L139.14,75.04z M219.35,46.22c8.18,0,12.33,4.99,13.86,10.25l18.85-5.68 c-3.05-12.33-14.13-23.97-33.12-23.97c-20.23,0-36.31,15.1-36.31,36.58c0,21.34,16.49,36.44,37,36.44 c18.43,0,29.79-11.91,32.84-23.97l-18.57-5.68c-1.52,5.12-6.1,10.25-14.27,10.25c-8.73,0-16.07-6.1-16.07-17.04 C203.56,52.31,210.62,46.22,219.35,46.22z M292.5,26.82c-20.51,0-36.58,15.1-36.58,36.44s16.07,36.58,36.58,36.58 c20.65,0,36.58-15.24,36.58-36.58S313.15,26.82,292.5,26.82z M292.5,80.44c-7.9,0-15.52-5.68-15.52-17.18 c0-11.64,7.62-17.04,15.52-17.04c8.04,0,15.52,5.41,15.52,17.04C308.02,74.9,300.54,80.44,292.5,80.44z M401.28,28.9h-22.17 l-14.69,42.81L348.49,28.9h-22.86l28.27,68.86h21.2L401.28,28.9z M448.69,72.96c-1.94,5.41-6.24,9.01-13.86,9.01 c-8.18,0-15.24-5.54-15.66-13.3h47.95c0.14-0.42,0.42-3.6,0.42-6.51c0-22.17-13.16-35.33-34.5-35.33 c-17.88,0-34.37,14.13-34.37,36.3c0,23.14,16.91,36.72,35.89,36.72c17.46,0,28.41-9.98,31.73-21.89L448.69,72.96z M419.59,55.08 c0.42-5.13,4.85-11.64,13.72-11.64c9.98,0,13.58,6.37,13.86,11.64H419.59z M519.22,28.9c-1.39-0.42-3.46-0.69-5.54-0.69 c-5.54,0-14.27,2.22-17.88,9.98V28.9h-20.37v68.86h21.06V67.69c0-13.72,7.62-18.7,16.07-18.7c2.08,0,4.3,0.14,6.65,0.69V28.9z M557.6,124.22L600,28.9h-22.31l-15.24,36.86L545.68,28.9h-23.56l28.96,59.58l-15.66,35.75H557.6z M35.13,78.22H5.84v19.53l29.3,0 c28.31,0,50.63-20.69,50.63-48.82S63.44,0.1,35.13,0.1l-29.3,0v19.53h29.3c16.18,0,29.2,13.12,29.2,29.3S51.31,78.22,35.13,78.22z M5.59,36.47c-0.06,0.07-0.04,0.07,0.06-0.02c0.07-0.06,0.07-0.07,0.03-0.05C5.66,36.4,5.62,36.44,5.59,36.47z M20.19,31.7 c-0.01-0.09-0.02-0.08-0.08,0.04c-0.03,0.07-0.03,0.09,0.02,0.07C20.17,31.78,20.2,31.74,20.19,31.7z M21.8,29.4 c0.01-0.06-0.1-0.03-0.13,0.03c-0.02,0.03,0,0.05,0.05,0.03C21.76,29.44,21.8,29.42,21.8,29.4z M10.51,63.62 c-0.05,0.06-0.05,0.06,0.03,0.05c0.05-0.01,0.09-0.03,0.09-0.06C10.64,63.54,10.57,63.54,10.51,63.62z M17.65,69.93 c0.03,0.02,0.06,0.02,0.06,0.01c0.01-0.01-0.02-0.03-0.05-0.04C17.62,69.89,17.61,69.91,17.65,69.93z M16.68,32.49 c0.02-0.02,0.01-0.04-0.04-0.03c-0.04,0-0.06,0.02-0.04,0.04C16.62,32.53,16.66,32.52,16.68,32.49z M40.53,47.44 c0.02,0.02,0.02-0.01,0-0.06c-0.05-0.12-0.08-0.14-0.06-0.05C40.49,47.38,40.51,47.43,40.53,47.44z M6.29,47.53 c-0.06-0.01-0.06,0-0.04,0.12c0.02,0.13,0.1,0.11,0.1-0.03C6.35,47.58,6.32,47.53,6.29,47.53z M6.34,39.97 c0-0.02-0.02-0.01-0.04,0.03c-0.02,0.03-0.03,0.09-0.03,0.11c0.01,0.02,0.02,0.01,0.04-0.03C6.33,40.05,6.34,39.99,6.34,39.97z M8.11,48.21c-0.06,0.08-0.08,0.31-0.03,0.32c0.02,0,0.06-0.04,0.09-0.1C8.24,48.31,8.19,48.1,8.11,48.21z M10.29,63.33 c0,0.03,0.02,0.06,0.04,0.06c0.03,0.01,0.04-0.02,0.03-0.05c-0.01-0.04-0.03-0.06-0.04-0.06C10.31,63.27,10.29,63.29,10.29,63.33z M8.76,55.32c0.02,0.05,0.08,0.12,0.13,0.14c0.08,0.03,0.08,0.02,0.01-0.09C8.8,55.22,8.72,55.2,8.76,55.32z M9.89,62.42 c-0.02,0-0.02,0.02,0,0.06c0.02,0.03,0.05,0.07,0.07,0.07c0.01,0,0.01-0.03,0-0.06C9.94,62.45,9.91,62.42,9.89,62.42z M15.7,30.42 c-0.01,0.01,0,0.04,0.02,0.06c0.02,0.02,0.05,0,0.06-0.03c0.02-0.04,0.01-0.06-0.02-0.06C15.74,30.39,15.71,30.41,15.7,30.42z M23.77,47.53c-0.21-0.1-0.22-0.08-0.11,0.14c0.07,0.14,0.3,0.15,0.3,0.01C23.96,47.65,23.87,47.58,23.77,47.53z M20.08,49.13 c-0.05-0.02-0.1-0.03-0.1-0.02c0,0.02,0.04,0.07,0.09,0.13c0.06,0.06,0.1,0.07,0.1,0.02C20.17,49.22,20.13,49.16,20.08,49.13z M29.62,48.02c0.04-0.02,0.06-0.07,0.05-0.09c0-0.02-0.03-0.03-0.07-0.03c-0.03,0-0.06,0.04-0.05,0.09 C29.56,48.02,29.59,48.04,29.62,48.02z M20.05,49.49c-0.02,0.04-0.01,0.08,0.02,0.08c0.04,0,0.08-0.04,0.08-0.08 c0-0.05-0.01-0.08-0.02-0.08C20.11,49.41,20.07,49.44,20.05,49.49z M29.52,50.25c-0.01,0.12,0.03,0.26,0.09,0.31 c0.09,0.09,0.1,0.09,0.03-0.01c-0.04-0.06-0.07-0.2-0.09-0.31c-0.01-0.08-0.02-0.12-0.04-0.2C29.53,50.12,29.54,50.17,29.52,50.25z M40.82,39.74c-0.01-0.04-0.03-0.07-0.05-0.07c-0.02,0-0.03,0.02-0.01,0.06c0.01,0.03,0.04,0.07,0.05,0.07 C40.82,39.8,40.82,39.77,40.82,39.74z M28.9,54.05c0.01-0.09-0.01-0.18-0.04-0.2c-0.02-0.02-0.06,0.13-0.06,0.34 c0,0.2-0.02,0.41-0.02,0.48c-0.01,0.06,0.02,0.16,0.06,0.22c0.06,0.09,0.07,0.06,0.09-0.24c0.01-0.19,0-0.38-0.01-0.4 C28.9,54.22,28.89,54.13,28.9,54.05z M23.8,34.76c-0.05,0.05-0.09,0.12-0.09,0.14c0,0.06,0.19-0.03,0.22-0.11 C23.98,34.69,23.89,34.66,23.8,34.76z M28.53,52.03c0.09-0.03,0.2-0.05,0.25-0.05c0.05-0.01,0.08-0.03,0.06-0.06 c-0.02-0.02,0.03-0.16,0.11-0.3c0.12-0.23,0.13-0.27,0.05-0.3c-0.17-0.06-0.42-0.04-0.48,0.05c-0.03,0.04-0.07,0.22-0.1,0.39 C28.37,52.04,28.39,52.07,28.53,52.03z M32.62,32.3c-0.01,0,0,0.03,0.01,0.07c0.01,0.03,0.04,0.07,0.06,0.07 c0.02,0,0.01-0.03-0.01-0.07C32.65,32.33,32.63,32.3,32.62,32.3z M26.52,33.98c0,0.04-0.02,0.07-0.06,0.04s-0.08,0-0.09,0.06 c-0.01,0.07-0.04,0.1-0.06,0.06c-0.02-0.02-0.06-0.01-0.07,0.03c-0.01,0.04,0.01,0.07,0.05,0.08c0.12,0,0.29-0.15,0.28-0.26 c-0.01-0.05-0.02-0.1-0.03-0.1C26.52,33.89,26.51,33.93,26.52,33.98z M26.05,32.27c0,0.04,0.02,0.07,0.04,0.07 c0.03,0,0.05-0.03,0.06-0.07c0.01-0.04-0.01-0.07-0.04-0.07C26.07,32.2,26.04,32.23,26.05,32.27z M26.05,33.89 c0,0.04,0.03,0.05,0.05,0.03c0.03-0.02,0.04-0.06,0.04-0.08c0-0.01-0.02-0.03-0.05-0.03C26.07,33.8,26.05,33.84,26.05,33.89z M25.86,34.09c-0.01,0.04,0,0.09,0.03,0.12c0.02,0.02,0.05-0.01,0.04-0.07C25.92,34.01,25.89,33.98,25.86,34.09z M14.87,32.36 c0.03-0.05-0.08-0.02-0.13,0.05c-0.03,0.03-0.01,0.05,0.03,0.02C14.82,32.4,14.86,32.37,14.87,32.36z M12.19,37.28 c-0.03,0-0.09,0.04-0.13,0.08c-0.1,0.13-0.07,0.13,0.06,0.02C12.24,37.3,12.24,37.28,12.19,37.28z M14.47,33.46 c0.05,0,0.05-0.02,0.02-0.06c-0.07-0.08-0.12-0.06-0.18,0.05c-0.04,0.08-0.03,0.09,0.02,0.06C14.37,33.5,14.43,33.47,14.47,33.46z M14.16,32.16c0.01-0.02,0.06-0.06,0.1-0.08c0.04-0.02,0.02-0.03-0.04-0.03c-0.07,0.01-0.13-0.01-0.15-0.03 c-0.02-0.01-0.04-0.01-0.04,0.02c0,0.02-0.03,0.08-0.08,0.13c-0.05,0.05-0.03,0.07,0.06,0.05C14.08,32.21,14.15,32.19,14.16,32.16z M12.88,32.64c0.01,0.01,0.05,0,0.08-0.01c0.03-0.02,0.02-0.03-0.02-0.03C12.9,32.61,12.87,32.63,12.88,32.64z M12.87,37.23 c0.05-0.11,0.02-0.15-0.06-0.06c-0.06,0.06-0.08,0.18-0.03,0.18C12.81,37.34,12.85,37.29,12.87,37.23z M13.79,36.59 c0.02,0,0.04-0.04,0.05-0.07c0.01-0.04-0.01-0.07-0.03-0.07c-0.02,0-0.04,0.03-0.05,0.07C13.75,36.55,13.77,36.59,13.79,36.59z M14.33,30.2c-0.03,0.01-0.05,0.03-0.04,0.04c0.01,0.01,0.04,0,0.06-0.02C14.38,30.2,14.37,30.19,14.33,30.2z M14.78,29.94 c0.06-0.07,0.04-0.07-0.11,0.02c-0.04,0.03-0.06,0.04-0.1,0.07c0.03,0,0.05-0.01,0.08-0.01C14.69,30.01,14.75,29.97,14.78,29.94z M12.14,33.93c0.02-0.09-0.06-0.14-0.11-0.06c-0.02,0.03-0.02,0.06-0.01,0.06c0.02,0,0.04,0.01,0.06,0.04 C12.11,33.98,12.12,33.97,12.14,33.93z M13.97,30.36c-0.04-0.03-0.05-0.03-0.07,0.03c-0.01,0.03-0.06,0.08-0.12,0.1 c-0.07,0.03-0.06,0.04,0.02,0.03C13.94,30.5,14.02,30.42,13.97,30.36z M12.39,59.84c0.03-0.05,0.04-0.11,0.03-0.12 c-0.04-0.04-0.12,0.08-0.1,0.16C12.33,59.92,12.36,59.9,12.39,59.84z M14.45,36.58c0.06-0.08,0.06-0.08-0.08,0 c-0.09,0.05-0.1,0.07-0.04,0.07C14.36,36.66,14.42,36.62,14.45,36.58z M9.68,38.81c-0.12,0.13-0.49,0.86-0.49,0.97 c0,0.14,0.19-0.09,0.33-0.41c0.11-0.24,0.17-0.32,0.32-0.46c0.23-0.22,0.23-0.22,0.25-0.05c0.01,0.12,0,0.16-0.07,0.23 c-0.05,0.05-0.11,0.13-0.13,0.17c-0.02,0.04,0.01,0.03,0.05-0.02c0.07-0.07,0.09-0.06,0.07,0.07c-0.01,0.07-0.01,0.1-0.02,0.17 c0.07-0.1,0.1-0.16,0.17-0.26c0.09-0.14,0.18-0.29,0.19-0.32c0.01-0.03,0.03,0,0.05,0.06c0.05,0.17,0.15,0.01,0.12-0.18 c-0.02-0.16-0.12-0.21-0.14-0.08c-0.01,0.04-0.03,0.07-0.05,0.07c-0.02,0-0.03-0.03-0.01-0.07C10.42,38.56,9.85,38.64,9.68,38.81z M10.57,39.37c0.14,0,0.25-0.04,0.3-0.11c0.09-0.1,0.11-0.24,0.02-0.15c-0.02,0.02-0.12,0.06-0.22,0.08 C10.39,39.26,10.32,39.38,10.57,39.37z M8.89,34.35c-0.07,0.07-0.11,0.1-0.18,0.17c-0.07,0.07-0.11,0.1-0.18,0.17 c0.03,0,0.04-0.01,0.06-0.01c0.04-0.01,0.1-0.05,0.13-0.08c0.03-0.04,0.07-0.07,0.1-0.07c0.03-0.01,0.01,0.02-0.03,0.07 c-0.04,0.05-0.01,0.03,0.06-0.04c0.07-0.06,0.18-0.14,0.22-0.16c0.16-0.07,0.21-0.19,0.06-0.13c-0.1,0.04-0.12,0.04-0.05-0.01 c0.14-0.11-0.04-0.05-0.33,0.11c-0.09,0.05-0.14,0.08-0.23,0.13c0.07-0.03,0.11-0.04,0.18-0.07C8.78,34.39,8.82,34.38,8.89,34.35z M10.48,34.62c0.04-0.07-0.04-0.05-0.11,0.02c-0.03,0.03-0.04,0.07-0.03,0.09C10.37,34.76,10.43,34.71,10.48,34.62z M10.14,37.73 c0.05-0.09,0.03-0.15-0.03-0.1c-0.08,0.08-0.1,0.17-0.05,0.16C10.08,37.8,10.12,37.77,10.14,37.73z M9.38,36.16 c-0.06,0.06-0.09,0.11-0.06,0.1c0.03,0,0.28-0.27,0.33-0.37c0.05-0.09-0.02-0.05-0.12,0.06c-0.05,0.06-0.09,0.1-0.07,0.1 C9.47,36.06,9.44,36.11,9.38,36.16z M9.69,38.41c0.09-0.05,0.14-0.07,0.11-0.03c-0.07,0.09,0.02,0.16,0.22,0.16 c0.06,0,0.1,0,0.16,0c0.03-0.08,0.04-0.12,0.06-0.2c0.04-0.11,0.04-0.19,0.01-0.17c-0.03,0.02-0.06,0-0.06-0.05 c-0.02-0.18-0.14-0.16-0.5,0.09c-0.19,0.14-0.37,0.26-0.39,0.29C9.22,38.57,9.53,38.51,9.69,38.41z M11.47,33.47 c-0.01,0-0.04,0.03-0.05,0.07c-0.01,0.03-0.01,0.06-0.01,0.06c0.01,0,0.03-0.03,0.05-0.07C11.49,33.49,11.49,33.47,11.47,33.47z M9.03,37.66c0.02-0.02,0.05-0.11,0.06-0.2c0.02-0.09,0.01-0.13-0.01-0.09C9.04,37.46,8.99,37.71,9.03,37.66z M9.13,35.63 c-0.05,0-0.15,0.06-0.21,0.12c-0.14,0.13-0.13,0.13,0.12-0.02C9.22,35.62,9.23,35.61,9.13,35.63z M9.2,36.9 c-0.09,0.12-0.11,0.15-0.09,0.19c0.01,0.02,0,0.07-0.03,0.1c-0.03,0.04-0.05,0.08-0.05,0.11c0.01,0.02,0.05-0.03,0.09-0.12 c0.05-0.09,0.11-0.22,0.14-0.3C9.32,36.75,9.32,36.75,9.2,36.9z M9.9,39.65c-0.15,0.06-0.22,0.18-0.1,0.18 c0.11,0,0.53-0.22,0.6-0.31C10.48,39.42,10.42,39.43,9.9,39.65z M9.53,36.76c-0.01,0.01-0.04,0.02-0.08,0.05 c-0.04,0.02-0.09,0.06-0.1,0.09C9.29,37,9.27,37.18,9.3,37.26c0.01,0.05,0,0.15-0.04,0.25c-0.06,0.14-0.06,0.15,0.01,0.06 c0.06-0.08,0.12-0.25,0.18-0.47C9.49,36.91,9.53,36.76,9.53,36.76z M9.23,37.99c0.03,0,0.08-0.05,0.11-0.11 c0.03-0.06,0.04-0.11,0.04-0.11c-0.01,0-0.06,0.05-0.11,0.11C9.2,37.97,9.19,37.99,9.23,37.99z M8.96,35.05 c-0.02-0.03-0.03-0.02-0.05,0.04c-0.01,0.06-0.05,0.1-0.2,0.22c-0.07,0.05-0.1,0.08-0.17,0.13c0.06-0.01,0.08-0.01,0.14-0.02 c0.08-0.02,0.18-0.06,0.22-0.09c0.04-0.04,0.15-0.12,0.24-0.19c0.09-0.07,0.18-0.13,0.2-0.13c0.02,0,0.07-0.04,0.1-0.07 c0.09-0.1-0.03-0.06-0.19,0.07C9.12,35.12,9.01,35.13,8.96,35.05z M34.98,39.64c-0.06,0-0.1,0.02-0.1,0.07 c0,0.04,0.04,0.08,0.1,0.08c0.06,0,0.1-0.03,0.1-0.07C35.08,39.67,35.04,39.64,34.98,39.64z M34.78,38.6 c-0.06-0.01-0.08,0.01-0.03,0.03c0.04,0.02,0.09,0.02,0.12,0.01C34.88,38.63,34.85,38.61,34.78,38.6z M35.13,32.06 c-0.01,0-0.02,0.02,0,0.06c0.01,0.03,0.04,0.07,0.06,0.07c0.02,0,0.01-0.02,0-0.06C35.18,32.1,35.15,32.07,35.13,32.06z M34.34,38.55c-0.14,0.06-0.17,0.13-0.13,0.26c0.04,0.15,0.09,0.13,0.1-0.04c0-0.08,0.05-0.14,0.1-0.14c0.05,0,0.09-0.03,0.07-0.07 c-0.01-0.05-0.03-0.08-0.03-0.07C34.45,38.5,34.4,38.52,34.34,38.55z M33.18,32.43c0,0.08,0.01,0.1,0.04,0.1 c0.02,0,0.05,0.05,0.06,0.1c0.01,0.07,0.03,0.09,0.05,0.07c0.02-0.02,0-0.1-0.04-0.2C33.21,32.31,33.18,32.3,33.18,32.43z M34.93,32.21c-0.06-0.1-0.19-0.22-0.15-0.14c0.01,0.03,0.06,0.09,0.11,0.14C34.97,32.29,34.98,32.29,34.93,32.21z M35.31,38.2 c-0.02,0,0,0.04,0.04,0.08c0.04,0.04,0.1,0.08,0.12,0.08c0.02,0,0-0.04-0.04-0.08C35.38,38.24,35.33,38.2,35.31,38.2z M37.65,36.73 c-0.01,0,0,0.1,0,0.23c0.02,0.26-0.06,0.6-0.15,0.67c-0.05,0.05-0.06,0.05,0.01,0.06c0.04,0.01,0.1-0.04,0.13-0.11 c0.03-0.07,0.07-0.12,0.09-0.12c0.06,0.01,0.06-0.31-0.01-0.52C37.7,36.83,37.66,36.73,37.65,36.73z M38.29,41.26 c-0.02,0-0.02,0.03-0.01,0.07c0.01,0.04,0.05,0.07,0.08,0.08c0.03,0,0.03-0.03,0.01-0.07C38.34,41.29,38.3,41.26,38.29,41.26z M46.83,48.93c0,12.93-10.48,23.41-23.41,23.41S0,61.86,0,48.93C0,36,10.48,25.51,23.41,25.51S46.83,36,46.83,48.93z M44.67,50.92 c0,0.03,0.01,0.04,0.02,0.03c0.01-0.02,0.01-0.05,0-0.06C44.67,50.87,44.67,50.88,44.67,50.92z M43.17,49.97 c0.01,0.01,0.03,0,0.04-0.02c0.01-0.02,0-0.03-0.02-0.02C43.16,49.94,43.15,49.96,43.17,49.97z M42.93,50.1 c0.01,0,0.15-0.45,0.14-0.47c0-0.02-0.01,0.01-0.02,0.06c-0.01,0.05-0.01,0.04-0.01-0.03c0-0.09,0-0.1-0.02-0.02 C42.99,49.71,42.92,50.1,42.93,50.1z M42.87,50.62c0,0.03,0.02,0.05,0.04,0.04c0.02-0.01,0.06-0.01,0.09,0 c0.04,0.02,0.05,0.01,0.06-0.06c0-0.06-0.03-0.08-0.1-0.06C42.91,50.56,42.86,50.59,42.87,50.62z M42.93,51.43 c-0.01,0.02-0.03,0.07-0.04,0.11c-0.01,0.04,0,0.03,0.03-0.02c0.02-0.04,0.04-0.09,0.04-0.11C42.96,51.39,42.94,51.4,42.93,51.43z M42.57,48.24c-0.01-0.03-0.04-0.01-0.07,0.04c-0.03,0.06-0.04,0.15-0.03,0.21c0.01,0.07,0.03,0.08,0.03,0.03 c0-0.04,0.02-0.09,0.06-0.1c0.04-0.03,0.06,0,0.1,0.12c0.04,0.17,0.09,0.24,0.16,0.23c0.03-0.01,0.03-0.04,0-0.14 c-0.04-0.1-0.04-0.12,0-0.09c0.02,0.02,0.04,0.01,0.04-0.03c0-0.08-0.15-0.55-0.18-0.54c-0.01,0-0.03,0.07-0.04,0.17 C42.62,48.3,42.59,48.34,42.57,48.24z M42.77,50.7c0.01-0.04-0.01-0.05-0.04-0.05c-0.03,0.01-0.04,0.03-0.04,0.07 c0,0.03,0.02,0.05,0.04,0.05S42.77,50.73,42.77,50.7z M42.68,52.29c-0.06,0.06-0.06,0.07-0.01,0.05c0.03,0,0.06-0.04,0.06-0.07 c0.01-0.04,0.01-0.06,0.01-0.05C42.74,52.23,42.71,52.26,42.68,52.29z M42.74,49.78c-0.06,0.09-0.22,0.11-0.26,0.04 c-0.03-0.05-0.18,0.2-0.2,0.34c-0.01,0.07-0.04,0.15-0.06,0.17c-0.05,0.07-0.15,0.49-0.13,0.57c0.01,0.05,0,0.14-0.04,0.27 C42,51.33,42,51.36,42.03,51.33c0.03-0.02,0.07-0.16,0.12-0.33c0.04-0.15,0.08-0.28,0.1-0.28c0.01,0.01,0.02,0.04,0.01,0.07 c-0.01,0.03-0.01,0.12-0.01,0.2c0,0.1,0.02,0.11,0.05,0.06c0.06-0.11,0.1-0.1,0.04,0c-0.04,0.08-0.05,0.17-0.01,0.16 c0.02-0.01,0.07-0.21,0.06-0.29c0-0.04-0.01-0.15-0.01-0.26c0-0.07,0-0.11,0-0.18c0.05-0.06,0.07-0.09,0.11-0.15 c0.09-0.12,0.1-0.15,0.06-0.15c-0.03,0.01-0.09,0.05-0.13,0.11c-0.08,0.09-0.08,0.09-0.1-0.01c-0.01-0.06-0.01-0.14,0.02-0.21 c0.03-0.09,0.06-0.11,0.19-0.1c0.13,0,0.17-0.03,0.23-0.12C42.83,49.71,42.82,49.65,42.74,49.78z M42.44,51.79 c-0.14,0.13-0.25,0.27-0.27,0.35c-0.03,0.12-0.02,0.11,0.13-0.09c0.07-0.1,0.14-0.18,0.16-0.19c0.02,0,0.05-0.04,0.06-0.07 C42.55,51.72,42.51,51.72,42.44,51.79z M41.77,52.16c0.01,0.03,0.02,0.05,0.03,0.08c0.04,0.09,0.08,0.06,0.08-0.05 c0-0.03-0.02-0.06-0.06-0.05C41.81,52.15,41.79,52.15,41.77,52.16z M41.77,51.91c-0.03-0.01-0.04,0.01-0.05,0.04 c0,0.03-0.02,0.05-0.04,0.04c-0.02-0.01-0.06,0.03-0.08,0.08c-0.02,0.07-0.02,0.07,0.03,0.03c0.04-0.03,0.08-0.06,0.11-0.07 C41.8,52.03,41.82,51.94,41.77,51.91z M41.89,50.62c0-0.03,0.03-0.11,0.07-0.17c0.04-0.07,0.09-0.19,0.11-0.28 c0.03-0.11,0.06-0.16,0.1-0.18c0.06-0.03,0.11-0.15,0.06-0.14c-0.01,0-0.03-0.1-0.03-0.23c0-0.13,0-0.24,0.02-0.24 c0.01,0,0.02-0.03,0.02-0.06c0-0.04,0-0.06,0.02-0.07c0.02,0,0.03-0.05,0.02-0.1c-0.01-0.05,0-0.1,0.02-0.11 c0.04-0.01,0.04-0.01-0.02-0.07c-0.04-0.04-0.09-0.12-0.13-0.18c-0.09-0.15-0.12-0.12-0.15,0.14c-0.01,0.13-0.04,0.23-0.06,0.24 c-0.02,0-0.05,0.09-0.07,0.18c-0.05,0.09-0.14,0.22-0.2,0.27c-0.06,0.06-0.12,0.15-0.13,0.21c-0.01,0.08-0.04,0.1-0.11,0.08 c-0.07-0.01-0.1,0.01-0.13,0.08c-0.05,0.15-0.09,0.51-0.05,0.53c0.01,0.02,0.02,0.11,0.01,0.22c-0.02,0.15-0.01,0.19,0.05,0.18 c0.04-0.01,0.07,0.01,0.06,0.04c-0.01,0.03,0.05,0.04,0.12,0.02c0.08-0.02,0.13,0,0.13,0.05c0.01,0.06,0.02,0.06,0.08,0 C41.8,50.92,41.9,50.7,41.89,50.62z M41.57,51.98c-0.01,0-0.03,0.03-0.04,0.07c-0.01,0.03,0,0.06,0.01,0.06 c0.02,0,0.04-0.04,0.04-0.07C41.6,52,41.59,51.97,41.57,51.98z M40.04,50.75c-0.01,0.03,0,0.08,0.01,0.1 c0.02,0.02,0.03,0.01,0.04-0.03c0.01-0.03,0-0.08-0.01-0.1C40.06,50.71,40.04,50.72,40.04,50.75z M40.04,50.25 c0.01-0.04,0-0.06-0.02-0.06c-0.02,0-0.03,0.03-0.03,0.07c0,0.03,0.01,0.06,0.02,0.06C40.02,50.32,40.03,50.28,40.04,50.25z M40.18,50.22c-0.01,0.04,0.01,0.15,0.03,0.25c0.02,0.1,0.05,0.28,0.05,0.4c0,0.28,0.2,0.82,0.29,0.78 c0.05-0.02,0.09-0.1,0.15-0.32c0.08-0.28,0.08-0.3,0-0.54c-0.05-0.15-0.07-0.29-0.05-0.34c0.02-0.05,0.01-0.14-0.02-0.2 c-0.03-0.06-0.08-0.15-0.1-0.21c-0.03-0.05-0.06-0.1-0.08-0.1c-0.02,0-0.09-0.15-0.16-0.33c-0.07-0.18-0.29-0.35-0.32-0.34 c-0.04,0-0.1-0.01-0.13-0.03c-0.04-0.02-0.06,0-0.05,0.04c0.01,0.04,0.19,0.26,0.27,0.47C40.13,49.97,40.18,50.18,40.18,50.22z M40.58,51.79c-0.04,0.11,0.05,0.21,0.2,0.22c0.06,0,0.16,0.02,0.22,0.04c0.15,0.04,0.47,0.01,0.49-0.05 c0.01-0.03-0.04-0.06-0.1-0.07c-0.07,0-0.12-0.05-0.12-0.11c-0.01-0.07-0.04-0.09-0.19-0.04c-0.13,0.04-0.2,0.03-0.23-0.02 C40.8,51.66,40.63,51.68,40.58,51.79z M40.83,51c0.01,0,0.02-0.07,0.02-0.16c0-0.15-0.02-0.18-0.07-0.1 C40.76,50.78,40.8,51.01,40.83,51z M41.01,51c0.05-0.06,0.05-0.1,0-0.09c-0.02,0-0.04,0.04-0.04,0.07 C40.97,51.01,40.99,51.02,41.01,51z M41.38,51.77c0.02-0.02,0-0.04-0.03-0.02c-0.03,0.01-0.04,0.03-0.03,0.04 C41.34,51.8,41.37,51.79,41.38,51.77z M41.29,38.92c0.04,0.01,0.03-0.05-0.04-0.16c-0.07-0.11-0.3-0.57-0.31-0.63 c-0.01-0.03-0.06-0.14-0.12-0.25c-0.08-0.14-0.1-0.16-0.06-0.08c0.03,0.07,0.04,0.11,0.03,0.11c-0.03-0.01,0.09,0.31,0.14,0.4 c0.03,0.05,0.16,0.36,0.3,0.7c0.2,0.51,0.24,0.6,0.24,0.55c0-0.04,0.03-0.04,0.06-0.01c0.05,0.05,0.04,0.03-0.05-0.11 c-0.06-0.09-0.12-0.2-0.13-0.23C41.27,39.07,41.25,38.91,41.29,38.92z M41.36,44.36c-0.01,0-0.02,0.02-0.03,0.04 c-0.01,0.02-0.01,0.12-0.01,0.23c0.02,0.16,0.04,0.23,0.09,0.34c0.03,0.06,0.04,0.09,0.07,0.14c0-0.06,0-0.09,0-0.14 C41.48,44.85,41.38,44.35,41.36,44.36z M42.03,48.01c-0.05,0.33-0.01,0.35,0.04,0.02c0.02-0.15,0.03-0.27,0.02-0.27 C42.07,47.77,42.05,47.88,42.03,48.01z M42.11,47.34c0.07,0.12,0.07,0.12,0.04-0.02c-0.02-0.08-0.06-0.15-0.08-0.18 c-0.03-0.02-0.04-0.01-0.04,0.02C42.04,47.19,42.08,47.27,42.11,47.34z M42.45,47.93c-0.04-0.24-0.08-0.36-0.16-0.4 c-0.04-0.02-0.05,0-0.02,0.13c0.03,0.14,0.04,0.15,0.07,0.08c0.04-0.08,0.04-0.08,0.03,0.09c0,0.14,0.01,0.18,0.05,0.23 C42.48,48.1,42.48,48.08,42.45,47.93z M42.49,47.89c0.01-0.02,0.03,0,0.04,0.04c0.01,0.04,0.03,0.06,0.04,0.03 c0-0.03-0.02-0.09-0.05-0.14c-0.05-0.09-0.06-0.08-0.05,0.01C42.47,47.88,42.48,47.92,42.49,47.89z M41.91,51.95 c-0.01,0.04,0.03,0.05,0.08,0.04c0.12-0.03,0.14-0.12,0.03-0.1C41.96,51.89,41.92,51.92,41.91,51.95z M42.46,47.44 c0.04,0.07,0.05,0.11,0.04,0.14c-0.01,0.03,0,0.08,0.04,0.16c0.05,0.1,0.06,0.1,0.04-0.04c-0.04-0.27-0.07-0.37-0.12-0.37 C42.41,47.34,42.41,47.36,42.46,47.44z M42.39,47.41c-0.03-0.06-0.08-0.08-0.07-0.03c0,0.01,0.03,0.04,0.06,0.06 C42.39,47.46,42.4,47.45,42.39,47.41z M42.32,47.16c-0.03-0.09-0.08-0.15-0.14-0.17c-0.11-0.04-0.22-0.29-0.2-0.47 c0-0.06-0.02-0.2-0.05-0.31c-0.05-0.17-0.07-0.2-0.13-0.21c-0.05-0.01-0.07,0.03-0.06,0.1c0.01,0.05,0.03,0.17,0.05,0.26 s0.03,0.17,0.02,0.18c-0.01,0.01,0,0.08,0.05,0.21c0.04,0.1,0.08,0.17,0.09,0.15c0.01-0.02,0.02,0.01,0.04,0.08 c0.02,0.07,0.04,0.11,0.08,0.11c0.03,0,0.07,0.02,0.1,0.05c0.03,0.03,0.04,0.02,0.02-0.03c-0.01-0.05,0.02-0.01,0.08,0.06 C42.37,47.29,42.37,47.29,42.32,47.16z M42.05,41.32c-0.03-0.17-0.03-0.19-0.15-0.42c-0.07-0.13-0.13-0.24-0.13-0.24 c-0.01,0,0.01,0.03,0.03,0.08c0.03,0.05,0.03,0.06-0.01,0.03c-0.05-0.05-0.03,0.06,0.06,0.3c0.07,0.19,0.1,0.47,0.06,0.58 c-0.03,0.09-0.03,0.09-0.07-0.02c-0.04-0.1-0.04-0.1-0.02-0.02c0.07,0.34,0.06,0.39-0.05,0.38c-0.11-0.01-0.17,0.1-0.19,0.4 c-0.01,0.14,0.02,0.27,0.06,0.22c0.01-0.03,0.03,0,0.07,0.16c0.07,0.28,0.14,0.27,0.1,0c-0.03-0.19-0.04-0.22-0.1-0.29 c-0.07-0.1-0.08-0.18-0.02-0.12c0.03,0.02,0.03,0.01,0.02-0.02c-0.01-0.03,0-0.06,0.03-0.07c0.07-0.01,0.09,0.05,0.04,0.12 c-0.03,0.04-0.02,0.09,0.01,0.16c0.04,0.1,0.05,0.1,0.06,0c0-0.06,0.02-0.08,0.04-0.06c0.06,0.07,0.03-0.08-0.04-0.19 c-0.05-0.09-0.05-0.1,0-0.1c0.04,0,0.07,0.04,0.09,0.12c0.05,0.16,0.11,0.16,0.08,0c-0.02-0.1,0-0.13,0.06-0.12 c0.05,0.01,0.09-0.03,0.09-0.07c0-0.06,0.01-0.07,0.04-0.01c0.05,0.1,0.04-0.01-0.02-0.22C42.09,41.56,42.07,41.48,42.05,41.32z M41.8,40.12c-0.03-0.01-0.1-0.09-0.15-0.16c-0.16-0.23-0.18-0.25-0.11-0.07c0.09,0.23,0.12,0.37,0.09,0.36 c-0.04-0.01-0.01,0.21,0.05,0.32c0.04,0.08,0.06,0.08,0.05,0.02c0-0.06-0.01-0.08-0.03-0.08c-0.01,0-0.03-0.02-0.03-0.05 c-0.01-0.07,0.08-0.05,0.16,0.03c0.05,0.05,0.07,0.05,0.06-0.03c0-0.06,0.01-0.1,0.03-0.09C41.99,40.39,41.9,40.17,41.8,40.12z M41.82,38.85c0.02-0.03,0-0.08-0.02-0.09c-0.01,0-0.01,0.02,0,0.06C41.8,38.86,41.81,38.86,41.82,38.85z M38.84,33.35 c0.04,0.04,0.11,0.08,0.18,0.12c-0.04-0.04-0.07-0.08-0.11-0.11c-0.03-0.02-0.05-0.03-0.07-0.04 C38.79,33.29,38.79,33.3,38.84,33.35z M38.19,33.11c0.1,0.08,0.51,0.21,0.5,0.16c-0.02-0.06-0.07-0.11-0.28-0.21 c-0.12-0.06-0.24-0.13-0.25-0.14c-0.02-0.02-0.05-0.03-0.07-0.03C38.03,32.91,38.08,33.01,38.19,33.11z M38.58,33.46 c0,0.03,0.01,0.05,0.07,0.09c0.11,0.09,0.19,0.11,0.13,0.05C38.7,33.5,38.58,33.42,38.58,33.46z M36.01,32.42 c-0.03-0.01-0.05,0.01-0.03,0.05c0.01,0.03,0.05,0.07,0.07,0.07c0.02,0.01,0.03-0.02,0.03-0.05 C36.07,32.46,36.04,32.43,36.01,32.42z M34.33,31.29c0.11,0.02,0.16,0.03,0.27,0.04c0.15,0.03,0.27,0.04,0.27,0.03 c0-0.05-0.08-0.11-0.18-0.14c-0.07-0.02-0.12-0.06-0.13-0.08c-0.02-0.09-0.15-0.06-0.19,0.05C34.35,31.22,34.34,31.24,34.33,31.29z M33.46,30.71c0.09,0.01,0.16,0.04,0.15,0.06c-0.02,0.07,0.11,0.16,0.4,0.26c0.25,0.1,0.26,0.09,0.21-0.02 c-0.05-0.11-0.08-0.13-0.19-0.18c-0.07-0.03-0.14-0.08-0.15-0.11c-0.05-0.15-0.46-0.31-0.52-0.19c-0.02,0.03-0.02,0.07,0,0.08 c0.02,0,0.01,0.03-0.02,0.05C33.31,30.68,33.34,30.69,33.46,30.71z M30.14,29.84c0.04,0.01,0.09-0.01,0.13-0.03 c0.05-0.03,0.05-0.04,0-0.05c-0.04-0.01-0.09,0.01-0.13,0.03C30.09,29.82,30.09,29.83,30.14,29.84z M29.68,29.78 c0.04,0.07,0.29,0.09,0.3,0.02c0.01-0.02-0.07-0.05-0.17-0.06C29.71,29.72,29.66,29.74,29.68,29.78z M29.45,29.81 c0.03,0.09,0.06,0.09,0.1,0.01c0.02-0.05,0.02-0.06-0.04-0.07C29.46,29.75,29.44,29.77,29.45,29.81z M29.47,31.89 c0.06,0.01,0.15,0.07,0.18,0.12c0.04,0.06,0.17,0.11,0.29,0.12c0.08,0.01,0.13,0.01,0.21,0.02c-0.07-0.06-0.11-0.09-0.18-0.16 c-0.1-0.09-0.19-0.19-0.2-0.24c-0.03-0.11,0.28-0.55,0.37-0.54c0.04,0,0.06-0.02,0.06-0.05c0-0.06,0.2-0.11,0.65-0.18 c0.14-0.02,0.24-0.06,0.23-0.09c-0.03-0.07-0.28-0.11-0.37-0.05c-0.04,0.02-0.15,0.03-0.26,0.02c-0.32-0.03-0.7,0.1-0.77,0.27 c-0.04,0.08-0.09,0.15-0.13,0.15c-0.04,0-0.05,0.04-0.03,0.1c0.01,0.06,0,0.1-0.03,0.1c-0.03,0-0.07,0.05-0.08,0.13 c-0.02,0.07-0.06,0.13-0.1,0.13C29.19,31.7,29.34,31.87,29.47,31.89z M29.02,32.38c0,0.03,0.01,0.09,0.04,0.11 c0.06,0.05,0.2-0.01,0.18-0.09C29.21,32.31,29.03,32.29,29.02,32.38z M28.32,29.61c-0.01,0.1,0.03,0.1,0.21,0.03 c0.07-0.02,0.11-0.04,0.18-0.06c-0.08,0-0.12-0.01-0.19-0.01C28.42,29.56,28.33,29.59,28.32,29.61z M24.16,29.21 c0.14,0.03,0.28,0.07,0.32,0.09c0.1,0.06,0.56-0.08,0.51-0.16c-0.04-0.07-0.53-0.15-0.56-0.1c-0.01,0.01-0.15,0.01-0.31,0 C23.77,29.01,23.8,29.13,24.16,29.21z M22.9,29.21c0.01,0.04,0.04,0.07,0.07,0.07c0.03,0,0.05,0.03,0.03,0.06 c-0.04,0.11,0.24,0.18,0.35,0.11c0.05-0.03,0.14-0.04,0.2-0.02c0.08,0.04,0.05,0.06-0.12,0.1c-0.19,0.05-0.2,0.06-0.1,0.11 c0.08,0.03,0.09,0.05,0.04,0.06c-0.05,0.01,0,0.06,0.11,0.13c0.17,0.11,0.19,0.11,0.23,0.01c0.02-0.06,0.06-0.12,0.09-0.12 c0.03,0,0.08-0.06,0.12-0.14c0.04-0.08,0.1-0.14,0.14-0.14c0.1,0,0.23,0.14,0.21,0.23c-0.04,0.11,0.33,0.11,0.39-0.01 c0.02-0.04,0.02-0.06,0-0.05c-0.02,0.01-0.13-0.03-0.24-0.1c-0.11-0.08-0.26-0.15-0.34-0.18c-0.08-0.02-0.15-0.08-0.16-0.11 c-0.01-0.03-0.05-0.04-0.07-0.02c-0.03,0.02-0.06,0-0.08-0.04c-0.03-0.09-0.2-0.11-0.21-0.04c0,0.04-0.01,0.08,0,0.11 c0,0.03-0.03,0.03-0.06-0.01C23.4,29.14,22.87,29.12,22.9,29.21z M19.73,36.59c-0.1,0.11-0.11,0.13-0.06,0.2 c0.03,0.04,0.11,0.05,0.18,0.02c0.07-0.03,0.19-0.07,0.27-0.1c0.15-0.05,0.3-0.28,0.27-0.42c-0.01-0.05,0.01-0.12,0.05-0.15 c0.04-0.03,0.07-0.12,0.06-0.18c-0.01-0.17-0.37-0.16-0.43,0.01c-0.03,0.06-0.1,0.12-0.16,0.12c-0.08,0-0.12,0.05-0.14,0.15 c-0.02,0.08,0,0.17,0.03,0.19C19.83,36.44,19.81,36.49,19.73,36.59z M20.46,35.16c0.02,0,0.07-0.04,0.09-0.08 c0.02-0.05,0.02-0.08-0.01-0.07c-0.02,0-0.06,0.03-0.09,0.08C20.44,35.12,20.43,35.16,20.46,35.16z M20.44,37.19 c0.06-0.03,0.23-0.08,0.39-0.1c0.16-0.03,0.36-0.06,0.44-0.08c0.09-0.01,0.18-0.03,0.22-0.03c0.04,0,0.06-0.05,0.05-0.09 c-0.01-0.05,0.02-0.12,0.08-0.18c0.11-0.12,0.09-0.28-0.04-0.28c-0.05,0-0.11-0.08-0.13-0.19c-0.02-0.1-0.08-0.21-0.12-0.23 c-0.04-0.02-0.09-0.11-0.09-0.19s-0.05-0.17-0.1-0.19c-0.08-0.04-0.08-0.06,0-0.18c0.16-0.23,0.14-0.34-0.05-0.29 c-0.19,0.04-0.2,0.01-0.06-0.13c0.08-0.09,0.08-0.1-0.04-0.1c-0.07,0-0.16,0.03-0.2,0.07c-0.03,0.03-0.11,0.17-0.17,0.31 c-0.09,0.2-0.1,0.25-0.05,0.22c0.05-0.03,0.06,0.01,0.03,0.12c-0.02,0.09-0.03,0.12,0,0.07c0.08-0.18,0.14-0.1,0.08,0.1 c-0.06,0.19-0.05,0.2,0.08,0.16c0.12-0.04,0.15-0.03,0.14,0.06c-0.01,0.06,0,0.11,0.03,0.11c0.02,0,0.03,0.05,0,0.11 c-0.03,0.06-0.1,0.12-0.17,0.12c-0.11,0-0.12,0.02-0.08,0.12c0.04,0.1,0.03,0.12-0.06,0.16c-0.06,0.02-0.12,0.08-0.13,0.12 c-0.01,0.04,0.01,0.05,0.03,0.03c0.02-0.02,0.11-0.01,0.2,0.03c0.14,0.04,0.14,0.06,0.04,0.07c-0.07,0.01-0.19,0.09-0.27,0.18 C20.37,37.2,20.36,37.22,20.44,37.19z M22.79,33.18c0.01-0.04-0.31-0.37-0.37-0.37c-0.01,0-0.03,0.03-0.05,0.07 c-0.01,0.04-0.14,0.08-0.28,0.11c-0.14,0.02-0.3,0.06-0.34,0.09c-0.05,0.04-0.1,0.02-0.14-0.06c-0.04-0.08-0.09-0.1-0.17-0.07 c-0.19,0.08-0.24,0.19-0.08,0.18c0.12,0,0.13,0.01,0.07,0.11c-0.06,0.09-0.06,0.11,0,0.11c0.08,0,0.08,0.12-0.01,0.17 c-0.03,0.02,0.08,0.06,0.25,0.07C22.02,33.63,22.7,33.48,22.79,33.18z M18.28,28.69c-0.02,0.05,0.21,0.05,0.25-0.01 c0.02-0.03-0.03-0.05-0.1-0.04C18.35,28.65,18.28,28.68,18.28,28.69z M13.02,30.63c0.12-0.04,0.13-0.03,0.04,0.01 c-0.14,0.08-0.14,0.12-0.01,0.16c0.08,0.02,0.18-0.01,0.52-0.19c0.07-0.04,0.09-0.04,0.04,0.01c-0.1,0.09-0.08,0.12,0.06,0.08 c0.06-0.02,0.1-0.02,0.08,0.01c-0.02,0.03-0.03,0.06-0.02,0.07c0.01,0.01-0.06,0.04-0.16,0.04c-0.12,0.01-0.17,0.03-0.15,0.06 c0.02,0.03,0,0.05-0.12,0.11c-0.33,0.16-0.19,0.17,0.37,0.04c0.69-0.16,0.77-0.17,0.67-0.22c-0.07-0.03-0.06-0.03,0.03-0.09 c0.05-0.03,0.11-0.08,0.12-0.11c0.02-0.03,0.08-0.07,0.15-0.08c0.07-0.01,0.17-0.07,0.24-0.13c0.11-0.1,0.11-0.1,0.04-0.09 c-0.11,0.02-0.06-0.08,0.06-0.11c0.15-0.03,0.51-0.2,0.78-0.35c0.12-0.07,0.31-0.16,0.41-0.2c0.1-0.05,0.17-0.09,0.16-0.11 c-0.01-0.02,0.11-0.08,0.25-0.13c0.15-0.04,0.28-0.1,0.31-0.14c-0.5-0.2-1.41,0.1-1.89,0.25c-0.18,0.06-0.37,0.14-0.42,0.19 s-0.13,0.07-0.19,0.06c-0.06-0.01-0.15,0.02-0.22,0.06c-0.07,0.04-0.2,0.1-0.3,0.13c-0.2,0.06-0.27,0.13-0.22,0.19 c0.05,0.08,0.21,0.08,0.28,0c0.03-0.04,0.08-0.08,0.11-0.08c0.05-0.01,0.04,0-0.03,0.06c-0.06,0.05-0.04,0.06,0.08,0.02 c0.29-0.08,0.45-0.1,0.41-0.05c-0.02,0.02-0.17,0.07-0.33,0.1c-0.21,0.04-0.29,0.07-0.31,0.12c-0.01,0.05-0.03,0.05-0.07,0.04 c-0.02-0.02-0.07-0.03-0.09-0.03c-0.03,0-0.06-0.01-0.08-0.02c-0.08-0.06-0.24-0.09-0.3-0.07c-0.17,0.06-0.23,0.09-0.25,0.13 c-0.01,0.02-0.05,0.06-0.09,0.08c-0.04,0.02-0.1,0.07-0.13,0.11C12.77,30.65,12.85,30.68,13.02,30.63z M13.09,31.01 c0.05-0.01,0.06-0.03,0.06-0.07c-0.01-0.07-0.08-0.05-0.1,0.02C13.03,31,13.06,31.02,13.09,31.01z M13.01,31.14 c-0.02,0.03-0.02,0.06,0,0.05c0.02,0,0.04-0.04,0.05-0.06c0.01-0.04,0.01-0.06,0-0.05C13.05,31.08,13.03,31.1,13.01,31.14z M12.45,30.71c0.01,0.01,0.04,0,0.07-0.02c0.03-0.02,0.02-0.03-0.02-0.02C12.47,30.68,12.45,30.7,12.45,30.71z M12.52,31.02 c0.01,0,0.03,0.02,0.02,0.04c0,0.02,0.06,0.02,0.14-0.01c0.13-0.04,0.14-0.05,0.04-0.04c-0.07,0-0.07-0.02-0.02-0.09 c0.05-0.06,0.05-0.08-0.01-0.07c-0.04,0.01-0.1,0.01-0.14,0.01c-0.04-0.01-0.08,0.01-0.1,0.05C12.42,30.97,12.45,31.02,12.52,31.02 z M12.57,31.3c0.07-0.02,0.12,0.01,0.12,0.05c0,0.04-0.01,0.08-0.03,0.09c-0.01,0-0.03,0.04-0.04,0.09 c-0.01,0.06,0.1,0.05,0.58-0.04c0.33-0.07,0.65-0.14,0.71-0.18c0.04-0.03,0.06-0.04,0.1-0.06C14,31.2,14,31.19,13.99,31.17 c-0.02-0.05-0.17-0.03-0.51,0.06c-0.42,0.11-0.48,0.12-0.5,0.03c-0.01-0.05-0.11-0.09-0.22-0.08c-0.11,0-0.21,0-0.24,0 c-0.02-0.01-0.07,0.01-0.1,0.05C12.35,31.3,12.41,31.33,12.57,31.3z M12.29,31.53c-0.05,0.03-0.07,0.05-0.11,0.09 c0.02,0.01,0.03,0.02,0.05,0.03c0.11,0.07,0.3-0.04,0.26-0.17C12.45,31.42,12.43,31.42,12.29,31.53z M11.86,31.05 c0.08-0.02,0.08-0.02-0.01,0.05c-0.07,0.05-0.04,0.05,0.1,0.01c0.11-0.03,0.19-0.03,0.18,0c-0.03,0.07,0.11,0.03,0.15-0.03 c0.05-0.08,0-0.16-0.1-0.15c-0.05,0-0.14,0-0.2,0.01c-0.07,0-0.12,0.02-0.15,0.07C11.79,31.04,11.82,31.06,11.86,31.05z M11.57,31.37c-0.01,0.03,0,0.05,0.03,0.04c0.04-0.01,0.05-0.02,0.04-0.06C11.63,31.29,11.6,31.3,11.57,31.37z M11.53,31.57 c-0.01,0.03,0.01,0.05,0.05,0.04c0.04-0.01,0.06,0.01,0.05,0.04c-0.01,0.04,0.04,0.03,0.13-0.02c0.13-0.06,0.14-0.06,0.07,0.03 c-0.06,0.08-0.06,0.1,0.01,0.08c0.13-0.03,0.26-0.14,0.33-0.29c0.05-0.1,0.03-0.11-0.09-0.08c-0.1,0.03-0.15,0.05-0.14,0.09 c0.01,0.07-0.06,0.08-0.09,0.02c-0.01-0.04-0.03-0.03-0.07,0.04c-0.05,0.08-0.06,0.08-0.1,0.03C11.63,31.48,11.56,31.5,11.53,31.57 z M11.38,31.81c-0.01,0.03,0,0.04,0.03,0.02c0.07-0.07,0.09-0.1,0.04-0.09C11.42,31.75,11.39,31.78,11.38,31.81z M11.36,32.23 c-0.02-0.03-0.06-0.02-0.09,0.02c-0.03,0.03-0.03,0.07,0.01,0.08s0.08,0.06,0.11,0.11c0.03,0.07,0.07,0.08,0.1,0.03 c0.03-0.04,0.09-0.08,0.14-0.09c0.12-0.03,0.24-0.2,0.16-0.23c-0.06-0.02-0.06-0.02,0.04-0.12c0.08-0.08,0.1-0.1,0.08-0.12 c-0.02-0.02-0.16,0.02-0.32,0.09c-0.09,0.04-0.17,0.16-0.1,0.14c0.04-0.01,0.03,0.01-0.02,0.06 C11.42,32.25,11.39,32.26,11.36,32.23z M11.16,31.35c0.12-0.04,0.17-0.06,0.15-0.09c-0.01-0.02-0.03-0.03-0.04-0.02 c-0.01,0.01-0.08,0.04-0.15,0.09C11,31.39,11.01,31.4,11.16,31.35z M10.89,31.54c-0.02,0.03,0.02,0.04,0.09,0.01 c0.07-0.02,0.16-0.07,0.19-0.11c0.03-0.04,0-0.04-0.09-0.01C10.99,31.46,10.91,31.5,10.89,31.54z M10.76,31.57 c0.01,0.01,0.03,0,0.05-0.02c0.02-0.02,0.02-0.03-0.01-0.02C10.77,31.54,10.75,31.56,10.76,31.57z M10.57,31.85 c-0.12,0.03-0.17,0.07-0.29,0.19c-0.06,0.06-0.09,0.09-0.15,0.15c0.02-0.01,0.04-0.01,0.06-0.02c0.03-0.01,0.08-0.02,0.11-0.02 c0.03-0.01,0.09-0.03,0.13-0.07c0.04-0.03,0.07-0.04,0.07-0.01c0,0.03-0.01,0.05-0.06,0.06c-0.07,0.03-0.07,0.03-0.06,0.08 c0.01,0.03,0.08,0.01,0.27-0.1c0.15-0.08,0.31-0.15,0.37-0.16c0.11-0.02,0.27-0.13,0.34-0.24c0.03-0.04-0.01-0.04-0.09,0 c-0.1,0.05-0.12,0.04-0.1-0.04c0.03-0.11,0.01-0.11-0.1-0.02c-0.05,0.05-0.07,0.08-0.07,0.14c0,0.08,0,0.08-0.1,0.11 c-0.06,0.02-0.12,0-0.14-0.03C10.73,31.84,10.65,31.83,10.57,31.85z M10.17,32.09c0.06-0.06,0.07-0.07,0.02-0.05 c-0.03,0.01-0.08,0.05-0.11,0.08C10.01,32.2,10.07,32.18,10.17,32.09z M9.8,32.17c0.04-0.01,0.06-0.01,0.09-0.01 c0.05-0.01,0.13-0.04,0.17-0.08c0.04-0.03,0.05-0.04,0.04-0.02c-0.02,0.02,0.03-0.01,0.1-0.07c0.08-0.07,0.11-0.09,0.09-0.05 c-0.04,0.08,0.17-0.05,0.25-0.16c0.11-0.13-0.2,0-0.49,0.21C9.95,32.05,9.9,32.09,9.8,32.17z M8.98,33.06 c0.02,0.02,0.04,0.03,0.06,0.05c0.06,0.06,0.28-0.03,0.35-0.14c0.04-0.05,0.18-0.17,0.33-0.27c0.04-0.02,0.06-0.03,0.09-0.06 c-0.06,0.06-0.09,0.09-0.15,0.14c-0.06,0.06-0.09,0.09-0.15,0.14c0.03,0,0.04,0.01,0.07,0.01c0.11,0.01,0.11,0.03,0.01,0.06 c-0.05,0.02-0.1,0.05-0.11,0.09c-0.02,0.03,0.09,0.02,0.24-0.02c0.14-0.04,0.25-0.06,0.24-0.03c-0.02,0.02-0.08,0.05-0.14,0.06 c-0.06,0.01-0.17,0.04-0.26,0.09c-0.06,0.03-0.09,0.05-0.16,0.08c0.01,0.02,0.02,0.03,0.03,0.06c0.02,0.03,0.07,0.04,0.12,0.04 c0.05-0.01,0.09,0.01,0.08,0.05c-0.02,0.08,0.49-0.1,0.65-0.23c0.06-0.05,0.11-0.07,0.15-0.04c0.12,0.07,0.46-0.07,0.39-0.16 c-0.01-0.01,0.03-0.04,0.09-0.06c0.04-0.01,0.07-0.02,0.11-0.04c-0.02-0.02-0.03-0.04-0.05-0.06c-0.03-0.03-0.08-0.06-0.11-0.05 c-0.04,0-0.03-0.07,0.01-0.21c0.06-0.18,0.08-0.22,0.16-0.29c0.05-0.04,0.1-0.1,0.11-0.12c0.04-0.06-0.16,0.01-0.23,0.08 c-0.03,0.03-0.09,0.07-0.13,0.09c-0.07,0.02-0.07,0.02-0.12,0.16c-0.06,0.17-0.14,0.21-0.09,0.05c0.04-0.13-0.01-0.12-0.16,0 c-0.07,0.06-0.09,0.07-0.07,0.02c0.02-0.05-0.02-0.05-0.12,0c-0.11,0.06-0.13,0.05-0.09,0c0.03-0.05,0.02-0.06-0.05-0.03 c-0.06,0.03-0.08,0.03-0.04-0.02c0.06-0.07-0.03-0.14-0.13-0.1c-0.04,0.02-0.13,0.04-0.2,0.05s-0.18,0.06-0.24,0.09 c-0.07,0.05-0.12,0.08-0.12,0.11c0,0.03-0.06,0.09-0.19,0.22C9.09,32.95,9.06,32.99,8.98,33.06z M2.11,44.94 c-0.01-0.01-0.03,0.03-0.06,0.11c-0.03,0.08-0.03,0.12-0.01,0.1c0.01-0.01,0.04-0.06,0.05-0.1C2.11,45,2.11,44.95,2.11,44.94z M5.16,50.74c-0.01-0.05-0.03-0.1-0.04-0.13c-0.02-0.03-0.03,0-0.02,0.07c0.01,0.06,0.03,0.12,0.04,0.13 C5.16,50.81,5.17,50.78,5.16,50.74z M10.77,63.54c0.06,0.01,0.07,0.03,0.05,0.09c-0.02,0.06-0.01,0.08,0.05,0.09 c0.07,0.01,0.07,0.02,0.03,0.1c-0.02,0.05-0.05,0.09-0.07,0.08c-0.02,0-0.04,0.01-0.05,0.03c-0.01,0.02,0.04,0.05,0.12,0.06 c0.08,0.02,0.14,0.05,0.13,0.08c-0.01,0.03,0.04,0.06,0.11,0.08c0.08,0.02,0.1,0,0.06-0.05c-0.05-0.06-0.04-0.06,0.03,0 c0.05,0.05,0.16,0.09,0.26,0.09c0.19,0.01,0.25-0.07,0.09-0.11c-0.12-0.02-0.46-0.29-0.49-0.37c-0.01-0.04-0.07-0.1-0.14-0.14 c-0.09-0.05-0.1-0.07-0.04-0.06c0.06,0.01,0.06-0.01-0.02-0.15c-0.1-0.18-0.11-0.26-0.01-0.25c0.04,0.01,0.06-0.05,0.06-0.12 c0-0.07,0.04-0.16,0.09-0.19c0.12-0.07,0.11-0.25-0.02-0.27c-0.22-0.04-0.34-0.39-0.14-0.42c0.05-0.01,0.1-0.05,0.1-0.09 c0.01-0.13,0-0.31-0.01-0.36c-0.01-0.03,0-0.05,0.04-0.04c0.04,0.01,0.04,0-0.01-0.05c-0.03-0.03-0.09-0.12-0.13-0.19 c-0.07-0.14-0.06-0.14,0.15-0.07c0.2,0.07,0.22,0.07,0.22-0.08c0-0.08-0.02-0.19-0.04-0.24c-0.03-0.05,0.01-0.08,0.14-0.05 c0.32,0.04,0.5,0,0.58-0.15c0.08-0.15,0.08-0.3-0.01-0.31c-0.02,0-0.06-0.06-0.08-0.13c-0.02-0.06-0.08-0.16-0.14-0.2 c-0.06-0.05-0.12-0.12-0.13-0.15c-0.01-0.04,0.01-0.04,0.07,0.02c0.05,0.05,0.21,0.13,0.36,0.17c0.25,0.07,0.28,0.06,0.39-0.08 c0.06-0.09,0.12-0.26,0.14-0.38c0.04-0.27,0.12-0.45,0.17-0.4c0.03,0.03,0.03,0.08,0.02,0.13c-0.02,0.04,0,0.03,0.02-0.03 c0.03-0.06,0.1-0.2,0.15-0.31c0.07-0.14,0.09-0.29,0.06-0.5c-0.03-0.17-0.02-0.35,0.02-0.42c0.1-0.17,0.63-0.44,0.84-0.42 c0.16,0.01,0.37-0.13,0.35-0.25c-0.01-0.03,0.03-0.17,0.08-0.31c0.06-0.14,0.09-0.27,0.07-0.29c-0.01-0.02-0.01-0.15,0.01-0.3 c0.02-0.15,0.01-0.47-0.01-0.7c-0.04-0.33-0.03-0.47,0.04-0.57c0.22-0.34,0.5-0.72,0.6-1.13c0.01-0.11-0.02-0.35-0.08-0.52 c-0.08-0.26-0.12-0.32-0.24-0.34c-0.08-0.01-0.31-0.17-0.5-0.37c-0.29-0.28-0.41-0.36-0.62-0.39c-0.14-0.02-0.31-0.07-0.37-0.12 c-0.08-0.06-0.17-0.08-0.25-0.04c-0.11,0.05-0.13,0.03-0.14-0.1c-0.01-0.13-0.09-0.21-0.36-0.37c-0.13-0.08-0.2-0.12-0.33-0.2 c-0.04,0.09-0.07,0.13-0.11,0.22c-0.06,0.12-0.13,0.19-0.16,0.16c-0.03-0.04,0.01-0.13,0.06-0.2c0.13-0.16,0.08-0.3-0.13-0.37 c-0.11-0.05-0.16-0.01-0.23,0.14c-0.07,0.18-0.08,0.18-0.1,0.04c-0.01-0.09,0.03-0.26,0.1-0.39c0.11-0.2,0.11-0.23,0.01-0.34 c-0.06-0.07-0.13-0.23-0.18-0.37c-0.04-0.15-0.16-0.4-0.23-0.56c-0.12-0.24-0.19-0.29-0.49-0.36c-0.33-0.07-0.36-0.1-0.49-0.44 C10,49.04,9.92,48.91,9.83,48.9c-0.11-0.01-0.11-0.05-0.05-0.17c0.06-0.11,0.05-0.16-0.04-0.21c-0.06-0.03-0.11-0.12-0.11-0.19 c-0.01-0.11-0.04-0.12-0.24-0.04c-0.16,0.06-0.25,0.06-0.28-0.01c-0.04-0.04-0.12-0.08-0.2-0.07c-0.1,0.01-0.16-0.03-0.18-0.15 c-0.02-0.1-0.06-0.17-0.1-0.18c-0.03,0-0.06-0.03-0.06-0.07c0-0.03-0.01-0.01-0.02,0.04c-0.01,0.05-0.05,0.1-0.09,0.09 c-0.04-0.01-0.11,0.03-0.16,0.08c-0.12,0.13-0.12-0.01,0-0.18c0.15-0.22,0.11-0.25-0.09-0.09c-0.1,0.08-0.21,0.14-0.24,0.14 c-0.03,0-0.08,0.01-0.11,0.04c-0.03,0.04-0.07,0.06-0.09,0.06C7.73,47.99,7.69,48,7.66,48c-0.02,0-0.06,0.05-0.08,0.11 c-0.02,0.06-0.12,0.21-0.22,0.33c-0.18,0.21-0.18,0.21-0.23,0.06c-0.06-0.24-0.16-0.28-0.35-0.17c-0.15,0.09-0.18,0.09-0.24-0.01 c-0.04-0.07-0.07-0.21-0.08-0.32c-0.01-0.19,0-0.25,0.19-0.7c0.19-0.45,0.21-0.5,0.18-0.64c-0.02-0.11-0.09-0.15-0.29-0.16 c-0.37-0.02-0.36-0.02-0.27-0.13c0.04-0.05,0.12-0.21,0.18-0.35c0.06-0.15,0.11-0.25,0.12-0.22c0.01,0.02,0.06-0.05,0.11-0.16 c0.06-0.11,0.14-0.26,0.18-0.33c0.16-0.25,0.16-0.3-0.06-0.27c-0.24,0.04-0.34,0.12-0.43,0.36c-0.07,0.18-0.28,0.43-0.31,0.36 C6.07,45.72,6,45.73,5.92,45.76c-0.22,0.09-0.3-0.06-0.25-0.5c0.03-0.32,0.06-0.44,0.21-0.82c0.1-0.24,0.21-0.47,0.24-0.49 c0.03-0.02,0.08-0.14,0.12-0.25c0.09-0.25,0.31-0.58,0.4-0.57c0.03,0,0.11-0.06,0.18-0.12c0.13-0.14,0.37-0.14,0.58-0.02 c0.11,0.06,0.12,0.06,0.17-0.1c0.05-0.16,0.07-0.17,0.28-0.16c0.12,0,0.23,0.05,0.25,0.11c0.02,0.07,0.05,0.08,0.13,0.03 c0.13-0.09,0.19,0.21,0.08,0.41C8.24,43.35,8.2,43.5,8.21,43.6c0,0.1-0.01,0.21-0.02,0.24c-0.03,0.08,0,0.27,0.05,0.27 c0.02,0,0.08-0.08,0.14-0.18c0.09-0.18,0.15-0.39,0.24-0.93c0.02-0.13,0.06-0.27,0.08-0.32c0.06-0.15,0.28-0.46,0.33-0.45 c0.02,0,0.12-0.08,0.22-0.18c0.1-0.1,0.19-0.19,0.22-0.19c0.02,0,0.09-0.05,0.14-0.11c0.05-0.06,0.13-0.11,0.17-0.11 c0.05,0,0.08-0.04,0.1-0.13c0.02-0.08,0.04-0.11,0.05-0.07c0.01,0.02,0.05,0.02,0.08-0.03c0.03-0.04,0.04-0.08,0.01-0.08 c-0.03,0-0.02-0.03,0.04-0.1c0.05-0.06,0.09-0.14,0.08-0.17c-0.01-0.11,0.11-0.44,0.19-0.54c0.05-0.07,0.05-0.02-0.01,0.15 c-0.07,0.22-0.07,0.23,0.02,0.11c0.06-0.08,0.11-0.19,0.13-0.25c0.02-0.07,0.05-0.11,0.1-0.11c0.05,0,0.12-0.07,0.18-0.19 c0.08-0.14,0.13-0.19,0.21-0.19c0.07,0,0.1-0.02,0.08-0.07c-0.02-0.04,0.05-0.08,0.2-0.11c0.19-0.04,0.23-0.07,0.23-0.15 c0-0.18,0.23-0.47,0.46-0.57c0.12-0.06,0.26-0.14,0.33-0.18c0.06-0.04,0.14-0.08,0.16-0.09c0.03-0.01,0.11-0.04,0.19-0.07 c0.13-0.05,0.14-0.05,0.02,0.07c-0.07,0.07-0.15,0.12-0.17,0.12c-0.05,0-0.13,0.21-0.1,0.27c0.01,0.03,0.1-0.01,0.19-0.08 c0.09-0.08,0.21-0.14,0.25-0.16c0.17-0.04,0.47-0.24,0.51-0.34c0.03-0.08,0.04-0.08,0.04-0.01c0,0.06,0.03,0.07,0.08,0.02 c0.06-0.05,0.08-0.08,0.04-0.08c-0.03,0-0.03-0.06,0-0.14c0.04-0.11,0.02-0.1-0.12,0.06c-0.13,0.15-0.2,0.19-0.31,0.17 c-0.17-0.03-0.25-0.21-0.17-0.4c0.04-0.11,0.04-0.15-0.02-0.16c-0.07-0.01-0.06-0.02,0.05-0.06c0.08-0.02,0.16-0.1,0.19-0.16 c0.04-0.08,0-0.11-0.16-0.1c-0.22,0.02-0.47,0.16-0.77,0.44c-0.13,0.12-0.11,0.1,0.06-0.1c0.13-0.14,0.31-0.3,0.4-0.36 c0.09-0.06,0.23-0.16,0.31-0.22c0.12-0.09,0.23-0.11,0.54-0.08c0.34,0.04,0.42,0.02,0.59-0.11c0.1-0.08,0.29-0.19,0.41-0.23 c0.18-0.07,0.22-0.11,0.3-0.29c0.07-0.18,0.07-0.23-0.04-0.31c-0.08-0.07-0.1-0.12-0.04-0.16c0.06-0.05,0.07-0.06,0.03-0.07 c-0.06-0.01-0.11-0.04-0.11-0.07c-0.01-0.01-0.05-0.02-0.09-0.03c-0.05-0.01-0.09-0.05-0.08-0.09c0-0.04-0.02-0.1-0.04-0.15 c-0.02-0.05-0.02-0.13,0.02-0.19c0.03-0.06,0.04-0.3,0.02-0.53c-0.01-0.17-0.02-0.25-0.02-0.41c-0.08,0.09-0.12,0.14-0.2,0.23 c-0.23,0.26-0.45,0.37-0.47,0.25c-0.01-0.05-0.05-0.07-0.1-0.05c-0.07,0.03-0.06,0,0.05-0.23c0.12-0.25,0.12-0.26,0.01-0.3 c-0.06-0.02-0.1-0.06-0.09-0.09c0.04-0.09-0.08-0.21-0.22-0.19c-0.07,0.01-0.18,0-0.25-0.02c-0.07-0.02-0.14-0.01-0.17,0.02 c-0.03,0.04-0.1,0.19-0.17,0.35c-0.1,0.25-0.13,0.31-0.25,0.44c-0.13,0.14-0.13,0.15-0.08,0.22c0.05,0.09-0.02,0.33-0.15,0.52 c-0.04,0.07-0.18,0.18-0.31,0.26c-0.09,0.06-0.14,0.09-0.23,0.15c-0.03,0.11-0.05,0.16-0.08,0.26c-0.12,0.38-0.16,0.45-0.3,0.55 c-0.11,0.07-0.13,0.05-0.16-0.14c-0.02-0.12-0.01-0.26,0.02-0.3c0.25-0.47,0.25-0.49,0.05-0.47c-0.1,0.01-0.18-0.02-0.17-0.06 c0.01-0.04-0.01-0.07-0.05-0.06c-0.04,0-0.1-0.06-0.13-0.14c-0.04-0.08-0.13-0.14-0.23-0.13c-0.14,0-0.16-0.02-0.12-0.16 c0.03-0.1,0.03-0.18-0.02-0.2c-0.08-0.04-0.02-0.16,0.25-0.49c0.22-0.27,0.53-0.53,0.63-0.54c0.04,0,0.08-0.03,0.09-0.07 c0.02-0.08,0.21-0.22,0.32-0.23c0.11-0.01,0.65-0.54,0.61-0.6c-0.01-0.02,0.03-0.02,0.09-0.01c0.06,0.01,0.11,0.05,0.11,0.09 c0,0.05,0.01,0.04,0.03-0.02c0.02-0.07,0.07-0.1,0.14-0.12c0.06-0.01,0.16-0.07,0.22-0.11c0.05-0.04,0.07-0.05,0.12-0.09 c-0.01-0.04-0.01-0.06-0.02-0.09c-0.02-0.09,0.03-0.21,0.07-0.2c0.01,0.01,0.05-0.02,0.08-0.06c0.03-0.04,0.01-0.1-0.04-0.14 c-0.05-0.04-0.1-0.07-0.11-0.08c-0.01,0,0.12-0.03,0.29-0.04c0.24-0.02,0.32-0.05,0.35-0.11c0.04-0.11,0.05-0.11,0.12,0 c0.03,0.05,0.04,0.12,0.01,0.15c-0.02,0.03,0.01,0.03,0.06,0.01c0.05-0.02,0.08-0.01,0.07,0.02c-0.02,0.03,0.02,0.09,0.09,0.12 c0.19,0.11,0.1,0.36-0.19,0.52c-0.08,0.04-0.1,0.07-0.11,0.14c-0.01,0.07-0.04,0.1-0.16,0.13c-0.09,0.03-0.18,0.04-0.22,0.03 c-0.05-0.03-0.21,0.09-0.28,0.21c-0.02,0.03,0.09,0.04,0.26,0.01c0.21-0.04,0.3-0.03,0.31,0.03c0.01,0.05,0.04,0.09,0.08,0.09 c0.04,0,0.04,0.02,0.02,0.05c-0.07,0.09,0.02,0.24,0.1,0.18c0.04-0.03,0.07-0.02,0.08,0.02c0.01,0.03,0.06,0.09,0.11,0.11 c0.06,0.02,0.13,0.06,0.16,0.07c0.1,0.07,0.11-0.12,0.01-0.25c-0.14-0.18-0.07-0.24,0.1-0.07c0.13,0.11,0.14,0.12,0.23,0.01 c0.09-0.1,0.1-0.15,0.1-0.28c0-0.09-0.03-0.16-0.05-0.15c-0.03,0-0.07-0.04-0.09-0.1c-0.03-0.11-0.03-0.11,0.09-0.21 c0.12-0.1,0.16-0.07,0.22,0.14c0.03,0.13,0.14,0.16,0.2,0.04c0.03-0.06,0.05-0.09,0.06-0.07c0.01,0.02,0.09-0.04,0.19-0.13 c0.07-0.07,0.1-0.1,0.17-0.17c-0.06-0.01-0.08-0.02-0.14-0.03c-0.07-0.02-0.13-0.06-0.12-0.1c0.01-0.04-0.04-0.08-0.11-0.1 c-0.27-0.05-0.33-0.26-0.1-0.3c0.06-0.01,0.06-0.03,0-0.06c-0.07-0.03-0.06-0.05,0.01-0.06c0.05-0.01,0.09-0.04,0.1-0.09 c0.01-0.04-0.03-0.05-0.09-0.02c-0.07,0.03-0.08,0.02-0.05-0.03c0.05-0.07,0.04-0.08-0.1-0.07c-0.04,0-0.07-0.01-0.05-0.05 c0.04-0.09-0.12-0.16-0.2-0.09c-0.04,0.04-0.09,0.01-0.12-0.09c-0.02-0.08-0.07-0.15-0.11-0.15c-0.04,0.01-0.05-0.02-0.02-0.05 c0.08-0.1-0.06-0.18-0.23-0.15c-0.11,0.02-0.17,0.05-0.2,0.1c-0.03,0.06-0.04,0.06-0.03,0c0.02-0.07-0.03-0.07-0.19-0.01 c-0.26,0.09-0.38,0.18-0.45,0.34c-0.03,0.07-0.04,0.12-0.01,0.12c0.03,0,0.03,0.02,0.01,0.06c-0.05,0.08-0.06,0.09-0.1,0 c-0.02-0.03-0.02-0.1,0.01-0.15c0.03-0.04,0.06-0.1,0.08-0.13c0.01-0.02,0.08-0.09,0.14-0.13c0.11-0.09,0.11-0.09-0.02-0.07 c-0.19,0.03-0.34,0.13-0.53,0.35c-0.15,0.17-0.16,0.18-0.16,0.31c0,0.1,0.04,0.14,0.2,0.15c0.11,0.01,0.17,0.03,0.13,0.05 C13.03,32.88,12.95,33,13.01,33c0.02,0-0.03,0.06-0.11,0.14c-0.08,0.08-0.16,0.13-0.18,0.12c-0.02-0.02-0.04,0.01-0.08,0.08 c-0.07,0.14-0.14,0.18-0.15,0.07c-0.01-0.07,0-0.1,0.07-0.15s0.08-0.08,0.04-0.14c-0.04-0.05-0.06-0.05-0.16,0.05 c-0.16,0.15-0.17,0.15-0.1,0c0.04-0.09,0.03-0.12-0.02-0.11c-0.08,0.01-0.05-0.08,0.04-0.13c0.06-0.03,0.04-0.34-0.02-0.33 c-0.02,0,0.03-0.05,0.11-0.14c0.09-0.09,0.16-0.14,0.19-0.12c0.04,0.01,0.37-0.22,0.42-0.3c0.03-0.05-0.49,0.08-0.57,0.14 c-0.07,0.06-0.09,0.09-0.12,0.19c-0.06,0.17-0.11,0.23-0.23,0.32c-0.07,0.05-0.13,0.11-0.19,0.2c-0.08,0.13-0.05,0.2,0.09,0.2 c0.01,0,0,0.03-0.04,0.07c-0.03,0.03-0.04,0.06-0.01,0.06c0.08-0.01-0.05,0.11-0.18,0.17c-0.09,0.04-0.13,0.09-0.17,0.17 c-0.04,0.09-0.06,0.11-0.1,0.09c-0.02-0.01-0.02-0.06,0.01-0.1c0.03-0.04,0.05-0.11,0.04-0.15c-0.01-0.04,0-0.07,0.02-0.07 c0.02,0,0.07-0.01,0.11-0.02c0.06-0.02,0.06-0.02,0.06-0.1c-0.01-0.14-0.1-0.14-0.25-0.02c-0.13,0.1-0.14,0.12-0.09,0.11 c0.09-0.02,0.07,0.04-0.06,0.17c-0.14,0.14-0.6,0.17-0.65,0.06c-0.03-0.09-0.3-0.01-0.34,0.09c-0.01,0.02,0.05,0.01,0.13-0.03 c0.09-0.05,0.16-0.08,0.15-0.06c0,0.02-0.07,0.06-0.14,0.09c-0.1,0.05-0.14,0.08-0.19,0.18c-0.04,0.07-0.08,0.14-0.11,0.16 c-0.03,0.02-0.02,0,0.01-0.05c0.08-0.13-0.05-0.15-0.36-0.07c-0.19,0.05-0.24,0.05-0.2,0.01c0.04-0.04,0.09-0.08,0.13-0.09 c0.12-0.04,0.03-0.1-0.1-0.07c-0.07,0.01-0.18,0.01-0.25-0.02c-0.07-0.03-0.16-0.02-0.24,0.02c-0.08,0.04-0.13,0.05-0.12,0.01 c0.01-0.05-0.01-0.04-0.06,0.01c-0.11,0.11-0.15,0.11-0.13,0c0.01-0.08,0-0.08-0.07-0.01c-0.05,0.05-0.15,0.1-0.22,0.13 c-0.23,0.08-0.46,0.21-0.56,0.3c-0.08,0.08-0.12,0.09-0.19,0.07c-0.15-0.03-0.01-0.16-0.33-0.05c-0.05,0.02-0.11,0.03-0.13,0.02 c-0.03,0-0.08,0.01-0.12,0.02c-0.04,0.01-0.08,0.02-0.09,0.02c0-0.01-0.04,0.02-0.08,0.05c-0.04,0.03-0.11,0.08-0.15,0.11 c-0.1,0.07-0.19,0.13-0.26,0.19c-0.19,0.22-0.37,0.44-0.55,0.66c0.01,0,0.02-0.01,0.04-0.03c0.05-0.05-0.01,0.04-0.07,0.13 c-0.02,0.02-0.05,0.04-0.08,0.05c-0.07,0.09-0.14,0.18-0.21,0.28c0.03-0.02,0.05-0.04,0.08-0.06C6,35.53,6,35.54,5.95,35.61 c-0.04,0.05-0.08,0.11-0.09,0.13c-0.03,0.04-0.12,0.12-0.2,0.17c-0.16,0.22-0.32,0.44-0.47,0.66c0.03-0.01,0.01,0.02-0.04,0.1 c-0.07,0.11-0.07,0.12,0,0.07c0.05-0.03,0.08-0.03,0.08,0c0,0.03,0.01,0.03,0.03,0c0.02-0.02,0.06-0.06,0.09-0.07 c0.06-0.02,0.05-0.01-0.06,0.12C5.22,36.87,5.09,37,5,37.09c-0.1,0.09-0.19,0.18-0.22,0.21c-0.03,0.03-0.05,0.05-0.05,0.03 c0-0.01-0.02,0-0.07,0.04c-0.02,0.03-0.04,0.06-0.05,0.09c0.03-0.03,0.08-0.06,0.12-0.09c0.06-0.04,0.18-0.13,0.25-0.2 c0.07-0.07,0.15-0.14,0.17-0.14c0.02-0.01,0.05-0.03,0.06-0.06c0.02-0.02,0.09-0.09,0.16-0.15c0.07-0.06,0.17-0.15,0.22-0.2 c0.08-0.08,0.09-0.09,0.06-0.08c-0.05,0.02,0.04-0.1,0.12-0.16c0.04-0.03,0.09-0.07,0.1-0.09c0.05-0.08,0.29-0.28,0.33-0.29 c0.04-0.01,0.03,0-0.02,0.03c-0.08,0.05-0.3,0.3-0.26,0.28c0.02-0.01,0.01,0.01-0.04,0.06c-0.12,0.11-0.01,0.06,0.13-0.06 c0.06-0.06,0.13-0.11,0.16-0.12c0.03-0.01,0.06-0.04,0.1-0.1c0.06-0.1,0.08-0.12,0.1-0.05c0.01,0.03-0.02,0.08,0.07,0.07 c0.04,0-0.04,0.17-0.03,0.23c0.01,0.08,0.05,0.08,0.14-0.03c0.03-0.04,0.02-0.01-0.04,0.07c-0.09,0.13-0.22,0.43-0.18,0.42 c0.02-0.01,0.18-0.32,0.18-0.37c0.01-0.03,0.02-0.05,0.04-0.05c0.02,0,0.04-0.04,0.07-0.08c0.02-0.05,0.03-0.05,0.01,0 c-0.01,0.04-0.03,0.1-0.05,0.13c-0.02,0.04-0.05,0.09-0.07,0.12C6.49,36.57,6.48,36.6,6.5,36.6c0.01,0,0.05-0.05,0.08-0.1 c0.03-0.06,0.05-0.09,0.06-0.08c0.02,0.03-0.1,0.22-0.14,0.23c-0.02,0.01-0.06,0.04-0.08,0.08c-0.02,0.03-0.02,0.04,0.01,0.02 c0.02-0.02,0.02,0.02-0.02,0.09c-0.04,0.08-0.07,0.17-0.07,0.21c0,0.05,0.01,0.04,0.07-0.06c0.04-0.06,0.06-0.1,0.04-0.09 c-0.02,0.02-0.02-0.02,0-0.08c0.03-0.11,0.04-0.12,0.09-0.13c0.03-0.01,0.04,0.01,0.01,0.03C6.49,36.78,6.46,37.05,6.51,37 c0.02-0.02-0.01,0.05-0.1,0.19c-0.15,0.23-0.15,0.28,0,0.12c0.07-0.07,0.06-0.06-0.03,0.07c-0.09,0.12-0.1,0.15-0.05,0.11 c0.04-0.03,0.04,0,0.01,0.09c-0.03,0.07-0.06,0.14-0.07,0.15c-0.07,0.09-0.08,0.15-0.03,0.14c0.03-0.01,0.04,0.02,0.02,0.06 c-0.03,0.06-0.07,0.05-0.11-0.03c-0.01-0.02-0.03,0-0.05,0.03c-0.05,0.08,0.04,0.51,0.1,0.46c0.03-0.02,0.05-0.08,0.04-0.15 c-0.01-0.11,0.04-0.27,0.09-0.28c0.02,0,0.01,0.02-0.01,0.06C6.3,38.06,6.3,38.1,6.33,38.12c0.05,0.04,0.03,0.13-0.04,0.3 c-0.05,0.12-0.08,0.12-0.17,0.02c-0.03-0.03-0.03-0.02-0.08,0.14c-0.04,0.13-0.11,0.25-0.31,0.59c-0.23,0.4-0.48,0.8-0.65,1.23 c0,0.02-0.02,0.08-0.04,0.13c-0.07,0.14-0.11,0.37-0.06,0.32c0.03-0.03,0.02,0-0.02,0.06c-0.04,0.05-0.09,0.22-0.13,0.39 c-0.03,0.15-0.07,0.31-0.08,0.34c-0.01,0.03,0,0.07,0.04,0.09c0.1,0.06,0.09,0.19-0.03,0.66c-0.06,0.23-0.11,0.5-0.11,0.6 c0.01,0.16,0,0.19-0.08,0.26c-0.09,0.09-0.1,0.06-0.01,0.41c0.01,0.06,0,0.17-0.03,0.24c-0.05,0.12-0.03,0.62,0.02,0.55 c0.05-0.05,0.08-0.24,0.04-0.28c-0.02-0.02,0-0.16,0.04-0.31c0.04-0.15,0.07-0.29,0.07-0.31c0-0.02,0.01-0.18,0.04-0.35 c0.02-0.17,0.04-0.35,0.04-0.38c0-0.04,0.03-0.17,0.08-0.29c0.09-0.23,0.09-0.23,0.14-0.16c0.03,0.05,0.02,0.16-0.02,0.33 c-0.04,0.15-0.08,0.42-0.07,0.61c0,0.19,0,0.37-0.02,0.4c-0.01,0.02-0.01,0.21,0,0.41c0.02,0.43-0.02,0.75-0.14,0.93 c-0.04,0.06-0.08,0.15-0.08,0.2c-0.01,0.12,0.07,0.44,0.14,0.51c0.03,0.03,0.07,0.1,0.09,0.15c0.02,0.05,0.11,0.19,0.21,0.31 c0.17,0.21,0.19,0.22,0.32,0.13c0.16-0.11,0.2-0.06,0.25,0.28c0.03,0.2,0.27,0.47,0.44,0.49c0.04,0,0.06,0.04,0.05,0.07 c-0.01,0.04-0.01,0.17,0.02,0.29c0.02,0.12,0.02,0.3-0.01,0.38c-0.03,0.09-0.04,0.18-0.02,0.18c0.12,0.05,0.18,0.18,0.15,0.29 s-0.03,0.11,0.1,0.16c0.04,0.01,0.1,0.09,0.13,0.16c0.07,0.16,0.16,0.18,0.18,0.04c0.01-0.13,0.22-0.36,0.26-0.28 c0.02,0.03,0.02,0.19,0.02,0.37c-0.01,0.33-0.1,1.3-0.24,1.35c-0.01,0.01-0.05,0.08-0.05,0.2c0,0.11-0.02,0.2-0.05,0.19 c-0.07-0.01-0.14,0.61-0.1,0.82c0.02,0.09,0.06,0.16,0.1,0.17c0.1,0,0.1,0.19,0.01,0.31c-0.11,0.16-0.04,0.57,0.15,0.83 c0.07,0.1,0.22,0.42,0.34,0.71c0.12,0.29,0.29,0.68,0.38,0.87c0.09,0.19,0.17,0.38,0.17,0.43c-0.01,0.12,0.28,0.48,0.6,0.75 c0.36,0.26,0.56,0.62,0.62,1.07c0.1,0.55,0.21,1.11,0.23,1.68c0.01,0.18,0.03,0.36,0.05,0.41c0.03,0.05,0.03,0.11,0.01,0.13 c-0.02,0.02-0.01,0.13,0.05,0.29c0.1,0.28,0.12,0.57,0.08,1.02c-0.02,0.22,0,0.35,0.06,0.5c0.04,0.11,0.07,0.23,0.06,0.27 c-0.01,0.04,0,0.17,0.03,0.3s0.05,0.28,0.05,0.34c0,0.08,0.02,0.1,0.06,0.09c0.03,0,0.03-0.09,0.02-0.17 c-0.02-0.1,0-0.15,0.03-0.15c0.06,0.01,0.11,0.17,0.15,0.51c0.01,0.03,0.02,0.14,0.04,0.25c0.02,0.15,0.01,0.18-0.07,0.14 c-0.05-0.03-0.12-0.02-0.16,0.02c-0.04,0.05-0.04,0.08-0.01,0.08c0.18,0.01,0.24,0.09,0.31,0.45c0,0.01-0.04-0.03-0.1-0.09 c-0.06-0.06-0.11-0.09-0.11-0.08c-0.01,0.01,0.01,0.06,0.05,0.09c0.04,0.04,0.08,0.12,0.11,0.23c0.03,0.15,0.04,0.16,0.06,0.08 c0.01-0.05,0.03-0.09,0.05-0.09c0.04,0.01,0.06,0.25,0.03,0.29c-0.02,0.02,0,0.04,0.04,0.04c0.06,0,0.12,0.07,0.24,0.27 c0.09,0.14,0.15,0.26,0.12,0.25c-0.03-0.01-0.02,0.02,0.01,0.06c0.03,0.04,0.09,0.06,0.14,0.05c0.05,0,0.09,0.01,0.09,0.04 c0,0.03,0.02,0.05,0.06,0.06c0.03,0.01,0.06-0.06,0.04-0.15C10.7,63.59,10.73,63.53,10.77,63.54z M5.57,36.75 c-0.01,0,0.01-0.03,0.05-0.06c0.06-0.06,0.07-0.07,0.04-0.06c-0.02,0.01-0.05,0.04-0.07,0.07c-0.02,0.03-0.08,0.08-0.13,0.11 c-0.11,0.07-0.16,0.17-0.06,0.11C5.48,36.87,5.61,36.74,5.57,36.75z M6.06,37.56c0,0,0.05-0.07,0.1-0.16 c0.07-0.12,0.08-0.16,0.04-0.15c-0.03,0.01-0.07,0.03-0.09,0.06C6.09,37.36,6.04,37.56,6.06,37.56z M14.11,32.99 c-0.01,0.01-0.08,0.03-0.15,0.07c-0.18,0.07-0.34,0.3-0.19,0.28c0.12-0.01,0.2-0.08,0.29-0.24C14.09,33.04,14.11,32.99,14.11,32.99 z M14.09,33.16c0.01,0.01,0.05,0.01,0.09-0.01c0.03-0.02,0.02-0.03-0.03-0.03C14.1,33.12,14.08,33.14,14.09,33.16z M13.76,32.87 c-0.07,0.06-0.1,0.11-0.08,0.1c0.02,0,0.08-0.05,0.13-0.11C13.93,32.73,13.92,32.73,13.76,32.87z M13.11,34.25 c-0.04,0-0.06,0.03-0.04,0.04c0.01,0.02,0.05,0.01,0.07-0.01C13.16,34.26,13.15,34.24,13.11,34.25z M12.83,34.21 c0.02-0.04,0.01-0.07-0.03-0.06c-0.04,0-0.05-0.02-0.03-0.06c0.03-0.05-0.08-0.16-0.2-0.2c-0.02,0-0.02-0.05,0.01-0.09 c0.03-0.04,0.04-0.07,0.04-0.07c-0.01,0.01-0.04,0.02-0.09,0.05c-0.04,0.02-0.12,0.11-0.19,0.21c-0.07,0.1-0.17,0.23-0.23,0.28 c-0.1,0.09-0.1,0.09-0.01,0.05c0.06-0.03,0.1-0.02,0.1,0.03c0.01,0.06,0.04,0.05,0.18-0.05c0.15-0.11,0.19-0.12,0.25-0.07 C12.72,34.3,12.78,34.3,12.83,34.21z M12.66,34.62c-0.03,0.04-0.03,0.07-0.01,0.07c0.03,0,0.08-0.04,0.11-0.08 c0.03-0.04,0.03-0.07,0.01-0.07C12.74,34.54,12.69,34.57,12.66,34.62z M12.47,34.44c-0.05,0-0.11,0.04-0.14,0.08 c-0.03,0.04-0.02,0.07,0.03,0.06c0.05,0,0.11-0.04,0.14-0.08C12.53,34.46,12.52,34.43,12.47,34.44z M12.04,36.02 c-0.03,0-0.07,0.03-0.09,0.07c-0.02,0.04,0,0.05,0.04,0.03c0.04-0.03,0.08-0.06,0.09-0.07C12.09,36.03,12.07,36.01,12.04,36.02z M11.4,36.82c-0.03,0-0.06,0.02-0.07,0.03c-0.01,0.01,0,0.04,0.02,0.07c0.02,0.02,0.05,0,0.07-0.03 C11.44,36.84,11.43,36.82,11.4,36.82z M14.7,38.27c-0.02-0.02-0.01-0.06,0.02-0.1c0.08-0.11,0.02-0.08-0.12,0.08 c-0.12,0.13-0.13,0.14-0.07,0.19c0.03,0.03,0.09,0.01,0.13-0.04C14.7,38.34,14.72,38.27,14.7,38.27z M14.69,37.74 c-0.1,0.03-0.16,0.01-0.18-0.07c-0.01-0.06-0.05-0.09-0.09-0.06c-0.08,0.06,0.02-0.09,0.2-0.3c0.2-0.23,0-0.16-0.21,0.07 c-0.1,0.11-0.22,0.26-0.26,0.34c-0.05,0.08-0.1,0.14-0.13,0.14c-0.02,0-0.06,0.05-0.08,0.11c-0.02,0.06-0.06,0.11-0.09,0.11 c-0.02,0-0.05,0.03-0.07,0.08s0.1,0.06,0.3,0.06c0.26-0.01,0.32,0,0.24,0.08c-0.16,0.18-0.01,0.1,0.24-0.14 c0.13-0.13,0.21-0.2,0.16-0.18c-0.06,0.05-0.05,0.01,0.02-0.12C14.83,37.71,14.83,37.7,14.69,37.74z M13.52,37.75 c-0.04-0.12-0.2-0.16-0.19-0.04c0.01,0.03,0.06,0.08,0.11,0.11C13.54,37.86,13.55,37.85,13.52,37.75z M13.07,38.54 c-0.05-0.03-0.1-0.08-0.12-0.11c-0.02-0.02-0.02,0.01,0,0.07c0.02,0.07,0.07,0.12,0.12,0.11C13.14,38.6,13.14,38.59,13.07,38.54z M9.89,48.27c-0.02,0-0.06,0.03-0.07,0.07c-0.01,0.04,0,0.08,0.03,0.08c0.03,0,0.06-0.03,0.07-0.07 C9.93,48.31,9.92,48.27,9.89,48.27z M9.67,46.09c-0.06-0.01-0.12,0.02-0.14,0.07c-0.01,0.04,0.02,0.08,0.09,0.09 c0.06,0.01,0.13-0.03,0.14-0.07C9.78,46.14,9.73,46.1,9.67,46.09z M8.21,45.46c-0.05,0.09-0.03,0.11,0.14,0.13 c0.21,0.02,0.36-0.09,0.25-0.18c-0.03-0.03-0.12-0.13-0.19-0.22c-0.39-0.51-0.49-0.59-0.74-0.49c-0.08,0.03-0.19,0.11-0.24,0.17 c-0.09,0.11-0.09,0.12,0.02,0.07c0.07-0.03,0.14-0.07,0.18-0.11c0.08-0.09,0.21-0.07,0.17,0.02c-0.01,0.04,0.01,0.08,0.07,0.08 c0.06,0,0.1,0.04,0.09,0.08c0,0.04,0.04,0.08,0.09,0.08c0.05,0,0.08,0.06,0.07,0.12c-0.01,0.06,0.02,0.12,0.07,0.12 C8.25,45.35,8.25,45.39,8.21,45.46z M7.88,46.01c0,0.04,0.06,0.08,0.13,0.09c0.1,0.01,0.12-0.01,0.1-0.07 C8.05,45.93,7.88,45.91,7.88,46.01z M8.51,44.36c0.02,0,0.05-0.04,0.07-0.07c0.02-0.05,0.01-0.08-0.01-0.08 c-0.02,0-0.05,0.03-0.07,0.07C8.48,44.32,8.49,44.35,8.51,44.36z M8.46,46c-0.02,0.06,0.39,0.18,0.47,0.12 c0.03-0.02,0.14-0.04,0.24-0.05c0.1-0.01,0.2-0.02,0.21-0.03c0.01-0.01-0.03-0.11-0.1-0.2c-0.13-0.18-0.54-0.28-0.51-0.11 c0.04,0.18-0.05,0.31-0.17,0.26C8.54,45.96,8.47,45.97,8.46,46z M14.53,66.86c-0.03,0.03-0.02,0.04,0.03,0.05 c0.03,0.01,0.05-0.01,0.04-0.03C14.58,66.82,14.58,66.82,14.53,66.86z M14.1,67.92c-0.11,0.02-0.1,0.04,0.11,0.08 c0.36,0.09,0.37-0.02,0.03-0.4c-0.2-0.22-0.24-0.25-0.34-0.24c-0.03,0-0.03,0.04,0.01,0.11c0.03,0.06,0.04,0.11,0.03,0.13 c-0.02,0.02,0,0.04,0.07,0.06c0.13,0.04,0.11,0.07-0.03,0.06c-0.07-0.01-0.14-0.01-0.18-0.02c-0.03,0-0.08-0.01-0.1-0.01 c-0.03-0.01-0.03,0.01,0.01,0.05c0.05,0.05,0.09,0.07,0.18,0.06c0.07,0,0.15,0.01,0.19,0.05C14.13,67.91,14.13,67.91,14.1,67.92z M13.5,67.55c0,0.02,0.05,0.05,0.13,0.06c0.17,0.02,0.17,0,0.01-0.05C13.56,67.53,13.5,67.53,13.5,67.55z M13.54,67.43 c0.03,0.02,0.06,0.03,0.06,0.01c0.01-0.01-0.02-0.03-0.05-0.04C13.52,67.4,13.51,67.41,13.54,67.43z M14.18,67.25 c0.03-0.02,0.04-0.05,0.03-0.08c-0.03-0.07-0.07-0.07-0.09-0.02C14.09,67.23,14.13,67.28,14.18,67.25z M13.36,67.72 c-0.06-0.02-0.09-0.01-0.06,0.02c0.02,0.03,0.07,0.06,0.1,0.07c0.03,0.01,0.06,0,0.06-0.02C13.46,67.77,13.42,67.74,13.36,67.72z M12.56,63.66c-0.05-0.01-0.11,0.02-0.13,0.07c-0.03,0.08-0.02,0.09,0.07,0.06C12.64,63.76,12.68,63.69,12.56,63.66z M12.3,63.62 c-0.04-0.01-0.06,0.03-0.06,0.07c0.01,0.07,0.02,0.08,0.07,0.04C12.39,63.67,12.39,63.63,12.3,63.62z M11.95,67.24 c-0.01-0.01-0.02,0.01-0.01,0.04c0.01,0.02,0.04,0.05,0.05,0.06c0.02,0.01,0.02-0.01,0.01-0.04 C11.99,67.27,11.97,67.24,11.95,67.24z M11.1,61.58c-0.02,0-0.04,0.02-0.03,0.05c0.01,0.03,0.04,0.07,0.06,0.07 c0.03,0.01,0.04-0.02,0.03-0.05C11.16,61.61,11.13,61.59,11.1,61.58z M11.05,66.84c-0.16-0.07-0.24-0.09-0.18-0.06 c0.06,0.03,0.1,0.07,0.1,0.08c0,0.02,0.04,0.04,0.08,0.05c0.04,0.01,0.14,0.05,0.23,0.08C11.56,67.09,11.36,66.96,11.05,66.84z M14.77,69.09c-0.07,0-0.13,0.01-0.14,0.04c0.05,0.02,0.11,0.05,0.16,0.07c0.04,0,0.09,0,0.14-0.02 C15.06,69.14,14.99,69.1,14.77,69.09z M15.59,68.5c-0.05-0.04-0.07-0.05-0.12-0.09c-0.06-0.05-0.11-0.1-0.11-0.12 c0.01-0.02,0-0.03-0.02-0.04c-0.02-0.01-0.05-0.06-0.06-0.12c-0.02-0.08-0.05-0.12-0.11-0.16c-0.05-0.03-0.08-0.07-0.08-0.09 c0-0.06-0.29-0.32-0.37-0.33c-0.05,0-0.09-0.04-0.13-0.11c-0.04-0.06-0.06-0.12-0.05-0.12c0.09-0.12,0.16-0.16,0.21-0.12 c0.04,0.02,0.06,0,0.07-0.05c0-0.1,0.16-0.19,0.28-0.16c0.05,0.01,0.08,0,0.07-0.03c-0.01-0.02,0.03-0.06,0.08-0.07 c0.04-0.01,0.06-0.01,0.1-0.02c-0.04-0.01-0.07-0.02-0.11-0.03c-0.06-0.02-0.11-0.02-0.12-0.01c-0.01,0.01-0.05,0.03-0.11,0.04 c-0.17,0.03-0.39,0.1-0.42,0.13c-0.01,0.03-0.09,0.08-0.17,0.11c-0.07,0.04-0.13,0.1-0.11,0.13c0.01,0.03,0.04,0.05,0.06,0.05 c0.03-0.01,0.05,0.03,0.08,0.13c0.03,0.12,0.03,0.14-0.06,0.11c-0.11-0.03-0.12-0.05,0.16,0.33c0.06,0.09,0.13,0.18,0.13,0.2 c0.04,0.08-0.09,0.1-0.4,0.05c-0.3-0.05-0.34-0.07-0.41-0.15c-0.06-0.08-0.09-0.09-0.13-0.07c-0.03,0.02-0.03,0.04-0.01,0.05 c0.02,0.01,0.05,0.04,0.06,0.07c0.02,0.04-0.02,0.03-0.11-0.02c-0.08-0.04-0.17-0.09-0.22-0.11c-0.05-0.02-0.13-0.06-0.18-0.1 c-0.07-0.04-0.11-0.05-0.12,0c-0.01,0.05-0.06,0.05-0.25-0.04c-0.13-0.06-0.25-0.13-0.26-0.15c-0.02-0.02-0.09-0.06-0.18-0.08 c-0.08-0.03-0.16-0.07-0.18-0.09c-0.02-0.03-0.08-0.04-0.13-0.04c-0.46-0.1-0.92-0.31-1.33-0.53c-0.07-0.04-0.1-0.05-0.08-0.02 c0.02,0.03,0.09,0.08,0.2,0.12c0.1,0.04,0.18,0.09,0.19,0.11c0.01,0.02-0.05,0.01-0.14-0.03c-0.09-0.04-0.13-0.06-0.09-0.03 c0.04,0.03,0.09,0.07,0.12,0.1c0.03,0.03,0.06,0.06,0.09,0.07c0.01,0.01,0.04,0.03,0.07,0.05c0.85,0.57,1.74,1.09,2.67,1.54 c0.05,0.01,0.07,0.01,0.05-0.01c-0.04-0.04-0.14-0.09-0.22-0.12c-0.08-0.03-0.17-0.08-0.19-0.11c-0.03-0.04,0-0.04,0.1,0.02 c0.33,0.16,0.72,0.31,0.74,0.28c0.02-0.02-0.04-0.06-0.16-0.11c-0.23-0.1-0.52-0.32-0.48-0.36c0.02-0.01,0.13,0.04,0.27,0.11 c0.28,0.16,0.56,0.26,0.73,0.25c0.07,0,0.23,0.01,0.36,0.02c0.16,0.02,0.25,0,0.25-0.04c0-0.04,0.03-0.05,0.06-0.02 c0.03,0.02,0.07,0,0.1-0.06c0.03-0.07,0.04-0.11,0-0.11c-0.03-0.01-0.06-0.03-0.07-0.05c-0.01-0.02,0.04-0.02,0.1,0.01 C15.52,68.47,15.54,68.48,15.59,68.5z M15.25,66.94c-0.03-0.01-0.05,0.01-0.04,0.04c0.01,0.02,0.04,0.05,0.07,0.06 c0.03,0.01,0.04-0.01,0.04-0.04C15.31,66.98,15.28,66.95,15.25,66.94z M15.97,69.66c0-0.02-0.01-0.04-0.02-0.05 c-0.05-0.06-0.15-0.08-0.15-0.03c0,0.01-0.01,0.01-0.02,0.01C15.84,69.61,15.91,69.63,15.97,69.66z M16.68,34.3 c0.07-0.02,0.11-0.01,0.1,0.02c-0.01,0.04,0.01,0.07,0.04,0.07c0.03,0,0.05,0.03,0.04,0.06c-0.01,0.04,0.03,0.07,0.09,0.07 c0.09,0,0.15-0.06,0.28-0.25c0.09-0.14,0.16-0.28,0.16-0.33c0-0.04,0.08-0.13,0.19-0.2c0.19-0.13,0.25-0.22,0.18-0.28 c-0.03-0.02-0.01-0.04,0.04-0.04c0.06-0.01,0.07-0.03,0.06-0.11c-0.01-0.09,0.02-0.11,0.18-0.16c0.11-0.03,0.24-0.11,0.3-0.17 c0.1-0.11,0.1-0.1,0.04,0.01c-0.06,0.11-0.05,0.13,0.03,0.06c0.05-0.04,0.18-0.1,0.28-0.13c0.1-0.02,0.26-0.13,0.36-0.23 c0.1-0.1-0.61-0.16-0.59-0.17c0.03,0,0.87-0.06,0.87-0.12c0.01-0.09,0.02-0.1,0.07-0.04c0.08,0.1,0.61-0.02,1.07-0.23 c0.28-0.14,0.31-0.16,0.23-0.21c-0.05-0.03-0.16-0.06-0.25-0.07c-0.09-0.02-0.12-0.03-0.06-0.05c0.07-0.02,0.1-0.06,0.1-0.14 c0-0.09,0.02-0.1,0.09-0.06c0.05,0.03,0.09,0.09,0.09,0.12c0.01,0.09,0.34,0.13,0.36,0.05c0.02-0.12-0.11-0.34-0.23-0.38 c-0.14-0.05-0.22-0.26-0.11-0.26c0.04,0,0.06,0.03,0.05,0.07c-0.02,0.07,0.19,0.22,0.26,0.17c0.08-0.06,0.05-0.15-0.09-0.23 c-0.08-0.05-0.13-0.11-0.11-0.13s0.08,0,0.14,0.04c0.13,0.08,0.39,0.02,0.41-0.1c0-0.04,0.06-0.09,0.13-0.11 c0.05-0.02,0.07-0.03,0.12-0.05c-0.05,0-0.07-0.01-0.13-0.01c-0.15-0.01-0.15-0.15,0-0.15c0.05,0,0.1-0.02,0.11-0.04 c0.02-0.11-0.08-0.24-0.17-0.24c-0.21,0-0.18-0.1,0.02-0.12c0,0.02,0.01,0.04,0.03,0.04c0.02,0,0.04-0.02,0.06-0.04 c0.11,0,0.18,0.02,0.17,0.06c-0.01,0.05,0.01,0.04,0.06-0.01c0.1-0.13,0.08-0.18-0.06-0.19c-0.07,0-0.12-0.04-0.13-0.09 c-0.01-0.05-0.05-0.06-0.11-0.04c-0.04,0.02-0.06,0.03-0.09,0.05c0.04-0.06,0.07-0.09,0.11-0.15c0.06-0.08,0.13-0.15,0.16-0.15 c0.03,0,0.08-0.05,0.1-0.1c0.03-0.06,0.08-0.1,0.13-0.1c0.05,0,0.12-0.03,0.17-0.06c0.19-0.15,0.3-0.22,0.51-0.29 c0.09-0.03,0.14-0.05,0.23-0.08c-0.09-0.03-0.14-0.04-0.23-0.06c-0.14-0.04-0.29-0.03-0.41,0.03c-0.1,0.04-0.23,0.06-0.29,0.04 c-0.06-0.02-0.19,0.01-0.28,0.06c-0.1,0.05-0.19,0.08-0.19,0.06c-0.01-0.02,0-0.03,0.02-0.03c0.02,0,0.08-0.05,0.13-0.11 c0.08-0.1,0.07-0.1-0.14-0.07c-0.15,0.03-0.22,0.02-0.19-0.02c0.02-0.04,0.11-0.07,0.21-0.07s0.19-0.04,0.21-0.07 c0.02-0.04-0.03-0.07-0.13-0.07c-0.09,0-0.21-0.03-0.27-0.06c-0.42-0.11-0.89-0.08-1.32-0.02c-0.13,0.02-0.25,0.06-0.26,0.1 c-0.01,0.03-0.23,0.06-0.47,0.07c-0.28,0.01-0.41,0.03-0.35,0.06c0.1,0.04,0.15,0.12,0.08,0.13c-0.02,0-0.04,0.03-0.04,0.07 c-0.01,0.08-0.01,0.08-0.31,0c-0.32-0.09-0.37-0.08-0.37,0.04c0,0.11-0.05,0.13-0.18,0.05c-0.06-0.04-0.1-0.02-0.14,0.02 c-0.04,0.05-0.06,0.05-0.08,0c-0.05-0.1-0.85,0.12-0.9,0.23c-0.02,0.06-0.08,0.09-0.19,0.11c-0.18,0.03-0.54,0.19-0.64,0.29 c-0.03,0.03,0.01,0.05,0.08,0.03c0.07-0.01,0.13,0,0.11,0.04c-0.03,0.07-0.13,0.12-0.4,0.21c-0.49,0.16-0.61,0.21-0.64,0.26 c-0.03,0.06,0.31,0.14,0.37,0.09c0.03-0.03,0.04-0.01,0.02,0.02c-0.02,0.04-0.11,0.08-0.21,0.1c-0.15,0.03-0.16,0.04-0.1,0.06 c0.04,0.02,0.09,0.06,0.11,0.1c0.02,0.04,0.17,0.04,0.45-0.03c0.43-0.09,0.72-0.04,0.73,0.12c0,0.04,0.03,0.08,0.06,0.08 c0.02,0,0.06,0.11,0.08,0.25c0.03,0.21,0.02,0.27-0.05,0.34c-0.16,0.17-0.16,0.23,0.02,0.18c0.11-0.04,0.2-0.02,0.27,0.05 c0.08,0.1,0.09,0.28,0,0.2c-0.03-0.02-0.1-0.03-0.17-0.03c-0.08,0.01-0.11-0.02-0.08-0.06c0.03-0.04,0.02-0.05-0.02-0.03 c-0.04,0.02-0.08,0.07-0.08,0.11c0,0.03-0.03,0.06-0.04,0.06c-0.02,0-0.06,0.05-0.08,0.1c-0.05,0.12,0.06,0.18,0.2,0.12 c0.04-0.02,0.06-0.03,0.11-0.05c-0.02-0.04-0.03-0.06-0.05-0.09c-0.05-0.09-0.05-0.09,0.06-0.05c0.06,0.02,0.11,0.07,0.1,0.1 c-0.01,0.03,0.03,0.03,0.07-0.02c0.07-0.07,0.06-0.05-0.03,0.1c-0.07,0.12-0.15,0.19-0.2,0.19c-0.05,0-0.16,0.08-0.25,0.17 c-0.15,0.14-0.16,0.17-0.14,0.25c0.02,0.06,0.02,0.09-0.03,0.12c-0.04,0.02-0.05,0.09-0.02,0.18c0.02,0.09,0.02,0.2,0,0.26 c-0.05,0.12-0.04,0.12,0.13,0.01c0.14-0.08,0.14-0.08,0.01,0.07c-0.13,0.16-0.13,0.16-0.06,0.48C16.41,34.27,16.5,34.36,16.68,34.3 z M17.83,70.05c-0.04-0.05-0.08-0.12-0.09-0.15c-0.02-0.1-0.38-0.23-0.58-0.21c-0.06,0.01-0.13,0.06-0.14,0.12 c-0.02,0.07-0.07,0.11-0.19,0.11c-0.04,0-0.07,0-0.09,0c0.3,0.09,0.6,0.18,0.9,0.26c0.07,0,0.14,0,0.2,0 C17.9,70.15,17.9,70.14,17.83,70.05z M18.1,64.52c-0.02-0.03-0.1-0.07-0.16-0.09c-0.12-0.04-0.12-0.04-0.01,0.05 C18.07,64.58,18.16,64.61,18.1,64.52z M36.41,66.7c-0.14,0.06-0.18,0.07-0.21,0.05c-0.02-0.01-0.07,0-0.13,0.02 c-0.05,0.02-0.09,0.02-0.07,0c0.03-0.04-0.01-0.03-0.05,0.01c-0.01,0.02-0.05,0.04-0.1,0.07c-0.04,0.02-0.07,0.03-0.06,0.01 c0.01-0.02-0.01-0.02-0.04-0.01c-0.12,0.03-0.2,0.01-0.17-0.03c0.02-0.02,0.02-0.03-0.01-0.02c-0.04,0.02-0.15,0.05-0.33,0.09 c-0.11,0.02-0.16,0.03-0.24,0.05c-0.03,0.01-0.02-0.01,0.03-0.08c0.05-0.06,0.06-0.09,0.04-0.08c-0.02,0.01-0.06,0.05-0.09,0.1 c-0.05,0.08-0.07,0.09-0.21,0.14c-0.11,0.04-0.18,0.08-0.23,0.13c-0.1,0.1-0.2,0.13-0.2,0.07c0-0.03-0.03-0.03-0.05-0.01 c-0.05,0.04-0.41,0.2-0.64,0.26c-0.13,0.04-0.27,0.04-0.29-0.02c-0.02-0.05-0.22,0.04-0.33,0.15c-0.08,0.07-0.11,0.08-0.37,0.09 c-0.25,0-0.31,0.01-0.44,0.09c-0.05,0.03-0.08,0.05-0.08,0.06c0,0-0.01,0.01-0.01,0.01c-0.05,0.05-0.12,0.09-0.16,0.11 c-0.28,0.07-0.44,0.13-0.52,0.18c-0.05,0.04-0.12,0.07-0.16,0.08c-0.03,0.01-0.15,0.08-0.25,0.15c-0.1,0.07-0.29,0.18-0.4,0.23 c-0.12,0.05-0.25,0.12-0.29,0.16c-0.05,0.04-0.08,0.06-0.08,0.05c0-0.01-0.05,0.03-0.11,0.1c-0.13,0.14-0.34,0.28-0.41,0.25 c-0.05-0.01,0.02-0.15,0.09-0.17c0.02,0,0.07-0.05,0.12-0.09c0.07-0.08,0.07-0.08,0.02-0.04c-0.08,0.05-0.13,0.02-0.08-0.04 c0.02-0.02,0.06-0.05,0.08-0.05c0.05-0.01,0.25-0.21,0.28-0.28c0.01-0.03-0.1-0.04-0.27-0.03c-0.46,0.02-0.88,0-0.88-0.03 c0-0.02-0.02-0.06-0.05-0.08c-0.11-0.09-0.62,0.03-0.65,0.17c-0.01,0.05-0.04,0.06-0.12,0.05c-0.08-0.01-0.1,0.01-0.11,0.05 c0,0.05-0.03,0.06-0.12,0.04c-0.06-0.01-0.17,0.01-0.24,0.04c-0.07,0.03-0.17,0.07-0.22,0.08c-0.25,0.08-0.45,0.16-0.51,0.24 c-0.08,0.09-0.23,0.14-0.23,0.07c0-0.03-0.03-0.03-0.07-0.01c-0.04,0.02-0.1-0.01-0.15-0.07c-0.07-0.09-0.1-0.1-0.16-0.05 c-0.16,0.13-0.28,0.18-0.71,0.26c-0.29,0.06-0.54,0.07-0.74,0.05c-0.32-0.04-0.66-0.07-0.99,0.01c-0.03,0.03-0.09,0.04-0.15,0.01 c-0.13-0.05-0.83-0.07-0.95-0.02c-0.19,0.08-0.36,0.1-0.65,0.06c-0.19-0.02-0.33-0.07-0.32-0.09c0.03-0.09-0.12-0.06-0.2,0.04 c-0.08,0.09-0.09,0.1-0.16,0c-0.06-0.08-0.09-0.09-0.18-0.05c-0.06,0.03-0.14,0.04-0.17,0.01c-0.06-0.03-0.06-0.03,0,0.05 s0.07,0.09-0.02,0.13c-0.05,0.02-0.11,0.04-0.15,0.03c-0.03,0-0.07,0.01-0.08,0.04c-0.02,0.02-0.08,0.05-0.14,0.05 c-0.06,0-0.11,0.03-0.12,0.07c0,0.05,0.02,0.06,0.13,0.05c0.12-0.02,0.11,0-0.07,0.08c-0.12,0.05-0.21,0.12-0.22,0.15 c0,0.03-0.09,0.04-0.21,0.03c-0.4-0.05-1.67-0.04-1.72,0.19c-0.01,0.02,0.41,0.23,0.46,0.22c0.02-0.01,0.12,0,0.24,0.01 c0.19,0.01,0.19,0.01,0.12,0.06c-0.03,0.02-0.05,0.03-0.08,0.05c0.04,0.01,0.06,0.02,0.11,0.03c0.05,0.01,0.11,0.06,0.11,0.06 c-0.01,0.02-0.04,0.03-0.09,0.04c1.26,0.23,2.56,0.35,3.89,0.35C28.28,70.95,32.77,69.37,36.41,66.7z M20.3,69.73 c0.02,0,0.02-0.02,0.01-0.05c-0.01-0.03-0.03-0.06-0.04-0.06c-0.01,0-0.01,0.02-0.01,0.05C20.26,69.7,20.29,69.72,20.3,69.73z M22.28,69.28c0.03,0,0.04-0.03,0.03-0.07c-0.01-0.04-0.02-0.08-0.03-0.08c0,0-0.02,0.03-0.03,0.07 C22.24,69.24,22.25,69.27,22.28,69.28z M30.58,56.4c-0.13,0.18-0.16,0.27-0.16,0.51c-0.02,0.41,0.1,0.55,0.36,0.47 c0.12-0.04,0.23-0.09,0.24-0.11c0.3-0.43,0.52-1.12,0.73-1.7c0.02-0.05,0.06-0.14,0.09-0.19c0.04-0.05,0.05-0.14,0.05-0.22 c-0.01-0.11,0-0.12,0.07-0.1c0.07,0.03,0.08,0,0.09-0.22c0.01-0.23-0.06-0.63-0.1-0.63c-0.01,0-0.04,0.02-0.06,0.05 c-0.03,0.02-0.05,0.1-0.06,0.15c-0.01,0.06-0.07,0.17-0.13,0.23c-0.07,0.07-0.17,0.19-0.22,0.28c-0.06,0.09-0.21,0.2-0.33,0.25 c-0.33,0.13-0.46,0.37-0.43,0.73C30.72,56.17,30.71,56.21,30.58,56.4z M32.55,63.35c-0.03,0.09,0.07,0.09,0.18-0.01 c0.05-0.04,0.04-0.06-0.04-0.07C32.62,63.27,32.57,63.29,32.55,63.35z M32.72,56.32c0.02,0,0.04-0.04,0.03-0.07 c-0.01-0.04-0.03-0.06-0.04-0.06c-0.01,0-0.03,0.03-0.03,0.07C32.67,56.29,32.69,56.32,32.72,56.32z M32.97,47.77 c0.03,0.05,0.07,0.06,0.1,0.04c0.06-0.07,0.04-0.12-0.06-0.12C32.96,47.69,32.95,47.73,32.97,47.77z M35.08,65.23 c0.02-0.02,0.01-0.03-0.03-0.02c-0.03,0.01-0.05,0.03-0.04,0.04C35.03,65.27,35.06,65.25,35.08,65.23z M37.87,48.64 c-0.17-0.3-0.21-0.33-0.21-0.16c0,0.18,0.11,0.63,0.18,0.75c0.05,0.08,0.08,0.09,0.15,0.01C38.1,49.13,38.07,49,37.87,48.64z M39.57,46.63c0.06,0.16,0.17,0.41,0.23,0.55c0.09,0.19,0.15,0.4,0.23,0.81c0.07,0.31,0.13,0.56,0.14,0.56 c0.04,0,0.32,0.48,0.35,0.63c0.09,0.37,0.22,0.91,0.36,0.89c0.04-0.01,0.05-0.03,0.04-0.19c-0.01-0.1,0.01-0.28,0.03-0.4 c0.04-0.23-0.27-0.57-0.43-0.65c-0.05-0.02-0.1-0.09-0.12-0.19c-0.02-0.08-0.08-0.21-0.14-0.29c-0.12-0.17-0.14-0.23-0.17-0.7 c-0.03-0.37,0-0.55,0.06-0.33c0.02,0.06,0.05,0.11,0.07,0.11c0.03,0,0.13,0.11,0.24,0.25c0.1,0.14,0.21,0.27,0.25,0.29 c0.04,0.02,0.08,0.11,0.1,0.21c0.02,0.09,0.05,0.17,0.06,0.17c0.04-0.01,0.1-0.27,0.08-0.34c-0.01-0.04,0.01-0.08,0.04-0.08 c0.03,0,0.07-0.07,0.1-0.17c0.04-0.14,0.03-0.21-0.04-0.48c-0.1-0.37-0.15-0.48-0.48-0.94c-0.28-0.4-0.33-0.56-0.26-0.86 c0.06-0.27,0.22-0.33,0.28-0.11c0.02,0.07,0.06,0.16,0.09,0.21c0.04,0.06,0.05,0.08,0,0.08c-0.11,0-0.1,0.29,0.02,0.38 c0.08,0.05,0.11-0.01,0.11-0.18c0-0.1-0.02-0.17-0.06-0.22c-0.13-0.18-0.12-0.32,0.01-0.43c0.09-0.08,0.11-0.15,0.09-0.23 c-0.02-0.08-0.02-0.09,0.01-0.03c0.07,0.12,0.24,0,0.29-0.22c0.06-0.22,0.08-0.44,0.06-0.52c-0.01-0.03-0.02-0.08-0.03-0.11 c-0.01-0.03-0.01-0.14,0-0.26c0.01-0.41-0.04-0.63-0.16-0.65c-0.02,0-0.03,0-0.06,0c0.01-0.03,0.02-0.04,0.03-0.07 c0.04-0.09-0.02-0.29-0.21-0.61c-0.18-0.33-0.24-0.41-0.29-0.45c-0.06-0.05-0.02-0.43,0.06-0.48c0.08-0.05,0.04-0.14-0.09-0.2 c-0.07-0.03-0.12-0.03-0.12,0.03c-0.01,0.11-0.08,0.06-0.13-0.07c-0.02-0.06-0.06-0.11-0.1-0.13c-0.09-0.04-0.16-0.24-0.09-0.24 c0.03,0,0.07-0.1,0.1-0.22c0.03-0.14,0.07-0.19,0.11-0.16c0.06,0.05,0.06,0.06,0.06,0.18c0,0.19,0.07,0.28,0.13,0.17 c0.03-0.06,0.08-0.08,0.14-0.04c0.09,0.05,0.11,0.07,0.14,0.22c0.04,0.19,0.07,0.25,0.15,0.26c0.06,0.01,0.15,0.14,0.14,0.21 c-0.01,0.03,0.11,0.39,0.18,0.56c0.01,0.02,0.06,0.01,0.11-0.03c0.08-0.06,0.08-0.08,0.01-0.32c-0.06-0.2-0.11-0.29-0.27-0.54 c-0.11-0.16-0.19-0.31-0.18-0.32c0.05-0.06,0.08-0.28,0.04-0.36c-0.02-0.05-0.02-0.16,0-0.26c0.02-0.14,0.04-0.15,0.11-0.08 c0.13,0.12,0.16-0.02,0.13-0.67c-0.03-0.5-0.04-0.59-0.14-0.84c-0.06-0.15-0.11-0.32-0.11-0.37c-0.04-0.29-0.41-0.81-0.43-0.6 c-0.01,0.09-0.03,0.1-0.06,0.02c-0.05-0.12-0.07-0.17-0.06-0.09c0.02,0.08,0.01,0.08-0.03-0.02c-0.03-0.08-0.07-0.12-0.13-0.15 c-0.03-0.02-0.05-0.02-0.08-0.04c0.02-0.04,0.02-0.06,0.04-0.1c0.02-0.06,0.04-0.17,0.05-0.25c0.05-0.54-0.16-0.63,0.13-0.5 c0.08,0.04,0.15,0.05,0.15,0.02c-0.01-0.07,0.2,0.07,0.22,0.15c0.01,0.04,0.04,0.06,0.1,0.05c0.04-0.01,0.09,0,0.11,0 c0.04,0.01,0.04,0.01-0.02-0.05c-0.05-0.05-0.06-0.09-0.06-0.25c0-0.16,0.02-0.18,0.1-0.15c0.08,0.03,0.1,0.06,0.13,0.12 c0.06,0.15,0.1,0.17,0.12,0.08c0.01-0.05,0.02-0.07,0.04-0.05c0.01,0.03,0-0.01-0.03-0.08c-0.03-0.07-0.03-0.12-0.01-0.11 c0.07,0.03,0.14,0.3,0.12,0.45c-0.01,0.07-0.02,0.18-0.01,0.24c0,0.05-0.01,0.12-0.03,0.15c-0.05,0.06,0,0.3,0.11,0.54 c0.05,0.11,0.16,0.34,0.25,0.52c0.09,0.18,0.18,0.36,0.2,0.41c0.05,0.11,0.06-0.11,0-0.24c-0.02-0.05-0.03-0.1-0.01-0.12 c0.02-0.01,0.01-0.07-0.01-0.14c-0.03-0.07-0.03-0.13,0-0.13c0.03-0.02,0.02-0.05-0.02-0.14c-0.06-0.12-0.07-0.23-0.01-0.17 c0.02,0.02,0.02,0.01,0-0.03c-0.02-0.04-0.04-0.07-0.05-0.08c-0.01,0-0.04-0.06-0.07-0.13c-0.03-0.09-0.06-0.12-0.08-0.13 c-0.05-0.02-0.07-0.07-0.1-0.27c-0.02-0.11-0.02-0.17,0.01-0.16c0.03,0.02,0.05,0.01,0.05-0.01c0.01-0.02,0.02-0.01,0.04,0.03 c0.02,0.04,0.03,0.04,0.04,0c0.01-0.07,0.06-0.06,0.14,0.04c0.02,0.03,0.04,0.04,0.05,0.02c-0.45-0.71-0.94-1.4-1.46-2.06 c0,0.02-0.01,0-0.05-0.06c0-0.01-0.01-0.02-0.02-0.02c-0.02-0.02-0.04-0.04-0.05-0.07c-0.01-0.01-0.02-0.02-0.02-0.02 c-0.02-0.01-0.05-0.05-0.07-0.09c0,0,0-0.01,0-0.01c-0.05-0.06-0.1-0.11-0.14-0.17c-0.06-0.05-0.15-0.09-0.26-0.15 c-0.28-0.13-0.13-0.09-0.25-0.23c-0.1-0.13-0.34-0.25-0.3-0.15c0.02,0.05,0.01,0.04-0.02-0.02c-0.04-0.08-0.08-0.11-0.19-0.16 c-0.08-0.04-0.17-0.08-0.19-0.1c-0.02-0.01-0.07-0.03-0.1-0.04c-0.05-0.01-0.04,0.01,0.02,0.12c0.07,0.12,0.07,0.13,0.01,0.07 c-0.04-0.03-0.07-0.03-0.06,0c0.01,0.03-0.01,0.03-0.05,0c-0.04-0.03-0.15-0.1-0.25-0.13c-0.14-0.05-0.19-0.06-0.18,0.01 c0,0.09-0.08,0.04-0.28-0.18c-0.09-0.1-0.09-0.11-0.06-0.09c0.06,0.02-0.04-0.11-0.1-0.14c-0.05-0.02-0.05-0.02-0.03-0.06 c0.02-0.03,0.02-0.03-0.05-0.08c-0.04-0.03-0.17-0.1-0.28-0.16c-0.17-0.08-0.2-0.09-0.16-0.01c0.04,0.08,0.02,0.09-0.11,0.05 c-0.09-0.03-0.22-0.09-0.28-0.14c-0.06-0.06-0.23-0.14-0.37-0.19c-0.14-0.05-0.34-0.13-0.44-0.18c-0.12-0.07-0.16-0.07-0.12-0.02 c0.03,0.05,0,0.07-0.09,0.07c-0.14,0.01-0.25-0.07-0.14-0.09c0.03-0.01,0.11-0.04,0.16-0.07c0.06-0.02,0.14-0.06,0.18-0.08 c0.07-0.03,0.07-0.07,0-0.2c-0.02-0.03-0.05-0.06-0.08-0.07c-0.02-0.01-0.09-0.06-0.16-0.11c-0.06-0.04-0.18-0.1-0.26-0.11 c-0.17-0.04-0.39-0.14-0.4-0.2c-0.02-0.11-0.27-0.21-0.38-0.15c-0.04,0.02-0.06,0.06-0.05,0.09c0.01,0.04-0.02,0.05-0.06,0.04 c-0.04-0.01-0.06,0-0.04,0.03c0.02,0.03-0.06,0.03-0.17,0c-0.37-0.09-0.96-0.06-1.03,0.05c-0.02,0.03-0.03,0.04-0.05,0.06 c0.04,0.03,0.06,0.04,0.1,0.07c0.06,0.05-0.02,0.06-0.25,0.04c-0.19-0.01-0.36-0.02-0.37-0.02c-0.05,0.01,0.15,0.27,0.27,0.34 c0.09,0.06,0.12,0.08,0.08,0.09c-0.02,0.01-0.12-0.02-0.21-0.08c-0.09-0.05-0.23-0.12-0.31-0.16C32.42,32,32.42,32,32.52,32.12 c0.1,0.11,0.1,0.11-0.03,0.05c-0.16-0.07-0.16-0.01-0.01,0.1c0.08,0.07,0.08,0.07-0.03,0.04c-0.1-0.03-0.13-0.06-0.18-0.18 c-0.03-0.08-0.07-0.17-0.1-0.2c-0.03-0.03-0.03,0,0,0.06c0.02,0.07,0.01,0.11-0.02,0.11c-0.03-0.01-0.07,0.02-0.09,0.05 c-0.03,0.05-0.01,0.07,0.08,0.17c0.08,0.09,0.1,0.12,0.09,0.2c-0.01,0.16,0.08,0.25,0.27,0.29c0.2,0.03,0.36,0.17,0.36,0.32 c0.01,0.09,0,0.09-0.04-0.02c-0.05-0.13-0.2-0.24-0.31-0.22c-0.06,0-0.06,0.04-0.01,0.16c0.05,0.12,0.04,0.19-0.04,0.28 c-0.11,0.13-0.4,0.14-0.48,0.01c-0.03-0.05,0-0.06,0.1-0.02c0.13,0.05,0.16,0.03,0.2-0.14c0.05-0.17,0.04-0.2-0.04-0.29 c-0.06-0.07-0.11-0.17-0.16-0.33c-0.04-0.13-0.09-0.26-0.13-0.29c-0.05-0.05-0.06-0.08-0.05-0.16c0.01-0.13-0.07-0.24-0.2-0.26 c-0.08-0.01-0.1-0.04-0.08-0.08c0.02-0.05,0.01-0.06-0.05-0.07c-0.04-0.01-0.07,0.01-0.05,0.06c0.01,0.03,0,0.06-0.04,0.06 c-0.03,0-0.06,0.05-0.06,0.12c0,0.07-0.03,0.17-0.08,0.21c-0.04,0.05-0.06,0.09-0.03,0.1c0.02,0.01,0.06,0.06,0.08,0.12 c0.02,0.06,0.01,0.1-0.01,0.1c-0.03,0,0.04,0.07,0.15,0.16c0.31,0.26,0.24,0.32-0.13,0.11c-0.18-0.1-0.45-0.23-0.61-0.28 c-0.16-0.05-0.34-0.12-0.4-0.14c-0.08-0.04-0.07-0.03,0.04,0.07c0.19,0.15,0.24,0.25,0.18,0.34c-0.04,0.05-0.07,0.05-0.11-0.02 c-0.04-0.07-0.12-0.08-0.36-0.05c-0.23,0.03-0.33,0.02-0.36-0.04c-0.03-0.04-0.07-0.06-0.1-0.04c-0.04,0.02-0.11,0.05-0.17,0.07 c-0.22,0.03-0.46,0.16-0.47,0.25c-0.01,0.1-0.19,0.11-0.31,0.02c-0.09-0.06-0.08-0.18,0.02-0.17c0.09,0.01,0.08-0.1-0.03-0.17 c-0.11-0.07-0.37-0.08-0.3-0.01c0.04,0.04,0.06,0.12,0.06,0.18c0,0.06,0.02,0.14,0.05,0.17c0.1,0.1,0.02,0.24-0.12,0.18 c-0.07-0.03-0.18-0.02-0.27,0.03c-0.18,0.11-0.19,0.12-0.09,0.27c0.07,0.11,0.06,0.12-0.12,0.07c-0.11-0.02-0.24-0.07-0.3-0.1 c-0.07-0.04-0.1-0.03-0.09,0.03c0.01,0.04,0.05,0.11,0.1,0.13c0.1,0.05,0.14,0.18,0.05,0.17c-0.11-0.01-0.37-0.18-0.44-0.29 c-0.03-0.06-0.06-0.16-0.06-0.21c0-0.06-0.04-0.12-0.11-0.15c-0.24-0.11-0.07-0.11,0.34,0c0.37,0.09,0.44,0.09,0.56,0 c0.09-0.07,0.12-0.14,0.1-0.2c-0.02-0.06-0.23-0.2-0.45-0.32c-0.39-0.2-0.49-0.24-1.08-0.38c-0.21-0.05-0.24-0.07-0.16-0.11 c0.1-0.06,0.09-0.06-0.06-0.13c-0.08-0.03-0.17-0.05-0.2-0.04c-0.03,0.01-0.05,0-0.06-0.05c0-0.05-0.03-0.06-0.07-0.03 c-0.04,0.03-0.11,0.06-0.16,0.07c-0.05,0.01-0.12,0.06-0.15,0.1c-0.03,0.05-0.06,0.06-0.06,0.03c0-0.03,0.03-0.1,0.06-0.15 c0.05-0.08,0.04-0.08-0.1-0.02c-0.09,0.04-0.18,0.1-0.2,0.14c-0.02,0.04-0.09,0.05-0.14,0.02c-0.06-0.02-0.15,0.01-0.21,0.06 c-0.07,0.06-0.14,0.07-0.2,0.03c-0.12-0.08-0.16-0.08-0.13,0c0.01,0.04,0,0.06-0.03,0.06c-0.03,0-0.1,0.01-0.16,0.01 c-0.09,0.01-0.1,0.02-0.04,0.08c0.1,0.11-0.06,0.17-0.17,0.07c-0.08-0.07-0.09-0.07-0.07,0c0.02,0.07,0,0.07-0.07,0.04 c-0.08-0.04-0.09-0.03-0.04,0.03c0.03,0.04,0.1,0.06,0.14,0.04c0.17-0.08,0.06,0.09-0.19,0.28c-0.15,0.12-0.3,0.29-0.35,0.42 c-0.04,0.12-0.12,0.21-0.15,0.21c-0.04,0-0.07,0.04-0.07,0.08c0,0.04-0.02,0.06-0.04,0.04c-0.02-0.02-0.1,0.03-0.16,0.11 c-0.07,0.09-0.16,0.13-0.19,0.11c-0.04-0.02-0.07,0-0.07,0.07c0,0.06-0.04,0.11-0.09,0.11c-0.05,0-0.17,0.06-0.28,0.13 c-0.22,0.14-0.3,0.37-0.18,0.56c0.04,0.08,0.04,0.11-0.03,0.2c-0.07,0.08-0.07,0.09,0.04,0.05c0.11-0.05,0.12-0.04,0.03,0.07 c-0.11,0.12-0.09,0.17,0.14,0.23c0.13,0.04,0.23,0.01,0.38-0.11c0.11-0.09,0.21-0.2,0.21-0.24c0-0.06,0.03-0.05,0.07,0.01 c0.04,0.05,0.07,0.14,0.06,0.2c0,0.06,0.02,0.11,0.04,0.11c0.03,0,0.05,0.05,0.05,0.1c0,0.06,0.04,0.17,0.09,0.24 s0.09,0.15,0.07,0.17c-0.01,0.02,0,0.1,0.02,0.17c0.05,0.14,0.25,0.13,0.26-0.01c0-0.04,0.06-0.07,0.13-0.07 c0.21,0,0.32-0.14,0.29-0.39c-0.01-0.18,0.01-0.23,0.12-0.31c0.08-0.05,0.17-0.14,0.21-0.2c0.06-0.09,0.06-0.11-0.02-0.2 c-0.05-0.06-0.12-0.11-0.16-0.11c-0.03,0-0.06-0.06-0.06-0.14c0-0.23,0.14-0.45,0.36-0.57c0.26-0.14,0.34-0.24,0.31-0.32 c-0.06-0.13,0.18-0.29,0.4-0.26c0.24,0.03,0.3,0.13,0.16,0.25c-0.5,0.43-0.56,0.48-0.53,0.6c0.02,0.07,0.04,0.19,0.04,0.28 c0,0.25,0.23,0.36,0.59,0.31c0.16-0.02,0.35-0.06,0.43-0.07c0.15-0.02,0.31,0.09,0.26,0.17c-0.02,0.03-0.18,0.06-0.37,0.06 c-0.42,0.02-0.56,0.07-0.56,0.17c0,0.05,0.04,0.1,0.1,0.12c0.07,0.02,0.09,0.09,0.08,0.18c-0.03,0.21-0.09,0.24-0.21,0.11 c-0.2-0.2-0.35-0.03-0.33,0.38c0.01,0.2-0.01,0.25-0.09,0.25c-0.06,0-0.1,0.03-0.1,0.07c0,0.1-0.22,0.09-0.29-0.01 c-0.03-0.05-0.17-0.02-0.41,0.07c-0.2,0.08-0.39,0.12-0.42,0.09c-0.03-0.02-0.19-0.05-0.35-0.05c-0.31,0-0.47-0.13-0.4-0.3 c0.01-0.06,0.08-0.13,0.13-0.15c0.08-0.04,0.09-0.08,0.05-0.15c-0.03-0.06-0.04-0.14-0.02-0.19c0.06-0.12-0.1-0.09-0.2,0.05 c-0.05,0.06-0.11,0.09-0.14,0.06c-0.04-0.04-0.05,0.02-0.04,0.24c0.03,0.56,0.03,0.6-0.11,0.61c-0.38,0.02-0.42,0.03-0.46,0.2 c-0.03,0.12-0.05,0.13-0.08,0.06c-0.02-0.07-0.07-0.03-0.18,0.15c-0.09,0.13-0.23,0.27-0.32,0.29c-0.09,0.03-0.18,0.1-0.2,0.17 c-0.02,0.06-0.12,0.16-0.22,0.24c-0.14,0.1-0.21,0.1-0.28,0.04c-0.08-0.07-0.1-0.06-0.12,0.08c-0.02,0.13-0.05,0.16-0.16,0.16 c-0.27-0.03-0.37,0.01-0.39,0.13c-0.01,0.06,0.03,0.12,0.09,0.11c0.22,0,0.46,0.36,0.43,0.65c-0.01,0.11-0.06,0.28-0.1,0.39 c-0.07,0.18-0.09,0.19-0.57,0.17c-0.27-0.01-0.51-0.04-0.55-0.05c-0.03-0.02-0.12,0-0.19,0.05c-0.12,0.08-0.14,0.13-0.17,0.44 c-0.02,0.19-0.08,0.45-0.14,0.59c-0.08,0.18-0.1,0.27-0.06,0.34c0.02,0.05,0.03,0.17,0.01,0.28c-0.03,0.18-0.01,0.19,0.15,0.14 c0.14-0.04,0.2-0.01,0.27,0.11c0.08,0.13,0.13,0.15,0.26,0.08c0.09-0.04,0.26-0.08,0.38-0.09c0.14,0,0.23-0.04,0.26-0.12 c0.02-0.06,0.08-0.12,0.12-0.12c0.1,0,0.28-0.32,0.28-0.48c0-0.17,0.28-0.5,0.52-0.6c0.14-0.07,0.2-0.14,0.22-0.3 c0.05-0.25,0.25-0.38,0.45-0.24c0.09,0.06,0.18,0.04,0.41-0.11c0.16-0.1,0.32-0.19,0.36-0.19c0.03-0.01,0.17,0.15,0.31,0.34 c0.14,0.2,0.42,0.46,0.63,0.6c0.4,0.24,0.5,0.41,0.43,0.73c-0.04,0.18-0.03,0.17,0.13-0.04c0.15-0.18,0.17-0.23,0.09-0.3 c-0.07-0.06-0.07-0.1-0.01-0.17c0.06-0.08,0.1-0.08,0.2,0c0.07,0.06,0.14,0.09,0.16,0.06c0.04-0.05-0.36-0.36-0.46-0.36 c-0.04,0-0.08-0.04-0.08-0.08c0-0.05-0.04-0.08-0.1-0.08c-0.05,0-0.2-0.14-0.32-0.31c-0.13-0.17-0.25-0.31-0.28-0.31 c-0.03,0-0.05-0.09-0.05-0.19c0.01-0.22,0.23-0.35,0.27-0.16c0.02,0.06,0.07,0.09,0.13,0.07c0.06-0.02,0.13,0.04,0.18,0.19 c0.05,0.12,0.17,0.24,0.26,0.27c0.08,0.03,0.26,0.14,0.4,0.25c0.18,0.14,0.24,0.25,0.24,0.41c0,0.13,0.09,0.31,0.25,0.51 c0.13,0.17,0.22,0.32,0.19,0.33c-0.08,0.04,0.2,0.39,0.3,0.39c0.06,0,0.07-0.05,0.05-0.12c-0.03-0.08,0.01-0.14,0.11-0.2 c0.24-0.11,0.15-0.31-0.12-0.25c-0.03,0.01-0.04-0.04-0.02-0.1c0.02-0.07,0.01-0.14-0.03-0.17c-0.11-0.09-0.07-0.22,0.05-0.16 c0.06,0.03,0.14,0,0.18-0.07c0.13-0.23,0.55-0.08,0.5,0.18c-0.01,0.06,0.01,0.11,0.05,0.11c0.05,0,0.07,0.07,0.06,0.2 c-0.01,0.11,0.01,0.2,0.03,0.2c0.03,0,0.06,0.06,0.06,0.12c0.01,0.07,0.08,0.16,0.18,0.21c0.09,0.06,0.23,0.13,0.3,0.18 c0.11,0.07,0.16,0.06,0.24-0.04c0.08-0.12,0.11-0.12,0.27-0.01c0.2,0.14,0.43,0.17,0.46,0.06c0.01-0.04,0.11-0.08,0.21-0.1 c0.07-0.01,0.11-0.02,0.19-0.03c0,0.13,0,0.2,0.01,0.33c0,0.17-0.03,0.52-0.09,0.75c-0.12,0.51-0.3,0.66-0.57,0.47 c-0.14-0.1-0.19-0.1-0.35-0.02c-0.21,0.12-0.35,0.12-0.66,0c-0.12-0.04-0.39-0.13-0.59-0.19c-0.21-0.06-0.37-0.13-0.38-0.17 c0-0.03-0.07-0.08-0.16-0.11c-0.23-0.08-0.51,0.1-0.51,0.32c0,0.09-0.03,0.23-0.08,0.29c-0.08,0.11-0.12,0.11-0.37-0.04 c-0.16-0.08-0.35-0.15-0.43-0.15c-0.08,0-0.18-0.06-0.21-0.14c-0.07-0.15-0.5-0.36-0.6-0.29c-0.05,0.04-0.62-0.26-0.62-0.33 c0-0.02,0.07-0.11,0.15-0.19c0.12-0.12,0.13-0.16,0.07-0.27c-0.06-0.1-0.06-0.15,0.01-0.26c0.08-0.12,0.08-0.13-0.01-0.08 c-0.06,0.02-0.11,0.02-0.11-0.03c0-0.06-0.08-0.07-0.22-0.04c-0.13,0.03-0.52,0.07-0.88,0.1c-0.46,0.04-1.07,0.13-1.39,0.45 c-0.07,0.08-0.68,0.03-0.74-0.07c-0.07-0.12-0.11-0.09-0.22,0.18c-0.07,0.15-0.19,0.3-0.33,0.38c-0.27,0.17-0.56,0.62-0.55,0.86 c0,0.2-0.2,0.46-0.55,0.68c-0.22,0.15-0.67,0.69-0.69,0.86c-0.01,0.05-0.07,0.16-0.15,0.25c-0.07,0.1-0.22,0.32-0.32,0.51 c-0.17,0.32-0.19,0.36-0.13,0.49c0.06,0.14,0.06,0.29-0.01,0.77c-0.05,0.28-0.25,0.82-0.32,0.86c-0.04,0.02-0.05,0.09-0.02,0.21 c0.03,0.1,0.03,0.28,0.01,0.4c-0.04,0.17-0.02,0.23,0.08,0.27c0.07,0.03,0.13,0.08,0.13,0.12c0,0.03,0.08,0.21,0.19,0.39 c0.11,0.18,0.18,0.42,0.18,0.49c0.02,0.35,0.54,0.74,0.83,1.02c0.15,0.15,0.2,0.15,0.81,0c0.19-0.05,0.42-0.04,0.57,0 c0.21,0.06,0.34,0.04,0.68-0.12c0.35-0.17,0.88-0.39,1.25-0.17c0.1,0.07,0.17,0.18,0.17,0.24c-0.01,0.21,0.13,0.28,0.47,0.22 c0.29-0.05,0.34-0.03,0.53,0.15c0.13,0.12,0.2,0.25,0.18,0.32c-0.03,0.07-0.05,0.3-0.06,0.5c-0.01,0.21-0.05,0.42-0.08,0.47 c-0.09,0.13,0.05,0.37,0.46,0.79c0.36,0.4,0.65,0.91,0.75,1.45c0.02,0.14,0.07,0.38,0.11,0.53c0.05,0.22,0.03,0.31-0.09,0.44 c-0.15,0.17-0.33,0.77-0.29,1.04c0.06,0.38,0.37,0.79,0.61,1.11c0.07,0.09,0.15,0.35,0.19,0.58c0.07,0.46,0.2,0.75,0.36,0.88 c0.15,0.11,0.54,0.84,0.49,0.92c-0.06,0.1,0.09,0.35,0.25,0.42c0.11,0.04,0.18,0.04,0.27-0.01c0.07-0.05,0.29-0.09,0.49-0.11 c0.58-0.05,1.14-0.25,1.5-0.76c0.1-0.13,0.27-0.33,0.37-0.44c0.14-0.15,0.19-0.26,0.23-0.5c0.05-0.29,0.05-0.31,0.33-0.44 c0.27-0.14,0.28-0.16,0.31-0.4c0.02-0.14,0.01-0.37-0.01-0.51c-0.04-0.23-0.03-0.26,0.1-0.37c0.08-0.07,0.23-0.2,0.33-0.31 c0.09-0.11,0.26-0.24,0.37-0.29c0.11-0.05,0.27-0.17,0.36-0.26c0.15-0.17,0.16-0.23,0.22-0.79c0.05-0.46,0.04-0.63-0.03-0.69 c-0.05-0.05-0.08-0.22-0.08-0.42c0.01-0.19-0.01-0.42-0.04-0.5c-0.04-0.13-0.01-0.23,0.15-0.54c0.12-0.22,0.29-0.49,0.4-0.61 c0.11-0.12,0.35-0.4,0.54-0.63c0.19-0.23,0.43-0.47,0.52-0.52c0.44-0.35,0.66-0.79,0.79-1.35c0.06-0.27,0.12-0.52,0.15-0.57 c0.02-0.05,0.03-0.26,0.02-0.47c-0.02-0.35-0.03-0.38-0.13-0.31c-0.05,0.03-0.35,0.14-0.67,0.23c-0.23,0.07-0.35,0.1-0.59,0.17 c-0.07-0.08-0.1-0.12-0.17-0.21c-0.11-0.13-0.15-0.22-0.11-0.24c0.09-0.05-0.36-0.57-0.69-0.82c-0.18-0.14-0.28-0.28-0.36-0.51 c-0.06-0.18-0.19-0.4-0.28-0.48c-0.13-0.11-0.2-0.28-0.26-0.55c-0.06-0.26-0.15-0.46-0.26-0.59c-0.1-0.11-0.19-0.27-0.2-0.34 c-0.01-0.06-0.1-0.27-0.19-0.43c-0.1-0.17-0.22-0.42-0.29-0.57c-0.07-0.14-0.19-0.37-0.27-0.52c-0.08-0.14-0.13-0.26-0.1-0.26 c0.02,0.01,0.11,0.12,0.2,0.26c0.18,0.33,0.31,0.38,0.29,0.13c-0.01-0.12,0-0.14,0.03-0.06c0.03,0.06,0.18,0.31,0.33,0.54 c0.15,0.23,0.28,0.45,0.29,0.5c0.01,0.05,0.08,0.15,0.16,0.22c0.19,0.15,0.34,0.45,0.37,0.73c0.02,0.13,0.11,0.27,0.26,0.41 c0.13,0.11,0.24,0.26,0.25,0.31c0.01,0.06,0.11,0.24,0.24,0.42c0.12,0.17,0.23,0.39,0.25,0.49c0.04,0.3,0.26,0.9,0.35,0.93 c0.04,0.02,0.14-0.02,0.22-0.08c0.08-0.06,0.18-0.11,0.22-0.11c0.05,0,0.14-0.03,0.21-0.07c0.07-0.04,0.14-0.07,0.15-0.06 c0.02,0,0.09-0.05,0.15-0.12c0.07-0.07,0.22-0.18,0.33-0.23s0.25-0.18,0.3-0.29c0.05-0.11,0.18-0.21,0.3-0.24 c0.13-0.03,0.2-0.1,0.19-0.16c-0.01-0.06,0.03-0.11,0.09-0.11c0.06,0,0.1-0.04,0.09-0.08c-0.01-0.05,0.04-0.12,0.1-0.17 c0.06-0.05,0.09-0.11,0.07-0.15c-0.06-0.09-0.03-0.31,0.04-0.31c0.03,0,0.08-0.12,0.12-0.25c0.03-0.1,0.04-0.15,0.06-0.25 c-0.06-0.07-0.08-0.11-0.14-0.18c-0.08-0.09-0.21-0.2-0.3-0.22c-0.18-0.06-0.27-0.17-0.35-0.45c-0.02-0.09-0.04-0.13-0.06-0.22 c-0.05,0.11-0.08,0.16-0.13,0.27c-0.23,0.43-0.69,0.43-0.69-0.02c0-0.23-0.13-0.31-0.15-0.09c-0.01,0.17-0.02,0.16-0.13-0.13 c-0.06-0.16-0.16-0.32-0.2-0.34c-0.05-0.02-0.16-0.18-0.24-0.35c-0.16-0.3-0.16-0.3-0.07-0.39c0.17-0.15,0.3-0.09,0.47,0.23 c0.18,0.28,0.57,0.75,0.94,0.67c0.05-0.05,0.1-0.05,0.13-0.03c0.02,0.02,0.03,0.01,0.02-0.04c-0.03-0.17,0.08-0.1,0.17,0.1 c0.05,0.1,0.1,0.21,0.13,0.23c0.4,0.16,1.04,0.24,1.44,0.1c0.02-0.02,0.12,0.08,0.24,0.22c0.27,0.34,0.51,0.55,0.56,0.49 c0.02-0.02,0.04-0.01,0.05,0.03c0.01,0.05-0.03,0.08-0.08,0.08c-0.1,0-0.09,0.02,0.09,0.24c0.23,0.27,0.37,0.25,0.37-0.03 c0-0.16,0-0.16,0.1,0.05c0.06,0.12,0.1,0.25,0.09,0.3c0.09,0.49,0.3,0.98,0.52,1.42c0.1,0.19,0.19,0.38,0.2,0.43 c0.01,0.05,0.1,0.24,0.2,0.41c0.1,0.17,0.22,0.43,0.29,0.59c0.16,0.39,0.24,0.4,0.36,0.05c0.13-0.42,0.03-0.89-0.08-1.3 c-0.08-0.3-0.08-0.36-0.02-0.4c0.04-0.02,0.07-0.07,0.06-0.11c-0.01-0.04,0-0.07,0.03-0.07c0.04,0,0.15-0.25,0.26-0.66 c0.04-0.13,0.09-0.24,0.12-0.24c0.07,0,0.11-0.16,0.07-0.31c-0.02-0.07-0.01-0.13,0.01-0.14c0.02,0,0.1-0.02,0.17-0.04 c0.07-0.02,0.14-0.04,0.17-0.04c0.03-0.01,0.04-0.07,0.03-0.14c-0.03-0.2,0.1-0.08,0.24,0.23c0.07,0.15,0.18,0.31,0.24,0.36 c0.07,0.05,0.12,0.12,0.12,0.19c0.01,0.06,0.03,0.11,0.05,0.11c0.06,0,0.21,0.37,0.21,0.55c0,0.12,0.02,0.17,0.07,0.2 c0.11,0.07,0.15,0.05,0.2-0.14c0.02-0.07,0.03-0.11,0.05-0.18C39.5,46.45,39.52,46.51,39.57,46.63z M21.6,40.15 c0.09-0.07,0.07-0.12-0.03-0.12c-0.05,0-0.07,0.04-0.06,0.08C21.54,40.16,21.57,40.17,21.6,40.15z M22.68,39.98 c-0.01,0.15,0,0.28,0.03,0.28c0.14,0,0.24-0.12,0.25-0.32c0.01-0.25-0.03-0.3-0.16-0.26C22.73,39.69,22.69,39.79,22.68,39.98z M22.86,39.54c0.03,0,0.06-0.07,0.06-0.16c0.01-0.15-0.05-0.21-0.13-0.11C22.75,39.33,22.8,39.54,22.86,39.54z M23.76,40.73 c0.12,0.06,0.25,0.13,0.27,0.14c0.02,0.02,0.06-0.07,0.07-0.18c0.03-0.19,0.02-0.2-0.27-0.2c-0.17,0-0.3,0.03-0.3,0.07 C23.53,40.58,23.63,40.66,23.76,40.73z M26.26,41.37c0.06,0.02,0.15,0.02,0.21,0c0.05-0.02,0-0.04-0.11-0.04 C26.24,41.33,26.19,41.34,26.26,41.37z M27.94,41.51c0.08,0,0.16-0.04,0.17-0.08c0.01-0.05-0.04-0.08-0.12-0.08 c-0.08,0-0.16,0.03-0.17,0.08C27.81,41.48,27.86,41.51,27.94,41.51z M23.3,35.72c-0.04,0-0.06,0.04-0.05,0.08 c0.02,0.05,0.05,0.06,0.08,0.04C23.4,35.76,23.39,35.72,23.3,35.72z M23.49,35.81c0.07,0.04,0.19-0.08,0.19-0.19 c0-0.06-0.02-0.07-0.16-0.01C23.42,35.65,23.4,35.76,23.49,35.81z M24.73,35.26c0.05,0,0.08-0.04,0.08-0.07 c0-0.05-0.02-0.08-0.05-0.08c-0.03,0-0.07,0.03-0.08,0.07C24.67,35.23,24.69,35.26,24.73,35.26z M25.5,34.98 c0.06-0.06,0.05-0.07-0.04-0.08c-0.06,0-0.11,0.03-0.11,0.07C25.36,35.08,25.42,35.08,25.5,34.98z M41.5,37.07 c-0.01,0-0.01,0.02,0,0.05c0.01,0.03,0.02,0.06,0.04,0.06c0.01,0,0.01-0.02,0-0.05C41.53,37.1,41.51,37.08,41.5,37.07z M40.3,37.49 c-0.02-0.04-0.04-0.07-0.05-0.07c-0.01,0-0.01,0.02,0.01,0.06c0.01,0.03,0.04,0.07,0.05,0.07C40.32,37.56,40.32,37.52,40.3,37.49z M41.58,57.23c0.02-0.02,0.01-0.03-0.02-0.02c-0.03,0.01-0.05,0.03-0.04,0.04C41.53,57.26,41.56,57.25,41.58,57.23z M41.84,57.98 c-0.05,0.02-0.08,0.04-0.13,0.06c-0.02,0.08-0.03,0.12-0.05,0.2c-0.06,0.25-0.05,0.32,0.04,0.19c0.03-0.05,0.06-0.09,0.06-0.08 c0,0.01,0.03-0.04,0.07-0.12C41.97,57.94,41.98,57.92,41.84,57.98z M43.02,57.39C43,57.4,42.99,57.38,43,57.36 c0.01-0.04-0.04,0.03-0.13,0.21c-0.09,0.16-0.2,0.34-0.28,0.45c-0.17,0.22-0.32,0.45-0.36,0.55c-0.02,0.04,0,0.07,0.04,0.06 c0.08-0.01,0.16-0.12,0.29-0.37c0.08-0.16,0.2-0.34,0.19-0.29c0,0.01,0.01,0,0.02-0.04c0.01-0.03,0.07-0.15,0.13-0.25 C43.01,57.49,43.06,57.37,43.02,57.39z M43.53,56.57c0.01-0.02-0.01-0.01-0.04,0.03c-0.04,0.05-0.05,0.04-0.05-0.03 c0.01-0.05,0-0.08-0.01-0.06c-0.01,0.02,0-0.04,0.02-0.14c0.03-0.09,0.05-0.19,0.04-0.21c-0.01-0.06-0.02-0.04-0.05,0.08 c-0.01,0.05-0.02,0.12-0.02,0.14c0.01,0.06-0.07,0.29-0.14,0.44c-0.04,0.08-0.07,0.15-0.08,0.15c-0.03,0.02-0.05,0.1-0.04,0.15 c0.01,0.04,0,0.06-0.04,0.16c-0.04,0.09-0.06,0.12-0.05,0.14c0.01,0.02,0.21-0.33,0.26-0.46c0.02-0.05,0.04-0.09,0.05-0.09 C43.4,56.85,43.5,56.67,43.53,56.57z M43.55,52.2c0.05-0.32,0.04-0.38-0.01-0.26c-0.03,0.08-0.11,0.36-0.23,0.77 c-0.05,0.17-0.12,0.39-0.16,0.47c-0.07,0.16-0.13,0.21-0.13,0.13c0-0.03-0.02-0.11-0.06-0.17c-0.11-0.19-0.11-0.22-0.03-0.42 c0.04-0.1,0.08-0.2,0.09-0.22c0.01-0.02,0.04-0.07,0.05-0.12c0.02-0.06,0-0.08-0.06-0.07c-0.05,0.01-0.11-0.02-0.14-0.06 c-0.06-0.07-0.1-0.08-0.07-0.01c0.02,0.05-0.03,0.18-0.09,0.2c-0.06,0.02-0.13,0.1-0.15,0.17c-0.01,0.03-0.04,0.1-0.08,0.16 c-0.03,0.06-0.06,0.14-0.07,0.18c-0.01,0.05-0.04,0.09-0.09,0.12c-0.05,0.03-0.07,0.02-0.06-0.03c0.01-0.04,0.01-0.1,0-0.12 c-0.03-0.05-0.12,0.02-0.15,0.1c-0.01,0.03-0.02,0.06-0.04,0.06c-0.04,0.01-0.18,0.25-0.19,0.32c-0.01,0.04-0.03,0.08-0.06,0.09 c-0.04,0.01-0.06,0.05-0.06,0.1c0,0.05-0.02,0.09-0.04,0.09c-0.01,0-0.02-0.03-0.02-0.07c0.01-0.1-0.08,0.05-0.13,0.21 c-0.04,0.12-0.16,0.36-0.24,0.45c-0.03,0.03-0.15,0.14-0.29,0.23c-0.13,0.1-0.28,0.23-0.32,0.28c-0.05,0.06-0.1,0.12-0.11,0.12 c-0.02,0.01-0.04,0.04-0.06,0.08c-0.01,0.04-0.03,0.06-0.05,0.05c-0.05-0.04-0.25,0.52-0.25,0.69c0,0.11-0.01,0.15-0.06,0.2 c-0.04,0.05-0.06,0.12-0.1,0.37c-0.03,0.17-0.07,0.38-0.09,0.47c-0.02,0.09-0.04,0.17-0.03,0.19c0.02,0.04-0.14,0.44-0.2,0.49 c-0.09,0.08-0.09,0.13-0.03,0.21c0.08,0.09,0.11,0.08,0.31-0.12c0.12-0.12,0.21-0.18,0.33-0.22c0.13-0.04,0.18-0.08,0.22-0.15 c0.08-0.16,0.24-0.28,0.65-0.56c0.09-0.06,0.16-0.09,0.17-0.07c0.01,0.02,0.04,0.03,0.08,0.03c0.05-0.01,0.06,0.31,0,0.44 c-0.04,0.11,0.01,0.06,0.17-0.2c0.17-0.26,0.18-0.24,0.03,0.04c-0.11,0.21-0.13,0.3-0.03,0.12c0.08-0.14,0.08-0.07,0,0.1 c-0.04,0.08-0.04,0.1-0.01,0.06c0.06-0.07,0.06,0.02,0,0.19c-0.06,0.16-0.06,0.23,0.02,0.24c0.03,0.01,0.06,0.03,0.07,0.05 c0.01,0.03,0.04,0,0.11-0.08c0.08-0.11,0.09-0.11,0.09-0.04c0,0.08,0.01,0.08,0.14-0.09c0.08-0.09,0.16-0.18,0.19-0.19 c0.04-0.02,0.06-0.05,0.1-0.15c0.06-0.15,0.41-0.87,0.51-1.03c0.04-0.07,0.1-0.2,0.14-0.29c0.04-0.09,0.1-0.26,0.15-0.37 c0.05-0.12,0.1-0.26,0.11-0.35c0.02-0.07,0.05-0.21,0.08-0.3c0.03-0.11,0.05-0.22,0.05-0.35c0-0.1,0.01-0.23,0.02-0.27 c0.01-0.04,0.01-0.08,0-0.1c-0.01-0.01-0.01-0.11,0-0.21c0.02-0.11,0.01-0.23-0.01-0.29c-0.03-0.06-0.03-0.15-0.01-0.26 c0.02-0.09,0.04-0.21,0.04-0.26c0.01-0.05,0.03-0.16,0.05-0.25c0.03-0.11,0.03-0.16,0-0.19C43.51,52.53,43.51,52.46,43.55,52.2z M42.98,52.68c-0.01,0.03-0.02,0.06-0.01,0.06c0.01,0,0.03-0.04,0.04-0.07c0.01-0.04,0.01-0.06,0.01-0.06 C43.01,52.62,43,52.64,42.98,52.68z M43.2,51.17c0.07-0.15,0.09-0.22,0.06-0.21c-0.01,0-0.03,0.03-0.03,0.06 c-0.01,0.03-0.03,0.11-0.05,0.17C43.15,51.28,43.15,51.28,43.2,51.17z M44,51.58c0.03,0.01,0.06,0.02,0.07,0.03 c0.02,0.01,0.03-0.02,0.01-0.14c-0.01-0.08-0.02-0.14-0.03-0.12c-0.01,0.01-0.01,0-0.01-0.03c0.01-0.03,0.01-0.11,0-0.17 c-0.02-0.12,0-0.23,0.05-0.28c0.02-0.02,0.02-0.06-0.02-0.11c-0.03-0.04-0.05-0.11-0.04-0.14c0.02-0.11-0.03-0.21-0.18-0.34 c-0.07-0.07-0.16-0.14-0.18-0.17c-0.03-0.04-0.05-0.02-0.16,0.18c-0.12,0.23-0.13,0.23-0.14,0.13c-0.01-0.05,0-0.16,0.01-0.24 c0.01-0.09,0.02-0.16,0.02-0.17c-0.01-0.06-0.12-0.04-0.19,0.04c-0.03,0.04-0.05,0.06-0.08,0.09c0.02,0.01,0.03,0.02,0.05,0.03 c0.02,0.02,0.04,0.07,0.05,0.1c0,0.04,0.03,0.08,0.06,0.08c0.04,0.01,0.03,0.02-0.03,0.04c-0.06,0.02-0.07,0.04-0.05,0.08 c0.01,0.02,0.02,0.09,0.01,0.13c-0.01,0.05-0.01,0.08,0,0.08c0.01,0,0.03-0.03,0.03-0.06c0.01-0.03,0.05,0,0.1,0.05 c0.05,0.06,0.1,0.1,0.11,0.1c0.03-0.01,0.05,0.31,0.03,0.41c-0.01,0.04-0.03,0.07-0.04,0.08c-0.02,0.01-0.04,0.05-0.06,0.11 c-0.03,0.09-0.02,0.09,0.05,0.03c0.06-0.05,0.08-0.04,0.1,0.05c0.02,0.13,0.16,0.08,0.19-0.07c0.01-0.05,0.05-0.12,0.08-0.17 c0.08-0.11,0.12-0.05,0.14,0.18C43.95,51.5,43.98,51.57,44,51.58z M44.11,53.51c-0.02-0.21-0.04-0.2-0.03,0.02 c0,0.09,0.02,0.16,0.03,0.16C44.11,53.68,44.12,53.6,44.11,53.51z M44.43,50.41c0.01-0.09-0.01-0.05-0.06,0.07 c-0.03,0.08-0.07,0.14-0.12,0.16c-0.03,0.02-0.05,0.03-0.08,0.05c0.01,0.02,0.02,0.03,0.04,0.05c0.02,0.03,0.05,0.03,0.07,0.01 C44.32,50.7,44.42,50.47,44.43,50.41z M44.49,50.34c0-0.03,0.01-0.07,0-0.08c-0.01-0.01-0.01-0.01-0.02,0.03c0,0.03,0,0.07,0,0.08 C44.47,50.38,44.48,50.37,44.49,50.34z M44.56,50.6c-0.01-0.06-0.02-0.08-0.02-0.05c-0.02,0.09-0.01,0.25,0.01,0.2 C44.56,50.73,44.56,50.66,44.56,50.6z M44.7,51.18c0-0.01-0.01-0.03-0.02-0.04s-0.03,0.01-0.03,0.04c-0.01,0.03,0,0.04,0.02,0.04 C44.68,51.21,44.7,51.2,44.7,51.18z M44.73,51.04c-0.01,0.03-0.01,0.07,0,0.08c0.01,0.01,0.01-0.01,0.02-0.05 C44.75,50.97,44.74,50.96,44.73,51.04z M44.91,52.48c0.01-0.03,0-0.06-0.01-0.06c-0.02,0-0.03,0.02-0.04,0.07 C44.85,52.57,44.89,52.56,44.91,52.48z M45.01,52.2c0.01-0.04,0.01-0.06,0.01-0.05c-0.01,0-0.02,0.03-0.03,0.07 c-0.01,0.03-0.01,0.06-0.01,0.05C44.98,52.27,45,52.23,45.01,52.2z M37.11,37.75c0.03,0.08,0.05,0.1,0.03,0.05 c-0.01-0.05-0.04-0.11-0.05-0.14C37.07,37.63,37.07,37.67,37.11,37.75z M37.58,33.38c0.01,0-0.01-0.03-0.02-0.06 c-0.02-0.04-0.04-0.07-0.06-0.07c-0.01,0-0.01,0.02,0.02,0.06C37.55,33.34,37.57,33.38,37.58,33.38z M36.25,37.74 c-0.02,0-0.02,0.03,0,0.07c0.01,0.04,0.05,0.08,0.08,0.08c0.03,0,0.03-0.03,0-0.07C36.31,37.77,36.27,37.74,36.25,37.74z M28.36,50.79c-0.02-0.02-0.08,0.01-0.13,0.08c-0.05,0.07-0.08,0.14-0.06,0.16c0.02,0.02,0.08-0.01,0.13-0.08 C28.35,50.87,28.38,50.8,28.36,50.79z M29.72,40.46c-0.06,0-0.07,0.02-0.02,0.05c0.04,0.02,0.09,0.02,0.1,0 C29.82,40.48,29.78,40.46,29.72,40.46z M30.8,35.11c-0.01-0.04-0.03-0.07-0.04-0.08c-0.01,0-0.03,0.03-0.03,0.07 c0,0.04,0.01,0.07,0.04,0.08C30.8,35.19,30.81,35.15,30.8,35.11z M27.89,40.4c0.02,0.04,0.05,0.08,0.07,0.08 c0.01,0,0.02-0.04,0.01-0.08c-0.01-0.05-0.04-0.08-0.07-0.08C27.87,40.32,27.86,40.35,27.89,40.4z M31.54,40.28 c0.01-0.04-0.02-0.07-0.06-0.07c-0.05,0-0.08-0.06-0.09-0.14c-0.01-0.08,0.03-0.12,0.08-0.1c0.05,0.02,0.12,0.01,0.15-0.01 c0.05-0.03,0.03-0.08-0.08-0.21c-0.12-0.15-0.15-0.16-0.22-0.09c-0.07,0.09-0.07,0.08-0.08-0.07c-0.01-0.09-0.03-0.16-0.05-0.16 c-0.02,0-0.14-0.13-0.27-0.28c-0.13-0.16-0.19-0.28-0.16-0.28c0.04,0,0.09-0.04,0.1-0.1c0.02-0.06,0.07-0.1,0.12-0.08 c0.09,0.02,0.13-0.09,0.09-0.27c-0.05-0.24-0.34-0.24-0.62-0.01c-0.3,0.26-0.35,0.4-0.21,0.65c0.06,0.1,0.11,0.21,0.12,0.24 c0.01,0.03,0.12,0.21,0.25,0.39c0.1,0.13,0.15,0.2,0.24,0.33c-0.02,0.1-0.02,0.15-0.04,0.25c-0.02,0.14-0.02,0.31,0.01,0.39 c0.11,0.27,0.66,0.52,0.86,0.38c0.08-0.05-0.01-0.54-0.1-0.62C31.55,40.37,31.53,40.32,31.54,40.28z M30.16,40.62 c-0.01,0,0,0.06,0.03,0.12c0.03,0.06,0.08,0.12,0.1,0.12c0.03,0,0.02-0.05-0.03-0.12C30.22,40.68,30.18,40.63,30.16,40.62z M26.87,39.74c-0.11,0-0.21,0.03-0.23,0.07c-0.02,0.05,0.05,0.08,0.17,0.08c0.11,0,0.21-0.03,0.23-0.07 C27.06,39.77,26.99,39.74,26.87,39.74z M29.97,36.12c0.04-0.06,0.05-0.12,0.03-0.15c-0.01-0.02-0.05,0.02-0.08,0.09 c-0.04,0.15,0.04,0.43,0.1,0.35c0.02-0.03,0.01-0.07-0.04-0.11C29.92,36.24,29.92,36.21,29.97,36.12z M27.74,52.65 c0,0.2,0.04,0.42,0.1,0.52c0.06,0.08,0.12,0.22,0.14,0.31c0.02,0.09,0.07,0.16,0.1,0.16c0.09,0,0.08-0.09-0.07-0.36 c-0.07-0.14-0.14-0.36-0.14-0.5C27.85,52.33,27.75,52.23,27.74,52.65z M26.98,34.56c0.18-0.01,0.15-0.18-0.05-0.31 c-0.21-0.14-0.21-0.14-0.24-0.04C26.66,34.33,26.85,34.57,26.98,34.56z M32.43,38.76c-0.07-0.09-0.08-0.14-0.06-0.23 c0.02-0.1,0.01-0.11-0.1-0.11c-0.2,0-0.34,0.25-0.28,0.52c0.04,0.16,0.08,0.2,0.33,0.28c0.14,0.05,0.19,0.04,0.15-0.02 c-0.02-0.05-0.03-0.14-0.01-0.2C32.51,38.9,32.5,38.85,32.43,38.76z M27.64,34.34c0.01-0.03-0.03-0.14-0.08-0.25 c-0.06-0.11-0.11-0.15-0.1-0.09c0.01,0.05-0.01,0.08-0.06,0.05c-0.12-0.07-0.07,0.07,0.08,0.22 C27.55,34.34,27.63,34.37,27.64,34.34z M28.15,35.09c-0.01-0.04-0.06-0.11-0.11-0.16c-0.08-0.06-0.1-0.06-0.08,0.01 C28.01,35.12,28.18,35.24,28.15,35.09z M28.59,38.82c-0.14-0.09-0.25-0.19-0.25-0.23c0-0.03,0.03-0.04,0.07-0.01 c0.07,0.03,0.14-0.19,0.09-0.26c-0.01-0.02,0.03-0.08,0.09-0.13c0.04-0.04,0.07-0.06,0.11-0.1c-0.05,0-0.08,0-0.13-0.01 c-0.07,0-0.17,0.02-0.22,0.06c-0.05,0.03-0.18,0.1-0.3,0.14c-0.18,0.09-0.2,0.1-0.1,0.2c0.05,0.06,0.16,0.08,0.22,0.06 c0.08-0.03,0.11-0.01,0.09,0.05c-0.01,0.05-0.07,0.08-0.13,0.08s-0.15,0.03-0.2,0.07c-0.07,0.06-0.12,0.04-0.22-0.08 c-0.12-0.15-0.12-0.17-0.04-0.24c0.07-0.07,0.05-0.08-0.09-0.09c-0.1,0-0.18-0.04-0.18-0.08c-0.03-0.23-0.36,0.03-0.41,0.33 c-0.01,0.08-0.04,0.12-0.07,0.09c-0.06-0.08-0.24,0.64-0.2,0.77c0.09,0.23,0.59,0.3,0.88,0.11c0.21-0.13,0.4-0.11,0.67,0.05 c0.25,0.15,0.86,0.22,0.98,0.12C29.55,39.37,28.83,38.98,28.59,38.82z M115.14,97.76V28.9H94.07v68.86H115.14z M94.74,9.87 c0,5.43,4.43,9.87,9.76,9.87c5.54,0,9.98-4.43,9.98-9.87S110.04,0,104.5,0C99.17,0,94.74,4.43,94.74,9.87z M94.07,148.21h16.15 v-4.41H98.71v-5.46h11.51v-4.38H98.71v-5.4h11.51v-4.38H94.07V148.21z M136.28,148.21h4.51v-16.88l10.86,16.88h4.61v-24.02h-4.47 v16.35l-10.53-16.35h-4.97V148.21z M212.25,148.21h16.15v-4.41h-11.51v-5.46h11.51v-4.38h-11.51v-5.4h11.51v-4.38h-16.15V148.21z M267.04,147.94c1.09-0.39,2.01-0.94,2.78-1.63c0.77-0.69,1.36-1.49,1.78-2.4c0.42-0.91,0.63-1.88,0.63-2.91 c0-1.29-0.24-2.36-0.72-3.19c-0.48-0.83-1.1-1.51-1.86-2.04c-0.76-0.53-1.61-0.93-2.55-1.22c-0.94-0.28-1.87-0.53-2.8-0.72 c-0.75-0.18-1.45-0.34-2.11-0.49c-0.66-0.15-1.23-0.33-1.71-0.54c-0.48-0.21-0.87-0.46-1.15-0.77c-0.29-0.31-0.43-0.7-0.43-1.18 c0-0.79,0.29-1.46,0.87-2.02c0.58-0.56,1.53-0.84,2.85-0.84c1.38,0,2.51,0.27,3.37,0.81c0.87,0.54,1.62,1.27,2.25,2.19l3.78-2.96 c-0.61-0.68-1.25-1.28-1.89-1.79c-0.65-0.52-1.35-0.95-2.11-1.3c-0.76-0.35-1.57-0.62-2.45-0.81c-0.88-0.19-1.84-0.28-2.9-0.28 c-1.25,0-2.4,0.19-3.44,0.56c-1.04,0.37-1.94,0.88-2.7,1.51c-0.76,0.64-1.34,1.39-1.76,2.25c-0.42,0.87-0.63,1.79-0.63,2.78 c0,1.23,0.23,2.23,0.69,3.01c0.46,0.78,1.05,1.41,1.78,1.91c0.72,0.49,1.54,0.88,2.43,1.15c0.9,0.27,1.8,0.51,2.7,0.71 c0.83,0.2,1.6,0.38,2.29,0.54c0.69,0.16,1.28,0.37,1.78,0.63c0.49,0.25,0.88,0.56,1.15,0.92c0.27,0.36,0.41,0.82,0.41,1.37 c0,0.88-0.33,1.6-0.99,2.16c-0.66,0.56-1.64,0.84-2.96,0.84c-1.45,0-2.71-0.32-3.78-0.95c-1.07-0.64-2.01-1.58-2.8-2.83l-4.05,3.22 c0.57,0.72,1.2,1.39,1.89,1.99c0.69,0.6,1.46,1.12,2.32,1.56c0.86,0.44,1.81,0.78,2.86,1.02s2.23,0.36,3.52,0.36 C264.74,148.53,265.96,148.34,267.04,147.94z M297.65,148.21h4.67v-6.55h4.77c1.36,0,2.59-0.23,3.7-0.69 c1.11-0.46,2.06-1.09,2.85-1.89c0.79-0.8,1.4-1.73,1.84-2.8c0.44-1.06,0.66-2.19,0.66-3.37c0-1.21-0.22-2.34-0.66-3.4 c-0.44-1.06-1.05-1.99-1.84-2.78c-0.79-0.79-1.74-1.41-2.85-1.86c-1.11-0.45-2.33-0.67-3.67-0.67h-9.47V148.21z M306.83,128.43 c0.68,0,1.3,0.11,1.88,0.33c0.57,0.22,1.06,0.53,1.46,0.92s0.72,0.87,0.94,1.41c0.22,0.55,0.33,1.15,0.33,1.81 c0,0.64-0.11,1.23-0.33,1.78c-0.22,0.55-0.53,1.02-0.94,1.41c-0.41,0.39-0.89,0.7-1.46,0.92c-0.57,0.22-1.2,0.33-1.88,0.33h-4.51 v-8.92H306.83z M337.46,148.21h4.77l1.58-4.38h10.03l1.58,4.38h4.77l-9.08-24.02h-4.57L337.46,148.21z M348.85,130.08l3.45,9.54 h-6.94L348.85,130.08z M384.84,148.21h4.51v-16.88l10.86,16.88h4.61v-24.02h-4.47v16.35l-10.53-16.35h-4.97V148.21z M392.01,122.51 c0-0.5,0.07-0.86,0.21-1.07c0.14-0.21,0.37-0.31,0.67-0.31c0.29,0,0.54,0.06,0.77,0.16c0.23,0.11,0.48,0.25,0.74,0.43 c0.35,0.22,0.74,0.43,1.17,0.63c0.43,0.2,0.96,0.3,1.6,0.3c1.21,0,2.09-0.41,2.65-1.23c0.56-0.82,0.84-1.92,0.84-3.31h-2.76 c0,0.94-0.3,1.41-0.89,1.41c-0.28,0-0.57-0.08-0.84-0.25c-0.27-0.16-0.57-0.33-0.87-0.51c-0.35-0.2-0.72-0.38-1.12-0.54 c-0.39-0.16-0.87-0.25-1.41-0.25c-1.1,0-1.95,0.4-2.55,1.18c-0.6,0.79-0.9,1.91-0.9,3.36H392.01z M447.56,147.56 c1.5-0.65,2.81-1.53,3.93-2.65c1.12-1.12,1.99-2.42,2.63-3.92c0.64-1.49,0.95-3.09,0.95-4.8s-0.32-3.31-0.97-4.8 c-0.65-1.49-1.53-2.8-2.63-3.91c-1.11-1.12-2.41-2-3.91-2.65c-1.5-0.65-3.11-0.97-4.82-0.97c-1.71,0-3.31,0.32-4.8,0.97 c-1.49,0.65-2.79,1.53-3.9,2.65c-1.11,1.12-1.98,2.42-2.62,3.91c-0.64,1.49-0.95,3.09-0.95,4.8s0.32,3.31,0.95,4.8 c0.64,1.49,1.51,2.8,2.62,3.92c1.11,1.12,2.41,2,3.9,2.65c1.49,0.65,3.09,0.97,4.8,0.97C444.45,148.53,446.06,148.21,447.56,147.56 z M439.73,143.35c-0.93-0.41-1.74-0.97-2.42-1.68c-0.68-0.71-1.21-1.54-1.6-2.48c-0.38-0.94-0.58-1.94-0.58-2.99 c0-1.07,0.19-2.08,0.58-3.03c0.38-0.94,0.91-1.77,1.6-2.47c0.68-0.7,1.49-1.26,2.42-1.68c0.93-0.42,1.94-0.63,3.01-0.63 c1.08,0,2.08,0.21,3.03,0.63c0.94,0.42,1.75,0.98,2.43,1.68c0.68,0.7,1.22,1.52,1.61,2.47c0.39,0.94,0.59,1.95,0.59,3.03 c0,1.05-0.19,2.05-0.58,2.99c-0.38,0.94-0.92,1.77-1.61,2.48s-1.5,1.27-2.43,1.68c-0.93,0.41-1.95,0.61-3.04,0.61 C441.66,143.96,440.66,143.76,439.73,143.35z M480.7,148.21h15.76v-4.51h-11.09v-19.51h-4.67V148.21z"></path> </g> </svg> 