<?xml version="1.0" encoding="UTF-8"?> <svg xmlns="http://www.w3.org/2000/svg" xmlns:xlink="http://www.w3.org/1999/xlink" version="1.1" id="Layer_1" x="0px" y="0px" viewBox="0 0 600 302.66" style="enable-background:new 0 0 600 302.66;" xml:space="preserve"> <style type="text/css"> .st0{fill:#FFFFFF;} </style> <g id="Familia_Logo_2_"> <path id="Discovery_2_" class="st0" d="M200.88,260.48c0,13.96-10.72,24.75-26.23,24.75h-15.01c3.03-2.02,5.56-4.72,7.37-7.9h7.64 c10.36,0,17.14-6.98,17.14-16.71c0-9.73-6.77-16.85-17.14-16.85h-9.73v7.25c-1.43-1.77-3.09-3.35-4.98-4.65 c-1.16-0.8-2.4-1.48-3.7-2.07v-8.43h18.4C190.17,235.87,200.88,246.52,200.88,260.48z M205.83,285.51h8.53v-37.25h-8.53V285.51z M246.03,267.07c-1.1-0.82-2.34-1.52-3.7-2.08c-1.37-0.57-2.73-1.06-4.09-1.48c-1.08-0.38-2.13-0.73-3.14-1.06 c-1.01-0.32-1.91-0.69-2.68-1.09c-0.77-0.4-1.4-0.85-1.87-1.35c-0.47-0.49-0.71-1.07-0.71-1.72v-0.14c0-1.09,0.46-1.98,1.38-2.69 c0.92-0.7,2.2-1.05,3.84-1.05c1.55,0,3.25,0.32,5.08,0.95c1.83,0.63,3.65,1.49,5.43,2.57l3.38-6.07c-1.97-1.32-4.16-2.35-6.56-3.11 c-2.4-0.75-4.77-1.13-7.12-1.13c-1.83,0-3.56,0.25-5.18,0.77c-1.62,0.52-3.03,1.28-4.23,2.26c-1.2,0.99-2.14,2.17-2.82,3.56 c-0.69,1.4-1.03,2.98-1.03,4.77v0.14c0,1.79,0.35,3.3,1.06,4.52c0.7,1.22,1.61,2.24,2.72,3.06c1.11,0.83,2.35,1.5,3.74,2.02 c1.38,0.51,2.76,0.96,4.13,1.34c1.08,0.33,2.13,0.65,3.14,0.95c1.01,0.3,1.9,0.66,2.68,1.06c0.78,0.4,1.39,0.86,1.83,1.38 c0.44,0.52,0.67,1.13,0.67,1.83v0.14c0,1.22-0.5,2.2-1.51,2.92c-1.01,0.73-2.43,1.1-4.27,1.1c-1.93,0-3.94-0.38-6.03-1.17 c-2.09-0.77-4.15-1.92-6.17-3.42l-3.81,5.79c2.35,1.83,4.9,3.22,7.66,4.16c2.75,0.95,5.47,1.41,8.14,1.41 c1.93,0,3.74-0.24,5.43-0.74c1.69-0.5,3.16-1.22,4.4-2.19c1.25-0.96,2.23-2.17,2.93-3.62c0.71-1.46,1.06-3.18,1.06-5.16v-0.14 c0-1.69-0.35-3.13-1.06-4.3C248.04,268.89,247.13,267.9,246.03,267.07z M328.41,259.3c0.99,2.33,1.48,4.84,1.48,7.52v0.14 c0,2.64-0.51,5.13-1.51,7.48c-1.01,2.35-2.4,4.41-4.16,6.17c-1.76,1.77-3.87,3.17-6.31,4.2c-2.45,1.04-5.1,1.56-7.98,1.56 c-2.82,0-5.44-0.51-7.86-1.52c-2.42-1.01-4.51-2.39-6.28-4.13c-1.77-1.74-3.14-3.78-4.13-6.13c-0.99-2.36-1.48-4.85-1.48-7.47 v-0.15c0-2.68,0.5-5.2,1.51-7.55c1.01-2.35,2.4-4.41,4.17-6.17c1.76-1.76,3.86-3.17,6.28-4.2c2.42-1.04,5.06-1.55,7.93-1.55 c2.87,0,5.52,0.5,7.94,1.52c2.42,1.01,4.51,2.4,6.28,4.16C326.04,254.93,327.42,256.98,328.41,259.3z M321.36,266.96 c0-1.65-0.28-3.2-0.85-4.66c-0.57-1.46-1.35-2.73-2.36-3.81c-1.01-1.08-2.21-1.94-3.6-2.58c-1.39-0.63-2.93-0.94-4.62-0.94 c-1.69,0-3.23,0.31-4.62,0.94c-1.39,0.64-2.58,1.48-3.57,2.54c-0.98,1.05-1.74,2.3-2.25,3.74c-0.52,1.44-0.78,2.98-0.78,4.62v0.14 c0,1.6,0.28,3.13,0.84,4.59c0.57,1.46,1.35,2.74,2.36,3.84c1.01,1.11,2.21,1.97,3.6,2.61c1.38,0.64,2.9,0.96,4.55,0.96 c1.74,0,3.31-0.32,4.69-0.96c1.39-0.64,2.58-1.49,3.56-2.57c0.99-1.08,1.74-2.34,2.26-3.78c0.52-1.43,0.78-2.95,0.78-4.54V266.96z M349.43,275.65l-10.02-27.38h-9.17l15.31,37.53h7.69l15.24-37.53h-8.96L349.43,275.65z M404.22,259.88 c0.75,2.42,1.13,4.98,1.13,7.65c0,0.37-0.01,0.76-0.04,1.16c-0.02,0.4-0.06,0.81-0.11,1.23h-27.37c0.47,3.05,1.68,5.4,3.63,7.02 c1.95,1.62,4.32,2.44,7.09,2.44c2.11,0,3.95-0.38,5.5-1.13c1.55-0.75,3.08-1.86,4.58-3.31l5.02,4.44 c-1.79,2.12-3.92,3.81-6.39,5.08c-2.47,1.27-5.41,1.91-8.85,1.91c-2.68,0-5.19-0.48-7.51-1.41c-2.33-0.94-4.35-2.27-6.07-3.96 c-1.71-1.69-3.07-3.72-4.05-6.1c-0.99-2.37-1.48-5-1.48-7.86v-0.15c0-2.68,0.45-5.19,1.34-7.55c0.89-2.35,2.15-4.41,3.77-6.17 c1.63-1.77,3.54-3.15,5.75-4.16c2.21-1.01,4.66-1.52,7.34-1.52c2.96,0,5.56,0.54,7.79,1.63c2.23,1.08,4.09,2.54,5.58,4.36 C402.35,255.32,403.47,257.45,404.22,259.88z M396.88,263.39c-0.14-1.37-0.45-1.75-0.92-2.95c-0.47-1.19-1.11-2.24-1.9-3.14 c-0.8-0.89-1.75-1.58-2.86-2.08c-1.1-0.49-2.36-0.74-3.78-0.74c-2.63,0-4.81,0.9-6.52,2.71c-1.71,1.81-2.76,3.28-3.14,6.2H396.88z M273.31,278.94c-6.56,0-11.14-5.36-11.14-12.06c0-6.56,4.51-11.92,10.72-11.92c4.3,0,7.05,1.91,9.66,4.66l5.29-5.71 c-3.46-3.81-7.83-6.41-14.88-6.41c-11.14,0-19.32,8.89-19.32,19.53c0,10.64,8.18,19.32,19.25,19.32c7.26,0,11.57-2.89,15.23-6.98 l-5.15-5.07C280.29,277.03,277.33,278.94,273.31,278.94z M420.26,254.42v-6.16h-8.53v37.25h8.53v-14.18c0-2.49,0.23-4.68,0.92-6.48 c2.57-6.78,9.73-8.71,13.44-9.26l-2.92-7.12C428.71,248.99,423.47,250.43,420.26,254.42z M464.84,248.26l-9.54,27.31l-8.91-27.31 h-9.1l13.84,36.99l-0.11,0.26c0,0-2.79,7.55-5.31,9.37c-1.94,1-6.49,0.92-8.21,0.8v6.97c3,0,10.07,0.19,12.35-1.25 c2.85-1.8,3.49-2.58,5.44-6.54c2.12-4.31,18.45-46.6,18.45-46.6H464.84z"></path> <path id="Globe_3_" class="st0" d="M146.85,245.1c-11.55,0-20.94,9.32-20.94,20.79c0,11.46,9.39,20.78,20.94,20.78 c11.54,0,20.93-9.32,20.93-20.78C167.78,254.42,158.39,245.1,146.85,245.1z M164.11,255.44c0,0,0,0-0.01-0.01h0 C164.11,255.43,164.11,255.43,164.11,255.44L164.11,255.44C164.12,255.44,164.11,255.44,164.11,255.44 c1.65,2.67,2.68,5.77,2.91,9.09v-0.01c0,0.02,0.01,0.14,0,0.1c-0.01-0.06-0.02-0.16-0.02-0.12c-0.01,0.04-0.02,0.08-0.02,0.08 c-0.01-0.01-0.06,0.08-0.06,0.08s-0.04-0.17-0.04-0.26c-0.01-0.1,0-0.14,0-0.24c-0.01-0.1-0.03-0.19-0.03-0.27 c0-0.1-0.01-0.28,0-0.3c0-0.02-0.05,0.06-0.05,0.09c-0.01,0,0.02,0.2,0.01,0.2c-0.01,0-0.09-0.26-0.09-0.2 c0,0.06,0.01,0.17,0.03,0.3c0.02,0.13-0.01,0.28-0.01,0.28s-0.08-0.19-0.08-0.23c0-0.06-0.1-0.54-0.1-0.58 c0-0.04-0.04-0.19-0.06-0.23c-0.02-0.06-0.22-0.43-0.27-0.54c-0.05-0.11-0.16-0.49-0.17-0.45c-0.01,0.06-0.02,0.16-0.02,0.16 s0.04,0.15,0.07,0.19c0.03,0.06,0.04,0.19,0.14,0.36c0.1,0.17,0.26,0.49,0.28,0.54c0.01,0.06,0.01,0.24,0.01,0.24 s-0.1-0.23-0.09-0.15c0,0.07,0.06,0.23,0.05,0.25c0,0.04-0.08,0.3-0.09,0.25c-0.02-0.04-0.03,0-0.03,0.03 c0.01,0.05,0.01,0.14-0.02,0.14c-0.01,0.02-0.19-0.21-0.17-0.23c0.02-0.05,0.11-0.07,0.13-0.08c0.03,0,0.07,0.14,0.06,0.08 c0-0.08,0.01-0.18,0.01-0.2c0-0.04,0.02-0.08-0.02-0.15c-0.03-0.08-0.3-0.55-0.33-0.64c-0.04-0.09-0.21-0.57-0.22-0.57 c-0.02,0-0.07,0.07-0.08,0.11c-0.02,0.02-0.11,0.27-0.17,0.2c-0.06-0.07-0.19-0.25-0.22-0.15c-0.03,0.12-0.03,0.16,0.01,0.2 c0.03,0.06,0.02,0.13,0.01,0.15c-0.01,0.02-0.06,0.01-0.09,0.1c-0.03,0.12-0.09,0.16-0.12,0.18c-0.03,0.04-0.07,0.14-0.07,0.29 c0,0.15,0.02,0.07,0,0.18c-0.03,0.09-0.08,0.28-0.16,0.35c-0.08,0.06-0.25,0.01-0.29,0.04c-0.04,0.04-0.11,0.14-0.13,0.1 c-0.01-0.02-0.11-0.14-0.12-0.18c-0.01-0.04-0.11-0.09-0.14-0.09c-0.03,0.02-0.18-0.12-0.18-0.15c-0.01-0.04-0.14-0.47-0.12-0.6 c0.02-0.13,0.08-0.35,0.07-0.42c0-0.09-0.06-0.24-0.06-0.24s-0.06-0.14-0.01-0.2c0.06-0.03,0.09-0.12,0.13-0.1 c0.05,0.05,0.09,0.03,0.14,0.05c0.05,0.01,0.14-0.03,0.17,0c0.03,0.02,0.1,0.08,0.16,0.08c0.07,0.01,0.27,0.04,0.27,0.02 c0.01-0.02,0.06-0.33,0.02-0.48c-0.04-0.13-0.07-0.31-0.12-0.36c-0.05-0.06-0.39-0.57-0.39-0.57s0.06-0.05,0.08-0.06 c0.03-0.01,0.29,0.23,0.25,0.14c-0.04-0.07-0.07-0.25-0.06-0.26c0.02,0,0.12,0.02,0.15,0.01c0.02,0.02,0.15-0.02,0.16-0.08 c0.02-0.05,0.05-0.23,0.07-0.26c0.02-0.03,0.01-0.12,0.07-0.17c0.04-0.06,0.05-0.5,0.05-0.5s0.03-0.26,0.05-0.24 c0.01,0.04,0.03,0.29,0.06,0.26c0.03-0.01,0.04-0.07,0.04-0.12c0.01-0.02,0-0.24-0.04-0.37c-0.05-0.15-0.09-0.4-0.07-0.43 c0.02-0.01,0.06-0.21,0.09-0.14c0.03,0.1,0.16,0.44,0.18,0.41c0.02-0.05,0.01-0.07,0-0.1c-0.01-0.04-0.07-0.18-0.1-0.26 c-0.02-0.05-0.13-0.39-0.14-0.4c0,0-0.04-0.05-0.05-0.03c0,0.05-0.02,0.16-0.04,0.21c-0.04,0.03-0.1-0.03-0.11-0.02 c-0.02-0.02-0.34-0.6-0.35-0.67c-0.01-0.08,0.02-0.08-0.01-0.13c-0.03-0.05-0.07-0.14-0.08-0.17c-0.01-0.04-0.06-0.19-0.05-0.2 c0.02-0.01-0.02-0.23-0.02-0.27c0.01-0.02,0.01-0.27,0.03-0.3c0.01-0.05,0.03-0.17,0.06-0.16c0.02,0.04,0.03,0.03,0.01-0.07 c-0.02-0.09,0.05,0.03,0-0.09c-0.04-0.11-0.12-0.29-0.12-0.3c0.01-0.01-0.05-0.16-0.04-0.19c0.01,0-0.02-0.11-0.02-0.12 c-0.01-0.02-0.04-0.1-0.05-0.11c-0.02-0.03-0.06-0.11-0.06-0.11c0,0.02-0.01,0.01,0,0.03c0,0-0.04-0.05-0.01,0 c0.01,0.03,0.02,0.06,0.03,0.07c-0.01,0-0.02-0.01-0.03-0.03c-0.02-0.03-0.07-0.12-0.07-0.15c-0.01-0.04-0.01-0.07,0-0.07 c-0.01-0.01-0.06-0.11-0.06-0.13c0-0.02-0.02-0.05-0.01-0.04C164.1,255.42,164.11,255.43,164.11,255.44L164.11,255.44z M165.8,263.02c-0.03-0.09-0.02-0.16-0.01-0.25c0,0,0.04-0.01,0.06,0.05c0.02,0.05,0.04,0.15,0.02,0.28c0,0.16,0.04,0.17,0.04,0.23 c0.02,0.04,0.02,0.23,0.03,0.41c0.02,0.16-0.1,0.02-0.1,0.02s-0.04-0.15-0.03-0.22c0.01-0.08-0.04-0.15-0.06-0.22 c-0.03-0.09,0.04-0.07,0.06-0.08C165.85,263.19,165.83,263.11,165.8,263.02z M165.42,263.53c-0.03,0.02-0.02,0.1-0.07,0.07 c-0.05-0.03-0.06-0.01-0.08,0.01c-0.01,0-0.04,0.12-0.06,0.14c-0.01,0.02-0.04-0.09-0.04-0.11c0.01-0.04,0.1-0.14,0.1-0.14 c0.01,0,0.01,0,0.03-0.01c0,0,0.04-0.12,0.05-0.17c0.02-0.06,0.05-0.03,0.11,0.1C165.53,263.52,165.45,263.49,165.42,263.53z M163.63,257.98c0.05,0.04,0.08,0.03,0.1,0c0.03-0.04,0.12-0.06,0.12-0.06c0.06,0.05,0.06,0.05,0.12,0.11c0,0-0.03,0.1-0.04,0.15 c0,0.07,0.15,0.12,0.27,0.27c0.11,0.14-0.07,0.23-0.1,0.24c-0.03,0.01,0.4,0.73,0.51,0.85c0.09,0.11,0.18,0.44,0.2,0.51 c0.01,0.08,0.01,0.14-0.02,0.2c-0.04,0.05,0.06,0.2,0.04,0.29c-0.02,0.08-0.3,0.01-0.3,0.01s-0.34,0.06-0.44-0.02 c-0.1-0.07,0.12-0.2,0.17-0.28c0.04-0.1-0.06-0.1-0.08-0.15c-0.03-0.06-0.06-0.09-0.03-0.12c0.02-0.04,0.02-0.04,0.01-0.26 c-0.01-0.06-0.01-0.06,0-0.1c0,0,0.1-0.15,0.07-0.24c-0.01-0.08-0.16-0.04-0.18-0.07c-0.04-0.05-0.02-0.11-0.02-0.22 c-0.01-0.14-0.07-0.04-0.09-0.13c-0.01-0.07-0.15-0.06-0.14-0.11c0.01-0.04-0.05-0.06-0.06-0.15c-0.03-0.09,0.04,0,0.06-0.09 c0.02-0.09-0.13-0.05-0.13-0.05c0.01-0.04,0.01-0.04,0.01-0.08c-0.06-0.06-0.06-0.06-0.12-0.11c0,0,0.09-0.12,0.09-0.16 c0.01-0.02-0.16-0.23-0.16-0.23S163.58,257.96,163.63,257.98z M163.65,259.06c0,0,0.14-0.14,0.16-0.07c0.02,0.07,0.09,0.1,0.1,0.18 c0.02,0.09,0.01,0.29,0.01,0.29s0,0.13,0.02,0.24c0.02,0.11,0,0.16,0,0.16c-0.01,0.06-0.24,0.3-0.3,0.21 c-0.07-0.09-0.27-0.28-0.19-0.31c0.08-0.01,0.19-0.03,0.14-0.19c-0.06-0.13-0.19-0.28-0.17-0.34 C163.43,259.15,163.65,259.06,163.65,259.06z M147.12,245.98c0.02-0.01,0.22-0.02,0.26-0.02c0.02,0,0.08-0.01,0.16-0.01 c0.06,0.01,0.04-0.02,0.15-0.02c0.1-0.01,0.06,0.01,0.1,0.02c0.02,0.01,0.18,0.02,0.24,0.02c0.06,0-0.16-0.03-0.2-0.04 c-0.04-0.02,0.04-0.02,0.12-0.02c0.06-0.01,0.04-0.01-0.02-0.02c-0.06-0.02,0.08-0.01,0.13-0.01c0.06,0,0.11,0.02,0.17,0.03 c0.04,0.02,0.19,0.02,0.24,0.04c0.08,0.02,0.14,0.02,0.24,0.05c0.1,0.04,0.1,0,0.06-0.01c-0.01-0.02-0.14-0.03-0.18-0.04 c-0.04-0.01-0.14-0.03-0.1-0.03c0.04,0,0.1-0.01,0.1-0.01s0.12,0.01,0.18,0.01c0.06,0,0-0.01,0-0.01s0.14,0.01,0.18,0.01 c0.04,0-0.08-0.01-0.16-0.02c-0.08-0.01,0.18,0.02,0.18,0.02s0.16,0.01,0.2,0.03c0.04,0,0.08,0.02,0.16,0.02 c0.06,0.01,0.1,0.02,0.24,0.05c0.12,0.01,0.04,0,0.04-0.01c0-0.01-0.26-0.05-0.32-0.05c-0.04-0.01-0.16-0.03-0.1-0.03 c0.12,0.02,0.25,0.03,0.36,0.05c0.04,0.01,0.18,0.04,0.32,0.06c0.12,0.02,0.08,0,0.1,0.01c0.02,0-0.1-0.02-0.16-0.03v-0.01 c0.1,0.02,0.19,0.03,0.28,0.04l0.01,0.01c0.04,0.01,0.06,0.01,0.08,0.01v0c0.2,0.04,0.4,0.07,0.6,0.11h0c-0.02,0-0.04,0-0.06-0.01 c-0.08-0.01-0.09-0.02-0.06,0c0.04,0.01,0.16,0.02,0.24,0.04c0.02,0.01,0.06,0.02,0.1,0.02l0.01-0.01c0.14,0.04,0.28,0.06,0.43,0.1 c0,0.01,0,0.01,0,0.01c0.04,0.01,0.17,0.04,0.25,0.06c0.06,0.01,0.08,0.02,0.19,0.05c0.14,0.04-0.09,0.01-0.11,0.01 c-0.02,0.01-0.26-0.03-0.3-0.04c-0.04-0.01-0.04,0-0.09,0.01c-0.06,0-0.26-0.06-0.26-0.06c-0.16-0.02-0.16-0.02-0.3-0.04 c0.16,0.04,0.16,0.04,0.31,0.08c0,0-0.36-0.02-0.35,0c0.02,0.03,0.69,0.03,0.84,0.08c0.16,0.05-0.38,0.05-0.45,0.07 c-0.06,0.02-0.22,0.02-0.23,0.06c-0.01,0.04-0.03,0.05-0.15,0.05c-0.14,0.01-0.2-0.01-0.27,0.03c-0.07,0.04,0.16,0.1,0.17,0.15 c-0.01,0.05-0.35-0.11-0.43-0.12c-0.1-0.02,0.09,0.06,0.12,0.09c0.05,0.04-0.04,0.04-0.17,0.08c-0.13,0.05-0.17-0.01-0.32-0.07 c-0.15-0.05-0.08,0.03-0.12,0.04c-0.03,0.02-0.01,0.04,0.03,0.07c0.03,0.04-0.29,0.01-0.07,0.08c0.22,0.08,0.09-0.01,0.14-0.03 c0.06-0.02,0.2,0.05,0.34,0.09c0.14,0.05,0.06,0.07,0.07,0.1c0,0.02-0.12,0.03-0.21,0.04c-0.11,0,0.14,0.01,0.17,0.11 c0.03,0.09-0.15,0.01-0.27,0.01c-0.13,0,0.16,0.1,0.06,0.11c-0.08,0.01-0.27-0.01-0.36-0.02c-0.1,0,0.05,0.05,0.12,0.08 c0.09,0.04,0.07,0.14-0.14,0.15c-0.21,0.02-0.15,0.02-0.26-0.01c-0.1-0.02-0.1-0.02-0.16-0.07c-0.05-0.03-0.12,0.07-0.22,0.1 c-0.08,0.05,0.12,0.06,0.18,0.03c0.06-0.02,0.14,0.02,0.27,0.07c0.14,0.04,0.32,0.06,0.43,0.11c0.12,0.05-0.03,0.08-0.08,0.13 c-0.02,0.03-0.04,0.05-0.13,0.13c-0.08,0.08-0.22-0.01-0.39-0.08c-0.17-0.07-0.25-0.07-0.32-0.05c-0.06,0.02-0.06,0.02-0.1,0.02 c-0.06,0-0.11-0.03-0.17-0.08c-0.08-0.06-0.08,0.02-0.1,0.06c-0.02,0.04-0.22,0.04-0.34-0.07c-0.11-0.11-0.14,0.08-0.28,0.08 c-0.14,0-0.26-0.02-0.35-0.12c-0.1-0.11-0.16,0.07-0.16,0.07s-0.17,0.05-0.24,0.1c-0.09,0.04,0.27,0.07,0.19,0.07 c-0.07,0.01-0.07,0.07,0.12,0.16c0.18,0.1,0.25,0.16,0.25,0.16s0.06-0.02,0.16-0.09c0.11-0.06,0.14,0.08,0.14,0.08 s0.19-0.01,0.39-0.03c0.2-0.02,0.12-0.12,0.19-0.15c0.06-0.04,0.06-0.01,0.14,0.06c0.06,0.08,0.22-0.05,0.31-0.05 c0.09-0.01,0.35,0.19,0.46,0.26c0.11,0.07,0,0.07-0.09,0.14c-0.12,0.06,0.09,0.1,0.17,0.15c0.08,0.05-0.15,0.16-0.25,0.15 c-0.12-0.02-0.4-0.02-0.48-0.09c-0.08-0.07-0.23,0.08-0.33,0.02c-0.09-0.06-0.06,0.09-0.4,0.04c-0.32-0.04-0.3-0.04-0.42-0.11 c-0.1-0.07-0.25,0.08-0.33,0.03c-0.07-0.05-0.15-0.01-0.3-0.08c-0.16-0.07-0.14-0.3-0.14-0.34c0-0.04,0.11-0.13,0.15-0.16 c0.01-0.02-0.21-0.06-0.23-0.26c0-0.18-0.11,0.02-0.2,0.03c-0.08,0.01-0.08,0.08-0.08,0.08s0.08,0.1-0.02,0.22 c-0.08,0.12,0.25,0.2,0.28,0.31c0.03,0.1-0.02,0.18-0.14,0.16c-0.11,0-0.25,0.09-0.38,0.01c-0.12-0.09-0.19-0.09-0.2-0.22 c-0.02-0.14,0.09-0.1,0.12-0.14c0.04-0.05,0.21-0.18,0.22-0.26c0.04-0.09-0.04-0.08-0.05-0.13c-0.02-0.05-0.11-0.09-0.13-0.13 c-0.02-0.05-0.13-0.11-0.17-0.15c-0.06-0.04-0.11-0.07-0.1-0.11c0.02-0.04,0.1,0.01,0.15-0.01c0,0,0.06-0.02,0.07-0.03 c0.02-0.01,0.09,0,0.09,0s0.11,0.01,0.18,0.01c0.07,0.01,0.17,0.04,0.27,0.13c0.11,0.08,0.06,0.08,0.06,0.08s0.37-0.02,0.43,0.01 c0.05,0.02,0.17-0.04,0.2-0.08c0.06-0.04,0.25-0.09,0.33-0.13c0.09-0.04,0.16-0.03,0.24-0.05c0.06-0.03-0.03-0.05-0.11-0.1 c-0.09-0.05-0.17-0.05-0.23-0.19c-0.05-0.13,0.08,0,0.25-0.03c0.17-0.01,0.07,0.07,0.07,0.11c-0.02,0.04,0.19,0.12,0.37,0.18 c0.18,0.06,0.23-0.03,0.26-0.06c0.06-0.03,0.2-0.1,0.17-0.14c-0.01-0.05-0.27,0.06-0.36,0.06c-0.08,0.01-0.13-0.09-0.18-0.15 c-0.05-0.07,0.08-0.1,0.11-0.17c0.02-0.07-0.15,0-0.19,0.01c-0.04,0.01-0.26,0.02-0.36-0.03c-0.07-0.03,0.24-0.14,0.36-0.17 c0.12-0.04,0.23,0,0.32,0.05c0.07,0.04,0.19,0.01,0.31,0.01c0.1,0,0.18-0.04,0.15-0.09c-0.04-0.06-0.17-0.01-0.36-0.09 c-0.19-0.08-0.11-0.08-0.16-0.15c-0.04-0.07-0.1,0.02-0.23-0.03c-0.11-0.05-0.11-0.12-0.18-0.19c-0.06-0.06,0.04-0.03,0.04-0.08 c0.02-0.05,0.04-0.01,0.22,0.01c0.16,0.01,0.35,0.18,0.37,0.23c0.06,0.06,0.23,0.06,0.34,0.1c0.12,0.03,0.05,0,0.15-0.04 c0.08-0.05-0.16-0.03-0.21-0.06c-0.06-0.03-0.07-0.06-0.11-0.08c-0.04-0.01-0.19-0.09-0.26-0.14c-0.07-0.05,0.24-0.01,0.26-0.02 c0.04-0.01,0.2,0,0.34,0.01c0.16,0.01-0.11-0.05-0.07-0.08c0.06-0.04,0.39,0.03,0.5,0.01c0.1-0.02-0.26-0.03-0.4-0.05 c-0.12-0.02,0.03-0.04,0.13-0.06c0.1-0.02,0.06-0.05-0.01-0.07c-0.07-0.03-0.18,0.04-0.21,0.09c0,0.05-0.27,0.09-0.35,0.09 c-0.1,0.01-0.11-0.01-0.09-0.05c0-0.04-0.26,0.06-0.42,0.05c-0.18-0.02-0.18-0.03-0.25-0.07c-0.08-0.03-0.06,0.01-0.24,0.01 c-0.18,0-0.21-0.05-0.21-0.09c0-0.02,0.31,0.02,0.37,0.04c0.06,0.02,0.12,0,0.14-0.04c0.01-0.03,0.17,0,0.28,0 c0.12,0,0.14-0.01,0.08-0.02c-0.04-0.02-0.41,0.01-0.38,0c0.02-0.02,0.16-0.02,0.2-0.06c0.02-0.03-0.16,0.03-0.2,0.03 c-0.02,0-0.26,0.03-0.31,0.02c-0.09-0.03-0.25,0.01-0.34,0c-0.08-0.02,0-0.04-0.02-0.07c0-0.03,0.06-0.03,0.1-0.03 c0.04-0.01,0.08-0.03,0.1-0.05c0.02-0.02-0.2,0.01-0.22,0c-0.04-0.01-0.04,0-0.1-0.01c-0.04-0.02-0.16,0.01-0.2,0 C147.11,246.02,147.08,246,147.12,245.98z M144.99,251.61c0,0-0.13,0.08-0.19,0.08c-0.06-0.01-0.39-0.04-0.59-0.17 c-0.2-0.12-0.25,0.01-0.42,0.13c-0.17,0.13-0.46,0.16-0.59,0.23c-0.13,0.05-0.6,0.05-0.6,0.05s-0.02-0.2-0.03-0.31 c-0.03-0.12-0.5,0.02-0.63-0.02c-0.13-0.05-0.2-0.17-0.22-0.28c-0.03-0.12,0.43-0.08,0.71-0.15c0.27-0.07,0.44,0.03,0.54-0.05 c0.13-0.08,0-0.12-0.28-0.13c-0.28-0.02-0.69,0.13-0.8,0.16c-0.1,0.04-0.29-0.09-0.29-0.28c0.02-0.19,0.36-0.05,0.36-0.05 s0.28-0.19,0.25-0.27c-0.01-0.09-0.22,0.16-0.32,0.18c-0.11,0.03-0.4-0.12-0.44-0.21c-0.07-0.08,0.31-0.19,0.31-0.19 s0.05-0.08,0.03-0.19c0-0.1,0.64-0.31,0.73-0.35c0.09-0.04-0.02,0.19,0.02,0.28c0.03,0.1,0.4-0.24,0.48-0.21 c0.06,0.03-0.02,0.27,0.08,0.37c0.11,0.1,0.34-0.27,0.49-0.28c0.15-0.01,0.02,0.34,0.05,0.45c0.02,0.11,0.33-0.05,0.4-0.09 c0.08-0.05-0.05-0.18-0.14-0.26c-0.08-0.09-0.02-0.21,0-0.31c0.03-0.11,0.47,0.05,0.47,0.05s-0.02,0.22,0.02,0.26 c0.04,0.05,0.13,0.45,0.16,0.55c0.01,0.1,0.65,0.53,0.68,0.61c0.03,0.09-0.38,0.07-0.48,0.13 C144.65,251.38,144.91,251.51,144.99,251.61z M144.14,249.44c0,0,0.09-0.02,0.22-0.06c0.14-0.02,0.2-0.05,0.28,0.07 c0.08,0.13,0,0.11-0.07,0.2C144.5,249.76,144.14,249.5,144.14,249.44z M144.98,249.78c0.02-0.02,0.02-0.02,0.03-0.05 c0,0,0.22,0.08,0.3,0.13c0.07,0.05,0.17-0.08,0.17-0.13c0.01-0.04-0.18-0.18-0.19-0.25c-0.03-0.07,0.11-0.07,0.19-0.17 c0.09-0.1,0.11,0.01,0.24,0.11c0.13,0.09,0.14-0.2,0.25-0.26c0.14-0.05,0.1,0.14,0.1,0.18c0.02,0.03-0.09,0.23-0.17,0.32 c-0.08,0.07,0.2,0.13,0.32,0.25c0.1,0.12-0.09,0.38-0.14,0.43c-0.03,0.05-0.24,0.21-0.33,0.21c-0.08,0-0.07-0.14-0.13-0.25 C145.59,250.2,145.02,249.91,144.98,249.78z M146.42,247.49c0,0,0.02-0.04,0.07-0.06c0.06-0.03,0.15-0.01,0.17-0.01 c0.02,0,0.2,0,0.24,0.09c0.04,0.09-0.11,0.03-0.14,0.06C146.7,247.59,146.42,247.52,146.42,247.49z M147.3,247.66 c0.04,0,0.06-0.09,0.08-0.12c0,0,0-0.03,0-0.06c0-0.02,0.11,0.04,0.13,0.06c0.01,0.02,0.09,0.09,0.05,0.12 c-0.04,0.03-0.09,0.04-0.16,0.06C147.33,247.73,147.28,247.67,147.3,247.66z M146.43,246.46c0.04-0.03,0.1,0.01,0.1,0.04 c0,0.03,0.1,0.01,0.18-0.01c0.11-0.03,0.1-0.05,0.1-0.05s-0.25-0.1-0.25-0.12c-0.02-0.02,0.04-0.03,0.04-0.03 c0.02-0.01,0.2,0.01,0.26,0.01c0.08,0-0.1-0.06-0.14-0.07c-0.06-0.02,0.06-0.05,0.14-0.07c0.08-0.02,0.06-0.04,0.06-0.04 c0-0.01-0.1-0.01-0.16-0.02c-0.04-0.02,0.12-0.01,0.18-0.02c0.04-0.01,0.18,0.03,0.2,0.04c0.04,0,0.08,0.11,0.08,0.13 c0,0.02,0.24,0.06,0.33,0.08c0.08,0.01,0.06,0.07,0.05,0.11c0,0.05,0.26,0.08,0.37,0.11c0.11,0.04-0.04,0.07-0.02,0.09 c0.02,0.04,0.1,0.04,0.21,0.05c0.1,0.01,0.22,0.08,0.2,0.09c-0.02,0.01-0.22,0.07-0.23,0.07c-0.02,0-0.18,0.04-0.29,0.02 c-0.09-0.01-0.04,0.13-0.04,0.15c-0.02,0.02-0.02,0.14-0.08,0.15c-0.07,0.01-0.01-0.08-0.13-0.15c-0.09-0.07-0.08,0.1-0.1,0.14 c0,0.05-0.23,0.08-0.43-0.04c-0.19-0.11,0,0.01,0.16-0.09c0.17-0.08-0.15-0.04-0.37-0.16c0,0-0.12,0-0.1-0.02 c0.01-0.01,0.24-0.06,0.32-0.07c0.06-0.01,0.25,0,0.27-0.02c0.04-0.01-0.12-0.03-0.1-0.07c0.02-0.06-0.14-0.05-0.17-0.05 c-0.02,0-0.16,0.06-0.21,0.06c-0.06,0.01-0.23-0.03-0.22-0.06c0.02-0.03,0.39-0.01,0.25-0.03c-0.16-0.01-0.21-0.03-0.29-0.05 c-0.08-0.02-0.16-0.04-0.18-0.06C146.39,246.51,146.39,246.49,146.43,246.46z M146.39,247.02c0.29,0.04,0.21,0.1,0.31,0.2 c0.11,0.08-0.15,0.1-0.21,0.13c-0.05,0.02-0.11,0.08-0.32-0.01c-0.19-0.1,0.02-0.1,0.03-0.14c0-0.04-0.17-0.12-0.14-0.2 C146.06,247,146.12,246.97,146.39,247.02z M146.15,248.2c0.04,0.1-0.09,0.34-0.18,0.39c0,0-0.12,0.11-0.2,0.17 c-0.08,0.05-0.24,0.03-0.33-0.03c-0.1-0.05,0.05-0.16,0.1-0.22c0.03-0.05-0.04-0.12-0.12-0.13c-0.07-0.02-0.27,0.1-0.31,0.08 c-0.04-0.02-0.01-0.07,0.04-0.18c0.04-0.11-0.22-0.02-0.28-0.06c-0.04-0.04-0.14-0.12-0.01-0.22c0.12-0.09,0.12,0.09,0.2,0.16 c0.07,0.06,0.35,0.06,0.38,0.03c0.05-0.03-0.14-0.19-0.08-0.27c0.07-0.09,0.18,0,0.26,0.09c0.1,0.09,0.15-0.04,0.27-0.05 C146.05,247.93,146.09,248.11,146.15,248.2z M145.9,246.47c0.06-0.01,0.06,0,0.14,0.03c0.06,0.03-0.05,0.09-0.09,0.15 c-0.04,0.07-0.24-0.09-0.19-0.14C145.76,246.51,145.84,246.47,145.9,246.47z M144.6,246.85c0,0,0.02,0,0.12-0.04 c0.1-0.02,0.17-0.02,0.23-0.02c0.06,0.01,0.06,0.07,0.24,0.12c0.18,0.05,0.47,0.11,0.53,0.19c0.04,0.08,0.11,0.16,0.08,0.25 c-0.04,0.08-0.08,0.04-0.23,0.02c-0.16-0.03-0.1-0.07-0.1-0.1c-0.01-0.04-0.15-0.06-0.2-0.08c-0.06-0.03-0.18,0.05-0.26,0.05 c-0.08,0-0.23-0.02-0.27-0.07c-0.05-0.05,0.09-0.02,0.24-0.08c0.16-0.08-0.06-0.05-0.13-0.08 C144.82,246.97,144.52,246.94,144.6,246.85z M144.53,247.46c0,0,0.08,0.07,0.1,0.09c0.02,0.02,0.19,0.13,0.25,0.2 c0.06,0.08-0.19,0.1-0.27,0.01C144.52,247.7,144.47,247.48,144.53,247.46z M143.48,247.24c0.14-0.05,0.1-0.1,0.2-0.09 c0.1,0,0.14,0.13,0.13,0.18c-0.03,0.05-0.34,0.04-0.34,0.04s-0.3,0.03-0.35,0C143.11,247.37,143.35,247.29,143.48,247.24z M143.17,247.55c0.11,0.02,0.04-0.01,0.31-0.09c0.27-0.08,0.33-0.05,0.4-0.02c0.06,0.02-0.21,0.1-0.21,0.1s-0.24,0.24-0.34,0.23 c-0.08-0.01-0.32-0.05-0.29-0.11c0.02-0.07-0.22-0.03-0.28-0.05C142.74,247.61,143.09,247.52,143.17,247.55z M143.07,248.32 c0.16,0.03,0.15,0.17,0.19,0.2c0.02,0.02,0.23,0.09,0.32,0.14c0.08,0.05,0.14-0.1,0.19-0.17c0.04-0.06-0.09-0.01-0.14-0.05 c-0.04-0.04,0.06-0.06,0.08-0.1c0.01-0.04-0.12-0.15-0.12-0.15s-0.02-0.09,0.14-0.14c0.14-0.06,0.16-0.09,0.24-0.05 c0.1,0.05,0.02,0.12-0.01,0.16c-0.05,0.05,0.11,0.14,0.16,0.19c0.04,0.05,0.02,0.06,0.21-0.06c0.16-0.12,0.15,0.05,0.2,0.17 c0.07,0.11-0.08,0.19-0.08,0.19s-0.09,0.12-0.15,0.19c-0.06,0.08-0.1,0-0.1,0s-0.15-0.02-0.25,0.02c-0.08,0.04-0.06-0.04-0.16-0.08 c-0.1-0.03-0.24,0.12-0.46,0.27c-0.21,0.16-0.28,0.1-0.4,0.12c-0.12,0.02-0.31-0.02-0.33-0.06c-0.03-0.03,0.31-0.13,0.37-0.19 c0.07-0.08,0.34-0.08,0.39-0.12c0.07-0.04-0.13-0.02-0.19-0.03c-0.08,0-0.27,0.01-0.29-0.03c-0.02-0.05-0.24,0.13-0.31,0.16 c-0.06,0.04-0.43-0.02-0.46-0.07c0.02,0,0.09-0.09,0.14-0.1c0.08-0.01,0.19-0.07,0.28-0.1c0.11-0.03-0.11-0.03-0.21-0.13 c-0.1-0.09,0.17-0.07,0.18-0.12c0-0.04,0.09-0.06,0.23-0.17C142.86,248.12,142.93,248.29,143.07,248.32z M141.2,248.46 c0.05-0.02,0.79-0.46,0.88-0.51c0.07-0.04,0.29-0.15,0.39-0.19c0.13-0.04,0.17-0.13,0.17-0.06c0.01,0.08-0.02,0.16-0.05,0.19 c-0.03,0.03-0.16,0.11-0.17,0.15c-0.01,0.05,0.03,0.13-0.08,0.21c-0.11,0.08-0.18,0.18-0.23,0.14c-0.06-0.04-0.01-0.24-0.1-0.16 c-0.11,0.09-0.18,0.16-0.27,0.25c-0.1,0.11-0.16,0.23-0.25,0.24c-0.07,0.01,0.04-0.13,0.04-0.13s-0.1,0.04-0.1,0.03 c-0.08,0.01-0.2,0.1-0.27,0.07C141.08,248.67,141.13,248.48,141.2,248.46z M142.07,248.61c-0.01,0.09-0.13,0.14-0.2,0.17 c0.02-0.01-0.08,0.01-0.08,0.01s-0.06-0.1-0.02-0.13c0.03-0.03,0.22-0.14,0.29-0.19C142.11,248.43,142.06,248.52,142.07,248.61z M140.44,250.15c0.09-0.08,0.05-0.19,0.07-0.25c-0.01-0.05,0.11-0.1,0.24-0.25c0.11-0.14-0.17-0.06-0.17-0.16 c0.02-0.11,0.31-0.11,0.38-0.12c0.05-0.01,0.06-0.04,0.27-0.08c0.22-0.04,0.27,0.22,0.27,0.22s0.13-0.02,0.29-0.11 c0.15-0.08,0-0.06,0.29,0.04c0.29,0.11,0.3,0.19,0.27,0.28c-0.04,0.1-0.7,0.4-0.79,0.49c0,0-0.19,0.11-0.24,0.18 c-0.06,0.06-0.12,0.24-0.13,0.31c-0.01,0.06-0.19,0.04-0.19,0.04s-0.25,0.27-0.3,0.29c-0.05,0.01-0.1-0.08-0.07-0.16 c0.01-0.07-0.13-0.1-0.31-0.17c-0.16-0.08-0.1-0.16-0.11-0.23C140.16,250.41,140.34,250.23,140.44,250.15z M159.57,274.16 c-0.02,0.19-0.04,0.16-0.09,0.22c-0.04,0.04-0.14,0.12-0.18,0.17c-0.03,0.03-0.12,0.15-0.18,0.17c-0.06,0.02-0.15,0.21-0.2,0.28 c-0.06,0.08-0.15,0.11-0.19,0.13c-0.06,0.03-0.16,0.95-0.22,1.04c-0.04,0.07-0.08,0.28-0.09,0.35c-0.02,0.07-0.11,0.14-0.21,0.22 c-0.12,0.09-0.08,0.26-0.16,0.36c-0.08,0.1-0.06,0.07-0.14,0.15c-0.08,0.09-0.11,0.05-0.19,0.06c-0.08,0.01-0.28,0.1-0.4,0.18 c-0.11,0.07-0.21,0.03-0.32,0.11c-0.1,0.07-0.25,0.26-0.37,0.31c-0.13,0.07-0.14,0.38-0.16,0.48c-0.02,0.09-0.03,0.15-0.05,0.2 c-0.02,0.05-0.18,0.13-0.23,0.19c-0.05,0.07-0.12,0.25-0.2,0.32c-0.09,0.08-0.19,0.18-0.29,0.29c-0.1,0.11-0.19,0.25-0.31,0.37 c-0.1,0.11-0.34,0.21-0.37,0.23c-0.02,0-0.35,0.08-0.43,0.13c-0.08,0.05,0.12,0.22,0.12,0.22s-0.25,0.29-0.29,0.38 c-0.05,0.09-0.74,0.21-0.84,0.25c-0.09,0.04-0.09,0.27-0.17,0.36c-0.06,0.08-0.44,0.13-0.54,0.18c-0.1,0.05,0.28,0.07,0.27,0.19 c0,0.12-0.18,0.11-0.33,0.2c-0.16,0.09-0.07,0.26-0.12,0.28c-0.03,0.01-0.18,0.11-0.29,0.11c-0.12,0.02-0.12,0.07-0.16,0.15 c-0.01,0.06,0.17,0.12,0.22,0.15c0.03,0.04,0.05,0.15,0.02,0.18c-0.03,0.02-0.15,0.12-0.28,0.17c-0.13,0.06-0.05,0.09-0.09,0.17 c-0.01,0.09-0.31,0.2-0.37,0.25c-0.05,0.03,0.16,0.11,0.15,0.15c-0.01,0.05-0.03,0.1,0,0.12c0.04,0.02-0.04,0.07-0.07,0.11 c-0.01,0.04,0.19,0.1,0.23,0.13c0.05,0.03,0.16,0.03,0.32,0.01c0.15-0.02,0.21-0.03,0.22,0c0,0,0,0.01-0.05,0.02 c-0.04,0.01-0.1,0.03-0.14,0.03c-0.04,0-0.04-0.01-0.14,0c-0.1,0.02-0.25,0.16-0.3,0.18c-0.06,0.03-0.07,0.05-0.11,0.08 c-0.05,0.05-0.09-0.01-0.19-0.03c-0.11-0.02-0.2,0-0.33-0.01c-0.14-0.01-0.22,0.01-0.23,0c-0.02,0-0.04-0.01-0.04-0.01 s-0.02,0-0.03-0.02c0-0.02,0.05-0.06-0.05-0.08c-0.08-0.03-0.46-0.35-0.48-0.37c0-0.05-0.06-0.05-0.04-0.07 c-0.01-0.02,0.07-0.08,0.07-0.11c0.02-0.04-0.05-0.05-0.02-0.13c0.02-0.08,0.09-0.08,0.12-0.14c0-0.04-0.03-0.17-0.03-0.23 c0.01-0.05,0.09-0.07,0.14-0.17c0.06-0.11-0.01-0.12-0.1-0.02c-0.1,0.1-0.05,0.24-0.14,0.1c-0.1-0.15,0.1-0.19,0.19-0.29 c0.1-0.1-0.01-0.05,0-0.13c0.02-0.09,0.06-0.06,0.11-0.08c0.03-0.04,0.03-0.06-0.05-0.18c-0.06-0.13,0.09-0.14,0.17-0.22 c0.09-0.09,0.09-0.22,0.09-0.36c0.01-0.16,0.02-0.19,0.03-0.24c0.01-0.05,0.17-0.12,0.16-0.17c0-0.06-0.04-0.14-0.07-0.19 c-0.01-0.05,0.02-0.03,0.08-0.08c0.04-0.04-0.05-0.04-0.06-0.08c-0.01-0.05,0.05-0.11,0.17-0.26c0.11-0.16,0.21-0.35,0.24-0.42 c0.04-0.07,0.04-0.17,0.08-0.22c0.03-0.05,0.02-0.08,0-0.14c-0.02-0.07-0.02-0.27,0.01-0.3c0-0.01,0.12-0.1,0.13-0.13 c0-0.02,0.06-0.17,0.04-0.26c-0.02-0.07-0.18-0.05-0.21-0.14c-0.02-0.1,0.25-0.06,0.25-0.06s0.11-0.49,0.12-0.52 c0.03-0.04,0.06-0.19,0.07-0.3c0.02-0.11,0.08-0.26,0.1-0.31c0.03-0.06,0.02-0.06,0-0.2c-0.03-0.15,0-0.37,0.05-0.61 c0.06-0.24-0.95-0.4-1.22-0.71c-0.29-0.31-0.31-0.31-0.47-0.9c-0.14-0.62-0.63-0.85-0.71-1.07c-0.09-0.22,0.27-0.55,0.27-0.55 s-0.12-0.49-0.07-0.65c0.07-0.18,0.57-0.7,0.83-1c0.26-0.3-0.02-0.46-0.02-0.63c0-0.17-0.13-0.07-0.33-0.19 c-0.2-0.12-0.22,0.08-0.45,0.16c-0.22,0.09-0.51-0.11-0.54-0.17c-0.03-0.05-0.58-0.37-0.71-0.53c-0.12-0.16-0.17-0.2-0.33-0.57 c-0.17-0.37-0.31-0.07-0.39-0.13c-0.08-0.05-0.44-0.2-0.55-0.28c-0.1-0.09-0.28-0.32-0.49-0.32c-0.2,0-0.19-0.16-0.27-0.21 c-0.08-0.04-0.32,0.17-0.41,0.29c-0.09,0.12-0.53-0.22-0.77-0.31c-0.24-0.11-0.86-0.28-1.11-0.46c-0.25-0.17-0.47-0.41-0.51-0.47 c-0.04-0.07,0.06-0.11,0.12-0.29c0.06-0.17-0.16-0.23-0.28-0.43c-0.11-0.2-0.22-0.25-0.41-0.41c-0.17-0.17-0.36-0.27-0.4-0.35 c-0.04-0.08-0.37-0.55-0.57-0.68c-0.2-0.13-0.05-0.29-0.16-0.4c-0.1-0.11-0.03-0.12-0.12-0.25c-0.09-0.14-0.15-0.06-0.25,0 c-0.1,0.07,0.09,0.36,0.1,0.39c0.01,0.03,0.56,0.74,0.58,0.76c0.02,0.03,0.09,0.07,0.11,0.17c0.02,0.08,0.14,0.31,0.27,0.46 c0.13,0.13,0.19,0.18,0.23,0.29c0.03,0.12-0.16,0.17-0.19,0.16c-0.04-0.01-0.06-0.05-0.05-0.17c0-0.14-0.05-0.03-0.15-0.13 c-0.1-0.09-0.22-0.04-0.32-0.11c-0.1-0.08-0.09-0.09-0.08-0.24c0-0.15-0.13-0.33-0.22-0.41c-0.08-0.09-0.31-0.11-0.37-0.2 c-0.06-0.08,0.08-0.15,0.08-0.15s0.01-0.11-0.02-0.24c-0.03-0.13-0.24-0.09-0.33-0.22c-0.1-0.13-0.1-0.37-0.13-0.48 c-0.02-0.1-0.22-0.39-0.3-0.56c-0.09-0.16-0.46-0.18-0.65-0.3c-0.19-0.12-0.39-0.6-0.54-0.95c-0.14-0.34-0.51-0.89-0.52-1.21 c-0.02-0.32,0.27-0.7,0.3-1.17c0.04-0.47-0.12-0.7-0.25-1.07c-0.13-0.37-0.65-0.36-0.53-0.66c0.12-0.29,0.03-0.46,0.03-0.46 s-0.3-0.4-0.37-0.66c-0.06-0.26-0.33-0.11-0.48-0.22c-0.14-0.11-0.61-0.57-0.75-0.65c-0.13-0.1-0.12-0.27-0.11-0.58 c0.02-0.32-0.27-0.16-0.41-0.27c-0.15-0.1-0.23-0.15-0.53-0.31c-0.3-0.15-0.3,0.05-0.41,0.01c-0.13-0.04-0.25-0.11-0.25-0.11 s-0.13-0.03-0.23-0.17c-0.08-0.16-0.21,0.11-0.16,0.16c0.04,0.06-0.1,0.32-0.17,0.23c-0.07-0.1-0.18,0.12-0.21,0.13 c-0.05,0.02-0.13,0.11-0.39,0.3c-0.26,0.19-0.18,0.4-0.18,0.4s-0.05,0.33-0.09,0.39c-0.05,0.06-0.23,0.17-0.23,0.17 s-0.17,0.18-0.22,0.19c-0.04,0-0.02-0.12,0.08-0.22c0.09-0.12-0.09-0.09-0.09-0.2c0-0.11,0.14-0.11,0.29-0.23 c0.14-0.12,0.19-0.4,0.24-0.43c0.06-0.04,0.15-0.22,0.13-0.29c-0.01-0.07,0.1-0.21,0.18-0.35c0.06-0.12,0.1-0.08,0.15-0.09 c0.06-0.01,0.07-0.07,0.07-0.18c0-0.12-0.45,0.37-0.45,0.37s-0.28,0.6-0.34,0.67c-0.04,0.06-0.3,0.38-0.35,0.52 c-0.05,0.15-0.49,0.53-0.54,0.64c-0.04,0.08-0.24,0.09-0.3,0.12c-0.07,0.04,0.09,0.14,0.17,0.28c0.09,0.13-0.18,0.1-0.31-0.06 c-0.14-0.14-0.2,0.14-0.2,0.14s-0.11,0.14-0.22,0.11c-0.11-0.03-0.14,0.04-0.25,0.2c-0.11,0.14-0.13,0.1-0.26,0.09 c-0.14,0.01-0.1,0.17-0.19,0.26c-0.1,0.11-0.2,0.15-0.25,0.15c-0.04-0.02-0.1,0.12-0.14,0.18c-0.03,0.06-0.08,0.06-0.08-0.11 c-0.01-0.15,0.18-0.07,0.22-0.15c0.04-0.08,0.1-0.16,0.16-0.19c0.06-0.03,0.13-0.09,0.15-0.14c0.03-0.06,0.13-0.09,0.2-0.11 c0.08-0.02,0.05-0.05,0.06-0.12c0.02-0.07,0.12-0.07,0.17-0.11c0.04-0.03,0.24-0.24,0.32-0.33c0.09-0.08,0.74-0.64,0.78-0.71 c0.05-0.08,0.19-0.27,0.19-0.27s-0.02-0.01-0.03-0.11c-0.01-0.1,0.06-0.1,0.12-0.2c0.06-0.12-0.23,0.17-0.32,0.19 c-0.08,0.01-0.09-0.11-0.15-0.05c-0.05,0.07-0.22,0.19-0.31,0.1c-0.09-0.11,0.09-0.44,0.06-0.49c-0.04-0.06-0.19,0.19-0.31,0.08 c-0.1-0.12-0.1-0.17-0.15-0.21c-0.05-0.04-0.08-0.18-0.04-0.42c0.04-0.23,0.11-0.19,0.14-0.23c0.04-0.05,0.08-0.07,0.07-0.14 c-0.02-0.06,0.1-0.15,0.17-0.25c0.06-0.08,0.11-0.02,0.14,0.01c0.05,0.01,0.15-0.24,0.15-0.24s0.17-0.07,0.22-0.11 c0.06-0.04,0.08-0.09,0.05-0.11c-0.02-0.03-0.05-0.09-0.05-0.17c0.01-0.11-0.06,0.02-0.1,0.07c-0.04,0.06-0.16,0.1-0.2,0.12 c-0.04,0-0.3,0.04-0.36,0c-0.06-0.03-0.04-0.12-0.02-0.18c0.01-0.04-0.12-0.07-0.14-0.13c-0.01-0.05,0.14-0.05,0.28-0.18 c0.13-0.13,0.38-0.39,0.38-0.39s0.02,0.02,0.16,0.1c0.14,0.1,0.18-0.12,0.18-0.17c0.01-0.04-0.03-0.05-0.01-0.12 c0.03-0.09-0.16,0-0.16,0s-0.08-0.11-0.07-0.2c0.01-0.07-0.24-0.16-0.27-0.19c-0.02-0.02,0.07-0.14,0.11-0.19 c0.03-0.06,0.32-0.22,0.35-0.24c0.04-0.01,0.2-0.24,0.26-0.34c0.07-0.11,0.19-0.23,0.27-0.27c0.09-0.05,0.29-0.23,0.31-0.27 c0.03-0.03,0.07-0.05,0.11-0.08c0.02-0.02,0.04-0.03,0.05,0.01c0.01,0.03,0.31-0.21,0.43-0.3c0.1-0.07,0.21-0.01,0.24,0 c0.04-0.02,0.04,0.05,0.03,0.07c-0.01,0.02-0.02,0.14,0,0.14c0.02,0,0.01-0.02,0.03-0.06c0.01-0.04,0.04-0.11,0.2-0.2 c0.17-0.09,0.14,0.11,0.15,0.18c0.01,0.06,0.12-0.08,0.18-0.13c0.06-0.03,0.38,0.08,0.38,0.08s0.15-0.03,0.2-0.08 c0.07-0.07,0.15,0.02,0.21,0.06c0.06,0.05,0.06-0.01,0.3-0.13c0.24-0.12,0.25,0.08,0.25,0.08s0.35,0,0.51-0.02 c0.16,0,0.46,0.28,0.46,0.28s0.18,0.07,0.23,0.02c0.03-0.03,0.04-0.12,0.01-0.25c-0.02-0.13,0.11-0.14,0.22-0.16 c0.08-0.01,0.14,0.17,0.09,0.25c-0.06,0.07,0.18,0.11,0.18,0.11s0.18-0.21,0.29-0.36c0.12-0.16,0.17-0.13,0.24-0.26 c0.08-0.13,0.25,0.06,0.39-0.02c0.14-0.08,0.15-0.13,0.1-0.19c-0.03-0.07-0.02-0.13,0.09-0.19c0.1-0.06,0.27,0.44,0.3,0.47 c0.03,0.04,0.23-0.26,0.31-0.36c0.08-0.1,0.1,0.3,0.17,0.33c0.06,0.02,0.15-0.07,0.25-0.18c0.11-0.11,0.86,0.2,0.97,0.26 c0.08,0.06,0.19-0.03,0.42-0.04c0.2,0,0.29,0.24,0.29,0.24s-0.06,0.13-0.2,0.18c-0.14,0.05-0.05,0.11,0,0.13 c0.05,0.01,0.77-0.03,0.77-0.03c0.1-0.04,0.1-0.04,0.21-0.09c0,0,0.08,0.01,0.21,0.09c0.15,0.08,0.26,0.33,0.34,0.46 c0.09,0.13,0.2-0.17,0.24-0.22c0.07-0.05-0.09-0.21-0.15-0.29c-0.07-0.08,0.16-0.19,0.25-0.34c0.09-0.15,0.47,0.1,0.6,0.19 c0.14,0.09,0.95,0.07,1.05,0.12c0.08,0.04-0.01-0.12-0.02-0.18c0-0.06,0.22-0.1,0.33-0.17c0.09-0.06-0.1-0.03-0.11-0.07 c-0.01-0.03-0.09,0.04-0.34-0.15c-0.25-0.18,0.27-0.31,0.27-0.31s0.02-0.02,0.16-0.16c0.16-0.14,0.37,0.18,0.37,0.32 c-0.01,0.14-0.1,0.29-0.2,0.29c-0.1,0-0.14,0.07,0.02,0.14c0.14,0.08-0.01,0.25-0.01,0.32c-0.01,0.07,0.16,0.17,0.27,0.17 c0.12,0.01-0.04-0.16-0.06-0.21c-0.03-0.07,0.2-0.14,0.31-0.24c0.11-0.1,0.08-0.5,0.11-0.58c0.05-0.08-0.55-0.32-0.54-0.39 c0-0.06,0.01-0.06,0.09-0.18c0.05-0.11-0.08-0.1-0.1-0.24c-0.02-0.14,0.14-0.14,0.15-0.18c0.02-0.04,0.15-0.15,0.2-0.26 c0.05-0.11-0.08-0.24-0.08-0.29c0-0.05,0.01-0.21,0.04-0.31c0.05-0.11-0.06-0.11-0.07-0.19c0.01-0.08,0.35-0.16,0.41-0.17 c0.07-0.02,0.15-0.03,0.27,0c0.12,0.03,0.37-0.07,0.49,0.01c0.11,0.08-0.16,0.18-0.21,0.2c-0.05,0.03-0.16,0.3-0.16,0.34 c0,0.03-0.04,0.22-0.16,0.14c-0.15-0.06,0-0.14-0.38-0.08c-0.36,0.05,0.04,0.1,0.15,0.19c0.11,0.1,0,0.08-0.2,0.28 c-0.2,0.2,0.36,0.61,0.41,0.66c0.04,0.05,0.01,0.13-0.08,0.27c-0.09,0.15,0.32,0.15,0.44,0.24c0.1,0.08,0.05,0.25,0.03,0.39 c-0.04,0.14,0.04,0.1,0.13,0.15c0.11,0.06,0.1-0.44,0.11-0.45c0.02-0.02,0.38,0.09,0.41,0.18c0.02,0.1-0.02,0.21-0.1,0.33 c-0.11,0.12,0.2,0.43,0.27,0.4c0.07-0.03,0.06-0.14,0.15-0.23c0.11-0.1,0.04-0.22,0.08-0.32c0.03-0.1,0.25-0.1,0.28-0.15 c0.02-0.05-0.08-0.07-0.13-0.11c-0.06-0.04,0-0.34,0-0.34s-0.86-0.44-0.95-0.49c-0.1-0.03,0.34-0.06,0.46-0.1 c0.13-0.05-0.37-0.08-0.5-0.14c-0.12-0.06-0.12-0.29-0.13-0.5c0-0.2,0.27-0.48,0.33-0.57c0.06-0.1,0.73-0.14,0.8-0.12 c0.06,0.03-0.36,0.41-0.44,0.46c-0.09,0.05,0.1,0.14,0.1,0.17c0,0.02-0.1,0.05-0.08,0.12c0.01,0.07,0.21,0.33,0.23,0.44 c0,0.1,0.25,0.19,0.27,0.19c0.04,0,0.04-0.2,0.04-0.27c0.01-0.05-0.06-0.14-0.09-0.19c-0.03-0.04,0.07-0.07,0.11-0.11 c0.04-0.04-0.15-0.2-0.23-0.28c-0.09-0.08,0.64-0.47,0.69-0.45c0.05,0.01,0.2,0.41,0.27,0.49c0.05,0.08-0.07,0.32-0.05,0.39 c0.02,0.06,0.16-0.07,0.2-0.17c0.02-0.1,0.06,0.02,0.21,0.13c0.15,0.12,0.18-0.09,0.18-0.18c0.02-0.1,0.16-0.13,0.21-0.18 c0.04-0.05-0.23-0.06-0.23-0.06s-0.46-0.22-0.51-0.27c-0.06-0.06,0.41-0.03,0.58-0.01c0.15,0.02,0.31,0.24,0.26,0.29 c-0.06,0.05-0.07,0.11-0.01,0.13c0.06,0.03,0.17,0.14,0.28,0.21c0.12,0.08,0.03,0.16,0.07,0.27c0.04,0.12,0.16,0.14,0.22,0.2 c0.09,0.06,0.21,0.14,0.25-0.11c0.04-0.26,0.29,0.09,0.35,0.19c0.05,0.09-0.05,0.05-0.2,0.11c-0.17,0.07,0.2,0.21,0.25,0.18 c0.05-0.02,0.3,0.02,0.47,0.13c0.16,0.12-0.09,0.04-0.19,0.15c-0.08,0.13,0.19,0.07,0.19,0.07s0.18-0.13,0.37-0.01 c0.2,0.13-0.17,0.09-0.23,0.21c-0.06,0.11,0.04,0.25,0.13,0.34c0.08,0.09,0.84,0.61,0.91,0.69c0.09,0.08,0.49,0.27,0.59,0.39 c0.1,0.13-0.06,0.18-0.15,0.25c-0.09,0.07-0.01,0.44-0.06,0.57c-0.04,0.13-0.25-0.15-0.33-0.21c-0.09-0.07-0.09-0.09-0.11-0.24 c-0.03-0.15-0.36-0.26-0.54-0.38c-0.17-0.11,0.14,0.63,0.25,0.74c0.12,0.13,0.59,0.48,0.66,0.59c0.07,0.11-0.21,0.17-0.26,0.19 c-0.04,0.01,0.17,0.25,0.15,0.38c-0.02,0.14-0.88-0.69-1.03-0.71c-0.13-0.03,0.66,0.72,0.71,0.75c0.04,0.02-0.65-0.09-0.75-0.18 c-0.09-0.09-0.23-0.02-0.34-0.08c-0.12-0.04-0.28-0.34-0.33-0.41c-0.04-0.07-0.25-0.07-0.25-0.18c-0.01-0.12-0.15-0.13-0.29-0.32 c-0.13-0.18-0.73,0.29-0.86,0.21c-0.11-0.07,0.13-0.23,0.17-0.51c0.02-0.29,0.37-0.11,0.66-0.1c0.31,0.02,0.01-0.06,0.01-0.29 c0.02-0.21,0.09-0.23,0.27-0.2c0.18,0.02,0.36,0.21,0.46,0.32c0.11,0.11,0.19-0.05,0.27-0.17c0.09-0.11-0.68-0.2-0.68-0.2 s-0.15-0.07-0.12-0.22c0.02-0.14-0.94-1.2-1.14-1.41c-0.19-0.21-0.35,0.01-0.33,0.15c0,0.13-0.3,0.01-0.31-0.15 c-0.02-0.16-0.78,0.07-0.83,0.08c-0.06,0.01,0.49,0.25,0.64,0.35c0.16,0.09-0.04,0.48-0.04,0.48s0.15,0.59,0.03,0.6 c-0.11,0.03-0.14,0.2-0.15,0.37c-0.01,0.17-0.22,0.14-0.3,0.23c-0.09,0.08,0.4,0.22,0.64,0.44c0.22,0.22,0.32,0.35,0.3,0.41 c0,0.07-0.51-0.08-0.66-0.24c-0.16-0.16-0.16,0.24-0.31,0.39c-0.16,0.16-0.12,0.08-0.19-0.05c-0.08-0.13-0.35-0.09-0.4-0.14 c-0.06-0.05,0.19-0.41,0.14-0.52c-0.05-0.11-0.22,0.18-0.25,0.25c-0.03,0.07-0.3,0.12-0.37,0.15c-0.07,0.03-0.07,0.07-0.19,0.15 c-0.11,0.07-0.05,0.18-0.05,0.18s-0.59,0.58-0.8,0.79c-0.22,0.21-0.23,0.58-0.27,0.83c-0.04,0.24,0.21,1.01,0.37,1.08 c0.16,0.07,0.25-0.59,0.37-0.5c0.11,0.11,0.09-0.34,0.27-0.45c0.17-0.13,0.69,0.02,0.83,0.12c0.13,0.11,0.77,1.31,0.96,1.31 c0.19,0,0.24,0.17,0.36,0.34c0.11,0.17-0.06,0.11-0.09,0.23c-0.03,0.11,0.03,0.14,0.1,0.21c0.08,0.08-0.07,0.06-0.09,0.16 c-0.03,0.09,0.13,0.1,0.23,0.24c0.11,0.14,0.17,0.3,0.37,0.35c0.19,0.04,0.16-0.32,0.16-0.42c0.01-0.09-0.1-0.27-0.09-0.33 c0.01-0.06,0.01-0.31-0.03-0.41c-0.03-0.08,0.08-0.13,0.17-0.19c0.09-0.07,0.37-0.36,0.44-0.62c0.07-0.24,0.07-0.43-0.36-0.83 c-0.41-0.39,0.02-0.34,0.06-0.44c0.05-0.09,0-0.17-0.06-0.28c-0.07-0.11-0.08-0.12,0-0.21c0.08-0.1-0.05-0.45,0-0.58 c0.06-0.13,0.29-0.08,0.35-0.08c0.07,0,0.2,0.07,0.3,0.11c0.1,0.03,0.04-0.06,0.06-0.11c0-0.07,0.26,0.01,0.32,0.05 c0.06,0.04,0.3,0.31,0.33,0.43c0.02,0.12,0.47,0.24,0.57,0.32c0.12,0.08,0.11,0.51,0.09,0.61c-0.01,0.1,0.19,0.3,0.38,0.42 c0.19,0.11,0.55-0.61,0.6-0.78c0.04-0.18,0.37,0.41,0.37,0.41s0.33,0.69,0.4,0.78c0.08,0.09-0.04,0.23-0.04,0.23 s0.31,0.41,0.4,0.55c0.08,0.13,0.3,0.13,0.48,0.31c0.18,0.19-0.29,0.31-0.42,0.43c-0.12,0.11,0.39-0.17,0.49-0.24 c0.1-0.06,0.32,0.15,0.47,0.27c0.14,0.13-0.04,0.39-0.04,0.41c0.01,0.02,0.17,0.33,0.15,0.38c-0.02,0.05-0.12,0.23-0.18,0.29 c-0.06,0.07,0.04,0.19,0.19,0.26c0.15,0.08,0.6,0.35,0.67,0.55c0.06,0.2,0.03,0.3-0.02,0.4c-0.05,0.1-0.17,0.09-0.17,0.09 s-0.13-0.06-0.18-0.13c-0.05-0.07-0.1,0.06-0.17,0.21c-0.08,0.13-0.18,0.05-0.37-0.12c-0.2-0.16,0.18-0.14,0.21-0.2 c0.03-0.06-0.67-0.14-0.75-0.22c-0.08-0.1,0.34-0.97,0.29-1.12c-0.04-0.16-0.5,0.35-0.6,0.43c-0.1,0.08-0.38-0.05-0.54-0.09 c-0.16-0.05,0.24,0.24,0.3,0.38c0.05,0.12-0.22,0.01-0.3-0.08c-0.09-0.09-0.18-0.16-0.21-0.23c-0.02-0.06-0.66,0.01-0.69,0.13 c-0.03,0.12,0.74,0.1,0.72,0.16c-0.02,0.07,0,0.22-0.01,0.38c-0.01,0.18-0.15,0.01-0.15,0.01s-0.1,0.1-0.09,0.3 c0,0.19,0.16,0.01,0.16,0.01c0.25,0.13,0.25,0.13,0.51,0.26c0,0,0.21-0.24,0.29-0.34c0.09-0.08,0.19,0.28,0.26,0.42 c0.08,0.14-0.19,0.15-0.3,0.22c-0.12,0.07-0.28,0.14-0.58,0.29c-0.31,0.15-0.3,0.26-0.44,0.31c-0.15,0.04-0.14-0.09-0.16-0.25 c-0.03-0.17,0.17-0.28,0.22-0.36c0.05-0.09-0.76,0.34-0.87,0.48c-0.12,0.14-0.3,0.33-0.37,0.47c-0.07,0.13,0.27,0.09,0.27,0.21 c0.01,0.12-0.27,0.04-0.34,0.13c-0.07,0.08-0.48,0.2-0.57,0.25c-0.09,0.05-0.17,0.33-0.23,0.42c-0.06,0.09-0.14,0.19-0.16,0.31 c-0.03,0.1-0.13,0.22-0.14,0.33c-0.01,0.1,0.12,0.25,0.11,0.33c-0.02,0.08-0.34,0.26-0.51,0.34c-0.18,0.07-0.65,0.57-0.74,0.61 c-0.09,0.05-0.14,0.39-0.14,0.6c-0.01,0.19,0.2,0.36,0.22,0.5c0.02,0.14,0.08,0.32,0.08,0.48c0,0.15-0.04,0.38-0.09,0.42 c-0.05,0.03-0.19-0.03-0.22-0.07c-0.03-0.03-0.17-0.2-0.27-0.38c-0.09-0.17-0.05-0.25-0.06-0.37c-0.02-0.13-0.16-0.19-0.23-0.28 c-0.08-0.08-0.13-0.04-0.23-0.06c-0.12-0.02-0.44,0.05-0.55-0.13c-0.11-0.18-0.15-0.05-0.32-0.11c-0.16-0.06-0.23,0.13-0.26,0.17 c-0.02,0.05-0.1,0.1-0.27,0.14c-0.16,0.03-0.37-0.12-0.52-0.15c-0.16-0.05-0.31,0.06-0.45-0.01c-0.14-0.06-0.23,0.15-0.26,0.16 c-0.03,0-0.38,0.15-0.47,0.27c-0.09,0.12,0.02,0.48,0.07,0.54c0.05,0.06-0.05,0.11-0.12,0.21c-0.07,0.11-0.11,0.16-0.03,1.02 c0.08,0.84,1.07,0.73,1.25,0.73c0.18,0,0.34-0.58,0.36-0.72c0.03-0.15,0.83-0.24,0.96-0.13c0.14,0.12-0.26,0.94-0.34,0.96 c-0.08,0.03,0.09,0.34,0.28,0.47c0.19,0.14,0.95,0.31,0.97,0.4c0.02,0.09-0.12,0.73-0.12,0.87c0,0.15,0.31,0.25,0.62,0.39 c0.31,0.14,0.19-0.13,0.34-0.11c0.14,0.03,0.4,0.11,0.45,0.16c0.06,0.07,0.33,0.03,0.47-0.33c0.14-0.37,0.39-0.34,0.52-0.31 c0.12,0.04,0.49-0.31,0.49-0.31s0.1,0.25,0.15,0.3c0.04,0.05,0.09-0.19,0.09-0.19s0.81,0.01,0.85,0.01 c0.04,0.01,0.15,0.15,0.09,0.17c-0.06,0,0.24,0.09,0.35-0.03c0.11-0.12,0.25,0.04,0.39,0.14c0.15,0.1,0.42-0.09,0.56-0.17 c0.12-0.09,0.04,0.28-0.11,0.39c-0.14,0.1,0.55,0.54,0.66,0.68c0.12,0.14,0.04,0.31,0.03,0.46c-0.02,0.15,0.1,0.63,0.2,0.68 c0.1,0.07,0.11-0.11,0.2-0.2c0.09-0.08,0.27,0.09,0.37,0.13c0.09,0.04,0.24-0.47,0.37-0.58c0.12-0.12,0.2,0.38,0.23,0.45 c0.03,0.05,0.19,0.15,0.18,0.23c-0.01,0.09-0.19,0.27-0.26,0.31c-0.07,0.04-0.17,0.19-0.13,0.23c0.02,0.04,0.23-0.04,0.3-0.1 c0.08-0.07,0.26-0.18,0.33-0.11c0.06,0.07-0.19,0.33-0.16,0.42c0.06,0.08,0.42-0.42,0.5-0.49c0.08-0.07,0.32,0.14,0.36,0.16 c0.03,0.01,0.04,0.17,0.04,0.23c0,0.08,0.05,0.02,0.1-0.05c0.05-0.08,0.15,0.03,0.23,0.08c0.08,0.05,0.51-0.05,0.65-0.04 c0.13,0.01,0.2,0.13,0.3,0.23c0.1,0.11,0.13,0.08,0.22,0.14c0.09,0.06,0.28,0.1,0.3,0.16 C159.62,273.79,159.59,273.95,159.57,274.16z M150.5,254.25c-0.05,0.04-0.08,0.02-0.14-0.05c0,0-0.02-0.04,0-0.05 c0-0.01,0.04-0.04,0.06-0.05c0.02-0.01,0.05-0.01,0.12-0.02C150.61,254.07,150.56,254.21,150.5,254.25z M150.47,252.16 c0,0,0-0.03,0.01-0.04c0.01-0.01,0.03-0.01,0.05,0.01c0.01,0.01,0.01,0.08,0.03,0.01c0.03-0.05,0.14-0.06,0.23-0.09 c0.1-0.03,0.2,0.2,0.18,0.31c-0.02,0.11-0.17,0.18-0.38,0.1C150.36,252.38,150.44,252.26,150.47,252.16z M150.01,254.91 c-0.06,0.04-0.08-0.04-0.08-0.13c0,0,0.03-0.09,0.11-0.16c0.08-0.07,0.05,0.02,0.1,0.11C150.19,254.83,150.07,254.87,150.01,254.91 z M149.29,254.64c-0.07,0.07-0.23,0.17-0.34-0.07c0,0,0.16-0.06,0.2-0.16c0.02-0.1,0.16-0.09,0.33-0.04 C149.66,254.42,149.37,254.58,149.29,254.64z M152.96,268.63c0.04,0.04-0.4,0.11-0.5,0.1c-0.1-0.02-0.11,0.1-0.13,0.16 c-0.02,0.05-0.26-0.03-0.39-0.08c-0.13-0.06-0.29,0.03-0.43-0.13c-0.14-0.15,0.39-0.21,0.47-0.28c0,0,0.11,0.07,0.17-0.01 c0.06-0.09,0.11-0.06,0.28-0.07C152.61,268.3,152.93,268.59,152.96,268.63z M149.46,267.93c-0.16-0.02-0.26-0.07-0.3-0.09 c-0.03-0.01,0.04-0.09,0.03-0.11c0.06-0.05,0.54-0.44,0.68-0.3c0.15,0.14,0.5,0.1,0.62,0.14c0.11,0.04,0.66,0.26,0.75,0.39 c0.09,0.14,0.29,0.26,0.14,0.33c-0.15,0.08-0.56,0.1-0.73-0.05c-0.16-0.16-0.4-0.34-0.56-0.35c-0.16-0.01-0.53-0.1-0.58-0.05 C149.48,267.87,149.62,267.95,149.46,267.93z M159.75,252.32c0.08,0.07-0.11,0.06-0.16,0.09c-0.05,0.03,0.06,0.2,0.2,0.19 c0.14-0.01,0.51,0.28,0.51,0.28s-0.79,0.42-0.94,0.41c-0.15,0.01-0.37-0.29-0.37-0.29s0.04,0.12,0.14,0.25 c0.11,0.14-0.29,0.54-0.37,0.58c-0.08,0.04-0.03,0.23-0.16,0.07c-0.13-0.16-0.31,0.22-0.41,0.21c-0.09,0-0.15,0.32-0.08,0.5 c0.06,0.16-0.16,0.34-0.27,0.48c-0.12,0.15-0.17,1.16-0.17,1.16c0.01,0.01-0.08,0.03-0.08,0.03s-0.14-0.16-0.2-0.32 c-0.07-0.16-0.13-0.03-0.21-0.15c-0.07-0.12-0.32,0.05-0.37-0.07c-0.06-0.11,0.09-0.01,0.12-0.18c0.01-0.18-0.78-0.96-0.9-1.12 c-0.11-0.17-0.09-0.22,0.23-0.26c0.33-0.04-0.18-0.18-0.27-0.29c-0.08-0.09-0.38-0.38-0.39-0.47c-0.02-0.1-0.3-0.53-0.28-0.61 c0.02-0.09,0.04-0.3,0.17-0.38c0.14-0.06,0.24-0.15,0.2-0.32c-0.03-0.16,0.08-0.19,0.06-0.3c-0.02-0.12-0.06-0.11-0.26-0.19 c-0.22-0.09,0.04,0.22,0.04,0.22c-0.09,0.13-0.09,0.13-0.18,0.27c0,0-0.39-0.4-0.44-0.52c-0.03-0.1,0.38,0.05,0.35-0.03 c-0.04-0.09-0.4-0.17-0.35-0.23c0.04-0.06,0.15-0.16,0.41,0.04c0.23,0.19,0.31,0.17,0.29,0.06c-0.03-0.11-0.17-0.23-0.23-0.44 c-0.06-0.2-0.21-0.11-0.33-0.11c-0.14,0.01-0.29,0.14-0.36,0.02c-0.08-0.12-0.05-0.14-0.02-0.2c0.04-0.06,0.18-0.01,0.08-0.14 c-0.12-0.12,0.01-0.06,0.05-0.14c0.05-0.07-0.01-0.01-0.17-0.19c-0.17-0.19-0.32-0.12-0.24-0.2c0.09-0.09-0.14-0.25-0.16-0.29 c-0.02-0.04-0.14-0.18-0.19-0.23c-0.05-0.05-0.11-0.19-0.15-0.33c-0.02-0.13-0.19-0.15-0.41-0.3c-0.2-0.15-0.5-0.25-0.63-0.31 c-0.14-0.06-0.3,0.08-0.65,0.03c-0.33-0.04-0.53-0.13-0.67-0.24c-0.15-0.1-0.04-0.07-0.15-0.19c-0.12-0.12-0.26-0.14-0.27-0.22 c-0.02-0.08,0.25,0.02,0.25-0.03c0.03-0.04,0.1,0.04,0.17-0.05c0.06-0.09,0.28,0.04,0.38,0.01c0.11-0.04-0.14-0.07-0.17-0.1 c-0.05-0.02-0.27,0.05-0.37,0.06c-0.12,0.02-0.26-0.05-0.16-0.06c0.1-0.01,0.08-0.01-0.02-0.14c-0.11-0.13-0.35-0.17-0.46-0.29 c-0.09-0.11,0.41-0.13,0.5-0.14c0.1-0.01,0-0.08,0.17-0.06c0.18,0.03,0.39,0.04,0.44,0.01c0.07-0.02,0.11-0.05,0.2-0.06 c0.06-0.01-0.09-0.06-0.17-0.13c-0.11-0.06,0.1,0,0.15-0.03c0.05-0.02,0.07,0-0.12-0.05c-0.19-0.05-0.33,0-0.47-0.07 c-0.17-0.06-0.11-0.05-0.15-0.08c-0.01-0.03-0.05-0.05,0.04-0.09c0.09-0.03,0.08,0.03,0.12,0.03c0.02-0.01,0.19-0.05,0.28-0.07 c0.09-0.03,0.19,0,0.19-0.02c-0.02-0.02,0.19,0.06,0.31,0.09c0.1,0.03-0.13-0.07-0.13-0.08c0.03,0.01,0.07-0.01,0.01-0.02 c-0.04-0.01-0.15-0.05-0.21-0.07c-0.08-0.03,0.12,0.02,0.1,0.01c-0.02-0.01,0-0.01,0.12,0.02c0.08,0.02,0.27,0.09,0.42,0.14 c-0.15-0.06-0.34-0.14-0.32-0.14c0.01,0,0.26,0.06,0.34,0.09c0.06,0.01,0.08,0.01,0.2,0.05c0.04,0.01,0.05,0.02,0.07,0.02h0.01 h0.01l-0.01,0.01c0.03,0,0.03,0,0.06,0.01c0.06,0.02,0.08,0.03,0.17,0.06h0.01c0.03,0.01,0.07,0.02,0.1,0.03l0.01,0.01 c0.09,0.03,0.13,0.05,0.12,0.05c0,0,0.21,0.07,0.28,0.1c0.08,0.03,0.02,0.01,0.04,0.01c0.02,0-0.08-0.03-0.19-0.07 c-0.07-0.03-0.1-0.04-0.1-0.04c0.21,0.07,0.42,0.14,0.64,0.23c0.01,0.01,0.01,0.01,0.01,0.01c0.07,0.03,0.19,0.07,0.26,0.1 c0.01,0,0.02,0.01,0.02,0.01c-0.02-0.01-0.04-0.02-0.06-0.02c0-0.01-0.01-0.01-0.01-0.01c0.03,0.01,0.07,0.03,0.1,0.04 c0.01,0,0.01,0,0.03,0.01c0.03,0.01,0.03,0.01,0.02,0.01c1.41,0.56,2.74,1.28,3.98,2.12c0,0.01,0.19,0.15,0.21,0.16 c0.03,0.02-0.09-0.04-0.1-0.03c-0.01,0,0.05,0.05,0.18,0.16c0.13,0.1,0.06,0.06,0.01,0.04c-0.02,0,0.02,0.04,0.06,0.08 c0.03,0.05,0.11,0.08,0.13,0.09c0.04,0.02,0.11,0.05,0.13,0.06c0.01,0.02-0.01,0.05,0,0.07c0,0.02,0.17,0.11,0.18,0.12 c0.01,0.01,0.09,0.04,0.09,0.04s0.21,0.26,0.22,0.28c0.01,0.02-0.17-0.14-0.27-0.23c-0.11-0.09-0.15-0.05-0.16,0.01 c-0.01,0.05,0.16,0.14,0.19,0.17c0.03,0.02,0.46,0.44,0.49,0.49c0.03,0.06-0.31-0.21-0.38-0.26c-0.06-0.04,0.19,0.21,0.29,0.3 c0.12,0.1,0.27,0.26,0.25,0.25c-0.03-0.02-0.22-0.05-0.27-0.05c-0.06,0.01,0.24,0.24,0.27,0.26c0.02,0.01,0.14,0.19,0.14,0.19 s-0.17-0.02-0.28-0.13c-0.09-0.1-0.01,0.1-0.01,0.1s0.03,0.14-0.04,0.06c-0.06-0.07-0.29-0.1-0.29-0.1s0.31,0.27,0.42,0.38 c0.13,0.12,0.37,0.42,0.48,0.55c0.11,0.14-0.01,0.25-0.08,0.27c-0.08,0.02-0.23-0.2-0.23-0.2s-0.2-0.3-0.3-0.36 C159.6,252.1,159.66,252.25,159.75,252.32z M162.09,255.37c-0.02,0.08-0.32,0.27-0.32,0.27s-0.46-0.1-0.5-0.18 c-0.04-0.08-0.2-0.06-0.24-0.13c-0.05-0.08-0.02-0.08,0.01-0.19c0.03-0.09-0.13-0.07-0.25-0.17c0,0-0.08,0.02-0.12-0.05 c-0.04-0.08,0.25-0.09,0.25-0.09s-0.24-0.1-0.29-0.16c-0.03-0.04,0-0.27,0.13-0.38c0.12-0.1,0.16,0.18,0.16,0.18 s0.22,0.17,0.33,0.2c0.12,0.02,0.27-0.02,0.35-0.06c0.09-0.03,0.27,0.21,0.44,0.43C162.23,255.25,162.13,255.31,162.09,255.37z M164.23,276.13l0.01-0.04c0.02-0.02,0.05-0.07,0.08-0.12C164.29,276.02,164.27,276.08,164.23,276.13z M167.06,266.02 c0,0.05-0.01,0-0.01-0.04c0-0.06,0-0.16,0-0.14c0,0.05,0,0.18,0,0.2c0,0.03,0,0.04,0,0.14c0,0.09,0,0.27,0,0.32 c0,0.06-0.01,0.34-0.01,0.44c-0.17,3.21-1.11,6.23-2.63,8.87c0,0,0,0,0,0c0,0.01-0.01,0.02-0.01,0.03 c0.01-0.01,0.01-0.02,0.02-0.03c0.02-0.06,0.13-0.29,0.16-0.39c0.03-0.1,0.1-0.29,0.16-0.42c0.06-0.15,0.11-0.24,0.13-0.3 c0.01-0.04,0-0.08,0.03-0.14c0.01-0.04,0.06-0.19,0.06-0.23c-0.01-0.02-0.04-0.11,0-0.19c0.03-0.09,0.24-0.67,0.27-0.71 c0.01-0.03,0.17-0.29,0.19-0.38c0.02-0.1,0.03-0.2,0.03-0.22c0-0.05,0.02-0.14,0.03-0.18c0.02-0.04,0.04-0.09,0.03-0.11 c0-0.05,0-0.17,0.01-0.21c0-0.01,0.05-0.29,0.02-0.39c-0.03-0.11-0.17-0.15-0.1-0.34c0.06-0.18,0.14-0.46,0.15-0.52 c0.02-0.07,0.12-0.35,0.09-0.38c-0.04-0.05-0.07-0.12-0.11-0.09c-0.05,0.03-0.11,0.09-0.14,0.04c-0.03-0.04-0.07-0.26-0.12-0.26 c-0.04,0-0.16,0-0.16,0s-0.11,0.07-0.17,0.15c-0.07,0.09-0.21,0.28-0.3,0.26c-0.1-0.02-0.24-0.01-0.3,0.04 c-0.07,0.07-0.31,0.2-0.41,0.24c-0.1,0.02-0.65-0.6-0.7-0.74c-0.04-0.15-0.14-0.56-0.2-0.62c-0.05-0.06-0.27-0.16-0.25-0.32 c0.03-0.18,0.15-0.63,0.18-0.69c0.03-0.06,0.12-0.7,0.1-0.85c-0.02-0.17-0.07-0.49-0.03-0.53c0.04-0.05,0.34-0.84,0.46-1.01 c0.11-0.15,0.4-0.46,0.4-0.46s-0.02-0.1,0.04-0.28c0.06-0.16,0.07-0.36,0.15-0.48c0.07-0.13,0.18-0.25,0.25-0.4 c0.06-0.13,0.11-0.25,0.12-0.3c0-0.04,0.03-0.17,0.07-0.06c0.04,0.08,0.12,0.07,0.17,0.09c0.04,0,0.27,0,0.34-0.04 c0.06-0.03,0.17-0.19,0.22-0.21c0.05,0,0.23-0.08,0.37-0.06c0.12-0.02,0.31-0.09,0.37-0.04c0.06,0.08,0.12,0.14,0.1,0.19 c-0.01,0.04-0.06,0.12-0.01,0.29c0.05,0.15,0.06,0.36,0.08,0.45c0.03,0.1,0.04,0.11,0.1,0.13c0.06,0.01,0.09-0.07,0.14,0.09 c0.04,0.14,0.16,0.27,0.22,0.33c0.07,0.05,0.08-0.55,0.15-0.42c0.05,0.12,0.09,0.25,0.14,0.31c0.04,0.05,0.09,0.04,0.09,0.04 s0.01-0.18,0.03-0.04c0.02,0.14,0.02,0.16,0.03,0.12c0-0.04,0-0.09,0-0.11c0-0.24-0.01-0.47-0.02-0.71c0,0.06,0.01,0.16,0.01,0.27 c0,0.12,0.01,0.41,0.01,0.41s0,0.02,0,0.03c0,0.14,0.01,0.29,0.01,0.43c0,0.08,0,0.16,0,0.23c0-0.11,0-0.26,0-0.31 C167.06,265.72,167.06,265.96,167.06,266.02z"></path> <path id="Familia_2_" class="st0" d="M19.25,126.37h-6.98C3.6,126.37,0,122.98,0,116.21c0-6.77,3.6-10.15,12.27-10.15h6.98V90.61 c0-19.46,16.08-29.83,34.06-29.83c11.21,0,20.3,4.44,20.3,14.82c0,5.71-4.44,10.57-9.93,10.57c-2.34,0-4.45-0.64-6.77-0.64 c-4.45,0-6.76,2.97-6.76,7.19v13.33h9.51c9.1,0,13.96,2.75,13.96,10.15c0,7.4-4.86,10.16-13.96,10.16h-9.51v77.64 c0,10.15-6.14,15.44-15.46,15.44c-9.31,0-15.45-5.29-15.45-15.44V126.37z M174.54,186.87c0,12.91,3.18,15.87,3.18,20.73 c0,6.98-6.56,11.85-13.96,11.85c-13.33,0-17.77-8.46-18.2-17.98c-12.05,13.34-26.01,17.98-42.31,17.98 c-17.56,0-34.9-12.06-34.9-31.52c0-25.6,19.47-32.79,43.15-35.53l18.84-2.12c7.4-0.85,13.33-2.54,13.33-11.41 c0-8.9-9.11-12.71-19.46-12.71c-22.86,0-23.49,16.93-35.76,16.93c-7.83,0-13.11-5.5-13.11-11.85c0-12.26,17.35-27.92,49.08-27.92 c29.62,0,50.14,9.51,50.14,31.73V186.87z M143.65,164.66c-3.39,3.16-9.74,4.23-13.33,4.86l-11.22,1.69 c-12.91,1.91-19.89,5.93-19.89,15.23c0,6.98,6.56,12.7,17.14,12.7c16.92,0,27.29-11.01,27.29-22.43V164.66z M185.33,118.76 c0-9.32,5.5-15.45,14.6-15.45c9.1,0,14.59,6.13,14.59,15.45v4.01h0.43c8.04-12.26,21.58-19.46,37.24-19.46 c10.57,0,23.9,4.87,29.62,19.46c8.67-12.06,19.67-19.46,36.39-19.46c21.36,0,38.5,9.72,38.5,37.45v63.26 c0,8.24-3.38,15.44-15.44,15.44c-12.07,0-15.45-7.2-15.45-15.44v-55.44c0-11-4.87-19.89-16.92-19.89 c-11.85,0-22.43,9.52-22.43,23.91v51.41c0,8.24-3.39,15.44-15.44,15.44c-12.06,0-15.44-7.2-15.44-15.44v-55.44 c0-11-4.87-19.89-16.93-19.89c-11.85,0-22.43,9.52-22.43,23.91v51.41c0,8.24-3.39,15.44-15.45,15.44 c-12.04,0-15.44-7.2-15.44-15.44V118.76z M367.06,204.01c0,8.24,3.39,15.44,15.45,15.44c12.06,0,15.44-7.2,15.44-15.44v-71.79 c0-8.25-3.38-15.45-15.44-15.45c-12.06,0-15.45,7.2-15.45,15.45V204.01z M410.02,66.29c0-10.14,6.14-15.45,15.43-15.45 c9.32,0,15.45,5.3,15.45,15.45v137.72c0,10.15-6.12,15.44-15.45,15.44c-9.29,0-15.43-5.29-15.43-15.44V66.29z M596.82,186.87 c0,12.91,3.18,15.87,3.18,20.73c0,6.98-6.56,11.85-13.96,11.85c-13.33,0-17.77-8.46-18.19-17.98 c-12.06,13.34-26.04,17.98-42.32,17.98c-17.56,0-34.91-12.06-34.91-31.52c0-25.6,19.46-32.79,43.16-35.53l18.83-2.12 c7.4-0.85,13.33-2.54,13.33-11.41c0-8.9-9.1-12.71-19.47-12.71c-22.85,0-23.48,16.93-35.76,16.93c-7.82,0-13.11-5.5-13.11-11.85 c0-12.26,17.35-27.92,49.09-27.92c29.61,0,50.14,9.51,50.14,31.73V186.87z M565.94,164.66c-3.38,3.16-9.73,4.23-13.33,4.86 l-11.22,1.69c-12.91,1.91-19.88,5.93-19.88,15.23c0,6.98,6.55,12.7,17.13,12.7c16.93,0,27.3-11.01,27.3-22.43V164.66z M426.74,43.12c11.91,0,21.56-9.65,21.56-21.56C448.3,9.66,438.65,0,426.74,0c-11.91,0-21.56,9.66-21.56,21.56 C405.18,33.47,414.84,43.12,426.74,43.12z M382.58,106.55c8.91,0,16.14-7.23,16.14-16.15c0-8.91-7.23-16.14-16.14-16.14 c-8.92,0-16.15,7.23-16.15,16.14C366.43,99.32,373.66,106.55,382.58,106.55z M452.75,204.01c0,8.24,3.39,15.44,15.44,15.44 c12.06,0,15.44-7.2,15.44-15.44v-71.79c0-8.25-3.38-15.45-15.44-15.45c-12.05,0-15.44,7.2-15.44,15.45V204.01z M468.14,106.35 c8.86,0,16.05-7.19,16.05-16.06c0-8.86-7.19-16.05-16.05-16.05c-8.87,0-16.05,7.19-16.05,16.05 C452.08,99.16,459.27,106.35,468.14,106.35z"></path> </g> </svg> 