<?xml version="1.0" encoding="UTF-8"?> <svg xmlns="http://www.w3.org/2000/svg" xmlns:xlink="http://www.w3.org/1999/xlink" version="1.1" id="Layer_1" x="0px" y="0px" viewBox="0 0 609 413.35" style="enable-background:new 0 0 609 413.35;" xml:space="preserve"> <style type="text/css"> .st0{fill:#FFFFFF;} </style> <g id="Discovery_Life_Logo_2_"> <path id="E_2_" class="st0" d="M608.21,265.48H460.83c5.93,27.27,24.89,41.49,51.76,41.49c20.15,0,34.77-6.32,51.37-21.73 l34.38,30.43c-19.76,24.5-48.21,39.51-86.53,39.51c-63.62,0-110.64-44.65-110.64-109.45v-0.79c0-60.46,43.07-110.24,104.71-110.24 c70.73,0,103.13,54.92,103.13,114.99v0.79C609,256.39,608.6,259.95,608.21,265.48z M505.87,182.9c-24.89,0-41.09,17.78-45.84,45.04 h90.49C546.96,201.07,531.16,182.9,505.87,182.9z"></path> <path id="F_2_" class="st0" d="M352.78,128.31c0-8.66,7.02-15.68,15.68-15.68v-0.01h35.85V60.25l-16.04-1.51 c-44.61-2.95-94.71-2.83-94.71,72.1c0,3.16,0,6.67,0,10.47h-18.13v47.2h18.13c0,89.44,0,224.84,0,224.84h59.21 c0,0,0-121.83,0-216.9c0.11-4.16,3.31-7.55,7.4-7.94h37.5v-47.2h-44.9C352.77,136.77,352.77,132.42,352.78,128.31L352.78,128.31z"></path> <g id="I_4_"> <rect id="I_6_" x="183.59" y="138.26" class="st0" width="60.23" height="212.39"></rect> <path id="I_5_" class="st0" d="M243.78,61.66c-0.03,0-0.05,0-0.08,0h-40.03c-11.05,0-20.01,8.96-20.01,20.01v33.15 c0,0.05,0,0.1,0,0.16h60.11V61.66z"></path> </g> <path id="L_2_" class="st0" d="M76.7,294.88c-8.06,0-14.63-6.31-15.08-14.26V0H0v350.26h159.71v-55.32L76.7,294.88z"></path> <path id="Discovery_1_" class="st0" d="M92.31,37.61H77.97V0.83h14.35c11.56,0,19.55,7.94,19.55,18.29v0.11 C111.86,29.57,103.87,37.61,92.31,37.61z M103.4,19.22c0-6.51-4.47-11.08-11.09-11.08h-6.25v22.18h6.25 c6.62,0,11.09-4.47,11.09-10.98V19.22z M117.33,37.61V0.83h8.09v36.78H117.33z M145.6,38.14c-5.57,0-11.19-1.94-15.61-5.89 l4.78-5.73c3.31,2.73,6.78,4.47,10.98,4.47c3.31,0,5.31-1.31,5.31-3.47v-0.11c0-2.05-1.26-3.1-7.41-4.68 c-7.41-1.89-12.19-3.94-12.19-11.24v-0.11c0-6.67,5.36-11.09,12.87-11.09c5.36,0,9.93,1.68,13.66,4.68l-4.2,6.1 c-3.26-2.26-6.46-3.63-9.56-3.63c-3.1,0-4.73,1.42-4.73,3.2v0.11c0,2.42,1.58,3.21,7.93,4.83c7.46,1.94,11.67,4.62,11.67,11.04 v0.11C159.11,34.04,153.53,38.14,145.6,38.14z M181.28,38.24c-10.82,0-18.86-8.35-18.86-18.92v-0.11 c0-10.45,7.88-19.02,19.18-19.02c6.94,0,11.09,2.31,14.51,5.68l-5.15,5.94c-2.84-2.58-5.73-4.15-9.41-4.15 c-6.2,0-10.67,5.15-10.67,11.45v0.11c0,6.31,4.36,11.56,10.67,11.56c4.2,0,6.78-1.68,9.67-4.31l5.15,5.2 C192.58,35.72,188.37,38.24,181.28,38.24z M217.54,38.24c-11.35,0-19.5-8.46-19.5-18.92v-0.11c0-10.45,8.25-19.02,19.6-19.02 c11.35,0,19.49,8.46,19.49,18.92v0.11C237.14,29.68,228.89,38.24,217.54,38.24z M228.68,19.22c0-6.31-4.62-11.56-11.14-11.56 c-6.52,0-11.04,5.15-11.04,11.45v0.11c0,6.31,4.62,11.56,11.14,11.56c6.52,0,11.03-5.15,11.03-11.46V19.22z M258.74,37.88h-7.14 L236.72,0.83h8.93l9.62,25.91l9.62-25.91h8.72L258.74,37.88z M277.19,37.61V0.83h27.75v7.2h-19.7v7.46h17.34v7.2h-17.34v7.73h19.97 v7.2H277.19z M332.63,37.61l-7.88-11.77h-6.36v11.77h-8.09V0.83h16.81c8.67,0,13.87,4.57,13.87,12.14v0.1 c0,5.94-3.21,9.67-7.88,11.4l8.99,13.14H332.63z M332.79,13.39c0-3.47-2.42-5.25-6.36-5.25h-8.04V18.7h8.2c3.94,0,6.2-2.1,6.2-5.2 V13.39z M363.32,22.95v14.66h-8.09v-14.5L341.09,0.83h9.46l8.78,14.77l8.93-14.77h9.2L363.32,22.95z"></path> </g> </svg> 