<?xml version="1.0" encoding="UTF-8"?> <svg xmlns:cc="http://creativecommons.org/ns#" xmlns:dc="http://purl.org/dc/elements/1.1/" xmlns:inkscape="http://www.inkscape.org/namespaces/inkscape" xmlns:rdf="http://www.w3.org/1999/02/22-rdf-syntax-ns#" xmlns:sodipodi="http://sodipodi.sourceforge.net/DTD/sodipodi-0.dtd" xmlns:svg="http://www.w3.org/2000/svg" xmlns="http://www.w3.org/2000/svg" xmlns:xlink="http://www.w3.org/1999/xlink" version="1.1" id="Layer_1" inkscape:version="0.48.5 r10040" sodipodi:docname="A.svg" x="0px" y="0px" viewBox="0 0 600 69.6" style="enable-background:new 0 0 600 69.6;" xml:space="preserve"> <style type="text/css"> .st0{fill:#FFFFFF;} </style> <g> <polygon class="st0" points="59.6,68.4 37.1,53.6 2.3,68.3 22.8,44.3 0,29.3 35.5,29.3 59.6,1 59.6,29.3 94.1,29.3 59.6,44 "></polygon> <path class="st0" d="M102.4,14.8c1.2,0,2.2-1,2.2-2.2V3.2c0-1.2-1-2.2-2.2-2.2H65.5v13.8H102.4z"></path> <path class="st0" d="M102.4,68.5c1.2,0,2.2-1,2.2-2.2v-9.5c0-1.2-1-2.2-2.2-2.2H65.5v13.8H102.4z"></path> <path class="st0" d="M597.8,1h-46.1c-1.2,0-2.2,1-2.2,2.2v9.5c0,1.2,1,2.2,2.2,2.2h16.1v51.6c0,1.2,1,2.2,2.2,2.2h9.5 c1.2,0,2.2-1,2.2-2.2V14.8h16.1c1.2,0,2.2-1,2.2-2.2V3.2C600,1.9,599,1,597.8,1"></path> <path class="st0" d="M414,16.1c-1.1-3-2.7-5.6-4.8-7.9c-2.1-2.2-4.7-4-7.7-5.3c-3-1.3-6.5-2-10.2-2H366c-1.2,0-2.2,1-2.2,2.2v63.2 c0,1.2,1,2.2,2.2,2.2h9.5c1.2,0,2.2-1,2.2-2.2V50.2h13.4c3.8,0,7.2-0.6,10.2-1.9c3-1.3,5.6-3.1,7.7-5.3s3.8-4.8,4.9-7.7 c1.1-2.9,1.7-6.5,1.7-9.7C415.6,22.2,415.1,19.1,414,16.1 M400.9,29.9c-0.5,1.3-1.2,2.5-2.1,3.4c-0.9,0.9-1.9,1.6-3.1,2.1 c-1.2,0.5-3.3,0.8-7.4,0.8h-10.6V14.8h14c1.5,0,2.9,0.3,4.1,0.8c1.2,0.5,2.3,1.3,3.2,2.2c0.9,0.9,1.5,2,2,3.3 c0.5,1.4,0.7,2.8,0.7,4.3C401.7,27.1,401.4,28.5,400.9,29.9"></path> <path class="st0" d="M319.7,20.4c-0.1,1.4,0.3,2.3,0.8,3c0.6,0.9,1.4,1.6,2.5,2.1c1.2,0.6,2.6,1.1,4.2,1.4c1.7,0.4,3.5,0.7,5.3,1 c3.2,0.5,6.4,1.1,9.4,1.9c3.2,0.8,6,1.9,8.4,3.5c2.5,1.6,4.4,3.7,5.8,6.3c1.4,2.6,2.1,6,1.9,9.9c-0.2,3.8-1.1,7.1-2.9,9.8 c-1.8,2.6-4,4.7-6.7,6.3c-2.6,1.5-5.2,2.7-8.5,3.3c-3.2,0.6-6.7,0.8-9.8,0.6c-7.7-0.3-19-4.7-24.7-12.5c-0.4-0.6-1-1.7,0.2-2.9 c1.2-1.3,7.1-7.2,7.1-7.2c1.2-1.3,2.3-0.4,2.8,0.4c3.3,4.9,9.9,8.5,15.2,8.7c2.7,0.1,3.1,0,4.8-0.2c1.6-0.2,2.9-0.6,4.2-1.2 c1.2-0.5,2.2-1.3,3-2.3c0.7-0.9,1.1-2.2,1.3-3.8c0.1-1.4-0.3-2.6-1-3.6c-0.7-1-1.8-1.8-3-2.5c-1.4-0.7-2.9-1.2-4.7-1.5 c-1.9-0.3-3.7-0.6-5.5-0.9c-3-0.4-5.9-1-8.7-1.8c-2.9-0.8-5.6-2-7.8-3.5c-2.3-1.6-4.2-3.6-5.6-6c-1.4-2.5-2.1-5.3-1.9-8.8 c0.2-3.6,1.1-6.7,2.6-9.3c1.6-2.6,3.6-4.7,6.2-6.4c2.5-1.6,5.3-2.8,8.4-3.5c6.1-1.4,12.1-1.1,18.1,0.8c6.5,2.1,11.7,7,14.1,10.6 c0.4,0.6,0.9,1.7-0.1,2.7c-0.9,1.1-6.7,6.7-6.7,6.7c-1.2,1.2-2.5,0.9-3.2-0.1c-3.5-5.2-8-7.5-13.3-7.8 C326.2,13.2,319.9,14.5,319.7,20.4"></path> <path class="st0" d="M290.7,9.1c-3.1-3-6.8-5.3-10.9-6.8c-4.1-1.5-8.5-2.3-13.1-2.3c-4.5,0-8.9,0.8-13,2.3c-4.2,1.6-7.9,3.8-11,6.8 c-3.1,3-5.7,6.7-7.5,11c-1.9,4.3-2.8,9.2-2.8,14.7c0,5.5,0.9,10.4,2.8,14.7c1.8,4.3,4.3,8,7.5,10.9s6.8,5.3,10.9,6.8 c4.1,1.5,8.5,2.3,13.1,2.3c5,0,9.7-0.8,13.9-2.5c4.2-1.7,7.9-4.1,10.9-7.2c3-3.1,5.4-6.8,7.1-11c1.7-4.2,2.5-9,2.5-14.1 c0-5.4-0.9-10.4-2.8-14.7C296.4,15.8,293.8,12.1,290.7,9.1 M285.2,44.1c-1.1,2.6-2.5,4.8-4.3,6.5c-1.8,1.8-4,3.1-6.4,4 c-2.5,0.9-5.1,1.4-7.9,1.4c-2.8,0-5.5-0.4-8-1.4c-2.4-0.9-4.5-2.2-6.3-4c-1.8-1.8-3.2-4-4.3-6.6c-1.1-2.6-1.6-5.8-1.6-9.3 c0-3.5,0.6-6.6,1.6-9.3c1.1-2.6,2.5-4.8,4.3-6.6c1.8-1.8,3.9-3.1,6.4-4c2.5-0.9,5.1-1.4,7.9-1.4c2.8,0,5.4,0.5,7.9,1.4 c2.4,0.9,4.5,2.3,6.3,4c1.8,1.8,3.3,4,4.3,6.6c1.1,2.6,1.6,5.7,1.6,9.2C286.8,38.4,286.2,41.5,285.2,44.1"></path> <path class="st0" d="M478.8,9.1c-3.1-3-6.8-5.3-10.9-6.8c-4.1-1.5-8.5-2.3-13.1-2.3c-4.5,0-8.9,0.8-13,2.3c-4.2,1.6-7.9,3.8-11,6.8 c-3.1,3-5.7,6.7-7.5,11c-1.9,4.3-2.8,9.2-2.8,14.7c0,5.5,0.9,10.4,2.8,14.7c1.8,4.3,4.3,8,7.5,10.9c3.1,3,6.8,5.3,10.9,6.8 c4.1,1.5,8.5,2.3,13.1,2.3c5,0,9.7-0.8,13.9-2.5c4.2-1.7,7.9-4.1,10.9-7.2c3-3.1,5.4-6.8,7.1-11c1.7-4.2,2.5-9,2.5-14.1 c0-5.4-0.9-10.4-2.8-14.7C484.4,15.8,481.9,12.1,478.8,9.1 M473.2,44.1c-1.1,2.6-2.5,4.8-4.3,6.5c-1.8,1.8-4,3.1-6.4,4 c-2.5,0.9-5.1,1.4-7.9,1.4c-2.8,0-5.5-0.4-8-1.4c-2.4-0.9-4.5-2.2-6.3-4c-1.8-1.8-3.2-4-4.3-6.6c-1.1-2.6-1.6-5.8-1.6-9.3 c0-3.5,0.6-6.6,1.6-9.3c1.1-2.6,2.5-4.8,4.3-6.6c1.8-1.8,3.9-3.1,6.4-4c2.5-0.9,5.1-1.4,7.9-1.4c2.8,0,5.4,0.5,7.9,1.4 c2.4,0.9,4.5,2.3,6.3,4c1.8,1.8,3.3,4,4.3,6.6c1.1,2.6,1.6,5.7,1.6,9.2C474.9,38.4,474.3,41.5,473.2,44.1"></path> <path class="st0" d="M163.1,1h-9.5c-1.2,0-2.2,1-2.2,2.2V45c0,1.8-0.3,3.3-0.9,4.7c-0.6,1.3-1.4,2.4-2.4,3.3 c-1,0.9-2.3,1.6-3.7,2.1c-1.5,0.5-4,0.8-5.7,0.8c-1.8,0-4.4-0.3-5.9-0.8c-1.5-0.5-2.8-1.2-3.8-2.1c-1-0.9-1.9-1.9-2.4-3.2 c-0.6-1.3-0.9-2.9-0.9-4.7V3.2c0-1.2-1-2.2-2.2-2.2h-9.5c-1.2,0-2.2,1-2.2,2.2v42.1c0,3.9,0.7,7.4,2.1,10.3c1.4,3,3.4,5.5,5.9,7.6 c2.5,2.1,5.3,3.6,8.6,4.7c3.2,1,6.7,1.6,10.3,1.6c3.6,0,7-0.5,10.2-1.6c3.2-1.1,6.1-2.6,8.5-4.7c2.4-2.1,4.4-4.7,5.8-7.6 c1.4-3,2.1-6.5,2.1-10.3V3.2C165.3,1.9,164.4,1,163.1,1"></path> <path class="st0" d="M229.8,64.8l-15.4-19.1c0,0,12.4-4.5,12.4-20.3c0-3.3-0.6-6.4-1.6-9.3c-1.1-3-2.7-5.6-4.8-7.9 c-2.1-2.2-4.7-4-7.7-5.3c-3-1.3-6.5-1.9-10.2-1.9h-25.1c-1.2,0-2.2,1-2.2,2.2v63.2c0,1.2,1,2.2,2.2,2.2h9.4c1.2,0,2.2-1,2.2-2.2 V14.8h14c1.5,0,2.9,0.3,4.1,0.8c1.2,0.5,2.3,1.3,3.2,2.2c0.9,0.9,1.5,2,2,3.3c0.5,1.3,0.7,2.8,0.7,4.3s-0.3,3-0.8,4.3 c-0.5,1.3-1.2,2.5-2.1,3.4c-0.9,0.9-1.9,1.6-3.1,2.1c-1.2,0.5-3.3,0.9-7.4,0.9h-5.9c-1.2,0-2.1,1.1-1.2,2.5l21.9,28.9 c0.4,0.6,1.1,0.9,1.8,0.9h12.1C230.3,68.5,231.4,66.9,229.8,64.8"></path> <path class="st0" d="M550.3,64.8l-15.4-19.1c0,0,12.4-4.5,12.4-20.3c0-3.3-0.6-6.4-1.6-9.3c-1.1-3-2.7-5.6-4.8-7.9 c-2.1-2.2-4.7-4-7.7-5.3c-3-1.3-6.5-2-10.2-2h-25.1c-1.2,0-2.2,1-2.2,2.2v63.2c0,1.2,1,2.2,2.2,2.2h9.4c1.2,0,2.2-1,2.2-2.2V14.8 h14c1.5,0,2.9,0.3,4.1,0.8c1.2,0.5,2.3,1.3,3.2,2.2c0.9,0.9,1.5,2,2,3.3c0.5,1.3,0.7,2.8,0.7,4.3s-0.3,3-0.8,4.3 c-0.5,1.3-1.2,2.5-2.1,3.4c-0.9,0.9-1.9,1.6-3.1,2.1c-1.2,0.5-3.3,0.9-7.4,0.9h-5.9c-1.2,0-2.1,1.1-1.2,2.5l21.9,28.9 c0.4,0.6,1.1,0.9,1.8,0.9H549C550.8,68.5,552,66.9,550.3,64.8"></path> </g> </svg> 