<?xml version="1.0" encoding="UTF-8"?> <svg xmlns="http://www.w3.org/2000/svg" xmlns:xlink="http://www.w3.org/1999/xlink" version="1.1" id="Layer_1" x="0px" y="0px" viewBox="0 0 400 374.26" style="enable-background:new 0 0 400 374.26;" xml:space="preserve"> <style type="text/css"> .st0{fill:#FFFFFF;} </style> <g id="FRII_Logo__x28_Finland_x29_"> <polygon class="st0" points="0,374.26 56.86,363.91 56.86,62.38 0,72.72 "></polygon> <polygon class="st0" points="271.31,324.96 328.17,314.61 328.17,13.07 271.31,23.42 "></polygon> <polygon class="st0" points="343.14,10.35 343.14,311.89 400,301.54 400,0 "></polygon> <path class="st0" d="M141.03,135.78l4.14-0.73V46.71L71.83,59.76l0.03,4.03C114.13,63.18,135.21,89.81,141.03,135.78z"></path> <path class="st0" d="M71.83,188.94v4.05c27.06-2.52,45.08,13.21,49.96,34.24l4.14-0.75v-87.93l-4.11,0.75 C117.24,158.17,101.25,180.5,71.83,188.94z"></path> <path class="st0" d="M184.78,170.56c89.71-24.62,93.15-129.83,12.29-131.9c-5.44-0.1-10.88,0.37-16.31,1.33v-0.02l-20.49,3.73 c1.38-0.1-0.13,0.04-0.13,0.04l0.03,3.33c31.24-1.53,42.49,30.85,42.49,53.66c0,24.94-5.75,65.68-61.76,75.53v4.07 c39.12-4.36,59.3,8.5,58.55,48.22v33.06c-0.56,42.25,7.54,66.26,46.1,67.08c3.41,0.07,7.25-0.31,10.79-0.92v-0.09v-86.22 c0-10.42,0.01-23.35-2.42-31.31C243.81,177.9,214.63,168.08,184.78,170.56z"></path> </g> </svg> 