<?xml version="1.0" encoding="UTF-8"?> <svg xmlns="http://www.w3.org/2000/svg" xmlns:xlink="http://www.w3.org/1999/xlink" version="1.1" id="Layer_1" x="0px" y="0px" viewBox="0 0 600 166.99" style="enable-background:new 0 0 600 166.99;" xml:space="preserve"> <style type="text/css"> .st0{fill:#FFFFFF;} </style> <g id="Frisbee_Logo__x28_Italy_x29_"> <path class="st0" d="M157.39,64.61c-0.96,0.48-1.65,0.48-2.14,1.43c-2.24,2.52-0.82,10.67,0.9,12.28 C167.88,78.73,170.16,64.14,157.39,64.61z M157.39,64.61c-0.96,0.48-1.65,0.48-2.14,1.43c-2.24,2.52-0.82,10.67,0.9,12.28 C167.88,78.73,170.16,64.14,157.39,64.61z M157.39,64.61c-0.96,0.48-1.65,0.48-2.14,1.43c-2.24,2.52-0.82,10.67,0.9,12.28 C167.88,78.73,170.16,64.14,157.39,64.61z M157.39,64.61c-0.96,0.48-1.65,0.48-2.14,1.43c-2.24,2.52-0.82,10.67,0.9,12.28 C167.88,78.73,170.16,64.14,157.39,64.61z M157.39,64.61c-0.96,0.48-1.65,0.48-2.14,1.43c-2.24,2.52-0.82,10.67,0.9,12.28 C167.88,78.73,170.16,64.14,157.39,64.61z M366.21,67.29c-0.97-4.84-5.58-5.02-11.57-4.8c-0.71,0.5-1.2,0.75-1.6,1.6 c-1.24,2.26-0.86,8.69,1.06,9.62c0.83,0.48,2.4,0.35,3.74,0.35C362.54,74.05,367.27,72.57,366.21,67.29z M367.82,96.48 c-1.15-5.66-6.21-5.55-13.18-5.33c-0.67,0.53-1.2,0.75-1.6,1.6c-1.39,2.65-0.55,8.84,0.71,10.68 C359.96,105.27,369.25,103.54,367.82,96.48z M367.82,96.48c-1.15-5.66-6.21-5.55-13.18-5.33c-0.67,0.53-1.2,0.75-1.6,1.6 c-1.39,2.65-0.55,8.84,0.71,10.68C359.96,105.27,369.25,103.54,367.82,96.48z M354.11,73.7c0.83,0.48,2.4,0.35,3.74,0.35 c4.69,0,9.43-1.49,8.36-6.77c-0.97-4.84-5.58-5.02-11.57-4.8c-0.71,0.5-1.2,0.75-1.6,1.6C351.8,66.35,352.19,72.77,354.11,73.7z M157.39,64.61c-0.96,0.48-1.65,0.48-2.14,1.43c-2.24,2.52-0.82,10.67,0.9,12.28C167.88,78.73,170.16,64.14,157.39,64.61z M599.44,77.44c-0.87-5.36-0.93-9.96-2.32-14.6c-7.14-23.77-20.78-39.88-40.23-51.27c-7.54-4.42-16.64-7.09-26.52-9.09 c-9.22-1.86-20.78-1.06-31.34-1.06C482,1.36,464.96,1.3,447.93,1.24h-31.16C303.97,0.83,191.14,0.41,78.34,0 c-1.95,0.18-3.92,0.35-5.87,0.53c-4.46,0.94-8.91,1.9-13.36,2.85c-17.19,5.39-31.56,15.4-41.3,28.3 C11.92,39.5,7.02,48.5,3.76,58.92c-13.52,43.13,11.87,79.88,37.56,95.24c7.26,4.34,15.77,7.42,25.1,9.62 c4.45,0.53,8.9,1.06,13.36,1.6h31.15c27.95,0.12,55.91,0.25,83.85,0.35c78.02,0.3,156.08,0.6,234.11,0.9 c22.48,0.05,44.98,0.11,67.46,0.18c13.34,0,27.93,1.01,38.99-1.79c32.96-8.32,54.98-30.49,62.84-63.92 C599.72,94.57,600.66,85.04,599.44,77.44z M119.65,61.78c-5.36,7.79-13.79,3.77-24.75,5.51c-1.61,0.07-3.21,0.12-4.82,0.18 c-2.41,1.02-1.66,5.42-0.53,7.12c2.02,0.52,4.49,0.18,6.94,0.18c10.19,0,16.82-0.01,20.66,6.23c1.2,1.96,2.35,4.9,1.42,8.01 c-1.86,6.28-7.05,7.93-14.24,9.09c-4.34,0.7-10.51-1.11-13.7,0.71c-1.58,5.02-0.31,12.74-2.32,17.27 c-3.74,8.46-19.6,10.51-25.64,2.66c-5.18-6.73-3.21-35.57-3.21-48.24c0-6.15-0.49-12.97,1.77-16.92c2.17-3.75,5.69-7.3,10.15-8.72 c1.61-0.3,3.21-0.6,4.82-0.89h23.49c5.38,0,11.36-0.42,15.13,1.24c3.42,1.51,6.17,4.94,6.94,9.09 C122.4,57.55,120.79,60.12,119.65,61.78z M191.39,120.88c-2.25,1.75-5.28,2.84-9.25,2.85c-12.66,0.03-14.67-11.42-19.95-18.87 c-1.72-2.44-3.94-3.97-6.4-5.7c-3.23,0.93-1.65,8.79-2.32,12.28c-1.32,6.93-6.08,14.26-15.66,12.47c-4.22-0.79-7.44-2.71-9.26-5.88 c-3.96-6.85-2.14-33.56-2.14-44.86c0-7.86-1.08-18.17,2.14-22.97c3.33-4.97,10.96-6.38,19.22-6.4c3.74-0.07,7.48-0.12,11.21-0.18 c18.15-0.22,30.3,5.24,34.19,19.22c0.85,3.04,1.42,8.27,0.53,11.92c-0.71,2.93-1.86,5.68-3.38,7.83c-1.43,2.03-4.17,4.11-4.62,6.94 c-0.53,3.32,3.44,6.02,4.8,7.83C194.54,102.76,198.21,115.58,191.39,120.88z M245.69,59.46c-1.34,4.68-5.74,4.5-8.01,7.83 c-0.87,1.3-0.97,3.72-1.24,5.53c-0.87,5.57-0.89,23.22,1.24,26.52c1.96,3.04,5.91,3.07,7.12,7.3c2.13,7.44-2.32,14.13-7.48,15.66 c-3.6,1.06-9.29,0.35-13.53,0.35c-11.72,0-19.24,0.75-22.07-8.19c-0.67-2.13-0.86-6.19,0-8.36c1.45-3.66,5.27-4.05,7.12-6.94 c1.53-2.39,1.98-21.15,1.24-25.99c-0.3-2.01-0.3-4.61-1.24-6.06c-2.81-4.34-10.9-3.7-8.19-14.6c1.13-4.57,4.83-7.08,9.43-8.19 c1.61-0.18,3.21-0.35,4.82-0.53C229.28,43.64,250.67,42.17,245.69,59.46z M318.15,103.07c-3,12.09-13.38,18.1-25.99,20.66 c-15.55,3.14-36.92-3.47-40.06-13.89c-1.01-3.37-0.34-7.3,1.06-9.62c6.48-10.57,20.57-0.46,28.84,1.61 c3.25,0.8,6.92,0.31,8.91-1.08c0.11-0.71,0.23-1.42,0.35-2.13c-1.87-3.44-6.26-3.21-10.51-4.27c-7.22-1.83-14.97-4.02-20.12-8.02 c-10.36-8.05-12.16-27.55-1.06-36.32c3.81-3,8.27-5.4,13.71-6.75c2.31-0.37,4.62-0.72,6.94-1.08c14.64-0.29,39.55,4.61,32.93,20.66 c-4.11,9.95-14.84,4.61-22.78,2.14c-3.7-1.16-8.91-2.02-11.04,1.06c0.05,0.18,0.11,0.35,0.18,0.53c1.01,3.71,11.77,4.79,15.84,6.06 C307.26,76.32,322.72,84.67,318.15,103.07z M394.34,103.43c-3.38,14.71-15.32,19.05-33.64,19.05c-4.09-0.05-8.19-0.11-12.28-0.18 c-7.56-1.13-14.34,0.55-19.06-3.03c-3.83-2.89-3.37-8.38-4.27-14.41c-0.05-12.35-0.12-24.69-0.18-37.04 c0-7.6-0.05-15.23,3.21-19.58c2.2-2.93,6.21-3.59,10.68-4.27c1.19-0.07,2.37-0.12,3.56-0.18c20.75-0.2,38.17-1.87,46.11,11.21 c1.61,2.67,3.47,7.04,2.66,11.92c-0.46,1.9-0.94,3.79-1.42,5.7c-0.89,2.06-5.7,6.7-5.16,8.54c0.79,1.54,2.76,1.99,4.09,3.03 C392.98,87.56,396.25,95.13,394.34,103.43z M466.44,111.08c-0.56,3.44-2.06,6.41-4.45,8.01c-7.56,5.06-47,4.56-54.12-0.35 c-4.07-2.8-4.52-7.68-5.53-13.7c-0.94-5.72-0.53-12.92-0.53-19.41c0-13.12-1.46-29.41,4.45-36.85c2.44-3.07,7.37-3.83,12.11-4.62 c1.72-0.12,3.44-0.25,5.16-0.35c14.72-0.14,44.52-2.77,41.31,13.7c-1.61,8.2-9.66,9.44-19.59,9.44c-4.86,0-15.53-1.56-15.84,3.03 c0.23,0.41,0.48,0.83,0.71,1.24c11.87,3.37,25.21-2.92,31.16,7.12c1.19,2.02,1.71,5.44,0.53,8.01c-2.71,5.91-8.7,6.59-17.45,6.59 c-4,0-12.87-0.79-14.42,1.79c-0.49,0.55-0.57,1.19-0.53,2.31c0.3,0.48,0.59,0.95,0.89,1.43c11.92,3.17,29.24-2.66,34.72,6.94 C465.75,106.66,466.81,108.86,466.44,111.08z M533.75,118.38c-3.47,2.84-8.05,2.7-13.71,3.56c-11.79,1.79-39.13,1.16-43.97-4.98 c-5.76-7.3-4.09-23.88-4.09-36.67c0-5.81-0.5-12.59,0.35-17.8c0.87-5.38,0.96-9.71,3.56-13.18c2.59-3.45,7.57-4.31,12.81-5.16 c1.72-0.12,3.44-0.25,5.17-0.35c14.71-0.15,45.72-2.73,41.47,14.07c-1.99,7.89-9.48,9.07-19.4,9.07c-4.39,0-13.98-1.21-15.5,1.79 c-0.05,0.41-0.11,0.82-0.18,1.24c1.6,2.92,7.34,2.14,11.76,2.13c9.97,0,17.35,0.05,20.29,7.12c0.42,1.02,1.17,2.44,0.89,4.11 c-1.39,8.29-7.78,9.6-17.61,9.6c-4.26,0-13.47-0.89-14.97,1.96c-0.41,0.7-0.37,1.77-0.18,2.67c2.01,2.48,8.62,1.77,13,1.77 c11.58,0,21.69-0.37,23.49,9.44C537.67,112.72,535.63,116.84,533.75,118.38z M354.64,91.15c-0.67,0.53-1.2,0.75-1.6,1.6 c-1.39,2.65-0.55,8.84,0.71,10.68c6.21,1.84,15.5,0.11,14.07-6.94C366.67,90.82,361.61,90.93,354.64,91.15z M354.11,73.7 c0.83,0.48,2.4,0.35,3.74,0.35c4.69,0,9.43-1.49,8.36-6.77c-0.97-4.84-5.58-5.02-11.57-4.8c-0.71,0.5-1.2,0.75-1.6,1.6 C351.8,66.35,352.19,72.77,354.11,73.7z M157.39,64.61c-0.96,0.48-1.65,0.48-2.14,1.43c-2.24,2.52-0.82,10.67,0.9,12.28 C167.88,78.73,170.16,64.14,157.39,64.61z M157.39,64.61c-0.96,0.48-1.65,0.48-2.14,1.43c-2.24,2.52-0.82,10.67,0.9,12.28 C167.88,78.73,170.16,64.14,157.39,64.61z M366.21,67.29c-0.97-4.84-5.58-5.02-11.57-4.8c-0.71,0.5-1.2,0.75-1.6,1.6 c-1.24,2.26-0.86,8.69,1.06,9.62c0.83,0.48,2.4,0.35,3.74,0.35C362.54,74.05,367.27,72.57,366.21,67.29z M367.82,96.48 c-1.15-5.66-6.21-5.55-13.18-5.33c-0.67,0.53-1.2,0.75-1.6,1.6c-1.39,2.65-0.55,8.84,0.71,10.68 C359.96,105.27,369.25,103.54,367.82,96.48z M367.82,96.48c-1.15-5.66-6.21-5.55-13.18-5.33c-0.67,0.53-1.2,0.75-1.6,1.6 c-1.39,2.65-0.55,8.84,0.71,10.68C359.96,105.27,369.25,103.54,367.82,96.48z M366.21,67.29c-0.97-4.84-5.58-5.02-11.57-4.8 c-0.71,0.5-1.2,0.75-1.6,1.6c-1.24,2.26-0.86,8.69,1.06,9.62c0.83,0.48,2.4,0.35,3.74,0.35C362.54,74.05,367.27,72.57,366.21,67.29 z M157.39,64.61c-0.96,0.48-1.65,0.48-2.14,1.43c-2.24,2.52-0.82,10.67,0.9,12.28C167.88,78.73,170.16,64.14,157.39,64.61z M157.39,64.61c-0.96,0.48-1.65,0.48-2.14,1.43c-2.24,2.52-0.82,10.67,0.9,12.28C167.88,78.73,170.16,64.14,157.39,64.61z M157.39,64.61c-0.96,0.48-1.65,0.48-2.14,1.43c-2.24,2.52-0.82,10.67,0.9,12.28C167.88,78.73,170.16,64.14,157.39,64.61z"></path> </g> </svg> 