<?xml version="1.0" encoding="UTF-8"?> <svg xmlns="http://www.w3.org/2000/svg" xmlns:xlink="http://www.w3.org/1999/xlink" version="1.1" id="Layer_1" x="0px" y="0px" viewBox="0 0 441.7 191.95" style="enable-background:new 0 0 441.7 191.95;" xml:space="preserve"> <style type="text/css"> .st0{fill:#FFFFFF;} </style> <g> <path class="st0" d="M359.42,95.44c-6.37,0-11.55,9.69-11.55,21.77c0,8.1,2.79,12.21,7.57,12.21c6.37,0,11.42-9.82,11.42-21.77 C366.86,99.42,364.06,95.44,359.42,95.44z"></path> <path class="st0" d="M199.86,118.93c0,6.24,2.13,8.89,5.58,8.89c5.31,0,11.69-8.76,13.68-22.3l1.19-8.62 c-1.33-1.07-3.05-1.86-5.71-1.86C206.77,95.04,199.86,106.85,199.86,118.93z"></path> <path class="st0" d="M29.95,0C13.41,0,0,13.41,0,29.95V162c0,16.54,13.41,29.94,29.95,29.94h381.81 c16.54,0,29.94-13.41,29.94-29.94V0H29.95z M98.22,126.24c3.85,0,7.3-0.8,10.35-2.13l1.19-8.5c0.27-2.12,0.8-5.44,0.8-7.17 c-2.92-0.13-4.25-0.13-7.04-0.13c-2.92,0-5.58,0-10.22,0.27c0.12-0.77,0.24-1.5,0.35-2.21h0.04c1.44-10.7,4.2-14.87,9.77-15.12 l0.02-0.01c3.15,0.08,5.83,0.08,9.2,0.08c10.49,0,14.6-0.13,23.63-0.53c-1.46,5.18-4.25,22.83-5.31,31.59l-1.59,14.47 c-7.83,5.04-18.32,10.22-35.31,10.22c-24.95,0-43.41-16.73-43.41-43.14c0-28.01,20.97-54.82,54.82-54.82 c12.61,0,23.76,3.85,31.99,9.69l-9.16,19.65c-5.71-4.51-14.2-7.96-23.5-7.96c-17.52,0-28.4,15.4-28.4,31.86 C76.44,118.27,85.47,126.24,98.22,126.24z M167.93,130.75c1.46,0,3.18-0.53,4.38-0.93l-1.86,13.94 c-5.04,1.86-11.17,3.05-16.61,3.05c-10.43,0-15.27-2.54-12.86-18.19l5.18-32.26c0.06-0.36,0.11-0.71,0.16-1.05h0.01 c1.39-10.35,3.68-14.46,8.88-14.95c6.06-0.29,12.15-0.72,17.62-1.39c-0.8,3.45-1.53,7.15-3.53,20.69l-3.64,25.64 C165,129.69,165.67,130.75,167.93,130.75z M162.22,69.69c-6.91,0-12.21-3.98-12.21-10.22c0-8.23,7.57-14.6,16.06-14.6 c6.9,0,12.21,3.85,12.21,10.22C178.28,63.31,170.85,69.69,162.22,69.69z M246.98,78.98c-0.01,0.04-0.03,0.09-0.04,0.14l-6.87,46.19 c-0.66,4.38,0.14,5.44,2.26,5.44c1.46,0,3.05-0.53,4.38-0.93l-1.86,13.94c-4.91,1.86-10.09,3.05-15.53,3.05 c-9.43,0-13.94-3.18-12.88-14.6c0.13-1.33,0.27-2.92,0.67-4.52c-6.11,13.54-15.8,19.38-23.76,19.38c-12.08,0-17.78-9.16-17.78-23.5 c0-21.11,16.06-45.79,36.9-45.79c6.1,0,12.34,2.39,15.79,5.84l0.08-0.01c1.38-2.21,3.21-3.3,5.71-3.53c6-0.28,7.44-0.44,12.76-1.09 l0.17-0.15l-0.02,0.14L246.98,78.98z M279.33,130.75c1.46,0,3.06-0.53,4.25-0.93l-1.86,13.94c-5.04,1.86-11.42,3.05-16.86,3.05 c-11.15,0-14.74-3.58-12.48-18.19l9.56-63.85c0.05-0.36,0.11-0.71,0.16-1.05h0.01c1.39-10.35,4.03-14.58,9.23-15.07 c6.07-0.29,12.08-0.88,17.55-1.53c-0.79,3.45-1.46,7.3-3.45,20.84l-8.5,57.34C276.28,129.69,277.07,130.75,279.33,130.75z M316.16,130.75c1.45,0,3.05-0.53,4.25-0.93l-1.86,13.94c-5.04,1.86-11.42,3.05-16.86,3.05c-11.15,0-14.74-3.58-12.48-18.19 l9.56-63.85c0.06-0.36,0.11-0.71,0.16-1.05h0.01c1.39-10.35,4.03-14.58,9.23-15.07c6.07-0.29,12.08-0.88,17.55-1.53 c-0.79,3.45-1.46,7.3-3.45,20.84l-8.49,57.34C313.11,129.69,313.91,130.75,316.16,130.75z M353.05,147.08 c-19.38,0-29.33-12.61-29.33-29.07c0-21.9,16.46-40.22,37.96-40.22c19.65,0,29.33,12.61,29.33,28.94 C391.01,128.76,374.69,147.08,353.05,147.08z"></path> </g> </svg> 