<?xml version="1.0" encoding="UTF-8"?> <svg xmlns="http://www.w3.org/2000/svg" xmlns:xlink="http://www.w3.org/1999/xlink" version="1.1" id="layer" x="0px" y="0px" viewBox="0 0 599.9 122.7" style="enable-background:new 0 0 599.9 122.7;" xml:space="preserve"> <style type="text/css"> .st0{fill:#FFFFFF;} </style> <path class="st0" d="M240.5,22.7c5.6,0,9.8-4.5,9.8-9.8s-4.5-9.8-9.8-9.8c-5.6,0-9.8,4.5-9.8,9.8C230.7,18.2,234.9,22.7,240.5,22.7 M44.3,94.7V93c-9.8-2.1-12.9-17.8-12.9-42c0-25.5,7.7-39.2,18.9-42V7.3C19.9,9,0,25.1,0,51C-0.1,75.9,17.7,93.3,44.3,94.7 M47.8,94.7c16.1-0.3,27.6-3.1,35-6.3V56.2H55.1v34.6c-1.7,0.7-4.9,1.7-7,2.1v1.7C48.2,94.7,47.8,94.7,47.8,94.7z M80.7,28V10.2 c-5.9-1.7-15.4-2.8-25.2-2.8v1.7C65.6,14,73,19.6,80.7,28 M119.8,94.4V93c-1-0.3-2.4-1.4-3.5-2.4c-3.1-3.8-3.5-11.2-3.5-29.4 c0-17.8,0.7-25.5,3.5-29c0.7-1,2.1-2.1,3.5-2.4v-1.4C100.9,29.8,85.2,42,85.2,61.3C85.6,80.8,100.9,93,119.8,94.4 M123.3,94.4 c18.9-1.4,34.3-13.6,34.3-33.2c0-19.2-15.4-31.5-34.3-32.9v1.4c1,0.3,2.4,1,3.5,2.4c2.8,3.8,3.5,11.2,3.5,29s-0.7,25.5-3.5,29.4 c-0.7,1-2.4,2.1-3.5,2.4V94.4z M160.7,93.3h26.2V0.6L160.7,3C160.7,3.1,160.7,93.3,160.7,93.3z"></path> <path class="st0" d="M224,93.3V38.4h12.6v-8.7H224V14c0-8,5.9-11.2,10.8-11.9V0.7c-17.1,1-37.4,4.9-37.4,23.1v5.9h-8v8.7h8v54.9H224 z"></path> <path class="st0" d="M353,26.6c7.3,0,13.3-5.9,13.3-13.3S360.4,0,353,0s-13.3,5.9-13.3,13.3S345.7,26.6,353,26.6"></path> <path class="st0" d="M400.9,122.7v-1c10.1-1,21-4.9,21-13.3c0-4.9-3.5-6.6-8.7-6.6h-26.6c-10.1,0-17.5-4.9-17.5-16.1 c0-9.1,8-14,14-16.8l0.7,0.7c-1,0.7-2.1,1.7-2.1,3.8c0,2.4,1.7,3.5,4.2,3.5h29c14.7,0,23.1,5.6,23.1,20.3 C438,110.8,422.3,121.3,400.9,122.7 M397.1,122.7c-20.3,0-30.1-3.5-30.1-10.5c0-5.2,5.9-8,17.1-8.7l0.3,0.7c-1.4,1-3.5,3.5-3.5,8 c0,6.6,6.6,8.7,15.7,9.4v1 M401.3,70.3v-1c2.4-0.7,4.2-6.6,4.2-19.6c0-13.3-2.1-19.6-4.2-19.9v-1.4c11.9,0.7,27.6,6.6,27.6,21 S413.2,69.9,401.3,70.3 M398.2,70.3c-11.9-0.7-28-6.6-28-20.6s16.1-20.6,28-21v1c-2.4,0.7-4.5,6.6-4.5,19.9s2.4,19.2,4.5,19.6V70.3 M432.8,37.4c-4.5,0-8.4-3.8-8.4-8.7c0-4.9,3.8-8.7,8.4-8.7c4.9,0,8.7,3.8,8.7,8.7C441.2,33.9,437.3,37.4,432.8,37.4 M288.4,93.3 v-1.7c11.5-1,17.5-10.8,17.5-40.6c0-31.1-5.6-39.5-17.8-40.6V8.3c29.7,0.3,49,12.2,49,42.7C337.3,78.7,318.8,93,288.4,93.3 M283.5,93.3h-30.4v-85h30.4V93.3 M366.3,93.3h-26.2V31.8l26.2-2.4V93.3 M576.1,94.4c-12.2,0-21.3-5.6-21.3-20.6v-35h-8v-9.1h8.4 v-14l26.9-9.4l-0.7,23.4h16.8v9.1h-16.8v32.5c0,7.7,3.1,10.5,10.1,10.5c2.8,0,7-1,8.4-1.7v2.1C596.1,88.8,588,94.4,576.1,94.4 M520.2,94.4V93c4.2-0.7,7.7-2.8,7.7-7.7c0-4.2-2.4-6.3-9.1-9.4l-8.4-3.8c-7.7-3.5-14.7-9.4-14.7-20.6c0-11.5,11.2-22,26.9-23.1v1.4 c-3.5,0.3-7.3,2.1-7.3,7c0,4.5,2.8,6.6,7.3,8.7l11.5,5.2c7,3.1,12.9,9.8,12.9,18.9C547.5,85,539.4,93.7,520.2,94.4 M517,94.4 c-6.6,0-15-1-19.9-2.4V75.6c6.6,7,14,14.7,19.9,17.5V94.4 M544,45.4c-5.6-7.7-11.2-12.9-17.8-15.4v-1.7c6.3,0,13.6,1.4,17.8,2.8 V45.4 M464.6,94.4c-22.7,0-32.5-16.4-32.5-33.2c0-17.8,14-31.5,32.2-32.9v1.4c-3.8,1-5.6,4.9-5.6,22.7c0,14.7,5.9,22.7,18.2,22.7 c7,0,13.3-1.7,17.1-4.9v2.4C491.5,80.4,484.2,94.4,464.6,94.4 M493.3,55.2h-31.5v-1.7l8.7-1.4c0-14-1.7-21.7-4.2-22.4v-1.4 C485.9,29.4,493.3,43.3,493.3,55.2"></path> </svg> 