<?xml version="1.0" encoding="UTF-8"?> <svg xmlns="http://www.w3.org/2000/svg" xmlns:xlink="http://www.w3.org/1999/xlink" version="1.1" id="Layer_1" x="0px" y="0px" viewBox="0 0 300 346.4" style="enable-background:new 0 0 300 346.4;" xml:space="preserve"> <style type="text/css"> .st0{fill:#FFFFFF;} </style> <g id="K2_Logo__x28_Italy_x29_"> <g> <path class="st0" d="M149.98,0L0,86.6V259.8l149.58,86.6L300,259.8V86.6L149.98,0z M279.76,200.19l0.02,47.94L150.2,322.94 c-0.44,0-48.73-29.21-48.73-29.21l-35.1-86.89l-0.03,67.01L20.63,247.9L20.6,98.51c0,0,25.17-13.49,45.35-24.97 c0,22.6,0.2,30.86,0.35,65.56l42.04-89.95l41.65-23.23l129.79,73.89l-0.11,51.08l-58.87,84.88L279.76,200.19z"></path> <polygon class="st0" points="235.16,129.59 149.43,261.56 108.67,174.97 150,76.66 150,173.21 202.76,142.75 202.67,98.78 235.08,117.27 "></polygon> </g> </g> </svg> 