<?xml version="1.0" encoding="UTF-8"?> <svg xmlns="http://www.w3.org/2000/svg" width="102.507" height="35.658" viewBox="0 0 102.507 35.658"><g id="Magnolia_Network_Logo" data-name="Magnolia Network Logo" transform="translate(0 0)"><path id="Mark" d="M503.908,375.144a17.829,17.829,0,1,0,17.829,17.829A17.829,17.829,0,0,0,503.908,375.144Zm11.2,24.783a.392.392,0,0,1-.391.391h-.451a.671.671,0,0,1-.472-.193l-9.208-9.032v8.834a.392.392,0,0,1-.391.391h-.566a.392.392,0,0,1-.391-.391v-9.955a.461.461,0,0,0-.142-.332l-3.731-3.562a.457.457,0,0,0-.317-.127h-.794a.457.457,0,0,0-.317.127L494.2,389.64a.461.461,0,0,0-.142.332v9.955a.392.392,0,0,1-.391.391H493.1a.391.391,0,0,1-.391-.391v-10.2a1.247,1.247,0,0,1,.384-.9L497,385.1a1.8,1.8,0,0,1,1.248-.5h.794a1.8,1.8,0,0,1,1.248.5l3.616,3.452,3.616-3.452a1.8,1.8,0,0,1,1.248-.5h.795a1.8,1.8,0,0,1,1.248.5l3.906,3.728a1.247,1.247,0,0,1,.384.9Zm-1.491-10.287a.461.461,0,0,1,.142.332V398.2l-8.878-8.71,3.578-3.415a.456.456,0,0,1,.317-.127h.795a.457.457,0,0,1,.317.127Z" transform="translate(-486.079 -375.144)" fill="#fff"></path><path id="Network" d="M925.357,547.119l2.846,3.837h-1.854l-1.911-2.653-.617.793v1.86h-1.574v-6.664h1.574v2.573l2.122-2.573h1.749Zm-6.763,1.628a2.213,2.213,0,0,0,1.266-2.068,2.443,2.443,0,0,0-2.712-2.388h-3.12v6.664H915.6v-1.889h1.435l1.34,1.889h1.854Zm-1.424-1.02H915.6v-2.1h1.568a1.052,1.052,0,1,1,0,2.1Zm-16.614.67-1.259-4.106H897.95l-1.259,4.106-1.152-4.106h-1.57l1.986,6.664H897.3l1.321-4.191,1.321,4.191h1.348l1.986-6.664h-1.57Zm-13.376-2.733H889.2v5.292h1.574v-5.292h2.017v-1.373h-5.608Zm-5.065,2.629h3.01v-1.339h-3.01V545.63h3.393v-1.339h-4.967v6.664h5v-1.339h-3.426Zm26.036-4.244a3.569,3.569,0,1,0,3.569,3.569A3.573,3.573,0,0,0,908.152,544.049Zm0,5.677a2.114,2.114,0,1,1,1.948-2.108A1.961,1.961,0,0,1,908.152,549.726Zm-31.689-1.34-3.326-4.1h-1.348v6.664h1.574v-4.095l3.326,4.095h1.348v-6.664h-1.574Z" transform="translate(-830.075 -525.782)" fill="#fff"></path><path id="Magnolia" d="M910.016,460.342a3.569,3.569,0,1,0,3.569,3.569A3.573,3.573,0,0,0,910.016,460.342Zm0,5.677a2.114,2.114,0,1,1,1.948-2.108A1.961,1.961,0,0,1,910.016,466.019Zm-7.451-5.435h1.574v6.664h-1.393l-3.281-4.072v4.072h-1.574v-6.664h1.393l3.281,4.073Zm27.186,0H928.4l-2.849,6.664h1.678l.484-1.24h2.714l.481,1.24h1.678Zm-1.535,4.129.855-2.188.849,2.188Zm-4.492,2.536H922.15v-6.664h1.574Zm-6.257-1.372h3.122v1.372h-4.7v-6.664h1.574Zm-28.627-1.965a3.542,3.542,0,0,1,3.547-3.547,3.264,3.264,0,0,1,2.457,1.019l-1.04,1.012a1.731,1.731,0,0,0-1.417-.613,2.136,2.136,0,0,0,0,4.259,1.485,1.485,0,0,0,1.659-1.477h-1.7v-1.3h3.23v1.037a3.011,3.011,0,0,1-3.188,3.153A3.542,3.542,0,0,1,888.84,463.911Zm-3.945-3.327H883.54l-2.848,6.664h1.678l.484-1.24h2.714l.481,1.24h1.678Zm-1.535,4.129.855-2.188.849,2.188Zm-6.459-4.129h1.843v6.664H877.17v-4.386l-1.9,3.147-1.9-3.147v4.386h-1.574v-6.664h1.843l1.635,2.7Z" transform="translate(-830.075 -451.128)" fill="#fff"></path></g></svg> 