<?xml version="1.0" encoding="UTF-8"?> <svg xmlns="http://www.w3.org/2000/svg" width="110.027" height="21.701" viewBox="0 0 110.027 21.701"><g id="Component_25_2" data-name="Component 25 – 2" transform="translate(0 0)"><path id="Path_99" data-name="Path 99" d="M74.646,260.378h.332c.664,0,.886.058.886.577a4.328,4.328,0,0,1-.111.808l-.387,2.655c-.166,1.039-.221,1.443-1.107,1.443h-.443Zm-3.819-3.463-3.1,21.355h4.317l1.218-8.484h.332c.664,0,.941.173.941.635v.462l-1.051,7.33H77.8l1-6.926a12.007,12.007,0,0,0,.111-1.27,2,2,0,0,0-1.605-2.193c2.048-.693,2.325-1.962,2.657-4.329l.332-2.193a18.737,18.737,0,0,0,.221-2.02c0-2.078-1.439-2.424-4.594-2.424H70.827Zm-6.309,4.444-1.827,12.524c-.111.693-.221,1.1-.83,1.1-.388,0-.554-.173-.554-.635v-.462l1.882-12.524c.111-.635.221-1.039.775-1.039.443,0,.664.173.664.635-.055,0-.055.116-.111.4m4.372-.115c.111-.923.221-1.558.221-2.078,0-2.193-1.494-2.309-4.538-2.309-2.269,0-3.708,0-4.538.981-.719.75-.886,1.9-1.107,3.463L57.1,274.056a14.5,14.5,0,0,0-.221,2.366c0,1.9,1.6,2.135,4.538,2.135,2.269,0,3.653-.058,4.483-.923.775-.808.941-1.962,1.162-3.521Zm-18.928-4.329-.5,3.521h2.269l-2.6,17.834h4.317l2.6-17.834h2.269l.443-3.521Zm-5.7,4.444-1.827,12.524c-.111.693-.221,1.1-.83,1.1-.388,0-.553-.173-.553-.635v-.462l1.826-12.524c.111-.635.221-1.039.775-1.039.443,0,.664.173.664.635a2.522,2.522,0,0,1-.055.4m4.372-.115c.111-.923.221-1.558.221-2.078,0-2.193-1.494-2.309-4.538-2.309-2.269,0-3.708,0-4.538.981-.719.75-.886,1.9-1.107,3.463l-1.826,12.755a14.492,14.492,0,0,0-.221,2.366c0,1.9,1.6,2.135,4.538,2.135,2.269,0,3.653-.058,4.483-.923.775-.808.941-1.962,1.162-3.521Zm-24.407-4.329-3.1,21.412h3.929l1.771-12.293h.166l-.221,12.293h2.435l3.321-12.293h.166l-1.771,12.293H34.8l3.1-21.355H32.583l-2.989,10.793h-.166l.111-10.793H24.226ZM125.4,260.378h.387c.609,0,.83.173.83.635a3.162,3.162,0,0,1-.111.75l-1.716,11.832c-.111.981-.166,1.327-1.107,1.327h-.443Zm-3.874-3.463-3.1,21.355h5.036c2.214,0,3.6-.058,4.483-.923.775-.75.941-1.847,1.162-3.463l1.827-12.582a13.405,13.405,0,0,0,.221-2.078c0-2.135-1.494-2.366-4.594-2.366h-5.036Zm-11.18,0-3.1,21.355h3.708l1.495-10.5h.166l.553,10.5h4.04l3.1-21.355H116.6l-1.6,10.966h-.166l-.443-10.966Zm-7.748,0-3.1,21.355h6.918l.5-3.463h-2.6l.941-6.522h2.6l.5-3.463h-2.6l.664-4.444h2.6l.5-3.463ZM95.4,260.378h.332c.664,0,.886.058.886.577a4.331,4.331,0,0,1-.111.808l-.388,2.655c-.166,1.039-.221,1.443-1.107,1.443h-.443Zm-3.819-3.463-3.1,21.355H92.8l1.218-8.484h.332c.664,0,.941.173.941.635v.462l-1.107,7.445H98.5l1-6.926a11.971,11.971,0,0,0,.111-1.27A2.005,2.005,0,0,0,98,267.938c2.048-.693,2.324-1.962,2.657-4.329l.332-2.193a18.714,18.714,0,0,0,.221-2.02c0-2.078-1.439-2.424-4.594-2.424H91.582Zm-9.63,0-.5,3.521h2.269l-2.6,17.834h4.317l2.6-17.834h2.269l.5-3.521Z" transform="translate(-21.127 -256.857)" fill="#fff" fill-rule="evenodd"></path></g></svg> 