<?xml version="1.0" encoding="UTF-8"?> <svg xmlns="http://www.w3.org/2000/svg" xmlns:xlink="http://www.w3.org/1999/xlink" version="1.1" id="Layer_1" x="0px" y="0px" viewBox="0 0 576 220" style="enable-background:new 0 0 576 220;" xml:space="preserve"> <style type="text/css"> .st0{display:none;} .st1{display:inline;fill:#1E1E1E;} .st2{fill:#FFFFFF;} </style> <g id="BACKGROUND" class="st0"> <rect x="-159.4" y="-337.4" class="st1" width="400" height="400"></rect> </g> <path class="st2" d="M492,0v72.7L441.6,0h-83.5v136h-74.1V0h-150v68H84V0H0v220h84v-68h49.9v68h308.2v-75l51.9,75h82V0H492z M199.9,202h-48v-68H66v68H18V18h48v68h85.9V18h48V202z M217.9,202V18h48v136h92.2l0,48H217.9z M558,202h-54.6l-76-109.9h-3.3V202 l-48,0V18h56l75.2,108.4h2.7V18h48V202z"></path> </svg> 