<?xml version="1.0" encoding="UTF-8"?> <svg xmlns="http://www.w3.org/2000/svg" xmlns:xlink="http://www.w3.org/1999/xlink" version="1.1" id="Layer_1" x="0px" y="0px" viewBox="0 0 600 160.5" style="enable-background:new 0 0 600 160.5;" xml:space="preserve"> <style type="text/css"> .st0{fill:#FFFFFF;} </style> <g id="NOVE_Logo__x28_Italy_x29_"> <g> <polygon class="st0" points="0,3.45 31.62,3.45 104.64,99.41 104.64,3.45 138.48,3.45 138.48,159.29 109.32,159.29 33.85,60.22 33.85,159.29 0,159.29 "></polygon> <polygon class="st0" points="314.08,3.45 351.93,3.45 392.67,113.21 433.41,3.45 470.37,3.45 407.37,160.42 377.09,160.42 "></polygon> <polygon class="st0" points="481.56,3.45 598.89,3.45 598.89,33.95 515.4,33.95 515.4,65.57 588.87,65.57 588.87,96.06 515.4,96.06 515.4,128.79 600,128.79 600,159.29 481.56,159.29 "></polygon> <path class="st0" d="M237.67,0C193,0,156.78,36.21,156.78,80.88c0,39.21,27.91,71.91,64.94,79.31l16.54-30.28 c-0.2,0.01-0.4,0.02-0.6,0.02c-27.08,0-49.05-21.96-49.05-49.04c0-27.08,21.96-49.05,49.05-49.05c27.09,0,49.05,21.97,49.05,49.05 c0,8.29-2.06,16.1-5.7,22.94h0.01l-29.04,56.68c37.85-6.76,66.57-39.83,66.57-79.62C318.55,36.21,282.34,0,237.67,0z M237.67,57.94c-12.67,0-22.94,10.27-22.94,22.94s10.27,22.94,22.94,22.94c12.67,0,22.94-10.27,22.94-22.94 S250.34,57.94,237.67,57.94z"></path> </g> </g> </svg> 