<?xml version="1.0" encoding="UTF-8"?> <svg xmlns="http://www.w3.org/2000/svg" xmlns:xlink="http://www.w3.org/1999/xlink" version="1.1" id="Layer_1" x="0px" y="0px" viewBox="0 0 347 185.7" style="enable-background:new 0 0 347 185.7;" xml:space="preserve"> <style type="text/css"> .st0{fill:#FFFFFF;} </style> <path class="st0" d="M0,20L41,0v129.7H0V20z"></path> <path class="st0" d="M279.7,0c-37.2,0-67.3,30.1-67.3,67.3s30.1,67.3,67.3,67.3S347,104.5,347,67.3l0,0C347,30.1,316.9,0,279.7,0z M280,96.4c-16,0-29-13-29-29c0-16,13-29,29-29c16,0,29,13,29,29c0,0,0,0,0,0C309,83.4,296,96.4,280,96.4z"></path> <path class="st0" d="M158.7,65.3c-7-2.6-14.4-4-21.9-4h-21.3V41h68.8l20-41H74.6v41l0,0v59.7h63c11.8,0,21.4,9.6,21.4,21.4 s-9.6,21.4-21.4,21.4c-11.8,0-21.4-9.6-21.4-21.4c0,0,0,0,0,0H74.6v1.4c0,34.4,27.9,62.2,62.2,62.2c34.4,0,62.2-27.9,62.2-62.2 C199,97.6,183,74.4,158.7,65.3L158.7,65.3z"></path> </svg> 