<?xml version="1.0" encoding="UTF-8"?> <svg xmlns="http://www.w3.org/2000/svg" xmlns:xlink="http://www.w3.org/1999/xlink" version="1.1" id="Layer_1" x="0px" y="0px" width="140.4px" height="46.4px" viewBox="0 0 140.4 46.4" style="enable-background:new 0 0 140.4 46.4;" xml:space="preserve"> <style type="text/css"> .st0{fill:#FFFFFF;} </style> <g id="OWN_Logo_2_"> <path id="OWN_1_" class="st0" d="M23.5,0C10.5,0,0,10.4,0,23.2C0,36,10.5,46.4,23.5,46.4C36.5,46.4,47,36,47,23.2 C47,10.4,36.5,0,23.5,0z M32.7,31.8c-0.4,1.8-1.1,3.3-2.2,4.5c-1.8,1.8-4,2.8-6.6,2.8c-2.6,0-4.8-0.9-6.6-2.8 c-1.1-1.2-1.9-2.7-2.2-4.5c-0.3-1.6-0.4-4.5-0.4-8.7c0-4.2,0.1-7.1,0.4-8.7c0.4-1.8,1.1-3.3,2.2-4.5c1.8-1.8,4-2.8,6.6-2.8 c2.6,0,4.8,0.9,6.6,2.8c1.1,1.2,1.9,2.7,2.2,4.5c0.3,1.6,0.4,4.5,0.4,8.7C33.2,27.3,33,30.2,32.7,31.8z M100,1L88.2,45.1l-8.9,0 l-7.5-25.6l-7.2,25.6h-9.3L43.5,1l7.5,0c0,0,2.7,0.3,3.4,3.3l6.5,22.6L68,1h7.4L83,27.4L89.1,5c0.9-3.2,3.2-4,3.2-4L100,1z M140.4,1l-7.1,0v27.2c0,0-15.7-20.2-19.3-25.1c-1.3-1.8-4-2-4.3-2.1l0,0h0h0l0,0L102,1l0,44.1h7.2c0,0,2.1-0.3,2.1-3.5 c0-2.5,0-16.1,0-22.9c0.3,0.4,17.7,23.5,18.8,24.9c1.1,1.4,3.9,1.5,3.9,1.5l6.4,0L140.4,1z"></path> </g> </svg> 