<?xml version="1.0" encoding="UTF-8"?> <svg xmlns:cc="http://creativecommons.org/ns#" xmlns:rdf="http://www.w3.org/1999/02/22-rdf-syntax-ns#" xmlns:svg="http://www.w3.org/2000/svg" xmlns:inkscape="http://www.inkscape.org/namespaces/inkscape" xmlns:sodipodi="http://sodipodi.sourceforge.net/DTD/sodipodi-0.dtd" xmlns:dc="http://purl.org/dc/elements/1.1/" xmlns="http://www.w3.org/2000/svg" xmlns:xlink="http://www.w3.org/1999/xlink" version="1.1" id="svg2985" sodipodi:docname="Quest_2018.svg" inkscape:version="1.0 (4035a4fb49, 2020-05-01)" x="0px" y="0px" viewBox="0 0 1066.6 254.7" style="enable-background:new 0 0 1066.6 254.7;" xml:space="preserve"> <style type="text/css"> .st0{fill:#FFFFFF;} </style> <g id="g2993" transform="matrix(1.25,0,0,-1.25,-331.53876,630.85674)" inkscape:groupmode="layer" inkscape:label="Freeview-Channel-Guide_110414A"> <g id="g6257" transform="matrix(15.410647,0,0,15.410647,-3340.9172,-1556.9113)"> <g id="g6259"> <g id="g6265"> <g id="g6267"> <path id="path6275" inkscape:connector-curvature="0" class="st0" d="M270.8,129.8c0-2.3,1.8-3.3,3.2-3.9l0,0 c0.8-0.4,1.5-0.8,1.5-1.3l0,0c0-0.6-0.3-0.9-0.9-0.9l0,0c-0.6,0-1.7,0.9-2.1,1.3l0,0c-0.1,0.1-0.3,0.2-0.5,0.2l0,0 c-0.2,0-0.3-0.1-0.4-0.2l0,0l-1.3-1.5c-0.4-0.5-0.1-0.8,0-0.9l0,0c0.2-0.2,1.9-1.9,4.3-1.9l0,0c2.6,0,4.6,1.8,4.6,4.1l0,0 c0,2.4-1.9,3.4-3.2,4.1l0,0c-0.8,0.4-1.5,0.8-1.5,1.2l0,0c0,0.4,0.3,0.6,0.6,0.6l0,0c0.6,0.1,1.1-0.2,1.3-0.3l0,0 c0.2-0.1,0.4-0.3,0.4-0.3l0,0c0.1-0.1,0.2-0.1,0.4-0.1l0,0c0.2,0,0.3,0.1,0.5,0.3l0,0l1,1.5c0.2,0.3,0.3,0.6-0.1,1l0,0 c-0.8,0.6-1.7,1.2-3.4,1.2l0,0C272.6,133.8,270.8,132.1,270.8,129.8 M235.9,131.9c-2.5-2.5-2.5-6.6,0-9.2l0,0 c1.2-1.2,2.7-1.8,4.2-1.9l0,0l0,0c0,0,3.9-0.1,6.9-0.1l0,0c0,3.7-0.1,6.9-0.1,6.9l0,0c-0.1,1.5-0.7,3-1.9,4.2l0,0 c-1.3,1.3-2.9,1.9-4.6,1.9l0,0C238.9,133.8,237.2,133.1,235.9,131.9 M238.5,125.3c-1.1,1.1-1.1,2.9,0,4l0,0 c1.1,1.1,2.9,1.1,4,0l0,0c1.1-1.1,1.1-2.9,0-4l0,0c-0.5-0.5-1.3-0.8-2-0.8l0,0C239.8,124.5,239.1,124.7,238.5,125.3 M255.8,133.6c-0.4,0-0.6-0.2-0.6-0.6l0,0v-7.2c0-1.3-0.5-2-1.4-2l0,0c-0.3,0-1.3,0-1.3,2l0,0v7.2c0,0.4-0.2,0.6-0.6,0.6l0,0 l-2.4,0c-0.4,0-0.6-0.2-0.6-0.6l0,0v-7.2c0-3.4,1.6-5.2,4.9-5.2l0,0c3.3,0,5,1.8,5,5.2l0,0v7.2c0,0.4-0.2,0.6-0.6,0.6l0,0 L255.8,133.6z M280.6,133.6c-0.4,0-0.6-0.2-0.6-0.6l0,0v-2c0-0.4,0.2-0.6,0.6-0.6l0,0h2.3v-9.2c0-0.4,0.2-0.6,0.6-0.6l0,0h2.4 c0.4,0,0.6,0.2,0.6,0.6l0,0v9.2h2.3c0.3,0,0.6,0.2,0.6,0.6l0,0v2.1c0,0.3-0.2,0.6-0.6,0.6l0,0L280.6,133.6z M261.4,133.6 c-0.4,0-0.6-0.2-0.6-0.6l0,0v-11.7c0-0.4,0.2-0.6,0.6-0.6l0,0h7.1c0.4,0,0.6,0.2,0.6,0.6l0,0v2c0,0.4-0.2,0.6-0.6,0.6l0,0h-4.1 v1.7h3.6c0.4,0,0.6,0.2,0.6,0.6l0,0l0,2c0,0.4-0.2,0.6-0.6,0.6l0,0h-3.6v1.7h4.1c0.4,0,0.6,0.2,0.6,0.6l0,0v2 c0,0.4-0.2,0.6-0.6,0.6l0,0L261.4,133.6z"></path> </g> </g> </g> </g> </g> </svg> 