<?xml version="1.0" encoding="UTF-8"?> <svg xmlns="http://www.w3.org/2000/svg" xmlns:xlink="http://www.w3.org/1999/xlink" version="1.1" id="svg2985" x="0px" y="0px" viewBox="0 0 1529.6 959.5" style="enable-background:new 0 0 1529.6 959.5;" xml:space="preserve"> <style type="text/css"> .st0{fill:#FFFFFF;} </style> <g id="g2993"> <g id="g6257"> <g id="g6259"> <g id="g6265"> <g id="g6267"> <path id="path6275" class="st0" d="M886.4,76.8c0,44.7,35.4,62.7,61.2,75.9l0,0c16,8.1,29.8,15.2,29.8,24.9l0,0 c0,10.9-6,16.8-16.8,16.8l0,0c-12.4,0-33.2-17.8-40.2-24.7l0,0c-2-2-5-4.6-9.1-4.6l0,0c-3,0-5.7,1.4-8.3,4.3l0,0L878,198.9 c-7.7,8.7-1.8,15.5,0.3,17.4l0,0c3.6,3.8,36.7,37.4,82.3,37.4l0,0c50.1,0,87.9-33.7,87.9-78.5l0,0c0-46.3-36-64.8-62.2-78.4 l0,0c-15.1-7.8-28.1-14.5-28.1-23l0,0c0-8.4,6-11.9,11.3-12.5l0,0c11.7-1.2,20.4,3.6,24.7,6.3l0,0c4.3,2.7,7.8,5.2,7.8,5.2l0,0 c2.4,1.3,4.2,2.2,7.1,2.2l0,0c3.6,0,6.9-1.8,8.8-4.8l0,0l19.7-29.1c3.6-5.1,6.7-11.9-2.3-18.8l0,0C1020.8,11.4,1001.6,0,969,0 l0,0C920.4,0,886.4,31.6,886.4,76.8 M209.5,36.6c-48.8,48.8-48.8,128,0,176.8l0,0c21.6,21.7,50.5,34.6,81.1,36.4l0,0 c0,0,74.5,2.5,133.8,1.7l0,0c0.9-70.9-1.7-133.8-1.7-133.8l0,0c-1.7-30.6-14.7-59.5-36.4-81.1l0,0C362.8,13.1,331,0,297.9,0 l0,0C264.7,0,232.9,13.1,209.5,36.6 M259.6,163.3c-21.1-21.1-21.1-55.4,0-76.5l0,0c21.1-21.1,55.4-21.1,76.5,0l0,0 c21.1,21.1,21.1,55.4,0,76.5c0,0,0,0,0,0l0,0c-10.1,10.2-23.9,15.9-38.2,15.8l0,0C283.5,179.1,269.7,173.4,259.6,163.3 M596.1,2.8c-6.8,0-11.2,4.5-11.2,11.4l0,0v139.5c0,25.1-9.6,38.3-27.6,38.3l0,0c-6.4,0-25.9,0-25.9-38.3l0,0V14.2 c0-6.9-4.4-11.4-11.2-11.4l0,0l-45.7,0c-6.8,0-11.2,4.5-11.2,11.4l0,0v139.5c0,66.4,31.7,100.1,94.1,100.1l0,0 c62.6,0,95.7-34.6,95.7-100.1l0,0V14.2c0-6.9-4.4-11.4-11.2-11.4l0,0L596.1,2.8z M1075.3,2.8c-6.9,0-11.4,4.5-11.4,11.4l0,0 v38.1c0,6.9,4.5,11.4,11.4,11.4h44.2v176.4c0,6.9,4.5,11.4,11.4,11.4h46.5c6.9,0,11.4-4.5,11.4-11.4l0,0V63.7h44.3 c6.7,0,11.1-4.2,11.4-10.6l0,0V13.5c-0.3-6.5-4.7-10.7-11.4-10.7l0,0L1075.3,2.8z M703.3,2.9c-6.9,0-11.4,4.5-11.4,11.4l0,0 v225.9c0,6.9,4.5,11.4,11.4,11.4h136.6c6.9,0,11.4-4.5,11.4-11.4l0,0v-38.1c0-6.9-4.5-11.4-11.4-11.4h-78.6v-33.2h69.2 c6.9,0,11.4-4.5,11.4-11.4l0,0l0-38.1c0-6.9-4.4-11.4-11.4-11.4h-69.2V63.8h78.6c6.9,0,11.4-4.5,11.4-11.4l0,0V14.3 c0-6.9-4.5-11.4-11.4-11.4l0,0L703.3,2.9z"></path> </g> </g> </g> </g> </g> <path class="st0" d="M883.5,494.9c14.7,0,27.6-11.7,27.6-25.9v-95.9c0.9-14.2-10.3-26.7-25-28.4H539.6c-14.7-0.8-27.6,10.8-28.4,25 v561.3c-0.9,14.2,10.3,26.7,25,28.4h347.4c14.7,0,27.6-11.7,27.6-25.9v-95.1c0.9-14.2-10.3-26.7-25-28.4h-210v-83.4h184.1 c15.2,1,28.4-10.6,29.3-25.9v-96.8c1.7-14.2-7.8-27.5-23.3-30H676.1v-79.2L883.5,494.9L883.5,494.9z"></path> <path class="st0" d="M1213.1,494c80.2-3.3,147.4,55.9,151.7,133.5v40.9c0,70.1-50.9,131-123.3,141c-10.3,1.5-20.7,1.8-31,0.8h-62.9 V494H1213.1z M1529.5,656.7c0-274.4-221.5-312-283.6-312H1020c-14.7-0.8-27.6,10.8-28.4,25v561.3c-0.9,14.2,10.3,26.7,25,28.4h225.8 c162-5,292.2-136.8,287-293.6C1529.5,662.5,1529.5,660,1529.5,656.7L1529.5,656.7z"></path> <path class="st0" d="M225.1,484c31.9-2.5,60.3,20,62.9,50.9v10c0,52.5-46.5,58.4-76.7,58.4h-57.8V484L225.1,484L225.1,484z M446.7,539.9c6.9-100.9-72.4-188.5-177.6-195.2c-6,0-12.9-0.8-19,0H28.6C14,343.9,1,353.9,0.2,368.1v562.2 c-1.7,14.2,9.5,26.7,24.1,28.4h102.6c14.2,1,26.6-9.7,27.6-24c0-0.1,0-0.1,0-0.2v-196h25l98.3,205.2c4.3,8.3,12.9,14.2,22.4,14.2 h111.2c15.5,0,27.6-12.5,26.7-27.5c0-4.2-0.9-8.3-3.4-11.7L333.8,714.2C406.2,683.4,447.5,614.1,446.7,539.9L446.7,539.9z"></path> </svg> 