<?xml version="1.0" encoding="UTF-8"?> <svg xmlns="http://www.w3.org/2000/svg" xmlns:xlink="http://www.w3.org/1999/xlink" version="1.1" id="Layer_1" x="0px" y="0px" viewBox="0 0 509.77 147.22" style="enable-background:new 0 0 509.77 147.22;" xml:space="preserve"> <style type="text/css"> .st0{fill:#FFFFFF;} </style> <g id="RealTime_Logo__x28_Italy_x29_"> <path class="st0" d="M488.73,0H257.38v147.22h231.35c11.62,0,21.04-9.41,21.04-21.03V21.03C509.77,9.42,500.35,0,488.73,0z M324.23,52.05c0,0.66-0.53,1.2-1.2,1.2h-15.71v50.71c0,0.66-0.53,1.2-1.2,1.2h-9.6c-0.66,0-1.2-0.54-1.2-1.2V53.25h-15.71 c-0.66,0-1.2-0.54-1.2-1.2v-8.79c0-0.66,0.54-1.2,1.2-1.2h43.42c0.67,0,1.2,0.54,1.2,1.2V52.05z M339.85,103.96 c0,0.66-0.53,1.2-1.2,1.2h-9.6c-0.66,0-1.19-0.54-1.19-1.2V59.27c0-0.66,0.53-1.2,1.19-1.2h9.6c0.67,0,1.2,0.54,1.2,1.2V103.96z M339.85,51c0,0.66-0.53,1.2-1.2,1.2h-9.6c-0.66,0-1.19-0.54-1.19-1.2v-7.74c0-0.66,0.53-1.2,1.19-1.2h9.6c0.67,0,1.2,0.54,1.2,1.2 V51z M413.86,104.01c-0.04,0.6-0.51,1.09-1.11,1.14l-0.01,0.01h-9.69c-0.64,0-1.17-0.51-1.2-1.15h-0.01V75.7 c0-2.13-0.7-7.23-6.79-7.23c-4.18,0-7.08,3.12-7.08,7.23v28.31h-0.01c-0.04,0.64-0.56,1.15-1.21,1.15h-9.69 c-0.64,0-1.16-0.51-1.19-1.15h-0.01V75.7c0-2.12-0.64-7.23-6.81-7.23c-4.12,0-7.02,3.12-7.02,7.23v28.31h-0.01 c-0.04,0.64-0.55,1.15-1.2,1.15h-9.69c-0.65,0-1.17-0.51-1.2-1.15h-0.01V59.48c0-0.66,0.54-1.2,1.21-1.2h9.14 c0.67,0,1.21,0.54,1.21,1.2v2.6c2.54-3.09,6.09-4.99,10.53-4.99c5.05,0,9.33,2.14,12.18,5.78c2.93-3.56,7.2-5.78,12.42-5.78 c10.92,0,17.25,7.28,17.25,17.96V104.01z M468.76,85.36c-0.04,0.75-0.63,1.07-1.2,1.07h-34.24c1.54,5.73,6.08,9.27,11.72,9.27 c3.78,0,7.59-1.48,9.56-4.86c0.2-0.34,0.49-0.59,1.04-0.59h10.51c0.65,0.04,1.16,0.55,1.16,1.2c0,0.16-0.04,0.32-0.09,0.46 l-0.01,0.03c-3.18,8.61-11.14,14.31-22.08,14.31c-13.18,0-24-10.91-24-24.46c0-13.54,10.82-24.63,24-24.63 C458.68,57.16,469.96,67.47,468.76,85.36z M445.04,67.7c-5.46,0-9.82,3.46-11.55,8.91h23.28C455.31,71.16,450.77,67.7,445.04,67.7z "></path> <path class="st0" d="M77.42,62.43c0,6.36-3.36,9.18-8.91,9.18H54.05V53.25h14.46C74.06,53.25,77.42,56.06,77.42,62.43z"></path> <path class="st0" d="M118.93,67.78c-5.45,0-9.82,3.45-11.55,8.91h23.28C129.2,71.23,124.66,67.78,118.93,67.78z M173.33,68.43 c-6.63,0-12,5.82-12,13.46c0,7.45,5.37,13.18,12,13.18c6.64,0,12-5.91,12-13.18C185.33,74.43,179.97,68.43,173.33,68.43z M173.33,68.43c-6.63,0-12,5.82-12,13.46c0,7.45,5.37,13.18,12,13.18c6.64,0,12-5.91,12-13.18 C185.33,74.43,179.97,68.43,173.33,68.43z M118.93,67.78c-5.45,0-9.82,3.45-11.55,8.91h23.28 C129.2,71.23,124.66,67.78,118.93,67.78z M22.33,0C9.42,0,0,9.42,0,21.03v105.16c0,11.62,9.42,21.03,21.03,21.03h231.48V0H22.33z M90.65,105.16h-11.1c-0.48,0-0.89-0.29-1.09-0.69v-0.01L65.85,82.61h-11.8v21.35c0,0.66-0.53,1.2-1.2,1.2h-9.6 c-0.66,0-1.2-0.54-1.2-1.2v-60.7c0-0.66,0.54-1.2,1.2-1.2H68.6c13.18,0,20.82,8,20.82,20.37c0,8.32-4.07,14.98-10.88,18.16 l13.09,22.68c0.03,0.04,0.05,0.09,0.08,0.13l0.01,0.03c0.08,0.16,0.13,0.34,0.13,0.53C91.85,104.62,91.31,105.16,90.65,105.16z M142.65,85.43c-0.04,0.76-0.63,1.08-1.2,1.08h-34.24c1.54,5.72,6.08,9.27,11.72,9.27c3.78,0,7.59-1.48,9.56-4.86 c0.2-0.34,0.49-0.59,1.04-0.59h10.51c0.65,0.03,1.16,0.55,1.16,1.19c0,0.17-0.04,0.33-0.09,0.47l-0.01,0.03 c-3.18,8.61-11.14,14.31-22.08,14.31c-13.18,0-24-10.92-24-24.46c0-13.54,10.82-24.64,24-24.64 C132.57,57.23,143.85,67.55,142.65,85.43z M197.33,103.96c0,0.66-0.54,1.2-1.2,1.2h-9.05c-0.67,0-1.2-0.54-1.2-1.2v-3.8 c-3.64,3.81-8.64,6-14.37,6c-12.18,0-22.27-10.55-22.27-24.37c0-13.9,10.09-24.45,22.27-24.45c5.73,0,10.73,2.18,14.37,6v-3.8 c0-0.66,0.53-1.2,1.2-1.2h9.05c0.66,0,1.2,0.54,1.2,1.2V103.96z M231.07,103.67c0,0.6-0.44,1.07-1.01,1.17l-0.03,0.03l-1.24,0.15 c-13.72,1.45-20.98-6.73-20.98-19.53V36.26c0-0.67,0.54-1.21,1.2-1.21h9.67c0.67,0,1.21,0.54,1.21,1.21v49.23 c0,6.63,3,8.99,8.9,8.63l0.98-0.08l0.01,0.01c0.03-0.01,0.06-0.02,0.09-0.02c0.66,0,1.2,0.54,1.2,1.2V103.67z M173.33,68.43 c-6.63,0-12,5.82-12,13.46c0,7.45,5.37,13.18,12,13.18c6.64,0,12-5.91,12-13.18C185.33,74.43,179.97,68.43,173.33,68.43z M118.93,67.78c-5.45,0-9.82,3.45-11.55,8.91h23.28C129.2,71.23,124.66,67.78,118.93,67.78z M118.93,67.78 c-5.45,0-9.82,3.45-11.55,8.91h23.28C129.2,71.23,124.66,67.78,118.93,67.78z M118.93,67.78c-5.45,0-9.82,3.45-11.55,8.91h23.28 C129.2,71.23,124.66,67.78,118.93,67.78z"></path> </g> </svg> 